<mxfile host="app.diagrams.net" modified="2024-07-04T14:46:11.878Z" agent="Mozilla/5.0 (Windows NT 10.0; Win64; x64) AppleWebKit/537.36 (KHTML, like Gecko) Chrome/126.0.0.0 Safari/537.36" etag="Psj9pdQlawqCZ3iadJWE" version="24.6.4" type="device">
  <diagram name="Page-1" id="ldDA0Z3BHkvQoZkAB4m_">
    <mxGraphModel dx="812" dy="305" grid="0" gridSize="10" guides="1" tooltips="1" connect="1" arrows="1" fold="1" page="0" pageScale="1" pageWidth="850" pageHeight="1100" background="#ffffff" math="0" shadow="0">
      <root>
        <mxCell id="0" />
        <mxCell id="1" parent="0" />
        <mxCell id="z4CboNgU-45hb8BK9_HJ-2" value="" style="shape=image;verticalLabelPosition=bottom;labelBackgroundColor=default;verticalAlign=top;aspect=fixed;imageAspect=0;image=data:image/png,iVBORw0KGgoAAAANSUhEUgAABE4AAAQ3CAYAAADmESuFAAAAAXNSR0IArs4c6QAAAARnQU1BAACxjwv8YQUAAAAJcEhZcwAADsMAAA7DAcdvqGQAAP+lSURBVHhe7N0HuFTF/f/xg4oVO7bYC/pTCVjAEjWKXf6CCBJjC2rQqCExKCm2GBODRMWGSsSuWLBgAUvsigRERaKo2LsIUaMmIrb4z3t2hns4nL13y+nn83qePJ691wh37+7szHe+8zntvvsfT0REREREREREFrCQ/aeIiIiIiIiIiASocCIiIiIiIiIiUoUKJyIiIiIiIiIiVahwIiIiIiIiIiJShQonIiIiIiIiIiJVqHAiIiIiIiIiIlKFCiciIiIiIiIiIlWocCIiIiIiIiIiUoUKJyIiIiIiIiIiVahwIiIiIiIiIiJShQonIiIiIiIiIiJVqHAiIiIiIiIiIlKFCiciIiIiIiIiIlWocCIiIiIiIiIiUoUKJyIiIiIiIiIiVahwIiIiIiIiIiJShQonIiIiIiIiIiJVqHAiIiIiIiIiIlKFCiciIiIiIiIiIlWocCIiIiIiIiIiUoUKJyIiIiIiIiIiVahwIiIiIiIiIiJShQonIiIiIiIiIiJVqHAiIiIiIiIiIlKFCiciIiIiIiIiIlWocCIiIiIiIiIiUoUKJyIiIiIiIiIiVahwIiIiIiIiIiJShQonIiIiIiIiIiJVqHAiIiIiIiIiIlKFCiciIiIiIiIiIlWocCIiIiIiIiIiUoUKJyIiIiIiIiIiVahwIiIiIiIiIiJShQonIiIiIiIiIiJVqHAiIiIiIiIiIlKFCiciIiIiIiIiIlWocCIiIiIiIiIiUoUKJyIiIiIiIiIiVahwIiIiIiIiIiJShQonIiIiIiIiIiJVqHAiIiIiIiIiIlKFCiciIiIiIiIiIlWocCIiIiIiIiIiUoUKJyIiIiIiIiIiVahwIiIiIiIiIiJShQonIiIiIiIiIiJVqHAiIiIiIiIiIlKFCiciIiIiIiIiIlWocCIiIiIiIiIiUoUKJyIiIiIiIiIiVahwIiIiIiIiIiJShQonIiIiIiIiIiJVqHAiIiIiIiIiIlKFCiciIiIiIiIiIlWocCIiIiIiIiIiUoUKJyIiIiIiIiIiVahwIiIiIiIiIiJShQonIiIiIiIiIiJVtPvuf+y1VPGf//zHe+ONN7x33nnH++CDD7wPP/zQ++STT7zPP//c+/LLL73//ve/3sILL+wtuuiiXocOHbxll13WW2mllbxVV13VW2uttbx1113XW3LJJe1/TURERERERETyQoWTEK+//rr31FNPec8++6z3wgsveG+//bb9TuPWWWcdb5NNNvE222wzb8stt/TWXntt+x0RERERERERySoVTqypU6d6jzzyiPf4449HUihpC10oO+ywg7fTTjt5Xbp0sV8VERERERERkSwpdeGEIzd33nmnd/fdd3tvvvmm/WryNthgA69nz55e7969veWWW85+VURERERERETSVsrCycsvv+yNGTPGu+OOO+xXarfKKqt4K6+8srf88subPJPFFlvMW2ihhUzOydy5c00eyr/+9S9v1qxZ3j//+U/7/6pNu3btvH79+nn777+/6UgRERERERERkXSVqnBCwOtVV13l3XXXXfYrrfu///s/r2vXrt7GG2/sbbjhhianhADYWlFIoZOFQg1ZKf/4xz+8V155xX63dfvuu6936KGHequvvrr9ioiIiIiIiIgkrRSFk6+++sr761//6l1zzTX2K+Ho+Nh5551N9si2227rrbjiivY70Zk9e7Y3adIk77HHHvMeffRR+9XqfvrTn3pHH320fSQiIiIiIiIiSSp84eS+++7zLrjgAnMb4Wo6d+7s9erVy9tzzz29pZZayn41fp9++ql3zz33eOPHj/dmzJhhv7ogbml87LHHejvuuKP9ioiIiIiIiIgkobCFky+//NL7y1/+YsJfq+GONj/60Y+8rbbayn4lPRMnTjS5K3//+9/tVxbE3/XXv/616YwRERERERERkfgVsnDyzDPPeH/+85+r3innBz/4gXfYYYd5m2++uf1KdjzxxBMmh+XJJ5+0X5nfRhtt5J100kneJptsYr8iIiIiIiIiInEpXOFk7Nix3tChQ+2j+a255pomL2T33Xe3X8kuju9cfPHFJhMliLv4/OEPfzC3MBYRERERERGR+BSqcEKh4YorrrCP5nfAAQd4v/rVr7yFF17YfiX7vvjiC++8887zbr31VvuV+R1zzDHe4Ycfbh+JiIiIiIiISNQKUzihy4Ruk6COHTt6J5xwQq6DVQm4PeOMM7x///vf9istDjzwQO+4446zj0REREREREQkSoUonHBshaMtQdxS+Pe//7230kor2a/k1zvvvOP98Y9/NPktQf379/d++9vf2kciIiIiIiIiEpXcF07+9Kc/eXfccYd91KJfv36m06RoTj31VO+uu+6yj1r8+Mc/9oYMGWIfiYiIiIiIiEgUFv4D7Ro5dc4553i33HKLfdRi4MCB3uDBg+2jYunRo4c3Z84c79lnn7VfqZg+fbr37bffet27d7dfEREREREREZFmLWT/mTvXXnutd/3119tHLX7+8597Rx11lH1UTITchoXCXn755aGFJBERERERERFpTC6P6jz66KPe8ccfbx+1oGBCt0lZjBgxwrv66qvtoxbcXWirrbayj0RERERERESkUbnrOJk5c6bJNQk66KCDSlU0wS9+8Quvb9++9lGL008/3fv000/tIxERERERERFpVO4KJ8OGDfM++eQT+6hi1113LWymSVtOPPFEb7vttrOPKt5//33zPImIiIiIiIhIc3JVOCHXZOLEifZRxQYbbOCddtpp9lE5ke/7ve99zz6quP/++71bb73VPhIRERERERGRRuQm4+SNN97w+vfvbx+1uPLKK73vf//79lF5PfHEEyYY12+JJZYwxZOVV17ZfkVERERERERE6pGbjhMCT4OOPfZYFU2srbfe2jviiCPso4ovvvjCu+iii+wjEREREREREalXLgonDz/8sPmfH3eNOeSQQ+wjwc9+9jOvc+fO9lHFXXfd5U2ZMsU+EhEREREREZF65KJwwnGcoEGDBtkr8Qt7Xq644gp7JSIiIiIiIiL1yHzhhI6JF154wT6qOPDAA71NNtnEPhK/bt26efvss499VPHUU095jzzyiH0kIiIiIiIiIrXKfOHkhhtusFcViy++uHf44YfbRxLmpz/9qb1qcf3119srEREREREREalVpgsnjz76qDdjxgz7qIJck+WWW84+kjDcmpiuHL+pU6eazhMRERERERERqV2mCyd33HGHvapo3769d8ABB9hH0pqw5+n222+3VyIiIiIiIiJSi8wWTt555x3vscces48q+vbt6y2zzDL2kbRmtdVW83r16mUfVdx7773exx9/bB+JiIiIiIiISFsyWzi577777FWLYOiptK537972qkXY8yoiIiIiIiIi4TJbOHnwwQftVcXmm2/ubbjhhvaR1CLsOXvooYfslYiIiIiIiIi0JZOFk9dff917+eWX7aOK3XbbzV5JPYLPGyGxs2fPto9EREREREREpDWZLJxMmjTJXrXYaaed7JXUY8cdd7RXLcKeXxERERERERFZUCYLJ08++aS9qvj+97/vrbzyyvaR1GO99dYz//ObMmWKvRIRERERERGR1mSycPLMM8/Yq4qtttrKXkkjunfvbq8qgs+viIiIiIiIiITLXOGEbJPPP//cPqog5FQaF3z+yDh5//337SMRERERERERqSZzhZMZM2bYqxadO3e2V9KIsOcv7HkWERERERERkfllrnDy2muv2auKtdde2+vQoYN9JI1YddVVvRVXXNE+qgg+zyIiIiIiIiKyoMwVTt5++217VbHuuuvaK2lG8Hl866237JWIiIiIiIiIVJO5wsl7771nryrWXHNNeyXNCD6PyjgRERERERERaVvmCicEl/pxzESaF3weg8+ziIiIiIiIiCwoU4WTr776yvvPf/5jH1UEszmkMR07drRXFR9//LG9EhEREREREZFqMlU4CRZNsOyyy9oracYyyyxjryooUvE/EREREREREakuU4WTL774wl61WGKJJeyVNCPseQx7vkVERERERESkRaYKJ99++629arHIIovYK2lG2PP4zTff2CsRERERERERCZO5cFhJTrt27eyViIiIiIiIiITJVOGkffv29qqFcjiiEfY8qptHREREREREpHWZKpyE5XDMmTPHXkkzwp7HJZdc0l6JiIiIiIiISJhMFU6Cd37BJ598Yq+kGcHnkaKJOk5EREREREREWpepwslCCy3krbDCCvZRxYcffmivpBnB57Fjx472SkRERERERESqyVw47CqrrGKvKt5//317Jc0IPo8rr7yyvRIRERERERGRajJXOFl99dXtVcXbb79tr6QZwedxjTXWsFciIiIiIiIiUk3mCifrrLOOvap47bXX7JU0I/g8Bp9nEREREREREVlQ5gonG2ywgb2q+Oc//+nNmjXLPpJGUDT54osv7KOK4PMsIiIiIiIiIgvKXOFk4403tlctnn32WXsljXjuuefsVYuw51lERERERERE5pfJjJNgQOzUqVPtlTQi+Pytv/763rLLLmsfiYiIiIiIiEg1mSucYMstt7RXFVOmTLFX0ognnnjCXlVsscUW9kpEREREREREWpPJwkn37t3tVcVbb73lvfzyy/aR1INuk48++sg+qthqq63slYiIiIiIiIi0JpOFk+22285etXj44YftldQj+LwttNBCoc+viIiIiIiIiCwok4WTFVZYwdt6663to4r77rvPXkk97r//fntVsdNOO3mLLrqofSQiIiIiIiIirclk4QS77LKLvarguM7f//53+0hqQdHkww8/tI8qdt11V3slIiIiIiIiIm3JbOFkzz339BZZZBH7qOKOO+6wV1KL4PPFnXR23313+0hERERERERE2pLZwsmSSy7p9e7d2z6qePDBB71XXnnFPpLWTJs2zZs8ebJ9VBF8PkVERERERESkdZktnKBPnz72qsX1119vr6Q1N9xwg71qse+++9orEREREREREalFpgsnm2yyiffDH/7QPqoYN26c9+KLL9pHEubpp5823Tl+PXv29NZaay37SERERERERERqkenCCQ466CB71eLyyy+3VxLmsssus1ctDjjgAHslIiIiIiIiIrXKfOFkyy239HbeeWf7qOKRRx5Z4Da7UnH77bd7Tz75pH1UsdRSS3kTJ070PvvsM/sVEREREREREalFu+/+x15n1ksvvbRA58lqq63m3Xzzzd7iiy9uvyIff/yx179/f+/TTz+1X6ngueIORYsttpj3ox/9yOvbt6/9joiIiIiIiIi0ZuE//I+9zqyOHTt6c+bM8Z599ln7Fc/7z3/+4/3rX/9aIAOlzE4//XTv+eeft48qjjzySG/vvff23n77be+TTz4xz+Fjjz1m7lq07rrr2n9LRERERERERMLkouMEX3/9temmePfdd+1XKk499VSvV69e9lF53XTTTd6ZZ55pH1VsuOGG892FaOzYsaZLZ+7cueYx4bs8p5tttpl5LCIiIiIiIiLzy03hBGSbDBkyxD6q4AjKVVdd5f3f//2f/Ur5PPPMM94RRxxhH7W4+OKLva222so+quAYzy233OKNHz/efsXztttuO2+//fbz1llnHfsVEREREREREUEujuo4LOw5ovPcc8/Zr3jef//7X+8f//iHt+eee5oMj7KZNWuWd9xxx3n//ve/7VcqfvrTn3p9+vSxj1qQCbPFFlt42267rfn/vPPOO+Z/f/vb38xzu8EGG5TyeRQREREREREJk6uOE2fgwIHetGnT7KOKbbbZxrvwwgvto3L46quvvKOPPtoUjvwoiowYMcI+ah3PIx0oLhtFAbIiIiIiIiIiLXJZOCHo9NBDD13g9rq77rqrN2zYMPuo+I499lhzm2G/VVdd1bviiiu8lVde2X6lNg8//LDJP5k5c6Z5zJ14yD/p0aOHeSwiIiIiIiJSRrksnICCAYWDoN12280744wz7KNi4njS8ccf702YMMF+pcWoUaPMUZxGKUBWREREREREpEWuMk781lprLdNd8eijj9qvVLz++uveiy++aDolCI4tGsJdyTSZNGmS/UqLoUOHettvv7191JiNN97YFJ+++eYb7+WXX/b++c9/mueYuxl973vf85Zbbjn7b4qIiIiIiIgUX24LJ9hoo428pZdeeoEiAkd5nnjiCW/LLbf0ll12WfvV/HvllVe8wYMHe9OnT7dfaXHyySd7/+///T/7qDkKkBURERERERGpyHXhBN///ve9Dh06LFA8oVPi3nvvNXfiKcJtdu+77z7TacLPFXTiiSd6++67r30UHbpLfvCDH5hbPX/44Yfmz6Z4c88993gLLbSQ6U4RERERERERKbLcF05A8WTFFVf0Hn/8cfuVii+//NIUHDh20r17d/vV/Dn33HO98847z/wcQSussILJICHMNS4cidp55529VVZZxXTzfPLJJ96zzz7rPfbYY96SSy7prbvuuvbfFBERERERESmW3IbDhnnooYfMkRVu0xvUpUsXEybbtWtX+5XsmzJlinf++ed7L730kv1KC44o0QnywQcfmOLFaaedZo7QJEEBsiIiIiIiIlIWheg4ceh8IJeDboh//etf9qsVs2bN8u68806T2UGHSpYzOj766CNTMDn77LPNdRCFCrpQOJ4zbdo0c4SGn5muGo4txY0jOrvvvrsCZEVERERERKTwCtVx4nBE589//rN3991326/Mj+LCoYce6h188MGZuvPOF1984V177bXeVVddFdo1g759+5pME2fmzJne73//e5NBQscJnSd0oCTlrbfeMt0n3B7aIaT2Rz/6kbfMMsvYr4iIiIiIiIjkUyELJw5HSoYPH24KKWHojGCBTzGiY8eO9qvJo/jB3/Wmm27yPv/8c/vV+VGEOP7440PvnEPXB8UTfs7NN9/cXCeNzpdbbrnFe/75581jOnrccysiIiIiIiKSV4UunOD999/3RowY4d1///32K+H23HNPb4899vB22GEH+5X4Pfzww+bOPw8++KD9SriVVlrJGz16tAnArebpp5/2Tj/9dHP9wx/+0Ny2OA38THSgUAwCobXkn/To0cM8FhEREREREcmTwhdOHBb0l156qenOaM3yyy9viidkpXTr1s08jgrHaZ566ilz62TuSEPeSmsIf/3Pf/7jtWvXzhQfDjzwQPudcPyMF1xwgbmmM2XgwIHmOg0KkBUREREREZEiKE3hxGFBT/cGt9Wtxfrrr28W/Z06dfLWWWcdb/XVV/dWXnllb4kllrD/xoLmzJnjzZ4924Slvvnmm94rr7zivfDCC94bb7xh/43W8WeSv9KrVy9v/Pjx3uWXX26+TmDsWmutZa6rIQD3yiuvNNc//vGPvf33399cp+Gzzz4zxRN+Bme77bbz9ttvP/NcioiIiIiIiGRd6Qonzrhx40wR5bnnnrNfqQ+FE0JmF198cW+hhRbyvv32W5MxQheJ67KoF/9Ngl2PO+44c2zIOeGEE7wZM2Z4W2+9tfe73/3OfrW66667zuSN4IgjjvB69uxprtOiAFkRERERERHJq0LdjrgeG220kdenTx9zHIc767zzzjve119/bb/bNm7FS2cJXRWffvqp+SeP+Xo9ll12WW+fffbxhgwZYrpZXn31VXOkh8wVZ5VVVjHHcN577z1vjTXWaLPrpEuXLt4nn3zivfbaa97UqVPNf3fttde2300eIbw/+MEPzNEjfjZuX0wXzj333GOKTtzeWERERERERCSLSttxEuaRRx7xHn/8cW/y5MneBx98YL8aPQoZ22yzjclS2X777e1XPVNQOPLII801nSV0mDgjR4707rvvPu973/ued9FFF9mvtu6ss87y/v73v5tr7rTDHXeyQAGyIiIiIiIikhcqnFTx+uuve//4xz9MNgmBsjz+4osv7Hdrt9RSS3nrrbeet+GGG3qbbrqp17Vr11a7P7gD0EMPPbTAbYXpajnmmGNMV0stQbEO/w2OI3EE6LTTTvM22GAD+530KUBWREREREREsk6FkzoQ+EonCsdNOArz+eefe1999ZXJN1l44YW9xRZbzBRKOJrSsWNH00nBP+tBkea3v/2tuf7LX/5iCi5OvUGx4K48FE8IpuXID8UT/pkVCpAVERERERGRLFPhJIP++Mc/es8884w5uvLLX/7SfrWi3qBYcCSG4gkFHzpOKJ7QgZIlCpAVERERERGRLCptOGyWcXcdsla4lTHFE+7e49QbFIull17aBLNOmDDB5KjQfbLjjjva72aDAmRFREREREQki1Q4ySDCY5988knvX//6l7njjz/zg8IJX+eOOXRp0JVRixVXXNFbd911vccee8wcN6ILZdttt7XfzY5VV13V23nnnc3P+fbbb5sjUc8++6z5e9Mlw88gIiIiIiIikhQVTjKKLguKJ3Sd9OrVyxRQHHJPuMPOxx9/7P33v//1vv/979vvtI478lCQeOKJJ0zRhfyTLbbYwn43WyiQUBRadNFFTe4LBRT+3gTdUgSiwCIiIiIiIiISNxVOMmr99df37r//fu/f//63OarDERZn8cUXN0G05KBw1x+OuCy77LL2u62jIEHnxrRp08xRmHbt2nmdO3e2380ejujsvvvu3jfffGMKKBzhefTRR713333XFII44iMiIiIiIiISFxVOMow79tBhMWvWrAWO5NB1wu2SyQPh6M72229vv9O2jTbayNwJiKLL9OnTTfhqp06d7HezhyIRnTEcLaKQ9M4775j//e1vfzNdMwTe8u+IiIiIiIiIRE2Fkwxbc801vTvvvNMUC+iuWHvtte13KhoJinW6dOlijr+QlTJ16lSTqxL872eNAmRFREREREQkaSqcZBhdFJ9++qn36quvmn/usssu9jsVjQbFOt26dZvXvTFp0iTTibLaaqvZ72aXAmRFREREREQkKSqcZNxKK63k3XvvvabDgo6KYChqo0GxznbbbWeO7MyePduE0Xbt2tVbYYUV7HezTQGyIiIiIiIiEjcVTjKO0FfXFTJ37twFskyaCYp1unfvbv7/HH2hc4PHBNLmhQJkRUREREREJC4qnOQA4a1kmVAIICA1WAhoJigWdGzQaUK3BkWHGTNmmP9G+/bt7b+RfQqQFRERERERkTiocJIDZHlw/ISiBrcP3nLLLe13WjQTFIull17ahK5OmDDB/DlvvPGGt+OOO9rv5ocCZEVERERERCRKKpzkBN0fkydPNkGwe+211wLdE80GxYJcEHJDCFn94IMPvJkzZ5oOjjxSgKyIiIiIiIhEQYWTnOBWwSz6OYayxBJLeJtuuqn9Totmg2JBJgjFBo7tUIDhmAtHYPJKAbIiIiIiIiLSDBVOcuTbb7/1pk2bZrJO+vTpY7/aIoqgWFBsoCuDP4tjLhwP6ty5s/1uPilAVkRERERERBqhwkmOrLfeet5dd91luk6WX355E3ga1GxQrLPRRhuZQg0FmOnTp5uA2k6dOtnv5pMCZEVERERERKReKpzkyMILL+zNmTPHe/HFF01hZM8997TfmV+zQbFOly5dzNEWclOmTp3qrb766ubIUN4pQFZERERERERqpcJJznCsZNy4caagwZEaCiNBUQTFOt26dZvXmTFp0iTTibLaaqvZ7+abAmRFRERERESkLSqc5MxSSy0173bBn3/+edVbBkcRFOtst9125sjO7NmzvSeffNLr2rWrt8IKK9jv5p8CZEVERERERKQaFU5yiHyTBx54wNwymMwOFvdBUQXFOt27dzf/LYo2dGXwuEOHDva7xaAAWREREREREQlS4SSHKJSwsKdwQoDr1ltvbb8zv6iCYkE3Bp0mdGJQUJgxY4b577Vv397+G8WgAFkRERERERHxU+Ekp5ZYYgnv8ccf9958802vR48eVbs/ogqKxdJLL20CVSdMmDDvuFC1o0J5pwBZERERERERgQonOcUdbsgboZNkkUUW8TbbbDP7nflFGRQLul3IBCFAlY6XmTNnmu6MolKArIiIiIiISLmpcJJjdD5QPKHrpFevXqaAEibKoFiQ90EhgWM7FGM4wsLxliJTgKyIiIiIiEg5qXCSY+uvv753//33mywOjtFwq+AwUQfFgkICHRfTpk0zR1jatWvnde7c2X63uBQgKyIiIiIiUi4qnOTcV199ZboeZs2a1eoxnCiDYh0KNYTTUoyZPn26t8wyy3idOnWy3y0uBciKiIiIiIiUhwonObfmmmt6d955p1nA0/Gw9tpr2+8sKMqgWKdLly7m2AoZKlOnTjXZK639HYpEAbIiIiIiIiLFp8JJztHZ8Omnn3qvvvqq+ecuu+xiv7OgqINinW7dus3rupg0aZLpRFlttdXsd4tPAbIiIiIiIiLFpcJJAay00krevffea7oe6HJoLaiUIzscKaGAEkVQrLPddtuZIzuzZ882gbVdu3b1VlhhBfvdclCArIiIiIiISPGocFIABL26jo+5c+e2ml8SR1Cs0717d/Pf5cgKHRc87tChg/1ueShAVkREREREpDhUOCkIglnJL2FxTmhpa4vzOIJiQacFnSZ0WVAsmDFjhvlvt2/f3v4b5aEAWRERERERkWJQ4aQgyNfgSAgFC24NvOWWW9rvhIsjKBbcFpmw1AkTJpi/yxtvvOHtuOOO9rvl4w+Q5fngfwqQFRERERERyQ8VTgqEzo7Jkyeb8Ne99tqr1Y6GuIJiQZ4HeR+Eo37wwQfezJkzTedFmZFvQnCvAmRFRERERETyRYWTAuE2wCzEORqyxBJLeJtuuqn9Tri4gmJBlgdFAo7tUJjheApHV8pOAbIiIiIiIiL5osJJwXz77bfetGnTTNZJnz597FfDxRkUC4oEdFPw9+F4CkeIOnfubL9bbgqQFRERERERyQcVTgpmvfXW8+666y7TdbL88subENLWxBUU62y00UammENhZvr06SbEtlOnTva75aYAWRERERERkexT4aRgFl54YW/OnDneiy++aIohe+65p/1OdXEFxTpdunQxR1LIU5k6daq3+uqrm2NFUqEAWRERERERkexS4aSAOOoxbtw4U6zguAzFkNbEGRTrdOvWbV5HxaRJk0wnymqrrWa/K1CArIiIiIiISPaocFJASy21lOla4FbAn3/+eU23A44zKNbZbrvtzJGd2bNne08++aTXtWtXb4UVVrDfFUcBsiIiIiIiItmhwklBkW/ywAMPmNsBk6PBgrs1cQfFOt27dzd/BoUduil43KFDB/td8VOArIiIiIiISPpUOCkoCiUstimcEM669dZb2+9UF3dQLOiioNNk8uTJphAwY8YM8+e0b9/e/hvipwBZERERERGRdKlwUmBLLLGE9/jjj3tvvvmm16NHj5o6O+IOisXSSy9tglAnTJgw70hRLceJykwBsiIiIiIiIulQ4aTAuHsNWSJ0jyyyyCLeZpttZr9TXRJBsaAjhiwPgk/pipk5c6bpqpDWKUBWREREREQkWSqcFBzdCBRP6Drp1auXKaC0JYmgWJDTQQGA4FOKNBw94ViKtE0BsiIiIiIiIslQ4aTg1l9/fe/+++83+RgckeE2wG1JKigWFADolJg2bZo5etKuXTuvc+fO9rvSFgXIioiIiIiIxEuFkxL46quvTCfCrFmzaj56k0RQrEMxhwBbijTTp0/3lllmGa9Tp072u9IWBciKiIiIiIjER4WTElhzzTW9O++80yyq6UJYe+217Xdal0RQrNOlSxdz3IRslalTp5p8llr/nlKhAFkREREREZHoqXBSAnQbfPrpp96rr75q/km4aC2SCop1unXrNq9bYtKkSaYTZbXVVrPflVopQFZERERERCQ6KpyUxEorreTde++95ugNnQe1hocmFRTrbLfddubIzuzZs02obdeuXb0VVljBflfqoQBZERERERGR5qlwUhKEu7pujrlz59acWRIMiqWwEVdQrNO9e3fz53HUhE4JHnfo0MF+V+qlAFkREREREZHGqXBSIoSuklnCgpkg0VoXzP6g2I8//jjWoFjQIUGnyeTJk80if8aMGebPbN++vf03pF4KkBUREREREWmMCiclQuYFxzQoRnDb3y233NJ+p21JBsWCWycTcjphwgTz933jjTe8HXfc0X5XGqUAWRERERERkfqocFIydG3QyUHg61577VVzl0HSQbEgh4OcDkJNP/jgA2/mzJmmY0KapwBZERERERGR2qhwUjLc4pfFMcc1llhiCW/TTTe132lb0kGxIIODRT6hphRsOFbCkROJhgJkRUREREREWqfCSQl9++233rRp00zWSZ8+fexX25ZGUCzWWWcd0wXB35ljJRwz6ty5s/2uREEBsiIiIiIiIuFUOCmh9dZbz7vrrrtM18nyyy9vgkFrlXRQrLPRRhuZgg8Fm+nTp5ug206dOtnvShQUICsiIiIiIrIgFU5KaOGFF/bmzJnjvfjii6YAsueee9rv1CbpoFinS5cu5igJOStTp071Vl99dXP0SKKlAFkREREREZEWKpyUFMcvxo0bZwoR5FxQAKlVGkGxTrdu3eZ1QkyaNMl0oqy22mr2uxIlBciKiIiIiIiocFJaSy21lOkk4Da/n3/+ed23+k0jKNYhW4UjO7Nnz/aefPJJr2vXrt4KK6xgvytRU4CsiIiIiIiUmQonJUa+yQMPPGBu9Uu2BYvgWqUVFOt0797d/NkUf+iC4HGHDh3sdyUOCpAVEREREZEyUuGkxCiUsACmcELw6tZbb22/U5u0gmJB9wOdJpMnTzYL+BkzZpg/v3379vbfkDgoQFZERERERMpGhZOSW2KJJbzHH3/ce/PNN70ePXrU3bWRVlAsll56aRNgOmHChHnHjuo9ciSNUYCsiIiIiIiUhQonJcedacgJIatkkUUW8TbbbDP7ndqkGRQLumbI4CCwlM6ZmTNnmm4ISYYCZEVEREREpOhUOBHTIUDxhK6TXr16mQJKPdIMigX5GizgCSyleMOREY6TSHJaC5AluFd3PhIRERERkbxS4US89ddf37v//vtNZgXHX7jFbz3SDorFOuusYzocpk2bZo6MtGvXzuvcubP9riRFAbIiIiIiIlI0KpyI8dVXX5nugFmzZjV03CbNoFiHgg8htxRvpk+f7i2zzDJep06d7HclKQqQFRERERGRIlHhRIw111zTu/POO81Cl86Atdde236ndmkGxTpdunQxx0TIXJk6darJcGnkZ5HmKUBWRERERESKQIUTMegA+PTTT71XX33V/JPAz3qlHRTrdOvWbV6Xw6RJk0wnijI20qMAWRERERERyTMVTmSelVZaybv33nvNcRu6AVjw1ivtoFiHnBWO7MyePdsE33bt2tWElEp6FCArIiIiIiJ5pMKJzEOgq+vUmDt3bkM5JVkIinW6d+9u/h4cEaHDgccdOnSw35W0KEBWRERERETyRIUTmQ+BquSUsIgl3LORRWwWgmJBZwOdJpMnTzaL8xkzZpi/S/v27e2/IWlRgKyIiIiIiOSFCicyH3IoODpBoYFb+m655Zb2O/XJQlAsuL0y4aTkafAzvfHGG96OO+5ovytpU4CsiIiIiIhknQonsgA6NQhVJeR1r732amjnPytBsVhxxRW99dZbzxRPPvjgA2/mzJmm00GyQwGyIiIiIiKSVSqcyAK4fS8LVo5QLLHEEt6mm25qv1OfrATFguwMFueEkVLI4TgIR0UkWxQgKyIiIiIiWaPCiYT69ttvvWnTppmskz59+tiv1idLQbFYZ511TPcCPxfHQTiK1LlzZ/tdyRIFyIqIiIiISFaocCKhONpy1113ma6T5Zdf3oR1NiIrQbHORhttZIpCFHKmT59uwnA7depkvytZogBZERERERHJAhVOJNTCCy/szZkzx3vxxRdN0WPPPfe036lfVoJinS5dupgjIOSvTJ061Vt99dXN8STJJgXIioiIiIhImlQ4kao4EjFu3DhTZCB7gqJHI7IUFOt069ZtXgcDQbh0oig/I9tcgCz/VICsiIiIiIgkRYUTqWqppZYyu/vcwvfzzz9v6ja+WQqKdchc4cjO7NmzvSeffNLr2rWrCSCVbCOrRgGyIiIiIiKSFBVOpFXkmzzwwAPmNr7kTXBr30ZkLSjW6d69u/k7USCie4HHHTp0sN+VLFOArIiIiIiIJEGFE2kVhRIWpRROCFXdeuut7Xfql7WgWNC1QKfJ5MmTzcJ7xowZ5u/Vvn17+29IlilAVkRERERE4qbCibRpiSWW8B5//HHvzTff9Hr06NFUR0bWgmKx9NJLm+BRsjLc0aRmjiVJ8hQgKyIiIiIicWn33f/Yawnx2WefmQXY66+/bnay6bygY4JcBXI/vvrqK9OJwV1o2NkmF4RFXMeOHU3WAoUBQivptuB7eXX88ceb56BPnz7egAED7FcbM3LkSO++++4zxykuuugi+9X0Pf30097pp59urn/4wx96gwcPNteSP4888oh30003eTNnzjSPeS/279/fFP5kfh999JHpKqMw6sY4vvbpp5+aO2sxxpFLtMgii5gxjkIjY9xKK600b4zj9uWMcXRwiYhkyfvvv++9+uqrZozjKOesWbNM1ytj3BdffGHGOKbCjHEcK2aMIy+LMY677jHGrb/++maMExGR8lLhJIDwUo5tsIgm84JiQVQ4NsCxkC233NLbZpttvGWWWcZ+J/vuv/9+7+KLLzaTiquuuqqp4w9MVo4++mgzYWExe+CBB9rvpI8F9/nnn2+uCSAdOHCguZZ8Gjt2rHfzzTd7c+fONY832WQTb7/99vM233xz87iMWEQQpsutuDk6x+Oo8Pxuttlm5q5VHJ/SkTcRSRrztilTppgxjnkcm11RoDDcuXNnM8aRh8b/RESkPFQ4+R92HigMcITkqaeesl+NH8UTdsB32223XBRRfvrTn5rn6rDDDvN69+5tv9qY8ePHe5dffrm5vuCCC7w111zTXGfBnXfe6V155ZXm+sc//rG3//77m2vJJ7rGKJ7wmnMIJ6aAwh16yoBOEkKeKQw+//zz9qvxYveWzi3GOEJ86coTEYnDSy+95D344INmjItyw6s1dKYwxu2888463isiUgKlLpxMmjTJGzdunDk2kraePXuaYgQ7tVnF4vP666837fl0nzTrhBNOMGGsBM7+7ne/s1/Nhuuuu8675ZZbzPURRxxhfj+Sb2+99ZZ5DU+cONF+pdJV9KMf/ShX3V/1oCDMGPf3v//dfiUdSy65pHmu99lnH5NDIyIShdtuu82McXSWpIljPXvvvbcZ48hvExGR4ill4eTuu+/2xowZU9fOK7ul7E5z3nXllVc2t+klJJUjK3yPnJMvv/zS3NmD4z6coSUAlTO19TzFHCGgw2HXXXe1X8kOdu7pNiHvgPwPdlqa8dxzz3m///3vzTUZKlm4y47fX//6V3N3Fhx33HHeDjvsYK4l36ZNm2YKKNwWG7yHKZ707dvXPC4Cxjf+9/bbb9uvtI1jeGuvvbbJHmKMI8eEMY72dAJ2ue0zR54Y4+g8Y4wjL4BulnrwPqKTq5k7dIlIeZG9xCYOOVaMRbWiQ4Qxjs0fCh3LLrusyZ5jjGvXrp339ddfmyPEzHX475L35HKf6sFGC2McRxdFRKQ4SlU4oVWdfA66HNpCgYQsEjJJ+PDr1KmT/U59KDIQLkuRhjwBjgKx4GhLly5dvEMPPbTp4kTURo0aZe5Uwl1Khg4dar/auKwGxTpnnXXWvN16ijxlzsYoGlq6KaC4jI8iBMiS6cIYV0tuCWGH3MqZMY73MwuKRlAwJlyWMY6i1JNPPmlyjNpCoZRCLH++iEgtOEZ79dVXm9vNt2XTTTc1Y9z3v/99M8YxxjeCP4ujQNOnT/eeeeYZM8Yx7rWFAgpjHDcIEBGR/CtF4YRCCQt0f4t+GBLTOatKsSLO9HR2urn17UMPPdTmWVwWcQSpcteKLGAH+9hjjzXX3Mm62UVPloNiHQomdMdw3OC0004zIb9SHEUIkCXQmjGurS46Qg0Z4+j6iDNXiHBtxjiK1W0Vivfdd18zBnAXCxGRMPfee6/pAqXLrTXclp55E2McdzeMA9Nm5pOPPvqoGePowmsNm2DHHHOM6dwTEZH8Knzh5JJLLvEuvfRS+ygct9jt1atXKjufLDA4n+sPrgzz85//3OxcZIHrwiDc9re//a39auOyHBQLdptOOeUUc+xqlVVWMcUT/inFkdcAWXY9zz333Hl5PGE4bsMYx/n7NIp+FFAIXKbDpxpa6CnI8vcUEXG4pfx5551ngl+rWXXVVc3YQY5So10lzeD4N2NcazcX4JbGjHEKkRURya/CFk7oMjnzzDOrBoZxnv+ggw4yeSJZ2OlkV5ZMAkJJyUsJw63vfvOb36Te9unPJmFC02iLv1+Wg2LB5I3iyUcffWQWnxRP6ECRYslTgCzFS8a4ajuw5JTQwcXfnTP8aXv11VfNGEeYYzXcfYdiLNkDIlJuFLLZqPn888/tV+bHZ/EBBxxgAlmzgGM8N954Y6tFHrJPhgwZYh+JiEieLPwHzlsUDBNzwkurtYgfcsgh5sOYM/ZLLLGE/Wq62BWmaEDbOgFlYS335Bawq8GOSqOZK1Gg24LiyT//+U8TqEYWTLP4b3I7aAJ1SaRndyZL2BHnbiDsnvNzv/HGG9o5KiACUWn15nfN75n/kVFErg9t1pyTz4LLLrvM+9Of/mQ6ZYIoCh911FFmjCMrKSu3AaZAzTFIgq9pbaeQEvTaa6+Z1neOJurOFCLlRVGY3DPmQ0HMF+jeYDMjS3fpYm622267mU2uDz/8MLSoTU4KhXlyV3Q8UUQkXwpXOKFtvVrIKJP2v/zlLyawi8VFFtHFwBEBijp0OQQ/eOlGocDAHS74cE4LO9jczpmFzl577WXuTNIMJkLcjYj/Hrv+7PJnzYorrmgWdBRPSNnn97Ptttva70qR0Pq9yy67mH9yV4VPPvnEdK/xu+c9mlbXF2HTJ598suncCMMtzYcPH26KP1nFHcnIWWHhQAGSBYYfRRVa3yliEe4oIuUxe/Zsc5c9bqUe5ic/+YkZ4zp37my/kj0UUJhncuyYTLtgxwwFebppOAaq4FgRkfwoTOGEE0cc97jjjjvsV1qwqKf9+1e/+lVuKvzcKo8PXo4HuLu6+NESSgfKTjvtZL+SLI7nsIhkkUPXThQLHAJ5uf0vBRQWiCyssoa7/7CYfuKJJ0yBh/wTUvulmJjYUsSjUMidYyig8Lun44qxJMnz9Cwo2GUNC7nmNXnqqaeaEMK8HCFjUcEtoCkGM54F8XN+9dVX3lZbbWW/IiJFRpGBMY472AQR2n3GGWeYYzlZ6aJrC53BjHGE4L/44ov2qxVsflEcYo6X5SKQiIi0KEThhHv6UxSZMGGC/UqLbt26mRyOvHYG8IFKcYRFGwsnP75GLgitoRyZSRoLHm4/SldMFKGOdAFR5GIRxQSKzpssZh2wmGZxys/OMQ6ee018io0jOuRvMNnlfceOIXdU4LVPMY3uiDgRTFxtQcHfizFuo402sl/JFzrnOFLE7dqDd6fgPUZHCnfIEJHi4ha/zOPIEQsix4SjhxSI86Z9+/Zm/OLoIV26fIb4sTEW1ZFnERGJV+4LJ7RAsqDg7jRBBL+yQxH3oiZuHBGhMEHhhEKJH10P7H7vueeeiRdPOLZy1113mcUO7fdR3LGDrhMWUCyWPv74Y3NkKYtYpFI4osDDmWV2jdLMnZH4UdSju4giLK95jvDwP7qk6Dzi9d/skbUw3LKcMY4/K4i7bRE0GMefmyQWFRz54+gOtzz3Y6eWo3HKFBIpJrr4GOPcLeH9CKI/LCN3FGwG8wPGMOYMFN79mL8yn0jz+LWIiLQt14UTPmh++ctfhrZ5Ew5LQGKRkNFCi2rwlnfserO4oHiSJP4udPvwZ1PoiOrPz3pQrMMuOUc3yGWZOnWqt/rqq0dyhyHJtiQDZDmOx4KC90LQn//8Z3O75KKg44wxhPdUMBybTht1nogUD11ljHEcy/Njw4hOuh49etiv5B/HOzn6STGcLkI/5rHMqXT0V0Qku3JdOOHWvLQ+BnGr2H79+tlHxcKHKhOKxx9/3H6lgl1adqQJXUwSxxTGjRtnFjuEnEVxJ4w8BMU6HAVznQe8FulESTL3QtITd4AsRUkWFLwP/Phvn3/++YXtwOCIHhlHFCP9KNAq80SkOOgwY4yjY8+PDQjGuCKGQ1Mc4Xgld30MHr1kU0yh2CIi2ZXbwgm3quOYSBBHc5LuvEgaIWkszslY8OP2nl9++aW5rXFSllpqKbPjzgSIY1NRLebyEBTrsNCj/ZajVJzT7tq1q24zWCJxBcgSaB08gshtyy+44ILCn4enIBnWXcfutBYWIvnHsRyKJsE7B3IEmDEuq52mUWGuxHFk5g5+hGLTzajuVRGR7Mll4eTGG2/0Lr30UvuoxZ/+9Cdvjz32sI+Kjc6Gjh07LhCISz4IO+BJBkWSb/LAAw+YHALXEdOsvATFOpxN5u9KEYmuAx6zyJXyiDJAlhZ1Orn8FllkEbOg2Hzzze1Xio2xJKzzhIXFZpttZo7GiUg+cVt1Nhr8GCcZ48ry3ibDjXlTsPOE7lWOKGV5ziMiUka5K5ywOOW2w0G//vWvI7mzS56wUGOXe8qUKfYrFRwVYDeDwkoSKJSwUGQCQO5MVB0veQmKBb8HOk0mT55sFsyE+PL3JVFfyiOKANm7777btKkH0WWX17uDNYrOk7DMEz4H6PLJeyiuSBldccUV3pgxY+yjiiWWWMIUTdZff337lXJgrsZ8gWPJDp3D5Gb16tXLfkVERLIgV4WT7777zoS+soj2O+SQQ7yf/vSn9lG5sPMa1u7JsZ199tnHPoofkx5yVwg8Y6ckqm6LvATFYumllzYtthSu3PGlouZQSOsaDZAlDJZbcn799df2KxUUhvfee2/7qFzoNiPfxH+3HYpSM2fONBkzIpIfHD889dRT7aMWf/nLX0yhtIwI/mf+5J/bMr4lffRaRERal6vCyTnnnGMWpX7s6uesaSZyPAdMRvigdQge48hAUre3o7WWtlsySThSQEEnCnkKigXdN5zR5nVKBw6/k7J1CUiLegNkGcsoevr179/f+9nPfmYfldM222zjPfjgg6Zg4jAmrLzyyqY4JSL5wO3TP/roI/uo4he/+EWiGz1ZQ2dq586dvdtvv91sEDp03OpYoohIduSmcMJxFHYk/MjWIAuAgNKy49a4d9xxhzkq49DOzm4ti4sksJNO8YSuE1pMKaBEIU9BseCcNgtlAkIp9nBEQ7cYLLdaAmSZNF977bX2/1FBEPTw4cPto/Ii84giE8eY/AiLZayh401Esu3iiy82eWh+FJYpppQdR6vDcusopBf1LpEiInmTm8IJQWLctcTvlFNOMbkSUjkaQLdDsCOH1v+kujQ4m3z//febXWGOrUQVUJu3oFiwUKajgIUdRzTatWtndpSk3KoFyFJsvOGGG0xrth+5JnRdiWeO6lEYZhxweL4oTNLqLiLZxecg8zg/PsfPPfdc81kplc8HOhP9XYd059CRUpZQcBGRLMtF4eSWW27xxo4dax9VUAwYOHCgfSSgZZ3JCYswx2WDdOrUyX4lXl999ZXZReeoUJQFmzwFxToUjljoUeyZPn26t8wyyyT2e5DsCguQJfz0s88+s/9GxRFHHOH17NnTPhJw9JDiMOOAQ7AiOQB0eYlINtExTO6X3+9+9zsVBAI4mkP3IXMph7kPR5lUYBIRSddC9p+ZxXlPEtj96EAYNGiQfSR+Yc/LlVdeaa/ix+2gObJDtkew+6VZBx54oPknRxwIUsuDgw46aN4tsrmFdrANV8pr7bXXNi3qRx999HzZHSAnp+y5JtX8/Oc/t1ctkhzjRKQ+fGY/9NBD9lEFmx+6a8yCOLoZHOMoomiMExFJX+YLJ6NHj17giA47sSuttJJ9JH4sxoJ3GGKXJ9ixExe6KlyhgDuIRIlsE445gGMNeXHUUUeZO6yAgGOO74g4BDsHHXnkkfZKgujU2XPPPe2jCgqpwduyi0g2BLOboMJwdfvtt98CWW7cvpkOYhERSU/mCyc33nijvaogXXzAgAH2kYQ5/PDDTeaJX/B5jJNb1NBCT4tplOg6IQiS7Jbrr7/efjX7uJ2smwidddZZC9w5RcqJOy/deuut9lHFVltt5e266672kYRhjAtKcowTkdpQGJ48ebJ9VLHvvvtWvSW7VISNcRRPREQkPZkunNx5550mK8Pv4IMPtldSDRkKwefp9ddfXyDNPi5rrbXWvA6Le++91/wzKoTJuSM7N998s8mHyIvf/OY3JjR2zpw53tlnn73Aa1vKJ1g0gca4tnGUicWXH0cDKdaKSHaQURd0yCGH2CupZocddjCZTn48l59//rl9JCIiSct04YSALD+O5/Tv398+ktb8+Mc/XiBIjNsVJ8V1nbDTxC15o7T33nubIFxcd9115p950KFDB1M84e5HFE0onlBEkfIKvicJSnRFR2nd/vvvb69aJDnGiUjr6AzlTnt+5JqwuSJtC45xZJ1ojBMRSU9mCyfcieTZZ5+1jyr69u1rr6QtBOgGn69JkyZFXsSohmMpm2yyibn+29/+Zv4ZpTwGxWK11VYzxZNFF13UHNeheCLlRDcWd4jy69evn72StmywwQbeTjvtZB9V3HXXXeZOViKSvrvvvttetdAYVzvGN8Y5P8Y4ERFJR2YLJ2GL7d69e9srqUXY8xVHEaMa13XCAjF4q9Vm+YNi85R1Am6tTPEEzzzzjHfuueeaaymX++67z15VdOzYcYHQU2ldcIyjgyv4vIpIOoLvRW6127lzZ/tIahG889BLL71kbl8vIiLJy2zh5OGHH7ZXFTvuuKO3yiqr2EdSC3IAunXrZh9VBJ/XOHFGlw4LbikdddYJXFAstz7OW/Fkyy239I499lhzTTbDZZddZq6lHCgkBm/XraJJ/X74wx8u8LmQ5BgnIuFY3JOt5rfXXnvZK6lV2HMWvLWziIgkI5OFk+eee86cjfXTXSYas8suu9irildeeWWByUyc3GIw6lsTI89BsaAN97DDDjPXtN8qMb88JkyYYK9aaIxrTPB5oyD19ddf20cikgaNcdFYYYUVzCaUX9hzKyIi8ctk4YQsjiA6TqR+Yc9b8NaAcWK3hJDaTz75JJZjQnkNinU4arDffvuZa26nGnYmXIon+B5cc8011cLeILpO/L755ptExzgRWVBwHkfoNZsdUr/gPI7Nr6Ty6kREpEUmCydPPfWUvarYZpttFrhDjNRm5ZVXNnkgfsHnN07t27efL+skDnkNinUOOuggb4899jDXl156qXaTSuDJJ5+0VxXbbrutvZJ6cewtuCBLcowTkfmxURLM4dAY17iwO61pjBMRSV7mCifcEWHatGn2UUXwXvZSn2DOSfD5jZsrnLz55pvelClTzHWU8hwU6xx11FHzJkfnnHNO4r8jSQ67hR9++KF9VKExrjnB50/vH5H0/OMf/7BXLTTGNY4NMELl/cKeYxERiVfmCifsUvz3v/+1jypIYpfGBZ8/gimTzDlZaaWVvJ133tlcx9l1ktegWOfXv/71vO6gs846y9yuWIon7I4IGuOa07VrV3tVwXOsnBORdATHOHI6grfVlfoEx7jp06fbKxERSUrmCifcai1o0003tVfSiLDnL+x5jpM7isLtd19++WVzHaW8B8U63KZ4nXXWMbdVPfvss71Zs2bZ70hRBF//a621lrf88svbR9KIsHyYOMYZEWlbcH6xySab2CtpVHAe9/bbb3v//ve/7SMREUlC5gonwU4I2hMXWWQR+0gasdxyy3nf+9737KOKJDtOwO9x8803N9dxdZ3kPSgWHTp0MMWTFVdc0RRNKJ5QRJHieO211+xVRbAFW+oX9hwGn2cRSYbGuOiFPYdvvPGGvRIRkSRkrnBCFd2P3Xdp3rrrrmuvKoLPcxJc1snDDz8cWydF3oNisdpqq5niyaKLLmqO61A8keIIvveC702p32KLLWbuTOSX164zkTybO3eu98EHH9hHFRrjmrfeeuvZqxZpzONERMosc4UTMir81lhjDXslzVh99dXtVUXweU7CVlttNe/DP66ukyIExYLdJYon4HjTueeea64l38hvCi4qNMZFIzjGvf/++/ZKRJISNrfQGNc8Oq+DncMa40REkpW5wsns2bPtVcUqq6xir6QZq666qr2qCD7PSfHfmvjLL78011ErQlAsuM3qsccea64fe+wx77LLLjPXkl///Oc/7VULjXHRCD6PYc+1iMRLY1x8gs9j8O5sIiISr0wVTr744gvT5ulH1oM0j1R7v08++cReJWu33XYzfxd+z3/729/sV6NVlKBY7LTTTt5hhx1mru+66y5vzJgx5lry6V//+pe9aqExLhrB5zGtMU6kzMLedxrjohGcx4V9noiISHwyVTj5z3/+Y69aLL300vZKmhF8Hr/55htTqEqDv+skLkUIinV69+7t7bfffub6xhtv9O6++25zLfmjMS4+wecx7LkWkXgF33dLLbWUt/DCC9tH0gyNcSIi6Wr33f/Y69S9++67Xp8+feyjiquvvlq3I44AYak///nP7aOKE044wUxqkka3yTXXXOPx0ttll128DTbYwH4nWpz/HTdunLneddddvfXXX99c59WECRO8F154wVzH+bxJfLhFLq99v0ceecTcTUmaQ3fZX/7yF/vIM8f1TjrpJPtIRJLw97//fb7iPt0mcXWXlg1B8WyeOF26dPGuuOIK+0hEROKWqcLJW2+95fXr188+qqBbYKONNrKPpFFPP/2097Of/cw+qiBoTDtBIsmhyyt4Lp27Py2++OL2kTRq7Nix3tChQ+0jz1tooYUWCIwVkXj9+9//nu+4zsorr6wuyYgQEu/voN1kk00WKMSLiEh8MlU44dZqffv2tY8qrr32Wm/jjTe2j6RRTz75pHf00UfbRxU9evQwt7xNA8Gwr732mrlee+21Y+t8+fbbb71XXnnF3M1kpZVWMv/LOwqMn3/+uVkY8tyxsy75QHDi1KlT7aMKgn+XXHJJ+0gadeutt3pnnHGGfeR57du393beeWf7SESSwOfTjBkz7CPP69ixY6zHcsvknHPOmS/wvnPnzt5VV11lH4mISNwyVTjhNp1kU/hxJ5HNNtvMPpJGTZw4cd4dWpy0jwicddZZpq13m2228X7729/ar0Zv/Pjx3uWXX26uL7jgAm/NNdc013nFueZTTjnFe/PNN03K/mmnnaa7FuTElClTvGOOOcY+qnjggQe85ZZbzj6SRrGgYGHhEKR433332UcikoTgkbllllnGe+ihh+wjaQaFYQrEzhZbbOGNGjXKPhIRkbhlKhw2bNeVnXVpXliIWNq73C4kdvLkyWaXKi5FCooFxa7f/OY35uz4rFmzzLnnOXPm2O9KloV1ByngLxrBz4o08ptEyi74vtMcLjrB51KdiiIiycpU4YSdCY4f+Ol2a9EI3iIw7LlO2ve//31zRhdxh8e52xMTkkumRN6tttpqpnjCUatXX33VFE8k+7hVdpDGuGgEn8ew51pE4sXcwo/jsp999pl9JM3QGCcikq5MFU7AeVg/MgGkebNnz7ZXFcHnOS3+WxPHObmiSLP77ruba/8Z4TzbcMMNTfEEzzzzjAmOk2wLe99pjItG8HmkI0tEkhX2vgvOP6QxGuNERNKVucLJqquuaq8quKWsNC/4PAaf57TssMMOpnuCqJ24A+ToOuGoxMyZMwtTPNlyyy3nZdcQMkomkGQXrdXBHdn33nvPXkkzsjrGiZRJ2PtOY1w0NMaJiKQrc4WTNdZYw15VxJl9USbB5zH4PKfJdZ3cc8895p9xoa3VHdkhwO6dd94x13m30047eYcddpi5vuuuu7wxY8aYa8mmYDixxrhoBJ/HvIdAi+TR8ssvv0BxWGNc8yiazJ071z6qyNI8TkSkDDJXOFlnnXXsVQX5DdIcbsUbfB6Dz3Oa9tprL7MTTw5L3FknRQuKdXr37u3tt99+5vrGG2/07r77bnMt2bPuuuvaqwqNcc1jYRZcVGRpjBMpE83johf2HAY/S0REJF6ZK5yQ2+BH7gW3XZXGvfjii6Z44tepUyd7lb727dvPl3USt6IFxToHHXSQt8cee5jrSy+91JswYYK5lmwJjnG8PzN0V/hceuGFF+xVi+DzLCLJCBvjpDnB55Bb2HPMWUREkpO5wom7y4rfs88+a6+kEf/4xz/sVYuw5zlNrnBCkWzKlCnmOi5FDIp1jjrqKO8HP/iBuT7nnHO8adOmmWvJjo033theVXDXibD3qNQu+Bmx+uqreyussIJ9JCJJCs4v3njjDe/jjz+2j6QRwTEua3M4EZEyyFzhhMlusP3w6aeftlfSiKlTp9qris6dO3uLLbaYfZQNK620krfzzjub66S6TooWFOv8+te/NsUhnHXWWWqTzpguXboscCtwjXHNCT5/Xbt2tVcikjT3+eP31FNP2SupF8X14BjH54iIiCQrc4UTbLHFFvaqYvLkyfZK6sURgODzx51YssgdM+HWui+//LK5jktRg2IdblPMOfM5c+Z4Z599tjdr1iz7HUnbwgsv7HXr1s0+qtAY17i3337be/311+2jiuBniIgkh82v4B1fNMY1jufum2++sY8qNMaJiCQvk4WTrbfe2l5VfPTRR9qRbRA5F8HQxODzmxWci958883NdRJdJ0UNikWHDh1M8WTFFVc0RROKJxRRJBuC70GKhf/85z/tI6lHWJZPVsc4kbLYZptt7FVFkfLEkhYc47hrkQonIiLJy2ThZPvttze7sn4PPfSQvZJ6BJ83PnC32mor+yh7XNbJww8/nEiXRFGDYkFwHMWTRRdd1BzXoXgi2bDddtvZqxYa4xrDWOG36aabKjRRJGXBMY6Mk4kTJ9pHUo/gZ0PY54eIiMQvk4UTFno9evSwjyruu+8+eyW1otMk+LwFn9esoaiz3nrrmeskuk6KHBQLungonoCuhnPPPddcS7o22GCDBe48EfetuIuIgmAwADnrY5xIGey0007ekksuaR9VaIyrH4XhYLAuz62IiCQvk4UT7Lrrrvaq4l//+pd3zz332EdSi/Hjx3tfffWVfVQRfF6zyH9r4i+//NJcx6nIQbEg0+bYY48114899ph32WWXmWtJ12677WavKrhrwvTp0+0jqQVjXFAexjiRomvXrt0CY9zdd9/tffLJJ/aR1CI4xtE1vMsuu9hHIiKSpEwXTshn8LvtttvsldTi9ttvt1cVa621lrftttvaR9nFZIu7K9Exk8QOVdGDYsEO1WGHHWau77rrLm/MmDHmWtKz11572asWGuNqR1E4OMZxK+411ljDPhKRNGmMaw6h148++qh9VBH2nIqISDIyWzhB79697VUFt9WdMmWKfSStob1zxowZ9lFF8PnMMn/XSRKKHBTr8Pvfb7/9zPWNN95odv8kPdx1Itgdcccdd3jvv/++fSStuemmm7z//Oc/9lFFnsY4kaLj7mEbb7yxfVTB+1ZqE/ZcaYwTEUlPpgsn++67r71qUdRFbdSCR04WWWQRr2/fvvZR9nFr4oUWWsgcn+F4SRKKHBTrHHTQQfNu+3zppZeG3pFEkhP2ntQY1zZusx4c49Zee20d0xHJmOA8jruHFfFIbNTeffdd75ZbbrGPKgiF3WijjewjERFJWqYLJ9/73ve8Pn362EcVpLLrtnatIxCWIFC/H/3oR+ZsbF7wd3UL/KSybYoeFOscddRR5kgDzjnnnAXCNSU5hCGzK+vHMao33njDPpIwV111lTd79mz7qGL//fe3VyKSFRSHg3e5uvrqqxfIX5P5McYFaYwTEUlXpgsncF0Afgq3bB2dBEF0GuSNO67DkaN//OMf5jpuRQ+KdX7961+bQhHOOussc3cSSUfYe1NjXHXsWAefn44dO5risIhkT3DB/9FHH4XOU6SC+U4wv4nPa7fhISIi6Vj4D/9jrzNp+eWXN3fUeeGFF+xXPLPT2KFDh3kLP2nBZOSBBx6wjyro3uA5W2mllbyVV17ZfjX7CG0lqJX/ERS7/fbb2+/EZ/HFF/cWW2wx07HDa47WWP4eRdS9e3fzc7IQ5Y4uPOZ9JcnhGBqBxB9++KH3zTff2K963muvvWZuV7zOOuvYr4gzfPjw+T4PwHt21qxZ3uqrr+4tt9xy9qsikjbCyLkzDLfU/e9//2u/6plOR0LLgzcBEM879dRTzeaNH8cTyXRab731zOaOiIgkL/OFExAuxllP/8LiySefNMcqirqobQSdGSeddJJ9VMEHLMUnCicExn7wwQfmrhN5ObbD35O/N+d9uSNQEosiFqzs+LCYZbKXRMEmDYsuuqjXtWtXb/LkyaZ4wuuHn7V9+/b235C4PPfcc95FF11kwmA/++wzU7D797//bb9bwe+jX79+JutHKhgLLrzwQvuogoXXUkstZQqs3IWLxcUGG2xgiikiko6///3v5ijoQw895H355Zdmrvbpp5/a71bwuf7//t//s48EZFyNHTvWPqqgIMznMgV1ClHYZJNNzC2fRUQkObkonCy55JJmEswCz2Hngomybs3W4oQTTjCFEb/f/va33k9+8hMzYXnvvfe8t956y2SGMJGhQJD1RfIqq6xiFpks7JkkbLnllvY78eLPZZHGc0ahiVs5F9HSSy9t7iZE5wPPMdkaO+64o/2uRI2FwuWXXz5fRgdjGAVP3pPPP/+8+Rp4z37yySeFLdzViwLTkCFDFriTztlnn+3tsssuptDJa/iVV14xd+Oi4BS8o4eIxIuC78UXX+zdeuutZvzic5tjdL///e+9l19+2Xv77bftv+mZz1fmdptttpn9Srm99NJL5hitH+MYmTAUSvj84DmdPn26KUhRcF9//fXtvykiInHLReEEXbp08Z566qn52hcpnCS5mM6yCy64wOy2+nHMZPDgwd4KK6xgFl/swrJY43wxkxtCZLnbTtZT2umMmDRpktltYZGZxE4yhROOiPFnvvnmm4XeFWPHnvZfiicU3niP0d0j0fn8889NZs65555ripfYeuutveOOO87cCYbOsM0339zcIpp/1+FICiHZFDnL7rTTTlsg66h///4mP4FbO++8887mnyzMWFxw/IzXNIX3dddd1/4/RCQOfHZQEOa4sNvA2W233bzf/OY33jbbbOMtvPDCXqdOnRa4U8yUKVO8LbbYwoxzZUfRxBXUnV/84hfeD3/4Q7N5w/yH8Yx5CfMTOq85bksnLl0pIiISr9wUTkBl/bbbbrOPKp5++mnzYVzmiTGLrfPOO88+qqAgQpus/2gLExMWaSyUKQawuOCcMS21ZFtwO88s4u/FAoijDCwwN910U/udeLFYpRjFBIUOpyJn6vDaYNHJrZhZ2LOrz2RWmsdxnL/85S+mcwoUKrmzEbuwHKNz6P7idxDMKOIuYhRBySgqqyuuuMK78cYb7aMKFhLknbAgc8iEochJsZXdbcY4XtM894x7PL8iEh065XhvEjLu7gbGZtavfvUrE/DOMTqHTRwW/v7uYbD4598tc3bH0KFDvUcffdQ+quCuayeeeKJ9VMHnB3ccZE7CBhgbYRMmTDDPPXcv4jkWEZF45KpwwsKBD+Hghy4LC9LGubNC2TDhYNc66He/+13VrgEKUHvvvbdpAeWDl8UFHR0vvvhiZgNkv/32W1PkoVU1eIvquJQpKBYsOpnU8jxz3IFurs6dO9vvSr0o9nGMhH9+/fXX5n116KGHekceeWTV3VU6fziSQiu2wwSZ3wmZTrwmy4ZjNxSegk4//fSq4bkc0eH5IheLAgpHeFiU0KWoAFmRaJC3wXuTz0gwfjG+cXe6aqGvdA9zJMV13oFNET5zevbsab9SLhzF4X9+zD2Cm18ORXaON+2www7enDlzzEYYx57uv/9+M59TgKyISDxyVTgBH7q0Yvtvn8rkmGM8ZDOU6a4g7DBQNOGD069v375m8tIaFsV0bpAN8NVXX5nnk7tSZDVAlokAkzQmWOzSc+woCWUJinXYzaJIRaGIxTuvATq6pHbB4FcmuT/+8Y9N3hCv47ZQBKZLgvejw2SYwibdFLx3y4LngVyToGOOOcbr3bu3fRSOhQddUxSQGTcomihAVqR5weBXuhwOOeQQ7+c//7mZO7SlW7duZpHvP5bIpgiL/x49etivlMO4ceO8M8880z5qwZ11uNNda/h85hgU3bB0nvCZoQBZEZH45K5wAhavEydONItZhyDFqVOnmtvblaHSzgSD/JL333/ffqWCnARaZmtFhwGTGD6gsxwgSzs+BSIWj/zeaetNSlmCYh2KkyzUmYDxnmKHPqvHuLKkWvArBZN6c5h4H7PA5zbcDu91dmpp0y4DumwoDNOt48dzevzxx9tHbWPHlmIUIcgKkBVpXLXgV3JM6slKY95BQd4t8B3el2XYoHDImSM0N4jOxIMOOsg+ahvdjMx9mZ8oQFZEJD65LJywiGZhQRaAf2HBpJjOEz50/edqi4bCBkUTf6sraP8nfLKRrps8BMjy87E741pRkwpDK1NQrEMxze3Qc4yLRafyIcLVEvxaL46EsbCggOnHf5/3JcdQiryTSHYVY1ywm45xn53uRn52Xr8KkBWpXy3Br/Xi85sFP+8/P7odmX9wDKXIKNxyN7UgNoU4at0IBciKiMQrl4UTcFyDoyYEo3733Xf2q5XiCd0oTLCrnbHNM3YRWJCxq+BHoYiA2GYn/1kOkOVndLfMZbGa5G1zyxQU65DpwiSWQhqTr65duyp4LqDW4NdGrLnmmmYHkW4nP4onvCcpdBYx8+SRRx4xRRM63vwollKcarYorgBZkdrUE/zaCArydLTy+eJHZylFewqdRXTzzTd7f/rTn+yjFhShyMVqlgJkRUTikdvCCVjk88EbvA0vE2E6JWhPLNIRAzpsWFCQm+DHAoAFBWFhUclqgCyLUZ4Hdr3IL0iqOFa2oFiHI1z8zBSs2J3ncZlyhKppJPi1EXSd8BonANuPYztMhCngFeluO2PGjPH4SPIXw8FOKYVhJv1RUYCsSHWNBL82gk0ucrXcn+OQu8ZRUe4sU6QOYvKvLrzwQvuoBc8D87iojkYrQFZEJHq5LpyAwgjFEwolfgSeUlBhsRtlQSEto0aNMpMYdhD8+HA8//zzzeQiarTDZy1Algkbixz+fCZbHIlIStmCYkFRjk4T7mTFwpIiGj93FnJv0tBs8GsjCPgLK54w+eXoGh0SvDbzbtiwYd5ll11mH7WgMMRCI44iuAJkRebXbPBrIyjIhxVPKBCz0KeTlg68PGO8PuWUU7zbbrvNfqUFHSJkx3DEJmoKkBURiU7uCydgQk1xhB3YYHv3lClTzIKfxV8edy2YxBMedvvtt9uvtOBcMQsqfrY47zKTtQBZdklYRLKDQgJ/kh0QZQuKxdJLL22Kk3RXuKNSSR6TyoIog18bQeGKye4XX3xhv1JBIZWjLRTyKCI2kjWQNjqZuHNOMOsAFO54f/OzRdnJE6QAWSk7iuJRBL82yn2u+nPrwLFc5hp0oTEPySM62Qi09t9m3mE+Q3GKza84u9wUICsi0rxCFE5AazXHJzj7zyLCj4UeO8QcrcjTBJi2dRYUFAiC6ARh55/OCwJxWcDHvSOTlQBZfteciSZvhD83yY6iMgbFggIdHRUsbnnNzZw50+zSF10cwa/14jw8ixmKCByfo5gaXFxwfIydWV6fZHjkxV//+ldz202KFUEU5xivKWKQQcLdnqI8IhBGAbJSNoznUQe/1mvkyJGmuEB3V69eveZlRvlxbIcCMhtleckhomuN7h2OGfpvvewwnlMsYYzjZ+b5jqPrxE8BsiIijStM4QQs7Hv27GkWOC7IzOGoCR0pHLXggyHLH7x0yfBrYbFE+2oQPyMLuR/+8Ifzzq3SXksxhYVT3LIQIMsuMB/2/PlMtCigJKWMQbHg9877hkUs7zEmhRxzKKo4g19rRccDixr07dvX/PnsGlKwpOXaj24wipi8JyhyJfV3bARFHu4cwW5nGI4G0GlHkYrCBQsLJvZ0vdEBFTcFyErRxR38WqvRo0d748ePN9dkqPDe533OnCKY58aYd+edd5r3I0XVLGd03HLLLab4xB3CwvA8//KXv/Q6d+5s8uMY47jdPPO6JIpVCpAVEalfoQon4MgIuyUspINJ7aDIwAcvu7YsBDt27Gi/kz4m5exOcJ7f7fwEsdPNhy2FA7DrT7slH7p0nhAwllSoYZoBsvzZLL7IJWAhlVS3C8oaFAsWlOxUManlKAPt3Ez8ioTugiSCX9vC3cFGjBhhrilUDhw40FzzWttnn33MoiKs9ZtdRLpUKKTQIZFEoaFW/ExnnHGGd80115jxIojFGgWTgw8+2DxmPOcoImM5Y9zzzz9vut4oaCRBAbJSREkFv7aF4vQNN9xgrg844ACvT58+5pqFO4VLOhsZz4IYB+jIZXzmsz9LOUQUu+mi42cLHq0EHR+MgXR9gPGczRjGFcYXCt8UT5LA+KoAWRGR2hWucOJQQOA8LPkmYW3gfH3s2LHmn3RJpBk8RpWfVs4LLrhggU4Zh8UDO0PB2/NRtGCXiDZWPnSTavd0XIAsC7ukA2T58/h5+fOSPjJTxqBYh4kqnVAUjVi48/vl7i95x2sp6eDXauiyGDp0qLnm/czdtILI5KCAyO+A7p8gFhcsSngfsnuYRDdaNWQUsFCje4bAxzB00gwfPnyBLibGZ7JHKLowxjHGkG2UFAXISlGkEfxaDX8HQu/B5zd/Dz/eUwTT83ekcBrsvuUx8x7GOMZrusDS6rJjLsJ8klsM02lC90aYfffd14xxwa5cNpr4GtltjI8chU4y+F4BsiIitSls4QTsWtDezoBfrV2SQgWTem5xy6SYD+kkdhH5UOID9s9//rN30003mfP01bADxASjWhApHRBptXs67EokHSBLsYvuIX5vdAIkcUTIr4xBsQ55E+xI8Tpm8srue9LPf1QIyrviiitSC34NYkxiXGAyTlHy5JNPrjpppaDD/+iO4d8Pw3hAMYh8AHZA6aBJog2fQhT5MHzEMAGv1kXHOEUBiDGuWncM4zI/J7uy/I4oXNDplSQ+FxQgK3mUdvBrEIUQCghgrkLhphoW7YxXdDnSYRJEAYWxhi47Cs50h/F5lERXGsf3rr76anO3HMamYL6ew9jFv0NxqNqxYuYQdEC7I8h0gLABmCQFyIqItK7QhROHxQ9ndtmVYLcyjAvIoojBIoSqP2c/KVpEseAnGIz/Preio7uERQLFHIoM1dCOT+cIkwX+/63dcjjY7sniK6l2Tz8WOEkFyLIjxfPH75QPeLpeklTWoFiHQpnbfadox4IyT9kPWQh+DWJBTtGECTiFOIombf096FRjks34wPPP7yMMu4jsOF933XVmLOL9yYKfyXIUu4n8nXkdMIZy1Onaa681C5qwdnWnf//+5vfAGMf4wCKpGgrhFEgpAPEz8p5P4y4bPMcKkJU8oFiZdvBrEPMBxjjmVxQGyDpqDV1d559/vvm7EhhNQcQVuINY7DMH4mdm7GFMYv5GR0cUODpEhzCfGxy3YfOLn4diTRjGA3Kp+Hlr2VigwMK8hm5WjgbyM1M8T5oCZEVEwrX7jnu8lQgTXMLIqoUShqEgQSGAfAc+MFgw0xJKCzlVeBYf7HrQWUH3Ax8yLFLoRKCAwa4kHz61IrDroIMOMosIFjoc0QE1Lo7stIYdkGHDhplrdg6OPfZYc50WzsqyE0QxB3SJsFjiTG0UWLi4n7GW5ydqFG6OPvposzjk5+KMeNmQScEklUnWaaedFuutsaNCBwavSxbtoKC33377pXq7S8YPnksmzIwvf/zjH9tsn6fj6sorrzTXHDOisMDE/pJLLjET+lowOadbgt8bk3v+GxRTmCAzxrFQcWMcr3PGONfOzUKFMY6/c7WCTRjeK+SYMJ5yq3V2bcGuOAWS1tC9ctlll5lrfmeMlWmiRZ/XkrvTEeM2P1+Sd/sS8WMs4TVJh4nDBhJdJsxn0sKciDGOggbjDUdbmEO1hqLP3XffbYofjA8UWHlMAZhuulpQfKawz59JUYAxju4Oxji6WRjjKB5TAKEIzSYbYxzFJsa4119/3fxZjHm14M8js4UxrpGjymRAsckGCi/MCdPC88FriXHaoUjPGJeHz3oRkSiVrnDiEGDKhJcFFDsfaWOXgQ4TjhYFP4wonFBAYcJDTkBbOHbEIgrccebwww8312nhJcYHL/9zOzMc9eCDN4pgUff8sIPG8YqkcUeAyy+/3Fyz+59mXk4a2BGkDZmuG4qKFE/SzNNoDV0BvA6ZDIMCAa/DpLuVwpx++ummC42FAUWTto5+MLGnxZ1FElks+++/v/2O55155pnmGBmLknoKGnGiG43wx379+i3w+jj++OPN4oRuNa7bwt1ACIfEYYcd5vXu3dtcp4WFFq8rd3cQcKyH11aebg8t+Udhkdei62ali4HXIZ+PaeI9QtGE7j7e/xRN2uoEYZ524oknmms2SNgM8mMDjAIDnW5ZQFGGMY6CLhsJzWAOx1wOv/71r814kiaKXnTYPPLII/YrlU0+inGM7SIiZVCKozph+MDmKAu7AiyeqKpXO4MfJzJBuGMHiybaUMM+gNgFJiuEhRIfxm0ddwm2e7bVAh83dnLiDJDl/8t/i8UwAY5JZNT4UdAqa1As2K2j04cjFHQW0enAcxB1pk0z6IjJSvBrGFrR3eSfv1Mt3QrkstDNRqGOibVDFxa7tLzvKWIdccQRZlxhIcUYkjTGtZ/97GemI4zxji6WIMZjilr83Tnq0lanDQVXOl/4+ck+YCGW5hEZxlsFyEqashT8GsTmCcdVeL8yh6HQXsvfiY0IjuXQCfiTn/zEfrUF7/mePXuauQX5SHwGM74nic8/Cgg8z4zDfBZG8dlHV4e7yw2/W+ZQaW5IKEBWRKTEhROHDz0+kNix5Na6LEJoXWcBGBZE1iw+fAg1pGBzwgknmF1idpZZ5FTjigrcJYMdGJLm28o94L9JkYJFLItGWv/Tbqvk7xxHgCyTCX5Gfmd8cKcR6MnfoaxBsWDSSis0i1+XscOCOW0U07IU/BqGvx8ZQBg0aFBNx9g4a87PBI6K+RchdGJQnGQM4OgYhQoKMXR6MHbQps5ChqJlHA2HFEHYGWbRxg4zXW9thQpyPIeJOAsFiifuVp2t4fdHFhX/PkcUubMTP1uaFCArSeMzPkvBr2HoCiVEHCeddFJN7wOKjhzJwZAhQ1q9Yw7fY15BMZziJZthdLfWerSmXswTKdbQzcsUmnE1js98ChXM+xhHnnrqKZMJk/TGUBDPrQJkRaSsSntUpxbcbpX/0bXBQpAJej07tiwg+IBlR5uiAAWaZiYyLKpYmPOB3VoKvV/W2j39mAjQ+unOKbPAo6W4kbZ7ch3YbWPSyIKymQ6WRo0cOdIsgFkEMpEtI46a0D0FOrrCbqObBLJLaFenw8Qh+JUFRRY6TBz+jgQNYsCAAabNuxYsiliQ8372d5uw20oHG8M6zz2/g2o4okinFMVY/luMcXRJuBb/WvBaZ8HAZJmxjV3HRjs/KDQcc8wxpmBNbgnt7rXgWBOFJDo6uE4zwyGItvabbrrJhEqC54sxLsnbKUsxUfjk8/PBBx+0X6kEv/L6ausITJLc5yI4hldLRyZdWsxxGM+4hW9Yt0kt6CRmU8WNcRRmWey7bKu2sIlGDpN/jKPbLckCLZl5p556qhmb+XMZ47hpQVaQs8XrkE47MP4ydlPIEhEpGhVO6kQXBxN8qux8+PKY0EQ+YJm4EzTGHW4IHqObJUr1BsU6hMWyIws+dGm1zJKoAmRZdLFAoZuHBXLSFBRbwWKRoyfgTkMDBw4010nJYvBrGLoQCHEF2UZ0aNQiLBDWYZF+ww03NFW8Y7FBgZjXM9eMcRRZ6IpjR5Exjh1exji6KKJUb1As+DuysKDLhgUF2Qm1/P+SpABZiUpWg1/DEMTv/p5HHnlkTZ1kCAuEjRKLfI7VMsbxeU2xlqkw8zjGODoo3RiXBRRN6N5j3snnGfO4qOeXzWAM5jWpAFkRKbrSH9WpFx+sfKjyge52Isgg4Z8sYPg63+ffixoFBXd2nhZ1dpdqQesqrZRZavf0YyeHY1Iswmg7ZnJA3gO7RDyftIbWggIWeQfsKNW6cx8lJlwUz9j9plOJI1kU0cqGMEzOsfO7YJePLqAoQoDbwjEhboPLP5kI87qh+4IJe9pHOIImTpzojRgxwlzTQVZrcYmCBgHRvNZdW7rf8OHDzeKcCWuj3W0cl+N1y/PnH+MYfyhIsJigeBLHeXaOuHDbS3ZZWdTU0iHH35ciMv8/xjha29nVztLCgqMJu+++uzk+QAcjf09um8pYznOcpfFYsos8Cd7/fMaA7jnGN4r0WepCAAVsirhgM6PWz2Q+9//617+aa/KZ4ugQ5HOa9xxHbN3RWv8Yx3PZbLhrlBiPKYoxZjB20DnTWjdh0hiDKQKz2UURxWWzsCnGfI7fYVvHy0VE8kCFk5ypNygWFCTYkeKMMR+6tK5ydjZLEwMWYc0GyPLhzMSS3aS0Ml2Y3JQ5KNbhdcningISRTt+d2RQxCHrwa9B3BJ96NCh5pr3YT3HmaoFwoJ2eI6s8b4mEyCO4m0SKJbWExQLjvlRdKEgxRjH+JG14zAs1hQgK43IcvBrGP6eo0aNMtd0HdbaTYe2AmHLinGR+d/jjz9uNs54jjh+miV8zitAVkSKTIWTnGkkKBZ0Q7DrTycHCwtyRdixyNriqpkAWX4Wdjt4Xihc7LnnnvY7ySp7UKzDLafZbWLiRNGOnXUmflHJQ/BrEDki3F2C4iCFwpNPPrnmiWRrgbCgeMTzTfcWC/S8Yse33qBYsJikUMauLK8HihJ0fWWNAmSlVnkIfg2i84vONzDHqDWPDfUEwpYRYz4dfzzHjI/Md+ggzhoFyIpIUalwkkMUQNh1oJ2dHAfOktYi2O7JIi5L7Z5+LILo1mAXlkUQuxdMItlV57xztUkjRzLGjRs3rz2UxXrSKJzwu6FgwOSGHbeyogjmdtYp2rFYXHXVVe13G8NrnkDVc8891xTVwM7bcccdZzqWstoSzCKZogmdSBTTKJrU83fl5+X/y6Kbu3H5TZkyxbzuQQcLR2nyjPc9hQTeR7zfa72dOkUXxgBujc1rjnEga9k2Du+DnXfe2fyTAhF/V7qR6LahayjN2ytLuuiypEhK1gfX4GguRWHGuqx2k/EZzRhHJhIL+t/97nf2O22j64pjSGyQEAjLwlsWxLyGzjQ6Wzn2x2uBInwW8TlH4ZvxjPkQ4zlFHzYBKCCnMT8TEWmGCic5xYcO7buvv/662aGsdTHqb/ckSJWdXVors4pFEIthzhxThGBxQXYGPzvt+cEOBhaMrijEAjutW+JSoGL3jIkCk8isBfImiV1/juxQAGPSRB4FhbFGcByHyTXHc0AB7aijjjK7sFnenWQxwIKCQg9/T4omtWb3gEBYd/cMFiPkKPldfvnlZoHF8RQW43nHRJvOMhYH/K55Hwd/5moYE/h36XJiss6RMbqfsopMIIqrZLKwEGKMI8ybn5txr9lCo+QH48SNN95oQuD5DAPdc7/61a9MB2WWC6J0WDLG8blL4fOUU06pK9SVUGi6EpijMMZFHTxdJMz56FqkUMU4kdbR5FrxOb3HHnuYuRB/ZzbCOFbKa5xid6PzARGRpKlwklONBsUiL+2efvUEyDKJ4BbMLCQ5spBGaJ6CYufH0SueC4pa7KrzmMJXrfIU/BqGO1uxKGAhQdGknlbltgJhWWxfe+215poiUlbuBNGsRoJiHQqX4Egj7z8KMVk92uAoQLbc8hT8GkS2FEUTPnPpuKRoUs/nXRKBsEXDBgSfDWyeEfpPdwfzwqxSgKyIFIEKJznGzmq9QbFOsN2znnb4tNQaIMskk5+Jr7HYTCtATUGxLdhNZ6LHEQoWhBS/eD6q5dU4eQt+DcOtmSnygb93vbegbS0QFtddd52ZhFL87Nevn/1qMTQSFOtwpJEQVp47utRY0GX9+IsCZMsnb8GvQdzGl6IJ7zPmIRRN6v17KxC2MRzTdgUIXkfMjxjnsqytAFkKyAqQFZGsUuEkxxoNinXy1u7p8DO2FSDLc8NxJCYVHF+op7shSkxiFBRbwfEJughYCLvjVNWOUuUx+DUMPwO5PBg0aJDZbatHW4GwTDovvPBCc33YYYcV7sx4o0GxDq8VOvL4/3L8hTs75aFDSQGyxcfnbt6CX8NwrIhjcTjppJPqfm36A2GPP/74TB+5zCKKEMwBGSPoPKGAnofutGoBssyXFCArIlmlwknONRoU6+St3dOvtQBZunHoUHDhkvXu8keFwgl/BwXFVtANRKcIxRM6gsjZ8R89yWvwa5ibb77ZLIowYMAAr2fPnua6Hq0FwmLs2LHmNc9zevjhh9uvFgvv70aCYh1eX9xFjNcbxRPyTrJ+9MFRgGzx8DrMY/BrmJEjR5rjZKDoUe/8Q4GwzaOQSoGY4hXFEzbBKKYwPuSBP0CWLmLGOAXIikhWqXBSAI0GxTp5bPf0qxYgi7lz55qv9erVq66guigpKHZ+/L54jbKIpTjC5JnjCXkNfg3DQt91ivTt2ze06NGWtgJh6RYj94VMDI4vFXWHjgl1o0GxDmMcBQcWFkzI6Var97+RJgXI5l+eg1/DjB492hs/fry5JouFjtd6KRA2GnRosInGkVDGOArF3DExT0U4Pu95HyhAVkSyTIWTAmgmKNZhV5YJTN7aPf1YOLK4YLLABy8BZGBhyeI8rduSKih2QSwEWRBT4HJHEFgI5jH4NWjixIneiBEjzDUFvYEDB5rrejBpbC0QFpwJZ2eOohIdOUXWTFAsKLzQXcd/gzGO1na61ShE5AmFcQXI5k+eg1/DUOS+4YYbzPUBBxzg9enTx1zXQ4Gw0WJOwSYN4wHjAhtGFE/yRAGyIpJ1KpwURDNBsch7u6cTFiAL/klbNOdpXTZMkhQUuyB+PyxgOZ7DbiwFLybheQp+DaKrYejQoeaa98/gwYPNdb3aCoQFgYoEiNLizmu+6JoJigU5RxRgKGwxxjEmkH+UNwqQzY+8B7+G4WcZNWqUuWajgp+nEQqEjR5jJHNBjm+zicbzm1Y4fjMUICsiWaXCSUE0GxSLIrR7Oi5AljwEdwY7GCDb1h1doqag2Ap/8CtFE4e7M9AtxcQvj2gp5u4SFIQoZHDb4UYmd20FwoLXNLtw/PeHDBlSioVys0GxYOFKUY7nj0UFBQc6wPKI7hIFyGZTUYJfg+jYGj58uLlmbkABqBEKhI0Pnxfckp7fFWMlnRt0EOeRAmRFJGtUOCmQZoNiEWz3ZDGYt3ZPP4oVtPazu0wxhRZ3FyBL5kmSk9iyB8W2FvzKTjmLWIp2LATzltnAwpWiCd1EFMQomjTaUtxWICzY8eXPJHC23mMredZsUCwowHAEjFtj85pjMp7WMb4o8F5RgGw2FCn4NYjPTcY4MihYiJNJ0ggFwsaP4jDFdLpcOdLH6y7PXYkKkBWRrFDhpGCaDYqFv92Tu56wy0vbZF7x87DYomhCSCyLLj54ydfguaKFP6kuh7IGxbYV/MquP/kvdAEwISKPIi9hcCwAWFBQDOJnoWjCTlkj2gqEBYti7tgDbnFcprwcJs7NBsWC9zv/P44mUsgkS4a77eSZAmTTwxhQpODXILokGeMoflO8POWUUxoOW1cgbDKY/9H9SMGLMYDPJn53eaYAWRFJmwonBRNFUCyK1O7JwtI9J3ywnnHGGfMCZFlc0OXA8SYmco0ueGtVtqBYdr258wv/bCv4lTud8LzQ6URxgMcUtbJu2LBhZiHAQoKiSaPtw7UEwoKFB23LfL+RWxznXbNBsQ5FTHC8kfdiI9lQWaQA2WQVLfg1iNv6UzShg4auSYomjX5mKRA2WWxA8LnCRhqh/3RuMEfMMwXIikiaVDgpIHZTmwmKdYLtno22xmcBGTCci2XByUKLgoU/QJauGr6fRIBsGYJiKSRceOGFptOEiTeTHYoBrQW/slPORI8jFCz2KGzx3CSdRVOP888/3xTewM/GhK5RtQTCchSDYwBg4cFCpowocjYTFOtwvJGAVZ53OtB4PotwtIVxWwGy8Spi8GsQuVMUTXh/MJegaNLMz6ZA2ORxZNsVF3jNcmSnCJ8bCpAVkTSocFJAUQTFOkVp92SiwN+fBTkfprRR85wwgaOzgZ1rJhZJBcjy9yliUKwLfr3yyivNBBmcTaaowHPeFo5P0FHAothl7HAcI4v4OcnKAUdm2AFrVC2BsBgzZowp9PG+ZEe7rKIIinV4XdKdx3+Hoy2dOnXK5W2wwyhANnp8FhYx+DUMR484zoaTTjqpqdeLAmHTQwGVzQze/3Se0D1clM4zBciKSJJUOCmoKIJinaK0e9LRQHcAuxIstNyOKzuFdDZQEGKxz8/K5DjOAFkKJ/xuihIU21rwK5099RTuaG+nK4XiCR1A5OxUO7aSFjJGWDhhwIABTR+ZqSUQls4djj2Bne283n0oKrxfmw2KdXh9cRcxXm8UT8g7KcIxC0cBss3jtVHU4NcwI0eOnHdHOgodzcwhFAibLoqkFIgpglE8YROJbg3e+0WhAFkRSYIKJwUWRVCsU4R2TxaaLBRoXWchH0yZZ5eZRT4LJn5WPnjjDJAtSlBsW8GvjeB3weuVRSyFGCbeHD3IAhbrrjukb9++VQsdtaolEBa333672Umj2+KYY46xXy0vJshRBMU6jHEUE1hYMNmmE62Z/14WtRYgSwGZ15bMr+jBr2FGjx7tjR8/3lyT10LXajMUCJs+ui/YUGPziDGOQjF3TCxawY/5hwJkRSQuKpwUWFRBsU4R2j0J3qQYQktnnz597FfnR2sni4u4A2TzHhRLEarW4NdGsMhjcczvi+MFtMQz8UvTxIkTvREjRphrimwDBw40141iUldLICzIU5g7d67Xv3//wh0JaFRUQbGgCEN3Hf89xjiOOtKJRpGhaCikK0C2bUUPfg1DIfyGG24w1wcccEDVz8laKRA2O5hfsGHDe533PBtEFE+KhrFcAbIiEgcVTgouqqBYFKHdkw9MJsN0nbSW18IinY6UuANk8xgUS/Gs3uDXRvF6pahAYYk/l+ecDIo00I0wdOhQc83rfvDgwea6GbUEwoJjY+ya8V4bMmRI4XYJmxFVUCzoLKMYQ4GMMY73fY8ePex3i0UBstWVIfg1DD/vqFGjzDWbB/zMzVIgbLYwXjIv5Cg3G2r8bjhqVkQKkBWRqKlwUnBRBsUi7+2e/D3ZgeC5oFhBS2dreK7iDpDNS1Bss8GvjSJvgl0iJjwU7dgRTzrfgzZf7i5BEY2CGrcdbnbCVWsgLC666CLzHOy9996ZObKUFVEGxYJFMgVAdmV5nVNMoBusqOguUYBsRZmCX4PotBo+fLi55jOdIlGzFAibTXzWdOzY0fzOGTeZE9FBXFQKkBWRqKhwUgJRBsUi2O7JojJP7Z4cIxk3bty8ls1aQsPiDJDNelBslMGvjaJ45XbEKdqxyGsms6ceLCYpmtARRFGLokkUP3MtgbCYMmWKeb2CLpciZio0K8qgWFCMYZzg1ti85hgreA0WWZkDZMsW/BrEZxljHLkQLKDJIWmWAmGzjbkPHWV0vHJcj9d4MPetaBQgKyLNUuGkJKIMioW/3ZO7nrDjS0tkHrDwdAUfigL13O42rgDZrAbFxhH82ih2/TmyQ+GKyQ55FHEHvTHpZ0FBwYifl6JJFBk3tQbC4vLLLzeLOY6MsLCVBTERjjIoFryX+W/Q5URRkyNjdD8VXZkCZMsY/BpEpyNjHJ+FFCBPOeUUU3xslgJhs4+5IF2UFM54f7d2fLlImMcoQFZEGqHCSUlEHRSLPLd7MkF44IEHzIKUow/1Bv1FHSCbtaDYuINfG8WRKZ4jCl/shvOYglVchg0bZib/LCQomkTR0ltPICwL12uvvdZcU7Di/SbhogyKdShogqOOvC8p0BT9yIZT9ADZMga/BpFRRdGEz0E6HymaRPG5o0DY/GADgs8kNtUI/acrg/li0SlAVkQaocJJibCDGlVQrBNs94yiTT4JTIz5+zJhZAHbSDha1AGyWQiKTTL4tRHsgjPR4wgFCzmKVjxPzebMhDn//PNNMQz8/EyyolBrICyuu+46M6GjINmvXz/7VakmyqBYh6OOhKfyO6O7jG49ujLKoIgBsmUNfg367rvvTNGE1zXzAYomUf38CoTNF45vu8IB7w/mNRTSykABsiJSDxVOSiTqoFgnr+2e/OwcNWLCwDGIRjsX+O9EFSCbVlBsWsGvjeD4BN0FLJDdkat6jlvVgueC/BoMGjTI7EpFoZ5AWCZwFLFw2GGH6fx1DaIOinV4D9Cpx3+TYyvc2SnNzqukFSFAls+nsga/huF4EsfQcNJJJ0X2O1QgbD5RHGXjhPc2nScU6/PeVVYPBciKSC1UOCmZqINinTy2e7IQda39dMo021EQRYBs0kGxWQh+bQQdQ3TAUDyhu4ecndaOvNTj5ptvNosrDBgwwOvZs6e5jkKtgbAYO3asef3wcx5++OH2q9IW3n9RBsU6vL64ixivNzqeGPPKcqTDyWOALL+vMge/hhk5cqQ5dgWKG1HNAxQIm18UQCkQU0yjeMImGJ0YvK/LRAGyItIaFU5KKOqgWCeP7Z5MFlxGS69evcxCq1nNBsgmFRSbpeDXRvA889qlA4CiD5P2Zm/Vy4LbdYT07du3zeJGPeoJhKWDi4wZ8iU4KqXdrtox4Y06KNZhjKNQwMKCiTRdZlH9t/MkDwGyCn4NN3r0aG/8+PHmmkwXOk+jokDYfKOzgs01jqgyxlEo5o6JZSwuMh9SgKyIBKlwUkJxBMU6eWv3ZEFKGBjn91kARdmy3WiAbNxBsewOZzH4tREs4FgoU5ji6ADt90z8GjFx4kRvxIgR5prC18CBA811FJh01RoIC85XU9CjgEX3j9QnjqBYUJCh04T/NmMcxx7pMqOAUEYU3rMYIKvg13AUy2+44QZzfcABB3h9+vQx11FQIGwxMNdg84b3Me9nNn8onpQR470CZEXET4WTkoojKBZ5bPdkd5+/J9kIUR+NaTRANo6g2KwHvzaK1y4FCYpM/Iw8n2RQ1IMugqFDh5prXq+DBw8211GpJxAWhCtSzKPdndeP1C+OoFjQNUZhhkIbYxzvaTKSyipLAbIKfq2O52TUqFHmms85npcoKRC2OBg7mSNyrJvNNX6vjQToF4UCZEXEUeGkpOIKikXe2j1ZzHKMgkk/HRdtHaVpRCMBslEFxeYp+LVRXbp0MTtATGYo2rHbXevvkdZb7i5BYYsiBbcdjnISVE8gLNjpY0eLv8OQIUNyd9eSrIgrKBYsyCk28rviPUWhgM6wMqO7JK0AWQW/to4OqeHDh5trPospJEVJgbDFw+cUt793R5npuKCDuMwUICsiKpyUWFxBsQi2e7I4zWq7JwtTihkuCIzukLjUEyDbbFBsXoNfG0Vhyu12U7RjAddWfg8LPIomdPVQmKJoEvXzUk8gLNgV5u9FKG1UR0zKKq6gWFCYodBKUCyvOcYOXoNll2SArIJf28bnC2McWQ0sfMkeiZICYYuL4jDzI7pfOYrH+0kdkAqQFSkzFU5KLq6gWPjbPbnrCbu/tDtmEX9XFlgsWKN+HsLUGiDbaFBs3oNfG8WuP0d2KEoxkSGPolqIGxN9FhQUlXhOKJpUy51pVD2BsGCByV19wG2Qo8y2KSMmtnEFxYL3Kf89upwocHJkjO4niTdAVsGvtaFbkTGOIjpFxFNOOSWSAHQ/BcIWG/MhujEpwPHe5bOS15IoQFakjFQ4Kbk4g2KRl3ZPFqjueZg7d24kmSK1oLVz7733NpNNPnhZXPgDZNnZYMen1qDYIgW/NorjUDxfdDpRiOAxxaigYcOGmQk/CwmKJlG32dYbCAsWIbQA8+9GeRvkMosrKNahuAmOPfIejTIzqghYeEUZIKvg19qQY0XRhE4cuhcpmkRdiFUgbDmwAcHnGRtshP4zL2HuKAqQFSkbFU7E7JrGERTrBNs9o26Zjwq5L5xVdQvXpO4I0VaALG3v7GC0FhRb1ODXRrDDzUSPIxQs0ihI8Zz5M2TOP/98U6ACzxETn6jVGwjLsQaOHIBFCIsdiQZFyDiCYh2OPZKRxO+bzjE61ui4kArG/2YDZBX8WrvvvvvOFE14PfKZTtEkjudIgbDlwVFuVxTgvcicRZ9RLRQgK1IOKpxIrEGxTh7aPZkE8Hdjsc0HXNLBqTzn1QJkKWax0AgGxZYh+LURHJ+g04DFssvY4ZgGeL7IlAHHYdgpilq9gbAYM2aMKZrxXmH3XKITZ1Csw/uNrj3++xxJ4c5OZenyqlUjAbJ8Zij4tT4cYeL4GE466aTQ57VZCoQtHwqfbNLwvqXzhO7hpDaY8kIBsiLFpsKJGHEGxTp5aPekW4FOBHYKWFy1tQsaB3+ALIs9njOKJnRMcJaWxR8fzGUKfm0Ebft021A8oXOHnB0mMizAMGDAgNiOw9QbCEuXEEeswC56rXcEktrxfoorKNZhYcFdxHi90fHEmKfjIwuqJUCW51DBr/UbOXKkOQoFChpxfJYrELacKG5SIKYoR/GEjSa6LHjPyvwUICtSTCqcyDwM5nEFxTpZb/dkwcrknXZyig9pJsizW81CwQXI8ncCk1aO5NAdBHZdyxD82gieQ17HdABQYGKih759+9ZU0GhEvYGwuP32282uFJ0RxxxzjP2qRIkJbJxBsQ5jHEUAFhZMkukgi+PPKYJqAbK8fwhJVvBrfUaPHu2NHz/eXJP7QvdoHBQIW150TbDRxgYTYxyFYu6YqEJmOOZnCpAVKQ4VTmSeuINinay3exLmSU4B3Ql9+vSxX02PC5BlZ5a/EzjDziKwd+/e3pAhQ3QkoBUsztwxDdCFUkvmSCOYFNUbCAuyGwgl7t+/v44fxCjuoFjwvqTThD+HMY4jkHSQURyQcBTqCZBlZ5Yjh4QsglDngw8+2GT+qHOndRTTb7jhBnPN2BPXZ5cCYYWQYUKx6WxijOOzleKJhOMzQQGyIsWgwonMJ+6gWGS93ZMPMQK96PDIQhYLRaaLLrrIe/rpp81jFzDmdjBoY+c8rcuqkfmx++/yRsCimeeKDIqo1RsIC/JW2IHi9U8RTDt38Yo7KBYs+CnSTJw40YxxFAR69OhhvytBdB8yxtF1AopMFB/JxaJrp9YA2bIiMHfUqFHmmg6eOINaFQgrYBxlvsgRbzbaeE1whE6qU4CsSP6pcCLzSSIoFllu9+TvwK4APz8BhrRZpqFa8Cs7iSw0HBcgy3lzdoHY3ZAK2mG5uwQLMI5d0d3ERIWiHWeMo8wSaSQQFiwY2XWiq4g7j0i8kgiKBS3YFGHZleX9SycftxOXFtWCX7kLDBk0tQbIlhmdTcOHDzfXfIZyl6G4KBBW/PiM69ixo3kNMp4yb+IzVlqnAFmR/FLhRBaQRFAsgu2eLHKz0u7J0Zdx48bNa6NMMsiL57y14Fe6GfjdUABgccZjdi9YhNC9QPCljnt4ZtFF0YSQVoLaTj75ZHNkwh1Ho2hHV0BUWT71BsJiypQp5nWGwYMHK78hIUkExYIiDWMJQbG85hhP2Kkvu7aCXymQ1BIgW3aM+YxxdB+yYCVvJC4KhJUwzI/oBCM7io4xNp7SzIbLEwXIiuSPCicSKomgWPjbPbnrCTvBtDKmjQWsK+ZQyHC3so0b59SZnLoQ02rBrxSc2P3jOBGLCyax7PjwwUs+C787jgtE2VGRJ0zuWVBQeOJ5o2jCLg/Y9X/hhRdMFwCTFPIomg1oayQQFpdffrlZOHKMg9+jJIOJahJBseA9yH+bLieKnRxB6dKli/1uufC+vPHGG83tcmsNfq0WIMvvjfctxakyIiOBMY7PJwqBdOlQBIyLAmGlGuaIdHVSyON9mYUjznmiAFmR/FDhREIlFRSLrLZ78uH/wAMPmIUtRyjiDCdkF5Xb0fLPr7/+2izyDz30UHNnhLDgV9o52eVhZ4IiALewPeigg8xklg9eFhd0VHDciImuKxqUxbBhw8wkn4UERZNg6yt3OuG5ozjGLjaPKTQ1otFAWBaB1157rbmmOMZ7QJKTRFCsQ6ETHIHk/UrhpmxdYZzj533C+w7sVDO+HXjggTWNrS5A9ptvvjHvHd67dCvyGcXObJYCxuPG7cspmvDZxF3pKJrQwRkXBcJKW9iA4LOQzTZC/+mmYB4ptVGArEg+qHAiVbFTGndQrBNs94yzfb5WTOb5uzA5ZVEcR/AZi/sLL7zQdJowGebDk8U3LettTU5ZjPF8cSSFIyJ84NIiy3Eedn9o/aSDh3Oz/AwUqMoQIHv++eebohF4HpmMBLF7zUSPIxQswCg2cYynkXyYRgJhcd1115nJEUXCfv362a9KkpIIinU4AkmHGK8VusLo4qOboujofuOuUQSY0nHC7imFXrI46n2++YygiE1xkufSFffpvitLgCx3VKNowuuIz2WKJnG+bqFAWKkFx7rdgp/3PfMRCntSOwXIimSbCidSVVJBsU4W2z35eTlGxGSA4xSNdiUEVQt+ZaFP63qtmJRQGGGiwuSZXR7+zkxw6aJgJ53vlSVAlueUnBcMGjTIFJOq4fgEXQcsnN2xrHqPZDUaCMtkiIIZDjvsMJ1lTklSQbEO7206+PizOG7CnZ2KeitxxvGw4FfGuGaL8HSX0CHE+7dsAbIcc+LYF0466aTYf1YFwko9KGqyIcR7ks4TNgbK1A0WFQXIimSTCifSqqSCYp2stXuyoHXt/HTBhHUv1KOt4Nd6C1MUTlxQLIs/sgAcdnbpoqD4xOKQ55XFTFEDZG+++WazSMOAAQO8nj17muvW0FVEZw/FE7pyyNmp9agN2EmvNxAWY8eONb8L/uzDDz/cflXSwPsjiaBYh9cXdxHj9UbHE2NenMcAk8bP1Vbwa1TKFiA7cuRIczwJFDHi/jxWIKzUi/c3BWKKexRP2ASjg4L3o9RPAbIi2aLCibQpqaBYJ2vtnkwEXP5Kr169zOKqEbUGv9bLBcWy8CNcjBZPP3a0WbiwOONn4IO3aAGyLHxd50ffvn3rKmLw/PCapgOAYhaLhVpuC0wgLMcPUE8gLF1V5NmQ1cCxLO0cpYsJaVJBsQ5jHAt8FhZMgOkOi/vPjFsjwa9RKUOA7OjRo73x48eba7Jh6ACNmwJhpRF0RLDpxpFZxjgKxdwxkTvuSGOYLypAViR9KpxIm5IMinWy1O7JwpaALs7Us7ipt1OD3c96gl/rFQyK5a4xYUGB/Bx77723mfzywcvioggBshMnTvRGjBhhrunaGThwoLmuBwsvFtAUlGj551gBE79qmLQ0EggLzipTiKNYRqeRpC/JoFhQqKHThD+TMY7jkHSHsfDPo2aDX6NCYb+IAbIU3W+44QZzzXjTp08fcx0nBcJKM5iDsKnD+4/3IZs2FE+kcXxu0PXM86gAWZF0qHAiNUkyKBZZa/ekS4C/A0de/MdhWsO/f9FFFzUU/FqvYFAsi7AwFASKFCDLrv3QoUPNNa+PwYMHm+tG8JqmEELxiaIdzwMZFGEaDYQFQYsU4Wh953ch2ZBkUCzo9qJgQ+GPMY73IjlKeRJl8GtUihYgy3M7atQoc81nT1LhrAqElWYxpjJ35Lg3m268nuII2S8bNvAUICuSDhVOpCZJB8UiS+2eLJA5msFEnC6R1o63uOBXjo40E/xar7Cg2GqKECBLiyp3l6AARAGC2w43O1no0qWL2blhEkLRjl3q4O+60UBYsPvG7hB/zyFDhhT+DiB5knRQLCg0UETldcFYwQKfjrGsizP4NSp0l+Q9QJaOpOHDh5trPvsoSCVBgbASFT4fudW+O+5MpwQdxNI8BciKJE+FE6lZ0kGxCLZ7slhmApk0FrgUGFw4Fx0bQVEHv9artaDYavIaIMtCiKIJ3TUUiCiaRPX8UlByu9QU7Vh4+XN9Gg2EBTvH/N0Jro37OIjUL+mgWFCwoRhLUCyvOcYXXoNZlGTwa1TyGiDLOMwYR6YBC00yRpKgQFiJGsVh5lB0xXKEjs0vdVtGRwGyIslR4UTqknRQLPztntz1hAU+bYpJo7pPRwYL3+DPHlfwa73aCoqtJk8BskzoWVBQnOK5pWgSdT4Lu/4c2aELgAkIeRQUmRoNhAWLNe78A26VHJZDI+li4pl0UCx4f/Hn0OVE4ZMjY3Q/ZUWawa9RyVOALB2AjHEU4ynmnXLKKQ2HktdLgbASB+ZMdIdSEOQ9x2c3r22JDvNOBciKxEuFE6lLGkGxyEK7Jwtd97PPnTvXdGrEHfxar1qDYqtpLUCW5z/Nuxs5w4YNMxN7FhIUTeJqR+UYE88jnU4UPZjkEULbSCAsWJDQTsv/r5ZbJUs6kg6KdSh6guOQvHeTyJKqRVaCX6PCAi7LAbLkYVE0oaOH8ZaiSVJFVgXCSpzYgGAxz8Ybof90SjCnlOgoQFYkXiqcSN3YHU0yKNbJQrsnWS+cH2UBzO4wi4q4g1/rVWtQbDVZDpA9//zzTSEHPNdMEOLCzjQTPY5QsLhiMc1EpJFAWI4IcLwBLEiyUICS6pIOinU4DkmOElkcdHzR1UanRBqyGPwaFT5Hshgg+91335miCb9/PlspmiT5XCsQVuLGEW+3mGeMYa6hz8PoKUBWJB4qnEjd0giKddJu96SrhA97FhIUJZBE8Gu9mIjUGhRbDb/TLAXIErhL9go46rLDDjuY6zgx+aADgR3pL774wnyt3kBYjBkzxhSgeP2yUy/ZlkZQrMM4Qjcffy5HSbizU5Lda4ytWQ9+jUrWAmQ5CkVBHieddFKif74CYSUpFCzpGuX9RucJ3cNpd3oVlQJkRaKlwok0JI2gWCeNdk9/8CtFA+e0004zxy6y1vpI4aTeoNhqshAgSzYICzkMGDAg0aMuHEd45JFHzM406HSq55gOHUkc58LBBx+cWgeB1IfXe9JBsQ6vL+4iRocXHU+MeXEfi8lj8GtUshAgO3LkSFOgBYWLJD9TFQgrSWIsoUBMkZDiCZtgdEfwXpN4KEBWJBoqnEjD0giKdZJs9wwLfgUdCOxMZzUdvtGg2GrSCpBl8epu/9u3b9+672TTLAJhCVhz6LphoUGrfy1uv/12s8PDayWp24lK85hgphEU6zDGuSN3TG7p/Irjz2exnPfg16ikFSA7evRob/z48eaa/Bi6OJOkQFhJGt0ObMBx9JbiCYVicjnYmJD4MH9VgKxI41Q4kYalFRTrxN3u2VrwKyga0PrYp08f8zhrmg2KrSbJANmJEyeaQFaQuTJw4EBznRQmFRTNXCAsi1d+77Tzc4SBiV9byIkgTLh///6FO+pQdGkFxYKiDZ0m/PmMcRyNpPOLRX1Uihb8GhU2ApIKkKUwf8MNN5hrxpikP08UCCtpYT7CBg/vLd5jbMhQPJF4KUBWpHEqnEhT0gqKRVztnvx3LrroIjOhrRb8yj9ZdHB8I8u31Ws2KLaaJAJkaZUfOnSoueb3OnjwYHOdJHJVKJK4QFhe3xRRKERRtONnJIOiGo4zsZvDa3LIkCHaTcuhtIJiQScXxRsKiIxxvM969Ohhv9s4usSKGvwalSQCZHn+R40aZa7pdEkjkFWBsJImxlfmkRz9ZgOO1yJHAyV+CpAVqZ8KJ9KUNINiEWW7J90jLJQ5FsKHN6oFv/Lfp1LPz0xRgtbHrIoiKLaauAJkaRvl7hIUZSjQcNvhpD/A2YV3R4T8gbBdunQxuzJMMCjasQNd7ZgSBTj+XTp0aj3aI9mSZlAsKGpQqGVXlnGJxTvdY40oU/BrVOguiSNAlk6i4cOHm2s+s9I4xqdAWMkCPlvpVuU9wTjLMWg6iCUZrQXIUhxWgKxICxVOpGlpBsUi2O7JopuJaK38wa8s+sGOx3HHHWc6KqoVgsj8GDdunPmQSXonuh5RBsVWE2WALIsTiiZ0yFDkoWiSRtsoO/L8HVg0BXNVKBa5HWiKdiyqghk/U6ZMMa8P0C1TpqyIokkzKBYUbxhvCIrlNceYw2uwVmUOfo1KlAGyjI2MceQMsEAkVyRpCoSVLKE4zCKdDlk2wNicymp+XFGFBchyDF4BsiItVDiRSKQZFAt/u+fMmTPN4p0WxLaEBb8eddRRZhe2rd03FsKuUEPxhfDIrIo6KLaaZgNkmcSzoKCAxfNP0YTdkKQRCEsbPVjUhIVysuvPkR26ANgpI4/CH6x2+eWXm0UqRytYcEl+MZFMMygWvHf4M+lyogjKkTG6n1qj4NfoNRsgS1ceYxyfGRTkTjnlFFOMS5oCYSVrmDvSZUphkfdTlo9BFxnzYAXIioRT4UQikXZQLILtnhylqdbu2VrwK4v/WvHB/sADD5gFMkcxshqoGFdQbDWNBsgOGzbMTOZZSFA0SaNFNBgI29qthzmixHNKAY3dZx5TIGJBde2115p/h0IcP7PkW5pBsQ4FUHA0kvcxBZ1q3VwKfo1XIwGyZGZRNOHzgjGQokmc43A1CoSVrGIDgs9gNuHodqALgvmlJEsBsiLhVDiRyLAjmlZQrONv92QyG2z3rCX4tR4sQPhzmAiz0M5yqFlcQbHV1Bsge/7555viCvh98KGdhmAgbGvYdWaixxEKFk4UiXheb7rpJjPRoJjGLZSlGNIMinU4GklYKa9Rurno7qMLwlHwa3L4rKk1QPa7774zRRN+b3w+UjRJ6/ehQFjJMo57u4U64xnziGqbLRIvBciKzE+FE4lM2kGxTli7Jx0XtQa/1oufkSNCfNBzLIOOg6xi8hFXUGw1PD9tBcjSnUEeCgYNGuTtsMMO5jpp1QJhW8PEgm4EFtQUTzifTb4J6GLSueDiSDso1mHMorOPvwPHRLizE4VgBb+mo5YAWY5LccwKJ510kvlaGhQIK3lAMZLuU95LdJ7QPRzWxSXJUICsSIUKJxKptINinWC7J4v0eoJf68HC2LXwc8QkrU6JWlA44e8ZZ1BsNdUCZMePH28KbRgwYIDXs2dPc52G1gJhW0PnER1LrngCOhIOP/xwcy3FkXZQrMPCgiId3VuMue7IIBT8mo5qAbKERLuMGYoVaX0uKhBW8oJxiwIxxUY+U9kEo/OBbi1JjwJkpexUOJHIpR0U6xASy4ctLdLg6MUvfvGLmoJf68WHvMtW6dWrVyphf7VKKii2Gn+ALAUTbj0IOpYorLQVIBuXWgJhW8PP5TJ2wOuNDiQpFiaMaQfFgsUvx0IonrgxjsI1C3MFv6bLHyBLFg2/K/BZSMGrrQDZuCgQVvKETmHGNI7wum5OMjc4gi3pUoCslJUKJxK5tINi/cGvLCiYvJI/wjWT2TjaPWlTJDSLc+4sorLcGp90UGw17I4/8sgj5ppjBSwuagmQjQMf+rUGwraGRQm5E+BIGD8XEz8plrSDYl3wK8UbUMhhAktRZ5999jFjnqSP/Ct3PAd0fLQVIBsXBcJKHjE3YbOH9w3FEzanKJ5I+hQgK2WkwonEgh03zlGzIGUyn0QhoVrw67HHHptIuye5Kvz3OYaS5BGYRiQdFBtE+/rQoUPNNb+P0047raYA2bjUEwjbGkIXKZ4RZsfrjUIKf38yKKRY0giKrRb8ShfdxIkTzWuO95A6ndLH72jUqFHmms8DwnnbCpCNkwJhJa8Ya+lE5Ugim3G8jrMcxF82CpCVMlHhRGKRZFAsQVWtBb8m1e7JopvjHkyOObaR1pGTWqURFAtaObm7BIUSCgzcdphCVlsBshTC4tBIIGwYdsTYaWGCQBAkR5CYPFC0Y3c5668HqU+SQbGMoSNHjqwa/EoBhd09XoOMgSzM6SSTdNCNNHz4cHPNZw1FE7pL2gqQjYsCYSXv+Fx2R2EZc/l8JTBWskMBslIGKpxIbOIOiuW/ef3113vnnntum8GvwXZPFu9MaKPEBwOLfheYxd8hy9IIimXBQNGELhcKNRRN/L+nagGy3HGH3Jg4OpcaDYQNYneZn48FNP8tCkFud5miHQumtPJ+JB5xB8XSdUVR77LLLmsz+JVCDgVbbo3Na44xiNegJIvxijGOo1Ms7MgS8asWIEv3EgVkupeipEBYKQqKw8yz6JZlA4zNLzZfJFsUICtFpsKJxCquoFiO4zAZ5GgMWFAfddRRrQa/+ts9CY5lYU57YZSouNMlwQI6zWDcWiUZFMvEnQUFRS5+RxRNeL7C+ANkKerwwUt2CK8lbvccVfdGs4GwDhO5W265xVwTQOwyY9j1J0eGLgB2yrjbk0LTioOJYRxBsbxXbrzxRtO55O7GQvfcr371q1aDX3lf8OfT5URBlMyeLl262O9K3OiUY4yjqE9R7ZRTTqkaFO4PkCULhTGOW0vzOmKMiCpAVoGwUiTMq+hWpUDJe4W5BO81yR7m5QqQlaJR4URiFXVQrD/49euvvzYL70MPPdQ78sgjzWK7LcF2TwKtomz3ZMHsft65c+cmnh1SrySDYocNG2Ym8CwkKJrU0rbJv7P33nubyT4fvCwuogqQjSoQFtdcc41pTeW/EbydMsePeH7pdGJnmccUf6QYog6KdcGvvGbALivj24EHHmgKiW2hGAqOSfKepriTRMZU2ZGrRdGEziDGJYomtYylLAR3331375tvvjEFFMaJqAJkFQgrRcQGBJ/fbMjRyUCHA3NNyR4FyErRqHAisYsiKJadhbDgV1rW650M+ts9mahG3e5JvgtnOt1COsk7JzQiiaDY888/3xQ8wO+MD9JakefA74ejT1EGyEYVCEu7/aWXXmquWZwEiznsKDPR4wgFiyIKQDzHcWW2SPKiCIqtFvxKPka9/z2OSZK1xOubTi063xiHJR7csY2iCc83n3EUTer5nfF5tMUWW5jPiygDZBUIK0XF0W+3CGfsZI7QzEaKxEsBslIUKpxI7JoJim0r+LVRcbZ78uHNf5NFMh8Ezfw9k8LfOa6gWH5/ZJRg0KBB3g477GCu68VrJqoA2agCYTFmzBhTzOE1RVdAGCYNdCawuHYZOxzrkGJoJii2reDXRjHu0OXH34cjINzZqZauPKkfR6rcbYdPOukkMxY0IsoAWQXCStFRaKSLlfcJnSd0D2d9o6rs/AGyzOH4zFOArOSJCieSiHqDYusJfm1UnO2eLODpMKCiziKqkd3CJFE44XcTdVDszTffbBaEGDBgwALHWBoRRYBsVIGwdD9xdAwHH3xwq7v6HLOg24niCZ0y5Ow0czxIsoXXYz1BsfUEvzaK1xchivz3GY8Y82o57iO1o+jF0RpQoIgiBL21AFk++9oKkFUgrJQBYyQFYoqWFE/YsKKrga4vyTYFyEpeqXAiiWEwrCUotpHg10bF1e5JSCMhWLRdM9HNQ/J71EGxLCJdV0ffvn2bKlCEcQGyZJ3wO+SDt5YA2agCYXH77beb3RI6DjhS0Rb+zrzu6QCgIMgChxZ9yT8mgBRM2wqKbTT4tVGMce4oHpNSOraaec1Li9GjR3vjx4831+TQ0E0ZpbAA2SlTppjXV2sBsgqElbIgp42NOY4CUzyhUEyeBkewJfuY3ytAVvJEhRNJTFtBseymNRP82qi42j0JHWUhz3GjPn362K9mV5RBsRMnTvRGjBhhrukQGjhwoLmOA10ctQbI8qEcVSAs6FwhBLh///41H6tgMcQim9cGbfgczWDiJ/nXVlBss8GvjaCYQ6cJfy/GOI5M0rHFYlwaR4H/hhtuMNeMJXGO8Ww01Bogq0BYKRvmKWz88J7gvcFGCsUTyQc+oxQgK3mhwkmDvvjiCzMx5k3N/zhaQmYGi7dqtx+U8KBYds+iCn5tRFztnvzdWSjRdZKXW+ZFERRLS/nQoUPNNc/j4MGDzXWcag2QjSoQFhwNYmeE18mQIUPq2uHidU/xhgIVRTv+bmRQZAljmhvfGOt4TEGTn1O7edWFBcVGGfzaCDqwKOpQ0GSM4/3Ro0cP+12pF7/HUaNGmWs6QpIIXq01QNYFwvKZpkDY1vE8Mra5QieLNopTzEHUpZMvjLt0mXIknI053gMceZT8UIBstOjiYYxz8zjWV4xxzD3ZONFz2Zh23xEHL6F4gbGwYYeHtjEmKeQSsKhk8lsNO/cM4rSZMSlmAc2ClIVd1rMukkCbOoGavHGZCHL23uHMI7v3aQTZ8fv9/e9/bwYYFrZ//OMfm96Vvfbaa72xY8eaghF5LXlA4YjnAZzZr6d4wvuE/y8TeV7vPIdpTED5sCVfhSMxDrv/LGBBUY4P6GaQt8PPS4ZAowsUdoZZ+ID/XqPBuY1iwcAONcUkfha6oyg0McaxgKiG4ySMcXSCUYQi0I33DLke+jCu3EXqkUceMd1OPEeuw4TnhvGN/6VRYOfvwXsSvB+aLR6WEZ07rjDMDmkSheEwdKzdcsstpoMIzDvoLHJj3vDhw9Vt8j8svhjjKBayk80Y57KxWFhUQzGbMY6OHvIY3BjHXE6y64EHHjAbcejdu7d32GGHmWvJH4pgzOPYhADvx/32289030kLnh+6rRnjOAJOtw6FQzY/W8M6i85+xjjWKIxxbLBUO+YuFSqcBHB+mIU8RzYomkSNSip3BmHRxo5QGbFzTWYJi2uHnQEyTNKe6PE7Z+FPRZbfz8knn2y/0xh2d2nFB2fN87IDQuAhHRUU/y6++GL71dax2Oa5o7jIRJMFWqNHfaLC+5gPXoqfThRFLMaJM844w1xfcskl5sOnUWRduILOqaeeWtetmutFMYSuAxZXTz/9tCkwRcm13DLGsTPeVkBqUbFQY+zwL8w4mkjBhMlfmuiGca//PfbYw4zFUhsmp4xxdF5xpNMVmNNEge6mm24y464TxWdXXrGrynjKGE0XKYWSKFE05ndPVhBjnIpT2XPbbbd511xzjbnmGCTjruQXuXTM49yageIlBRTeg2VEUcQ/xjH3jhIdsWxqk4/GGFctS6usVDj5HxYRnKWjrZ92zaTw4iQ5n+ppWQIiOY7DAEjxxDnooIPMIJgVvB6GDRtmrrkbwbHHHmuuG0XWB63dWZlo14L3Abfp5Ugak45qt9l16MDiZ6NAQRWbokkSRxBqxe4ruxcOXRL8XI12ePDzsXvPcYdf/vKX9quN47mj04djP6eddlrkx7p4/bETxyKLo0xJ4TVAYCZFA3Yyio73AeObu5OUQ2dHMO8kTbQ+czcfMPYyBkvr2MXjfcouHu/PP/3pT6bLIysozBOM6VC05HfL507RURAmjJwxzj/OJ4FFnJvHRXkbf2kOhRMKKKA4TJFY8osTAHy2EsjvsLBnHpeHY/DNYk5OdzJjnLv1fVLoZGQeR4ivwnpLnHHCwp3jIqeffrp33XXXmZ2k1o7fxIFFKR0O48aNM0UbPvz5EC5ifkBY8Ct3F+GoAM97MCg2TSz2CBWlJZvWXgbsZiafFBIY7DgCQYEsD7cDrTcolkITWR0cP2CnM0v34qcl+9JLLzVdRHR8sfDhOFa1ANm2UBziCBaYkPH/bxY7JzzXdCiREcNjcimaQTs6f08WexQs6S7hOUgSu79k5nBcjfcTx7aK2uoeFvzKUT8+a/i5s1Q4cb8Djnnw/nZ5UxKO1/Gf//xnM4YzVpxyyimpd9P5MY7RdQI6vvh7MpZUC5AtClrTL7/8cu+kk04ym1+upT9JfL7Q2ch8kvcSn510NUq6WOzxu+Eujvx+KGqxYSL5VNYAWeYTHOlmXk23sL+zMCnMJZkvM59kjOUYY5w37Mi60nWcsGiiUMKHHHfDqAWTXyqafBgyAWHRz2KYICMWl0yKacnmv0crGX8GrVS0iPLmJj+g1gUL/02CUdkBbHbhlAXsolMl5p9g8KNCzP8Y9AYNGmS+zjlUzqNmSZTtnlF3KCTlhBNOMEVFjhixoxnG5TmAf59dgCy58MILvQcffNBMmghO5P3Ja5IdSodbx7I7W0uXDP8NCp0UwVhARYUPRP57TPYYb+g8aSSgmDHn+uuvN8WKWjHWUOzibCtjHMdJGONoS2eMI5uDMYwxjkUkzyEfpoxxZKPUc+SHD1zGuLa6mPKCllleTzzvYEeGsYLdGXaG6ExAFo/qUVAkrBt01tFhJ/NjikTxkcIw70d+n1k7nsG4wd/PHdHhnDuvSSbaDiG2HIdl0pt3FJe5oxGLploxnrkxjtZzxjiKSfxOXVAim1dsaDHGMQ5TgKLwxBhXT1GGwuQBBxzg9erVy35F0sKmjsv9YR7G5onkH0V/xjg2ZsCGM+Mb87giBDszdjOPc6/dWlDU57OJIiFjHJt6FPgZ41h7gY1rCk90sDDGMe9kbKPAyHhXK45jM8Yxdy6b0hROKGzQmnzllVeaF05rqFqSQcILg6p1sy3mPMXsRPAGp/JN5a6tvwMvdIoJeQ22YkFFcB07Xk5Y8KsLimVxRq6G/3tZQOEkinZPfyYG1eN6OhzS1FZQLHepoWMKFMFo58sSilVMlhAMhA0LkOWWorxGqxUsKBa4TIg4ikR0s7AI4jhNvUe7KGYwxt1kd55bw/vM5Sx16dKl6YUgXWNMZAisZIzj9d4WPtgZ3/r27Wu/ki/s8vP6cR0m1YJfXWGRyQzXWcPdfrg7FFh0lzV7q5ozzzzTfGaDBl3mBFlC+7a7/XAwEJY5B69Rf4Asr8+8vucoYNBh4i96V0OBlkIlBW7GOArCzeDuFBSnGOMY39xmUGvo4jr88MMz97lYJhT8+RxlDs7GJPMBdQQVR9ECZBlfmFe73LvWUAhmDspckYJgs/lpFFIY15jTMMax6d8W/nzGONbLZVGKwgk7akwsuEVZNUx0WRTzAUcrWJzY1eDICrvg7o4a1bA7cswxx+Tmg5e2dAYxjgY4bQW/suCm+4RbyXJ7zqwhoZ2jNmgmq4DCA1VdFucDBgywX82+akGx/J6piIOfh58ra/h90c7N76zaHUSCAbJ0X7C4COuAcoU0bjPLgjMOhLZyhBC13rWD3wNjHDsJ1bDzwGSC8/hxh6qxyKBoyhjnFuXVsKjhfZ+XBTu7MhSF+dmc1oJfCW5jDKdYnrU8J4fuJiZs7LzTUVHU41T1cmMf6r3DWBLocOW9Q4dEa3f3CgbIMpbzOmQsyAs+e1hQtIZiCe9Ffi7u6hYnuop5XmvJHGAc5/eUpSOsZcJRDoondA/xGqF4kocj01K7vAfIMobTHd1Wp3CnTp3MGEd3aNydj3Qu0l1NZ58/PysM82XGuDK8rwpdOOGDjcWNW/SGoSWeCQctldV2mePEm4Ude94svEir6dmzp7ldaZbPKQeDX9ltYeBqqxJJZZU7iyCLO3qIot2TwYfJH7t+V111VW5uTR0WFMuOH3eTAbuXhxxyiLnOEj5I6TADxa+2zmQyTrC4IBsAwQBZukAOPfRQ8zzwfMS5o8GE3HUn0GI/cOBAcx3EMSrGuNYm7uxGUNTiv5MGFmv8Lhjj2NGohqJCWrd2rUVY8CvFHorCbRUaCLS7+uqrzTVjAAvXLKHgxsKCLiwmPhRPsvZ3TNro0aPn/a65Mxodk1njjlpRsON11dYtrnkP8hp2x5TzECBLtw93gWLToRrGaMa4tNrG2ZlljOP10lr4NptEfIZI8iiaMMZRRGFuyjyOQrEUB59jjG95C5BlDD/vvPNM13A1fP4wxqW1wcTGCs/r+PHj7VcWREfXr371K2+fffaxXymmwobD0snBJJx26jCdO3c236d9n2t3/itpLJ7Zcd1///1NKyldMWGLCz6Y77nnHvPvsNudJWHBr0wOmGy2tVgFC1Q+1PgfP3+WgmIdbslFmy6LajoUmGjWW8Rit4niCbvxDDB5CWMMBsVylI12adAlVG1RnybeQwR10qZLnga/v7ZQvd97773N+VgKEsEAWX7vBJxyzIUiZpxoJaaQy4cV732OgTBO+dFlQhdNtbAwumwY3+h2SLODgNc6xVOKa+QrsADy34rcoUWUghE7Klk7yhYW/Mr4RhGxlh0Wjnvy+iEMm0JkloJiwecfBWvac+mQ4WgH3RVlXViwCUCGBhg/sthNx7jkjugcccQRNe0+brzxxqbgS9crHXZZD5Cl4D106FDzvglDlzCLYcaWNI9fMAbwnqaIyuclv5uw49i8v8hnYeMlS+HCZcDzzecgr3de92RSxd1dLsnKW4AsRVZCxxnH2ZALQ9GHf4fPoFrWU3HhZh50uTBHBuuhIH4e1oFENXDSIK11ddwKWTihcsf/wu6Sw+SAltvf/OY3mWubZFDv16+fWaSxcAu23fOYAYDFYBbaz1joMLFhkknnDG8SJpks1uptIWPSQ9WVBS8LxqwVFVhMU+llZ58PXX52MiLq7VJiYOH/S1ZGWh0AjeC1yXl5FlUs5sHAGHcBoVG0dFNwoChX7YhOGAoUtHhTEOJ3xTEffle0K9KqyIKDDrW428DBe4D3OsUqPqQoOlBUYELOsH2tvbNPELvIJ554osliydItoUHxh2IDYwWvI7Kn/Hj/M56wgEviOW4L3XB09HA7Zz5PCH7lOAQtqfU+t4zrTCo4i03xO2u/G46osbAmlI4xjtc+YdZlw+961KhR5poxutrxl7QRUk1XLZ9L9fwdKYKT+0ExmSK+27Rgs4mCJjuzaXdDMuYyR6NgGYa/O8fLGEvYqMkKnjd+H8zjGLspkgSxqODn4rOp3nmSNIfOLI6/k4vBJh3vn6wFdkvz2Kxhfk6BkjkF4wndlG484XOOuV6a2Jxg897lZwXRYUKnO4WKLBVZeW4pEnMKgtMF7oi7H3NvPkeZw1JwKZpCFU740GfRXq2ViC4IwtOyvtPPm5r2WSqQYVU9dj3ZtaX6l0Z6NB/8LEw5bsIHD3iT89w32kbmkv4ZTNitIdMla7cWYyeJhR8DHQsLFtJUtuu5fTSTJVp6mbBSPeZDPC9Y5LJrDhZ95HCk/eEThvcHr01wpKaRBSqvPbokKFDSIcCuBUUTEPLJezSJajrdaOyU8KFP0Y4/k86HsA9bxgLujHLqqadm/nVFxxYTAnaSWaAHsXinGJtWZwZjEPkWtN7z/PM6ZzeZMa7R7h2OvjCBYxeM4kkWj35QGGIxx64sYzsLam5FXhZ0lDFHgMulyCKKHO5uSEOGDGkoVJ3iJO8vxjI+z/gfE16OYTKW8PU08BlDu3fYhJzODt6DfD/LE3IKKCzcODpERyBzJj+K8hwNZTzP8jGpImI+QBGb9zpjMfNs/Q6KiaIq6yR+58zh+CxnTcVGGO/RtDbPGWMZw8JOF1C4pouO9WqWoxlYs/Hc0qnKepRNVT/mzax1mPfkpbu+VoUpnDARZdHgWqn9+KVRuePcVRYXemE4q8ykhoUTO8684f14odL2yc4LtwxNAtVFjgdw3tjlsbiuA3bomy10UJRgJ4DFFH9W1m5ri2bbPRmsGVBYLPI75XnLAwZFFpLuiAW/66zeapEOAc6K8v7hCFwzWEhyZIHOAxbyYHFBYCTv0SQ+ECjgsIDlNcNk2xUr/RgHeF/W81pMGx0OhDhSTKQoFOwQZILDz8x7JKlxm+BXim7cncjdmo+jgyzWGOuaLVQzKWLSxBjH64fuoKxhokNRd/LkyeZ1xzhVhsR8ujxpiaZAzEKq2u3X08YYTPGU9wvdb0xem0EBgvch/2Qexe+bTgm6oxjnkzwaTEGI+YTLSfNjh5MxjjlRXrBA5+/NWBdW7GbxzvNdpuJkFlAcZi5GFy0bYGx+ZaHDUeLBZhcbFXSIu7k3BVrWixQnmr3jVj3IzuL4YVi86MEHH2xiD/j75gVFKXIO6YR23eh+rJWKViAuROGEnQmKJmHhqnRu8GGb16A7XpScbWOnMrgDw9dY0LGzEXcrF+3zTNY4ZgIWjBwFYBc2ylsIM4jxM1EYYscri7tKwXZPfg/8DmpFFZy8GooRWf0Z/Zigs6Dg/eUq4BR/WGA0EpIbJyrctAiChQ9thc1icsV/FxxF4/fNBy8fErxWmRTH3eHBhyzBjsGjLSBrg1sYZ3l3ojUcPyKrgCIkC3U/bj/K88/CLs4OH17j3BqdkGr+TNA9x67QnnvuGVlxmokbPwc/E2MpO9JRvEajxuuZvxcFLbqdOHaQpwVrvdiNZIxjwU5xi/dTW0GraSFkmKIin0OMcVF1nXJclqNJ5Now12CMc7fdpYAc9xyKu5VVm47yc9L9Q9dnHvE5SQGeTbDgLjNdtnSklPFYXJqYe9H5Q8GU1zjz2CwHiErzWLfwec48it8770Xu+sdnPuMb41ycOAJKvEEQczcC2Q844AD7lfxho5uNIO4KGYyZoEDMey2Lm+GNyH3hhA/4X/7yl6G7sJyR/dnPfmYf5RfVcHaV2P1xd3ZxmNyweGN3PY7iSbPBr/XKQ1Asgu2eDBS1VlT5PbmfkbsbZO0Wl0F0azFRZyFx8sknm5+dSj2TQHbKsnL+kg/BegNha3HNNdeYiS3/PcaT1gJk4wg15YM97G4zLCLYuaA4nHcUn9gR4n0UzAVgUUuhgbEgjsVss8Gv9cp6UKzjjiSxsOO9nsXsqSjQSUbRhA4j3r8UTbIypgU1EghbLxaUSQfIUhRmLAvis4aNLwqneUehi65nPkuCxxPpYqTbpwg/Z55wzIB5Axt1jMns9DMHleJi4yKNAFk6tulkDeI1yB0Us3g30Xrx/mGexnjG+s2PjUbWO0XIFMp14cQdzwkWTVhQsHNIi2SR8MaibfbBBx+0X6lg4sfOEDsWUe2MUoGPKvi1XlkPinX87Z5MMOtp9+R8IOcs3YI8q90CDOiuxZjfPR84/qBYjsRkpfDTaCBsaxhjuOUnWKiwsOLYSLUAWRZfTPZdZk+zKMwxxgXbOvkZ+d0UpYLv0LlFp0OwrZ2cABbwUQYqU3COKvi1XlkPinU4PkkeE+8rJj50x6V595Ko8b6iaMLPx2cNRZOs/i7QaCBsvfhcqxYg67py+HeiQOGS3dYgNiIY4+KebySJgjvFEcYbPkP9+Bzh8yOtWyqXFZ+hbvHMZwKf7XFsgEi2MM9IKkCWuakLHPejyMAYl9VCfSPYBGNzkfcTn6t+jHl0++T96G9uCyec8w07nsPkt4gLCocwIxavTPZdWCWolNIV4HbDG8VCPurg13rlISjWabTdkw9m/n128xick3pu68HrgCwPDBo0yNthhx3MNfj7UyhgcGShkfaZzCgCYcOMGTPGTGj5PdOB4MdrMhggy3jEMSwmxhSYmjlewp/LGEeV3o9CImNc1m5LHhUmMuxsc2tiP55fJriMB82II/i1XrQFM1Hj56F4ksWgWIexid0j/p50PHK0Ks3bIkaJDRaOI+Gkk04y7/OsiiIQtl4U9IMBsmwSRBUgy0KV910QxXiKRFk8xhYFdl05EsWGlx95G4SV1nP0V5pHgZD5M69vOk8o2uX16KvUJ+4AWbrp2KAJIheEO4Mlld+WNDbymRezjvPj85Y1HpsyeZXbwgnHcIJBsK5okudfSC1YVDCwExTpL54wEWdy28jCIu7g13rlISjWabTdk0U1AYxUuVk4RbWDF4Wbb77ZLCwxYMCABbq3KJzwu+HvzuIv7VsrRxkI69BpxTE1ENpVbaedcYeJPgUz3oO8FiikNRMgSwsp+Rp0WvhxzIMFRZZuwRkHChjkbLi8GofXW6MLi7iDX+vF6yXrQbEOCwsWdTxvjFmMeXEcY0oSxTOOoOD444/P9GdM1IGw9YojQJbPSwrDbDz40ULPPCTp92PS2ADjuQsev+Z5ZQe66PPYLOG1RoGYRR3FEza1+IyhC03KgXl71AGyFIZPPPFE+6gFx6tPOOEE+6i4OMrPZxfvJz+eF+Z4ee1ezWXh5LzzzlvglsMczylD0cRhx5KWQrcD5bCwoP24nlaopIJf68VgxRssy0GxTiPtniwMya+gFZoJVK3HfOLGYs51b1AVr1aIYOBjF5SFX5pBsXEEwuL22283Ow+812q5LSm78CzEWVDyWuCDt9EAWbJk+ND24/9P0YSz8mVAYYHn3i1uHRYWvLcoItUiqeDXejFBy0NQrMMY547oMZmk0yqvHQHc2cDNIcizabaLKW5xBcLWq1qALO9JCsi8X2vF+48OVz9eU4xxRd2FDaIAyRHf4FjPZwaFlSTv9lF2rCFYP3BMlOIJhWKKePx+pDxY/0QRIMsmA2McGz1+nApgflcWbLowZ6DT14/3GcX4PB5Tyl3hhEUdhZMgJsVFPZ5TDa1lTGSCmSdUzVlUtLVQSzr4tV55CYp1Gmn3JMiUxTUTSO6elLaJEyd6I0aMMNd0Gg0cONBch2GiQZcMi6i0gmL5UIsjEBZ0sXBMpn///nV1jdDa2UyALEekbrrpJvuogsILC4q0j0Qljec9bFeWbjQKDW11PSQd/FqvvATFgiIPCz0WykyEaMGl04pFdJ6wUXDDDTeYa8aMLIy7rUkiELZebGT4A2R5PdQTIEsQLPMOP8ZNNr/4XCkTsmTobmTu4MeYxedIljpRi475CxtCvJaZx7EBQvFEyoXPumYDZOk0YWz0Y47MfKRsOOZP3gnPo+PyAXv16mW/kh+5KpzQBs/dJYKtnbRaZ/mMeJyYbPDBGjwry4cuL8iwD112N9MKfq0XhaE8BMWikXZPnm8Wd3SdpH07PHYN3Z0N3DGttjDJSDMoNo5AWHDMhl0GfnfkCdS768SOaWsBsvx9wwJked/+/ve/t49a8GFb612biobFOpMV/1lZuup4TrlLRRh2bNMKfq1XXoJiQQGPRTMFVsY4fgd5uo0qrwcX0kfnRJwBq1GhYJpEIGy9mFu4AFnasXn91hIgy+f5xRdfbB9V8O9RNClrhwUFU4rs/sw+5gT83nWnnWTR1cWmI8V5Nuz4HRThTiBSv0YDZC+//HJze3U/1jKMcWFjYhlQhOI9xfPocBSd4judhnmSq8IJyet8uPhxVqwItxxuBpVRqqH+BGMmLixk/WehsxD8Wq88BcWi3nZPvk5Fm5+N4gMtgmmgDZG7S7DIZ8FPK2Gt7dJ0UKQRFEuRIY5AWFBYZLHOjh+Lg0bxWg0LkGXxEBYgS3YTrwO/X/ziF17v3r3to3Jip4bODH/mC5MY+Mcu3kdpB7/Wi/ZffhZ2Y1h8Zn0TgCIUBV92ZfkcYbHM7yfruEPV8OHDzTVjci3H79KWRiBsveguqTVAljkJBflg4PUf//jH0i9O+fnJraNg4lCYpPs3q2NXUTGXoKDNmMG4zHGLsm5cSH0Bsnw97CgOnz31HNcuGnLcWFsEC0rM45kj13PMM225KZwweWDR70ebc1hacRmx68OHLoszh8kLH7hU0LMU/FqvPAXFot52TyZG48aNM4NxGjvOLNQpmjCppejBoF/Pa4LCSRpBsXEEwoLuLX4foMMtigyMWgJkue0xiw0/dvOj7KTJM3Z9+NDl7LHz9NNPmwkNRw2zFPxarzwFxYJJDuMWQbEUThi7snyLQd5rjHG8dlgAkROSdWkHwtarlgBZjlQHb8PLsblDDjnEPiovNl3YleaubH48h/z+83YkLu8oDrMo5vXKBhibXFnJoZN01BIgyy3tg6H+hI+z1io7ipH8j25uPzZus35k1i8XhRPyC3jhMZHwGzZsWKYDQ5PEZJv2/+CHLm9oMlD8wa/szqcd/FqvPAXFItjuyWK52p1AWJhTYGHwoDBEdkNSmJSzoKCgxuuBokkjd2yhUJRkUGxcgbCgzZLFN0WLqNukqwXI8rMEA685FkGeU1rhpVnDGMBrlPeUH0fjKHRlKfi1XnkLigXjG39Hnn+KpnxOd+nSxX43O9ghZIxzx0eY2PJ5mXVZCYStV7UAWca44C3GubW16wKSSq4bn8n+4hLdDvwvD11dRcNcky5cCq+My2kfp5ZsYB0VFiDLWovPQz8+y1m/SgXvKea+zBkcOleZ76Z1g4l65aJwwk5sMEiMENOyt68H8aHLJMWfBcAxEM6Q8b0sBb/Wi78/O5v8Lw9BsQi2e/K7qNbuyQcyHUMs2DkaklRwJcVHJucsJCiaNHrP+iSDYvmQiisQlon+tddea665sxS/vzgEA2QpXNE14UenSZZ38dNAJwbHcdjRdhjzWKQxmclS8Gu98hQU67gjBHzm8L7PWg4VGV4UTRhX6YyjaJKHFP8sBsLWiwmyP0CWz0DGbD+O6CTdYZl17sgO44DD+4sFWFyfR1IdGVvMOdi0Y3ym64D5qJRbMECWjRt3V1OH+R2d0Xn4zEkSpwjoHuazwWEd0q9fv1xkwGS+cMKAxQLC357NBy27FGW5ZV09eCMT+ho8Q8xdBPJ+TjZPQbGOv92TyWO1dk8WenyfCT6TyyTOexNURRYLONLAa6cZvL74OeMOio0rEBbXXXedmeBTvOJWzHFyAbLuqJYfv3/tUoSj6ESGiR/dKBzVyfsijIWRC4pl7MhDWCaTIHIZeE/SPUU3IGN12pjAUjTh78XnBUWTvLw+shoIWy8++xhL2bWnY9SP4ycUOWVBdBlxjNOP95ja/dPB8XDmBXSv8Trmc5tCrIgLkKVowuaB3zHHHJP5I5ZpoLuEzVa3/gCfEcyJ83B33Mz3frKQ8VelwA6MiibhaE3n+fGjiMLzmHcsIlyWBZkt/h2ZLGOCyP/A35sjLWFcMCyBUy74Mi4UH1zb9KBBgyIbrNxEmNvHBo9URMEdPUPUk26ec5577LHHHuafSeDYUVDwPSwtaO8/+OCD7aMKutCC+TB5xCLTTbTyNGbzeuWWg6AgS/ZM2sjTYBcLhC7npWuDzwf39z7ooIPMP/Mu+N6kw1FjXHWMAcG7VXErVPe6kOSxSeOypxhbKKSIgI6TYKGTo6yHHXaYfSRBzN+Dm/mjR4/Oxbou04UTMk1uvPFG+6iCM1BJhU/mFfklwUkiz6O/ayevOJpBAYVzwBQh8oJdQ7dbRAt2cPcNFC/c7y3OReDNN988r8NhwIAB5k5FUeH9SXs24vj9uP8mxxiqZcY0yhW0CDFMqupNS77LanEooDXb/VN0HDsMtnSOGTPGXuUbi2XagOk6ueWWW+xXs4+wcfe6PfPMM00HXVq4s5LbzaJzi3b7PGDO48Y4iu2MRXnHsZPga4HPnUaytMqEMS6oKGNcHtEtTPGETle6fyie0P0sctNNN5kMLT/GOGldcIyjSSIPY1ymCydjx4417Tt+RdmBiVvweaKKF7wNVF65TgMmZP4Qtazj9pfuCA4fui6w1891nVA4oTgUNf67bmLOUZQ4kqz5/XAXBZLFoyye0JlBkjmiHgcYZ1yxyv0OksAYFxTsppAFcTQn+Brg/cRdXvKO4zpujKPrJJjQn2UsLDhKxfuJ4kkaf3d2rdzuH5k3cR0ZjANHasll4ahG1B11aQkeq6NFW2Nc2zgO4jYhHML/OS4i6eBzhzGOf9LlyDwuuEaR8gmOcXwGKoOzbYxvweiCsDlx1mS6cEJWhx8t2jrjWZt99tlngfPxweczr+g2cMGJcXQ1xKmtdk9Cb7l1Lcerqh3padTEiRO9Sy65xFzzPorrFpAEYblJP90tBPo2i50d97um6yjqgGOKJty5gJDe4GQ1LuxaBd+T3MWHkFBpW9gtqMOOPeURBU0X1JynMY4sEcY4ugl4z1I8Cd4NL068n9wklnGCW0fmBd1nZHiB8TMPd/5pCz8T4eh+/fv3z/wdo7KiyGNcXrlsNTpQuE0x8zgpL47QBTcI6PqX2gSfK/IRg5l/WZPZwgltttxpwi/usMaicbkaDsFFzz77rH2Ub25hTgtwniYStbR7+rtOosLv/eyzzzbXdL3Q/RIn7hjjCgBRZDWwE0sHDs9b2GSyWa5IlWS3CbuHweNzwfesVEegcrBjik6DvGQftcWNcWQFcTvXvCA0kTGOIgqFYYonSeDIGwHB4DhvHONEnFyBjEDYogQKMsYFaR5XO46Y8Xrwc8U1SQ+bX4xx4E47hDlLOQXfj2wcaoyrHZ/VwaDlsM+NLMls4YQqnh+3m+zVq5d9JLUIe7443lIEeQ2KRVvtngSTchszqtjB23A3gtukuV0R2uIISkyCW/g1GxQbZyAsHn30UfN7IHA6ycJJcIyjwyDKWyuXAQW6oODzmld5DYrFBhts4A0ZMsRcc4Qq7l1ZuhpGjBhhrrk95MCBA811XhQxEBbBwERuqUvxW2oXHOOYF/jvRiHp8G9AESp/5ZVXmmspD+4gOWHCBPuogverbl5Sn+AYx0bRu+++ax9lT2YLJ+7uFg6LSc7GSu3YkQ0mswef1zzLa1AsWmv3XGaZZebd1aXZyisDO/9t2uXXWmst82dSlElCVEGx7v8bRyAs/N0mPPdJoFBDQcgvyTv5FAVhpBzh9HN3iyoCFtF5DIrF5ptv7g0ePNhcE4ZNKHYcZsyYMW/89P+ZeVHEQFhQMOfzx09jXP04bhac+xZpjMszjjy724XT+czRZCmPsPVUkptvRRH2nGV5jMtk4YRqOscY/Dj7L/UL3jGF3YqwUNK8ch0IeQuKRbDdk9t4Ou5sPouCRn8uCkosKPidk93Bn0UbYZL4/TQTFBtnICx4bjmHjyQ/8MI6cKK8u1GZBD8b2K345JNP7KN8y3NQLPzdHxQoo+6cISiTMe7rr782XS5JddNFqYiBsAiOcSz+lVFXP7JugmNccJdb0kOx0x2xZY4TdTadZFdwjGMTZ+ONN7aPpFZsFrDR6pflMS6ThRN2Kvw4K73DDjvYR1IPJq5BRbjzhJPnoFj42z2psF5xxRXmmo4U93M1mnXCgoIMGCZeFE3WWGMN+53kNBMUG3cgLNwkhyMydOQkJfgeJA+G+/5L/cLGuOBnSJ7lNSjW8eeN0DUTVSYVxQbGOMLkOCNN0SRvXalFDIR1gmMcc7ikuh2LJjj/nT17tsmsk2yg68QVBemso8NOio1b54aNcdKY4HP39NNPJxosX49Mfoqx++6nc/+No+jkboHr8IIsErcwz1tQrONv9yRN2rV7ug4IBudgUHJb6F5xv2eKJmlWwf1BsfUs/OIOhOX4gzsrnnR7pca46Gy00UYLFNWKOsaxw5WnoFiHwmfPnj3NNVkAzbbhfvfdd6ZowrjIZxxFEzo28saNh0UKhAWdUWRr+WmMa5zbRPEr2hiXd2yAubk2Y1OROrtlQbz/vv32W/uoQmNc48Keu6yOcZkrnFBh4niCXzBVXOrTrVs3e1WRtyMtbclzUKwT1u5J65q7dXE97Z90rbiFyaBBg7ytttrKXKfJLfwoAoUdUwmKOxAWrpOHolKXLl3MdRLYKZwzZ459VBF8j0p9gp8R06ZNs1fFkOegWOeII46Yt6vkL+w2goWJC1OlaLLeeuuZ6zxhTC9iICzC5hga4xq31FJLmTvs+BXlDolFwiaVm7MxRnFXMSmm4BhHAZ+MLWkM8/AVVljBPqrI6lo1c4WTsPbD4AeG1Cf4/HEevGhtnnkOinXC2j1dmB6LfFrT20K3irsH+oABAzKTm1FvUKz7d+IKhOW5dIWTpAMLn3/+eXvVQmNcc4LP3+uvv75ATlbe5Tko1jnuuONMoC+4TTFdgvUaOXLkvE6x448/PpfvnaIGwjrB+QUdYXEctSyT4Os87HNE0kXYP8UTumT5/KF4wpFjKZ7g+y/JzbeiCj6HWR3jMlc4CU6kOLNMK7Y0zlXA/RqZsGad60zIY1CsE2z3JNSVCSet6W1lnfB9NxnnPvJkI2QJv59agmLjDoQFdyviOV1ttdXMLTKT9Morr9irig033FB3DGtS2BgXfJ7zLu9BsQ4LCzJbuAU7xZN6fo7Ro0fPu8XtkUce6W2//fbmOm+KGgjrBOcXYe9PqU/wOSTnRIvy7FluueXMGMc/uXse8zjGOimW4PxCY1zzgs9hVudwmSucsFPoR1K+NIdFWXBHK/g8F0Heg2KdYLtn9+7dzXVrtyaeOHGid8kll5hrulYOOeQQc50ltQTFEvTofndxBcLCHX1K49Zxwfde8Ha6Uj+KT+z2+QUzFoog70GxoKWZMW7llVc2Cz+KJ7WEwN1xxx3erbfeaq4ZG9ydx/KmyIGwjsa46IU9h0WcxxUBHSeMcXwmvfTSS2YeJ8Xx6aefmsKln8a45gWfQzYXZs2aZR9lR+YKJ++++669qlhnnXXslTQjeMeO4PNcFG5hntegWATbPQmDpPjFLVbDsk4463z22Weba/9derKoraBYvhZnICzYsSYHhwVcGoWTYMFIY1w0gmMcR1qKyI1xeQ2KBXfBYYzjPUgOAMWT1jz00EPeVVddZa79d+nJIzfuFS0Q1uEziwK4n8a45jG+BYts9dylTpLF5hdjHAiDv+CCC8y15F/Y+05jXPPCjqxmcYzLXOEk2LZLboU0L/g85rXNuy1FCIqFv92T3xULDASP67Cr7nYzNt10UxOUmHVu4RcMik0iEBb+bJNFF13UXCeFolCwvVpjXDSCz+MHH3xgr4qlCEGxoJt0yJAh5po7UFTblX3yySe9ESNGmGtuPT1w4EBznUdFDoR1wuYWGuOiEezALOoYVxT+jayHH37Y3FFM8i/sfacxrnlhz2EWx7jMFU4+/PBDe1VBO680L/g8Bp/nIilCUCz87Z5uB4/d2SeeeMJc8ztksUGb+1prrWX+3YUWytxbegHVgmLddVyBsGCH3h3hSKPbJOx9pzEuGmUa44oQFAvuQjB48GBzTRg2odh+3GHPFVT8/24eff755/PGuCIGwjphuRsa46JRpjGuKDg6TfA/6ILmmLLkW/B9t8wyy8zb3JTGtWvXLhdjXKZWWUwsuOOLX/D2RNKY4PPIsY8icx0LeQ6Khb/d02HXkqIQCwp29wiQ5d8hQyQv+P34g2KTCISF6zbp0aNHKpN5zsYGaYyLRpnGuKIExcLfRcLY5rpo3nvvPTPGMSegOyUP3XStYZwrciCsE/a+0xgXjbLN44qCQin/A+NA2JFryY/gPI45uEQj+FyGzZnTlrnCSVCHDh3slTQj+DxyR5E5c+bYR8VTlKBYBHNLONLyhz/8weS4cOaZoskaa6xhv5sPwaBY7paBOANheb547pD0LYidsBBMjXHRCD6PYZ8nRVKEoFjHn1tCBw1jAkUTOu3IQ6Fokuc7T5UhENYJvu80vkWnbGNckdB1QvcJ6Kyjw07ySWNcfPIwxrX73wL6O3udOkJgXFXWueaaa3SbpwhwROGYY46xjyqYwBX5NqgUhrjbDLjrRjA8Mm84phO8Pddmm21mdjDzivwCt2u21FJLzSt2xYFsAXbmV1xxRZMTkQbGuPvvv98+qnj00UfNzy7NYcE9bNgw+8jzFltsscLmSDi0sbpiYN7HAnAHCn+oLwUGQlRphc4zwiHJ26JTiCNHRcY46w8t5mdu61b6Upvhw4ebW1k7vN979eplH0ke0AHt7sjC2KZurPyh6MUxUof55KhRo+wjacaxxx47b92Gnj17en/84x/to2zIVOHkrbfe8vr162cfVdC2u9FGG9lH0qinn37a+9nPfmYfVbCzH7yFp4jE54svvljgzCYBuUUuYCZl7Nix3tChQ+0jz+T9KLBNJFncVcd/hIQjka7bRppz7rnnzhcITbg5HVkikhw6If2dEN27d/dGjhxpH0kzyDGbMGGCfeR5e+21l/enP/3JPsoGdZyURFjHyaGHHmpyJoqONHMGOQJUu3TpYr+aP3SbsCPrx47FaqutZh/lD0UDf8cJ2SNxoFX+tddeMzvXZCqkheJwcBGhjpNohHWcHH744fZRcVGMY4z773//azYZOnXqZL+TP9xa3d9xQmGfoOi8niEnn4XfzVdffWWOVW288cb2O8XF79C/Y6iOk+gEO04omvTt29c+krwgo27SpEnm6C6f/dtuu602T3Lkscce855//nn7SB0nUQp2nHCM97TTTrOPsiFThRPa12jL8bv00ksL39qaBCp4wTsS8OYvQxI0bXXuzgxkg3Tt2tVc5wkTz0suucRcM0hPnTrVXIM2Nu5UkzcEwrrb8zFpmDt3rte/f//IgxNZtFAkZIF59NFHz7ujTxo4msTfwe++++5Tu24EyMk577zz7KNyLdhuv/127+qrrzbXF198cS6Lqfz+br31VnPN+5XPLIqdHK1jxymPPxPzFwqlHKng91LkbBOH3+EZZ5xhH1XOrD/yyCP2kTTjz3/+s3fbbbfZR5WNEzcvkHxho/j3v/+92Tii4M08jg4iyb5zzjlnvlyxTTfddN7nrzSHkxGckHAoDJ944on2UTZkKhw2bNeVtk9pXvB5pI29LLfPyntQLNVXNzkiXOyUU06Zb6FNUYj8kzyh1dH9LgiEdVkUhEIyoYgSi2eKJuxap1k0gca4+ASDd8sU2Jb3oNg77rhjXtGE8WCfffYxodcc8+D2tmeeeWZosHKWlSkQ1i84xvF7y9D+XK4F3wPqVMyvNddc04xxdNXRSew29yT7gu87zeGik4cxLnOFk2DFlUA1aV7weVxuueXsVTm4LgburEKnQ17Q9nz22Weba//ddfbcc0/zTybjDNp86LLAyAsWd7SrMnngbhp7772393//93/zvhcld+s/95ylKex9pzEuGsHnMU+3546CG+M4/vbEE0+Y6zx46KGHvKuuuspc+++uwzEEFhYU+CkMUzzJEzeO0RWw0047mesyCHvfaYyLRtnncUVDDAFjHAiQvuCCC8y1ZFvwfafxLTp5GOMyVTgB7dV+s2bNslfSjODzGHyei46QSDchZ0Kbh4HujTfemLcLQSsgt+R0uJ0uXUPffPONWVi8//775t/lWErWcReQBx980Fz7j+W468mTJ5vFXxTID+G5adeuXSYKJ2HvO41x0Qg+j3m/w0y9OMLnFuh56Trh6NqIESPMNdlDAwcONNfOBhts4A0ZMsRcP/fcc7nZlaVYy91lUPQ7OwWFve80xkWj7PO4IvJviJGH5I4vS3YF33dsXurW4M0jp83dccrJ4hiXucLJqquuaq8q3nvvPXslzQg+j8HnuQxoAaeAQqdD1hcW3HmFRQJta4TasitBocQh5JTiCZio5qnd0z33HJ8i+NEhp8UdpYnq9+PvNsnCLU3pqAt+EGiMi0bwecxzaHKjWKS3b9/eBKwSlptl3M7RjVfkmAUzuBz/98ir+utf/2qus4oJtBu/CLtfd911zXVZhM0tNMZFQ2NcMXEE+yc/+Ym5piOaI8uSXWHvO41xzXv33XftVYssjnGZK5ywSPTLW3ZDVgWfx+DzXBauq+GBBx4w99PPIgo7LChmzpxpcjkomoS1P3ObLnCnFkJVQbvn+eefb66ziEnBq6++aq7DdmL5/XCnJ372Zosn/H7JGUAWuk0cjXHRY6ci+DxyDKxsKMq5MY7blvI+yiImmYxx3HWGrhJ/N10YfzcKxVD/LVmzhnHrs88+MwVtf0ddWZAtRKCvH92T0hzGN8Y5v7LO44qIIqu7qyhjiNv0kexZY4017FULzeOaF/Ychj3Xactc4WS99dazVxXcglWaQzAmi2u/4PNcFnkIimVBQRYL+SUUTaoNHCwM3c/CgOPaPbmDwRVXXGGusyQYCPu9733PXPtRIHKLjWaDYt3Eg1v9ZWmCGdyB1hjXPJ7DYABl2Xb6nawHxVJUYIxjPCDHhKJJLbfi9Oef0E2TxayqsgbCBrnXn6MxrnnMCYLKOsYVFV0ndJ+Azjo67CR76F4muNwv7P0p9Ql+ToQ9z1mQucJJp06d7FUFmQ209Erj/Pcbd4LPc5m4hXkWg2LpFnG34qJosvHGG5vralwnBbkg/E5du+e4ceMy1+7JIs4fCFtNFEGxHFWYNGmSuc5Stwk23HBDe1XBh8WcOXPsI2nECy+8YK9aBJ/nMnFjXNaCYiluUTShkE82E0WTerJoKLj27NnTXJMFkLXb3LrxqmyBsEHB+YXr/JPGBcc4io66jX3xsAFG7gkYK8l2kuzhFtJ+YXMQqU/wOQw+x1mRucIJIZhB06ZNs1fSiOCRFHIW2lqQF1lWg2LpEnELgUGDBnlbbbWVuW4NuSAks4MOi6y2e1YLhK3G/TuNBsVyC2LwOu/SpYu5zgr3+/LL6rGxvAg+fxz/KPOtOrMaFMtCwIWmUjRppPPxiCOO8HbYYQdz7S80p42xtqyBsEHBeRxHxsLOr0vtgmNc2FxZioFNMzdPYMzUMZDsCb7/uAOmNCcvY1zmCifsQgUXFlmZGOUVuRd+m222mb0qr6wFxdIdQpcIBgwY4O2yyy7muhYuJJZiAW3wWWz3dM9xMBC2mmaCYnkOXOHEPTdZQjGHHAC/4HtU6hN8/rp27WqvyitrQbEjR46c1wV2/PHHN/U7Ou644+Z9jnGb4rTbpMseCBsU9rvVGNc4PtOCnQeaxxUXYf8UT+jO5Y4tFE8++ugj+13JguCG3Ny5c7VWbQInIz755BP7qCKr87jMFU7QrVs3e1XBZCt4fl1qw11ZuOWjX/D5LSvX1ZB2UCyLfDfp7tu3r8koqAfBieSF8B5xBYMstXu2FQhbDb+fRoJi77nnHvNckMa944472q9mS9gYJ43hGMAHH3xgH1VwVKLsshQUO3r0aO++++4z13SMbL/99ua6GSwsyNLgOC/FkzR/PsanMgfCBnGMJNhNpDGucWHPnca4YltuueXMGMc/33//fTOPY6yTbGAOx8aEn8a4xuVpjMtk4SS4I00l77HHHrOPpB5hz1stO/5lkIWg2IkTJ3qXXHKJud5tt928Qw45xFzXy3VWUDRwstDuWUsgbDWNBsW640lZyzbxC74H2TF//fXX7SOph8a46rIQFHvHHXd4t956q7n2Z5Q0i+5UxjjC49iNpXjCRkHSFAgbjlBuP96n3EVJ6hcc49gUyOr5f4kOHSeMcXSgvPTSS2YeJ9mw0EILhY5x0pgJEybYqwqiCviMz6JMFk54wqiy+rl8BKlP8HnjeEpYxkJZuYV5GkGxnIk8++yzzTXdIcccc4y5bgS3JmaQodXNFQ6y0O7JYq2WQNhq6g2KZVebzBqeiywXTsJ23DXGNSb4vFE0IY1dKtwYl0ZQ7EMPPeRdddVV5tp/V5yo0NnAGEdnGoVhiidJc+NS2QNhg4JjHEUTjXH14/OT95Gfy/iR4mO+zhgHjrtdcMEF5lrSFxzj2PxyOVdSOzrSgzcxiaIrNS6ZLJygR48e9qqCxSDniKV2s2fP9h599FH7qCL4vJZdWkGxb7zxxrzdAwKQCEpsBi2DrlDgjusgzXbPegNhq3H/31qCYv3ZJoQgZ9Wqq666QBtiVoJ882Tq1KkLdOpojJtfWkGxHBEdMWKEueY44cCBA8111AgCdgsLjiQmuSurQNjqunfvbgpbfv7PJqkNz1mwU0cFunJhY43j13j44YfNHcUkfWHvQ41x9Qt7zrI8xmW2cMKxBb9vv/12Xnim1Cbs+XKBm9Ii6aDYDz/80EzuaStfa621zKSftr9mucIJO6/+neW02j3dc1lrIGw1tQbFTpkyxRSkkOVuEyf4XuT31sgdhMosbIwLfnZI8kGxM2bMmDfObL755t7gwYPNdVz8fwZh2IRix02BsG0LjnGMb7pDSH2CY9waa6xR0x33pFgI/Cf4H3RHc3xZ0sXtwIML/PHjx3vffPONfSS14DnzY71Qz7H+pGW2cMIHQzBcbOzYsfZKahF8vvy3rpX5ua6GuINiKc6woCDIcPnllzcFDbI8okAw4c4772yug90LwXZPbuMZp0YDYavh99NWUKyrWtNxQO5B1nG8KtgVc9ttt9kraQsddcFFBc+pjuksKMmg2Pfee8+MceyS0w3SbDddrfxdLYx//JxxYhxSIGzreD8GaR5XO+7SMW3aNPuoIqqMIMkfCrT8D4w/6lJNX/D9yIaoxrjasVZgM9kv62NcZgsn2GeffexVBS3ZGihqwxt31qxZ9lFF79697ZUEJRUUy4KCPBUCBClksHsUJRcSyzGZ4C06/e2ejzzyiHfFFVeY66g1EwhbTVtBsfys/MzI4i2Iw5DDEnxPcrQueNZTwo0ZM8ZetdAYV10SQbEUEhjjGAM4pkHRZPHFF7ffjZ8/R4XOmrhyqxQIW5sNN9xwgW7Dm266aYHbTko4nqsgjXHlRtcJ3Segs44OO0kPm5XBeXzY+1bCBedxbESocNIEbs0aTNXltobStuBuGzuOrlIt4dzCPK6gWLo83H3eKZpsvPHG5jpKTFRpW4f/DjuOv92T3fo42j1ZlDUTCFtNa0GxrtuEPIc83W2AMS5IY1zbCDkOjnGbbbaZyVWQ6twYF0dQLLcAp2jy1ltvmc9tiiZMgpLmv3MPWQAUiaPmxh8FwratX79+9qqCNnaNcW2j8zUYpstnIPlYUm5sgLERBsZcsp0kPcExjuOI6h5uG5sPxAf4BZ/LLMp04YTWfCZBfuz0cHtDqY5JHZNXv+DzKAuKMyiW7g43gR80aFCsZ5Rdvgd/XrDrCHG2e0YVCFuN+2/6g2L5GQlMQ166TRwKXcEcgPvvv98cp5LqWBAHzxFHfceWIoozKJYJvAtKpWgSPGqbpCOOOGLenUf8BesoMF4qELZ2HJ0MHhHmTkuElUt17m5UfhrjxGHzzb2vGHv/P3t3A3xbed33/e80jT2WPaqjTm3PuFHc2klj+YVoqGUPxoxjFTuilhlAKFSWAesFigCBpakNGBSBBbHNFcK2kIQQisAIJCyhEZKTUdoApbLc2GRU3LRCHkdRW6sa2500IxepUZPUn+ee57LZd+9z9t5nv5/1nWE4/3vh3nP22Xs9z/qttX5PeAdNh+eyPCJc9fwGz6Z8jb72a7/26Pzzz9/8NF9mLZzAxsTFLPLud7/7JJfx4Dj/6l/9q3R9iqj+vexlL9v8FGxjCKNYXR3Zi+HCCy88+tEf/dH0eiiK/kB1Dt9DtXvma7avIWwdVUaxWfhhzrhE07wqI9vyMxw8A/H8gQce2Px0HK2yYQrbjCGMYt/xjnccfepTn0qv3/CGNxx93/d9X3o9JT/7sz+bupDgmOLy6GIXwhC2G1XPZsS4enitPf7445ufjkP0HKJLNVgmzP6JJzp7v/SlLyXxRCdmMD686sr7el5fEePqueeee046EfGnfuqnFuFR9+/93T9n83qWmI/WAlyswDLfkdgOkZgtnbe+9a0nmZs+5znPOfrkJz+ZHu7v/M7v3PxqUIejewkJHmoblX1aYwkXWVU1ljFWxcgpPY4DVYX4iZ/4icoZfCKD3xfgfV7HIpePj2yD8aZ//I//cXr98z//80ff+I3fmF73jS4NYomOIAKqa6z74IILLjjh4bAExDACgG4kp4YVxeBsHuw7CZ7NjTfeePR//B//x+an44htTlX6hm/4hqPnP//5m18NqiCkE06sE1q8zzjjjL2eVWMX2RVfp8fQwnAbxDifk/mcbjijXPt81ve9732p28QIkhjXx2loa8Z1t0F2f4h34lyGkKVi7mS54BnsdyXEimBF/Dr/Kyd5fOu3fuvmV4NDRn703d/93Um0/pM/+ZM09sAkm6gSjIM9NIHE6Cth3XOa0emoQGkvFzyDnENX6r/9t/928ytH6Rr90i/9UtqbzJ3ZCyegtJuFYjyXefLJJ9Ovz/nIorH57//7//7obW972+an41hg/cOM7Z/+03+akguKHpU6qMa1YT7qH+3EXSvZxKpf+7VfS6/9GfnEhzEgIBj5UImQKNT5fvzgD/5gSgQsusRJ/iiEo7Ywg/x7f+/vpY2xrh1/7lDYLOhCkwjpPiCaCLoqzEvh4x//eFoksqGt76vcum7RNXoUp8Q8AyOxspkYMZgwKMbZQLonJLZLOFlpKngFed6JjxK0bIzdFmOz999/f3rtuZ+bj5ZNmO4X654kXuL5Qz/0QyedZtUE91U+5phANOUo0tyxDjBI1OnzB3/wB+nXCN5lwVOid9555x19zdd8zeZXAnu48rH07uF//a//dVqnGYjbm+iM7bJWB+uCcb5ny33h/pDIE0+CYbFuKhrY4+fDCnwPRIEi9nVVp4sdMr/4i7949Id/+Iebn45z5ZVXnugQnTuLEE5AZS8bZdnIqOJH1ed4F44WaYlyETfopZdeml7/L//L/5KSCwm9zYzuAqaxwcn81b/6V5NYp/VRhbat4Shh7+abb06vmXhdffXV6fWY2GipKPMAcdpEFZ4dBodENYuu/14nV9mUeRfvec970j1FdFItGxoLVK4kQ8K2hO4MnT26wnTmqMASfIxNvf71r09Jni6hDEHIIlw1ynOIuL/EuDKSWaOI7ndHYGfPG1077scQnqoR+4ntRnaMnLQ94cs9fOedd6bX4ks2nZ4bupB0DkpGxQv3CN+Ntvzqr/5qOgJbvJzrZ50DugGJwmKZ6quOEkUD+xDX374tYz/iH2JWcLz4deutt25+Og4BWNcOzx77u1zUcZ3t+xz5XR5nDw4LhQKdlmKcRF2cyuaxQf986EMfSjEuxzJ7T4a9r3rVq9K+tCieeFYV++YwvjoHFL6qjP2vueaazU/zZzHCiYosw9OiSqVaJtnTanzo+BrL5/0Tlcyza9v73u/93rRZ/MpXvpJGUCQVhCgbGQHX5jJ4hpxsqVAKjtrPmRU34XOf+9zRW97ylpTICai/8Au/MElFTdJofMZmS2dW3QjDvu2euibyONJ//V//170fsVyHBJkYCJvKOY/pfOYzn0k+EBZciQIk+z/3cz93QpTT7cP0tmjoK6klbumuO3QIcsVrg8suuywdB+jZPPXUU9MohkqQjYv1wslSBCpC2xJaQMdEJ6LrqULpPmtTFZMUHzt2LL0WK/Ix53NF4UWHiKqspMJm9rTTTtv87m4kqfn4YfdhtF6fjHtCt8QnPvGJoy9/+cup09HMOlE4j+NIHnTbPf300+lniOHWJ8/oIWPtJQwXrw0kFDrEdJfoDPPaf+sfYrJRVWtE+J8cNvZdxPA8ou0ZzCcsBv0gZ9JFZ6+sq07c+pmf+Zn0Tx7pJ2R++MMfTq8zxnhiQuIoFWaN6JRRZN7HJmBsFiOcgCpl8yIgZCR5kn6mkYfKXXfddVL7ujZOG9tisuA6mfkWTIlOxBNJvvljQcCCHLORz0BMoOC7VmYXmxiPEqKIJkZXbBaJJk0Fl75RhZJEqrBK1rMZbBX7tHvqoPB5berGdP3nD5I7TiTKdV01U/LFL34xnQDjGfW8wdgWfwSdPeXnTXJXPjXMSIXF+JCNKD1T7s0ihJLrr79+89NxJMiq164XUUDHGNFKMmecZ0lHVY+B6yTxEuNcn/LpJ1W4nr4P88nWEvfyEiAU2bgSJwknYqJ7aBdivzFEApzOtjh++NlYX971rneleGwdgOtEFC53AVqTdFCUu4cZoVo/Dnm8znNUPprzpS99aapiF5GgKeT4t/vYs6vDVbeKTtEwLD5c7B88Y7oe3Ev2F+GTtj+KgzoO5Z/WA3t6JzwSOnWnFyFe+Q6MhxbxZzjYoG0391pQwDVOnwuHmde+9rVHL3nJSzY/LYNFCSduOJsfjuNFqH+Hmlio3pRbO2FjWzeD7cGWFHvgJXMWXlUf1zUMZJ9NG6NYG2vXXaVbRZJoMvVG0N+v6k5g2PX+y+2eEs9dBsxjGcKWsTHIJ4LomBGMJXJzEVDdCxIJTvfESUjSVF+N3jBsroLqblFWoShiU8w3xnd0aDDPvffeezc/HUecIgzXVf4lyASq5z3veUkEdH/oyPMsh4HsM1hTieuepyZGsQRKMc7m0ZpLuKoynp4rvnefz2ii7lUFA92Y2whD2GqsKUZIdNLl1nSiko4c4mVdh5fOQIK+bs6MkR7fCUHgEBOLW265JYm7Rdyr5eJXEfs3xQKxkNGuGGfd8ByHgezhYp+n25nA7V6wRorVQXvsHRi/8jLJRTqHLRCFt43eKPK7/nKBDOHAczrHAt8YuGYE3iLGyW644YbNT8thUcIJiAGCQnksRfJ2aK1QEtyqap/2dZWKXWjtYz6p28Am0sIbBrLPpo1RrKqkDbZEgmgyh9ER321+/8a0ds2Sl9s9tQ3XtXuOaQhbxoad0aC/UyeN+5b4p/3eZ56SsvGrmEVVV6GQyO/Cgmx0QiU34xrbFBtJOiTPDi2vOprKvOlNb2rUAeYZtFGR7Bq5E+PCQPbZNDWKZc5ONNFFReAjmkz9rHUhj4RI3MUMiXpdJ5L7JAxhn41YVDZ+FbOuuOKKlFQ0Ec/FafsM91LGvWf9JCwfUuer+6s88w+ie5MThyTKKtk8sSRmOkbDQPaw8TzqtlTwE9vdR7Gfb45YVDZ+tXfWYUIcbuIppFCmGM2HKJNHiOd08twYvPnNbz6p4YG4a283VrG1TxYnnMCGWVKRK7lQsXj00UeTeLKkWamuSKK0PRWPc4KWp7ani+gwya1SNpKSizCQfYYmRrG33357SshAWZ2TO7REm1lmFhp2baSK7Z42YnXtnmMbwmaICvl8fMkMMcF7VRGQ/E1lNFhn/Mr/oa3vi8+UPWcyKhYELb93CJ5ERghvuummzU/PYJ6YCNUU/kLG7ghsYSBbjRi/zSjW+ko08byLgUSTtvf0nHA/eJ58HkUYnXjllmuEIeyzqTN+dW3aipAEeSe/FUevCSkELQWdQ+js0U1nzKnMtddem7ybmmK9tve1vruvc7EkDGQPF3mS4pdk3d7EHu4QcqN9qTN+NX7YplBgnZRbKaQVUaQW5w7Fm1Nx9SMf+cjmp2fw60sdI1ukcAKjJsSDYmJhU2x2Vrv+mjtPdJoQR1QYilA4s2FfWyTH2UDWRoYoFQayx9llFGvzk9tsL7/88pTYzgmLpZZNz4okUhKwi13tnlMZwoKfj+TXe8wJtM+YxSHvpUmlri9co13Gr23xPPqePH9Fs0DCEI8GLY5LrPY3xUJ74403bn56BgJvlblYEzyzYmQYyJ7MLqNY1W9dXbjuuuvSs7d0PF+6CH1eewmb3OK+IQxhn6GJ8WtbxC/xsZxYiOHWHHuRNT+PxP/czVSEMNxVpAsD2aAIIU0Xl/tA5wmxMjqQqmli/NoWHV/W1rI/G/8Za8/a/bKYvtoXl2F4TRxfKosVToxD8F/QGWETnJHs2eyomq+xrdZnk5CVO01s+m+77bbk97APYSBbTZ1R7IMPPngiMFx44YWzNTmyAZVwU7slRU2qT9vaPacyhDUukD19bNxzlZhw4rvx+SR/Y8yRtjV+bYvEwn0ngfPsZXxO3XUE4jVWkIxhSdTLECRVgvYlDGSrcT2qjGKJgnnjp1W5yYjUUpBY2MR6lsVHMc84XRjCHqeN8WsXJBZieNkslqhplIdAvMRW7l0ocOXCQ5Fzzz23dcdwFRK9MJANiGUEYqI38YQgaW/iHgiO08b4tQv2E1W+dbq5/WNtWVtOpRtR11xZFAcrCae9LpnFCiewoKoeEk+0J2Z8aeapBIddxm9LwmhEVUJBICKa9GkcGQayJ1M2itXinTc/jn4eU0Boi44hJxd4TgTxppveqnZPC8AUhrDQiaCCQsUvH4FKPCQyuFeHNIrtavzaBRtf19znEtcyFviHH344CVlrMn5T8dHBVUYCJcb12b4fBrLPxnpJYC0axTrhiWgOY3FrnM0W4/Kon020PQXjaR2Gh2oI29X4tQt8iMS5clVWokdQEdcJLGtA96COLbG7DH8Y3mh9Yv8WBrKHjWKqAkwe/SUU29sfYgG0iDW/i/FrF/x5rrcCZBHvwX7DaP9aOhoJtcRfn6uME8L4/S2dRQsncLNRUC0Gxc4TqCCpJKmKLzlImFH1NZWPHIZNv4rQUAugsYcwkD2Oz5pnhy0+qv6QfJnznju6FiSGWqHPPvvsza/uptjuqWVbckGYGNsQFjpdmNwahSl3Btgg+GdIo9h9jV+74Bm08dERURRPvCZg6bJbeheAcQkbFp4HZVxjXT1Dnd4SBrLPUDSK9QzlzY9nXafBGiEC2Nha02ygxY/8fB+aIWwfxq9dEMuJldknLEMgFnP93lxOTOuKtVcVO4+8FbEeD3m6hEJPGMgeLvZBBEjfue9ewk48OUT6MH7tAg+ivK4WseaIcQo5Sy+C2Y+6jsXThDL2yZdeeunmp2WzeOEExBPVMa2IjNyKSHB9maqHSzSz01rpRrTolvGAEy/8u2+FtEwYyB5HBUdLX3bKVgm/+uqr0+u5IwEQoHWdlD1LtlFs9xTkiSaEOonumBAOdM2ojL/xjW+sFENtDoYwipVA9mX82oVcFSEaFcUTiA1PPPFESj6GEm+GRFeD75N4UsZ3Lb7Z2A/Z5RYGss+QjWLFeBCV1m6MKjGXXOZxTIh5h2QIq6utL+PXtujEcLIMoaTo6ZQhqOj0tM/ps6NvLHSm6ibJ91YRI6ddfZvaII6GgezhogggDxLj+GvIlexfD4m+jF+74FkjSn/1q19N+7gifs3e0prrO1lih6OOYHtk++MycqSLL75489PyWYVwAhsfib3W+eJpO3AzSnYtFhaOoSqXfcLLwU3IkK04hpTxWX/yJ38ydQKYz7fgDW38JVE9dANZfgiSKZU5wc0xW0ZfloDvz6bUouH7MlbSFJ0cnhubalhkJJljdnK9/e1vT8/yf/lf/pfpOa6jT6PYIYxf2/Lrv/7rabPjWl911VXJa0BSX8Rz6D36juqOj54bhBLmYZKKstE1JGxaWHW6Ee1URocen/EsH7qBrOeGQAlJ6i/+4i+m12vH6ILENndaEAsOwdtkCOPXtjixSaz1d/t7fQflfQ/h5KMf/WgSMJdicqqYp5OEOFyFhGLs1vUwkD1c7IcI4555XSee96XsF/ZhCOPXNtg7Wkc9a/yF/L2mJMr7HuOhhExrz1J8iBRZjHD6dxl7Vp97bd2qqxFO4EsyNuFmzK22RYgMFl6b42x8N0fuv//+VIGo6jIBcx0zZNRSibDWS1V2AXGMtmLiiNGAQzOQJTbY4EmoJE8+q+u/pDEJC4b5aoG86tjRbTgBQNKuOk/YG7PdUxt9ngu32dxWdezDKNaIn4TeDKz7G30avzblfe97X0ra4fQixr4EU8KJbroyNkQqFzbHcx0x0NFh9Ib4VBa5M6qzzJaJGLkyatMjtoyx0TlUA1mfUYzTVeY59135vHNeL/tCtwORNFfMfO/ipHtwjQxt/NoURqlZkBdfdQ8bDxa7y11o7keing47cWCu3if2CgRvwnBeP4qIL35PEWAqXL8wkD087AsUWuUM9hD2MmM+72MiDxzS+LUJ8gTiAeGX6Gtvo6uE2b0iJjGliL21kWXxWaForl3E9tcOarjjjjsqO+l0CCv+jz3OPwarEk4yqoU2vB6actunn1VvVaRV0VUQ58JDDz10dP3115+obpaR9NrUvvSlL938ylESL7Tc2WTYfLRNhvfhkAxkfR+uveqzMQ0z/+6vbBQ7RjLXBwQHgVrCaiFpepY8wVFCDhUyG1ftnpILQsLQMEYmZuh2+lt/629tfrUez3UXo1jf81jGr7v48Ic/nFo7oQLMYyDje7P5NkJUHt2RBHkGfUc6g4bu0miKpEc7vuTImF8VxmUkUsUjvXnViCvinBinC8VnH4NDMpDVXSPGiQvWTyIdE8lsFDumCfQUEEqzIWyO7zaHNr5rMpmX1I9l/LqLO++888S6IsbqhIAEJ3dEimNl7DeMneqU8H3NxeSUwMrcWozz3FRhzyShmIsYGQayh4c9q/WYUO57bjO6vQSs1WMZv+7CaBCRSiGCaJJzTnsKQrX9Wtn3BPafuojtsQnEY+15duHaEktuuummtD5WwbNJjFvjqY9YpXACAoLFwEKWW2+LuFmZexIpzJdpSZ1i5EISy/RVOydV1KJVhQdMQlFVRaZeuoElsqqykg+bibEg1KzdQNbRlDqWVF8FP8lcroS77pKrpWCRlFgTIoy87FK0PSs+vwRCQiEoFts9iZFDtnvazN17773pNXMpf/cuuhjFTmH8WoeKA7EIOky8hzI23iqGRiv8U0ZyQTwiFMPGaIpOMPeIRM3xdKrF2oOr0L4qca+KXcRw34t4aROiy2tMEWvtBrKqXK69mGCzQ8B3zbNRrC67nNSuEd+j7gswhLWegZAifqjAL73LSPwmxI5t/FqHzto8wuLZz9e8CJ8Z/9hX5ASoiNiiE5GYSfDxnE6B+0QXnRNzvBdifRmxQ7ckP6cxY1dTJNNhIHs4ePblR4p/4rwcaOl79amMX+vIY9YwRSCWlfH+7DXlF9k7sYiuIKe8iYHixlTfETGVYHLLLbek9bIK+2T7PKfnLNGnpSmrFU5ACFGhtphqe6oSJWwY3RASMwFE9ZYQIEEeChU9M3c2ajarEtCqBwbUSYm6ivO2SpCqP+XYYidZ9IAObXZUZq0GsrfffntKkkCxVvFGNoq1+CxpYy242RhJkmySdnWMSOB9hwK2qiSK7Z7+rCHbPXUp2CATeRz73BTPjvdnwy35qzOKndr4tYzTwHgOQHfNJZdckl5X4b0SiGx8VJDK3ScQEwgWrqMKs9g2tHeBa06UtnFgGuZ78P6qkKCLg9va1lVDbfRcG59HpUxXypjV8bUayLpnXH/PuDhGNMn3vZitdd/IxJjdjGOjnVtHk3UzG8L6rvlsuC6SYV2FY7V3982Uxq9VEKmzGM4z6rzzzkuvq9D1Je5bY6q6TyCu2VOp0PoexcShOyUkZkQbBS2dM3XJBBRWtLXXrUFzwZoeBrKHgwKEvZXnxz7IHm6pXQJTGr9WUR6z3uaXZT8txikqEVCq0IHiz+NFpJip43XoArm9veuqcGr/WNdhAnFcp/Zax76KfM2fL6In77RXilZc/9SJFBlKmWRSi77NusruPht0DsqEBMmDBIdQswsJ0cUXX1xZaa5DAq9zRQeETfyNN944WZVAQvHggw+mzUxGddzDtaTArO02e2tcfvnl6TMUMdahY8hmQuuz720J6AaiHIN3Sd13osrvPgLRqCyy6CQwYgbdIFVVw31wH+UjzK655prWfjLExHzMo6pDceMq+XaPEhoz7k//jJmQFxEnJK4qlgQF6v02dMtZlD37qoUS+pyQbEPlQqeaRNEYwr6GgARoVVcJphgn1u3CmItKcxsPGgu56+Nz6nIa8gjPXdhEuH+K8Vw3lvuHALEUsmke1FHKrcyEY92Zkm2v14akUAwEAbXs7eDXslmuIkZV1XCuEEp0mRD5oKvE/Vkc+xsbQhwxFcZxtgnDZextdHYYHd2FAoEYRwgQ46q6ddtADJbUiHHWT7FoF/5e+7ji6OGS8FnFOOsSCFLunzYFjGDe6ESzjvqOxQf7vSUJxHIM96i9Igit7tEpjb2NWed9mKL3ueeem143wfcg77Dm7kIhI/tNGkfft7Ahvtoz2/eLcVUnHZaxp7aPW9M46y4OSjiBbg/KmYTXZr8pulYEEy2LKjQSZEFGwkxokegQSKj0qtuqHtrnqbl1BohVWOyNQ7ziFa9IVda2+PsEQe+D4CMITtGen9FmJqgVK0WqSwJbl883Jt73+9///vSaUaWkqAqCCsVeJZrCvRQICbqsfC6frwodJjbd2vRzt0kZp90Y/YH/xn/bF1mYkcxIYLpA0GLqqQKp1VCnjdbHoqinIuieHHPErYzKHlFAuykTVCc27XpGCMHa3QmkPpsuO4uf+5ag1zS860JRTSRmiHGugz9TVcN7EONssFRExBYVDxsVMU58qxoVqkMcFeO2VZm3IZbkk174BUx9HDihSKzIiZRr5l4qelHNlfxsoCwsZiSMDMmJdNalrt/bHLEf8NnsBVQmc7dJGc+iJNKzYLZ7Tt5oVYjZ7kmb34zP576cYiQ5UxTijU8aW+mCfYUYp3OlKcRM+zgxzlogxqlEE5F9rzrKdGCKce4HYrS1QlwW43Ji1gRJzAUXXJDE7DUgiXM/WVvg+rmXdHQHy0d3uLzBvU548IyOPZ7cFrGEKKwABnHNPSnOTYkxa3sxGLO+6KKL0uu2EL2NM1adVlNHPhRAkcMz6jsU48Q+xUAxzjpuvN4+09ouxhFI5AJy16bY54txazR/3cXBCScZCyRVUNJRdTrF2GgLttHuQ8kvVtlVXBiVTY0WewuvhxMecEEuj/bMDe1weebdd/LKV74yva5Ci6MWNVRVbOdKDvCqSBLwcguuqt573/ve9Jo4YkGtQytfrrxbdJuasW5DV4FFx0ZWV0XXTagFwv/vzyFI5IUWusrch1MnQjYuRBMCBOFCorZr4yI5ymKW5K/ss2MRJDr5HtsIG0MhFtlI9JFM2Mjn7gcdK8YOpsbzJMYZJYKuP/fWXKvNZsG14YKvx7ZY/JGPfCS1HkPMGHoMYiyMWGh/lkT7XHUjujaa1lRdRp5L4skcr4GNMFFYF01G5dV9uC1+j4F4JcYpMKlOinH7YsPv3tQV2mbTPxRGKxUi+iwezAl7ZjHOdwjFOULqkB5nwTgQTcQ4exFj5/ZxcyxuKg67B+27MzroxLipDcztge2FIRbwj9oXHSg5xhE9pkQBzUg1caqPPf5SWbXHyTbcAGaxtFBpdZI82vCqQI2FjYwHXqWPCWVf5+cbu6A4Ciw6IVRO2o449I0WsqUYyPJlYS4FyeiupMx7t+j4R0VmKUaxqm+SPR0EFpyiR0vZEHaXquz3tTF7hlTgbaT2HRNTTaS66+5y/HZXPNsEO9+PxAJU+amMX8u4xsXj6hgMNkly+IeoFkhCmHGVUYHxPfj+xDoVB/dnndfIELjHbKyJt1pW/dwHulZUilWdeFBk/5Ep8dmWYiCrYKCaBffHriodwdFzLTldi1Gs76VoCLttlMOzQxC3XokhxtJ058wlsZib8WsZ3RpinE4O3YNGnvq4dvYTBFmdQnm8gJgyZj0wd5e86U1vSqLJnPYyfRMGsuvFs6SA5Pv0vRIodHTOhbkZv5YhcIhxYo8x667ddGXsHRRfdHt6xognYxfC5I+60olp8pul+uD0xcF2nNShHZdqqB3c6yp39K7kzZcqN6+IoTf6xdltG+O6NuSxkbhRjFXGMuaQKcY26FPy5JNPpg0Q2nTrEKiM7MBM8xLa9OF70PKseprbCyEpN8piE8g4sQl9t3sae5Lo25Sef/75m19tB/HQZ7QJyNhg5xn7OcBrRkIm+XfNmsQFRrZZ3GOI1qZjRjLv7xPj8ux6XxAzmCfbOIhxQx9xaOwyx5FdXRNjQnh03+lcy9iEinFTG6wW75023TqEbp0WEBfFxyWj+4HYy7NEIt8EXRNinO41CbPndWqs8+41BRIomrjPqsaupkC3jmtNGJYE6DQZslvH/kLxI8e43OXaF44FJUiLcQoGkplD5POf/3y674pHy4sn1uolmmQHxyl2TRjFuvLKK9PrKdEZ6V5j3g+FIDFuLt3d9rzFMWvrwpA+ef4ez53ConVZ/tEn9u9iHMFEjJvLUchzIYSTLajiSCxUcHLF2ukJKk7b/FEotzYINgcSTxUW1fwpzu0XbLJPB+Fk6vm/IqpQ3t9cDGTNMdsUMw8WmAU/1eOmLNEo1n1M6CEQ8oqQ3O0yhN2GZ6SPdk9VDyfLEBOMEbXdiBnHUYH1WTJnnHFG+nNR5+cwNlmgguPqmsyLFg1htU1WdZs0RVKj8i7GZa8SXSxiXF33nWdCZVGMs8CKcbotiDdO1hob4nAeTdCZNKfRmLkZyNpo3Xzzzel1F3+YtRjF7jKE3UYxPm7zfhqaORq/VqGpmVm0zj+iydhjkdYiMc51EuMkGfYe4icBrAq+cJIFMY4w4n4X4yRFXgfPEAay64NnnfFsKALaI07BHI1fy4gvxTFra8PYQgNPTXteMU6RUIzza2JcXYexfbn3qRPW++b9pNAlxjlBLqgnhJOOSDQlFm5KAouFVsKs4irZmxPFk2FU8ZmYzok5GMhKFCX8hDEbI8GPANaWJRrF5jl/AVP3QxND2G3YQLmWngvdVUZP2uI0GZvdv/23/3YaqWnKLuPXslHslPCMMLuKNh4uVYawQ6Adm7Aixol3/B9yjJsbPIbyzLOOsXxk+FyYg4GsjZXnkvCmmuR1W8TJpRvFNjWE3UbxZBgjqPnkrzEQm91LOioyPof7aUrj1yoc1fs//A//Q3o9xxOJxDbiiX/bCotxEv8lnYo1F8JAdl3wR7vnnnvSayPNvsuxmKvxaxl7XKKJvarinryBADEndOnYx9nPQYxzPcW5oBsH63GyL8QRSYQFViLh35L8uYkmsEmmPlIiValU16ZuFy/yH/6H/2GqfhqhIFyYo5d8U71d06Gr2ALLW97yltR6qkvEBq+rH4FkVgKnQ8k88BKUW5+VcCIpcu3dI9CO32U2nkBh8bBhtolSLWjTtWJcygYMZvSbCFi+Qx0/EmhVRRBtXv/616cjL3Oyr9qp2uxzEgOmMrhismdjAN4fTavEkqY8ZuEIuKIvTd/oLCnGOIvtWEJmW5zQIWaIc+5fwsmc2ktVygh4RtfEYVUqlVqxgogy9GaLmCvGEQ1UlWz26oxQt+Fe0IKsg4AJuS6uqf0z2kJ45FEiTolxbboKM74vn1ubtK4iG+ihj2MUnyUyxN/cmq3yStzWPTdka3gXCPLGwiAOz9EXR8FLAiG+5Rg3t+u4FOzfjOpYIwjEYpxOO3FCLB5yPCvoH/tXgiLxwndobzz06K218d3vfnfyMhHvYG+k83mOhy4Yk7YWyvvkDWN30zUhCyXFGNdl7Q+eIYSTA8E8ug2eRJbHAR8FG8c5MZWBrHlOs+6CieC3j4Gl92hcxT+u9RKMYl3v/J6JDipvTQxht+G7JIhJYi2GFG8CXhN0Ymh79Pc38axgImsBy2M524xfbZL9476SaEu4u3QW7QND3ve85z3ptVNmvM+m7DKEPWR4DrgHGNvZzJjPtVGYE2KL8SobLVUqMW5oA1mdFUQT940RSKLJPve8zrSlGsW6zk0NYXeRN8lEGLGEqDSEkEmUIbLO1fi1CsbDuuJA4LWuB4dBGMiuB3HGuIdCoJivG3uIffjcjV+rsBfL3XTGrOfWTRcMRwgnB4SqP+XYQiZx9KCPnTQ2QYdJTphtSCUXjJBsGm38JeR9YU5f4gKqdh8t/iovv/Vbv5UWnKE2031DmHrkkUeSaOIaNzXF3YakxIInibWBUt3jHbMNJyKoOEBis83rRrWeP4Gqpo4TFRFt90aktnVUSXi8p9xhM6bXiWO5ebfAcXWXXHJJet0EnzMnI7w8pj4NaG6odNroucZinEoZv5O5VZCJJoRr43wqerqIdGV5/nTc2Zj2Za7oeSaaiJ1iEdGkj25DMdi4iud1bh2M22B0rSvJ2teHWbrv0alkrq8OIh2G+XSXPtAdRxQmQPsuJS7MfL33OZ3SVISQfe+996bX2uuXOM4V7Id1n+G/4ofnIxdm3M885HQuzDEZDk5GASL7Zthz2cNt25e1hfGrGEfUhj/fHs5YzhzzEyju6dKGMes5ea4EwxPCyQEhcVX1pxxLLHRZWNjmOOvmvaqqm481g6wTQlLBu0LCq1Vai/s+8H7hdwHeJH2ZSuakRyXSYsDwVnvcnNEdk41TCT1a8Pugbbsnc12JpP+vrhPDn8Xbw4JLVIMNOuGrqUhl4Zeo6myR9I1h+EcE7HpcHU8JnVGeBR0LSznyemxU33VESOrFOJWyvu7lvhETjJO5F1TcbEyNC9qQEQIJfPuKPkbXiOTgNeS56gNt98QeG2riCS+iuSNpI2jDs9eXeTcRRvx0HYwmEP6NZu0DoYTAan3yzLuvjfQZeZmzOannLntHGZGcylQymAe6S3SkicnisX+IjE4bMyLXVzwKhkWeIF/w/ckf5BH7dg7Zy+uiU7jUVSdm6k7zz5xH3LuOWQfrIYSTA0PVkaJLOc6LGLW0y5z3GBBHKN4Cte4A4gkR5WMf+1gKthZkIktbeGhIvOF88r6PMVWJ1MbnPfMV8BnmjM4NR6hCS79EqK+KUNN2TyMFt956a3ptQSpXbr0v/gQ6UrwGAUF3jG6qNvcB4cR3YyRM8mc2e0hU24gmX/nKV9I9K4lt835VcI2h2Kz4vDGHX49OHN1Okjj3iZixz9jZ0Jj/1/VEUMynfRAHJc3GB7t2rPHCKJ4i1XcM8n4lQJ4j73OKU+OaIgYTHglSKpl9VwjdX0zO3W86nsS8Lh1hRGOjRPyacjz2fonCu7r1pkZ8UjmGEcg5HGMazAOJsAKSfxMYFTx4mYnR9qRtTrUKxkd+QCAmwssbFMHsuXx3bREndP4RscVlBQRFMmtUn916Q7DPmHWwHkI4OUAkXza9Ku6CoCrnHI5m3UafBrI2+xJwODLv5S9/eXrdN67zEoxiP/rRj54w8dP+nRezPjfqTdo9nTCjqqGaXTyRqKnxa1vGMoq1SSSaeNbMeBNN2vgSjGkIuxZUrzxvOgDEN+3hWsfnTJ8GsubFicsw8iZp6RubZgLeEoxi+zCE3YUYl0cAJQc6iZpej6UZv5YRo8Q4vhY6RbucpBasH/u3MJBdJjrTFQR1iNjLEIrtyZsWgKxpSzJ+LeM+zSeptR2zDtZFCCcHiqRV5d+m3EZNlXPuXREwVrGPgSyvlJyE8hgwLz4USzCKVdVUidW9wxBW1ViyZoTl7LPP3vxX/bCr3VPXi44MYzdZHGhj/NqWMYxiXVcJBfHM/SmhaNvGH4aw3bBJJ6q5d3TWZW+RubOvgSwfHOac8EwPeYTjEoxi+zSE3QZxQwJgLZIYEGqIHttOolqi8WsZXVJinI5B11aM2/aZg0AhKQxkl4f9kYKT78p3RgwhnmxjicavZfYZsw7WRwgnB4zE3py3ja/EjhfFEpRfdDGQ1Rp68803p9dOGWKwOTSStzkbxWo7dM3cC6qbNr7ECoZufR8/t63d01jC448/nl5blKj7XYxf2zK0USzRx5/f9bi6MITdD8+b5FSMINoRr4Y+3rwPuhrIul8cAwuV3T4MUHcxd6PYvg1ht6EzSFJoTFNM8b3x6apiicavZZyWJqFQfCHqEU0iRgVNCAPZZeI51/0oxikIiq3201Us0fi1jHtSjMtj1vZxXewBgvUQwsmBY3ESBCSx5uotVEsx7PK+mxrI+j2nS0hCBG/BT3IyNHM2ilWJzyNLnMElPK6pzbD36hoahemTunbPd77znUn8UrH2/e1j/NqWoYxi9z2uLgxh+0GMcC/pUCPaqWi2GXuZkjYGshLwY8eOpdeeqeK425DM2Sh2KEPYbRg5IECrykoqbLx1s2WWavxahTXVvkFcJ5rM3aMgmB+6S8JAdlnYJxHMxTJxXxzTQZxZqvFrGfsGool70r5B3rDvoRTB8gnhJEhCgmRZy6TquIA4VDvzEOwykKWQ33LLLWksxcZU8BtTvJirUWw2hLVpKfq8SIRcO4vGEBXkcrsnAUfHEySF+xq/tmUIo9g+jqsLQ9j+ID7kiqbNnE36kjZwuwxkdSxIYnn1iIPulzHxvuZmFDu0Iew2xFDJAqNY95xY6jleqvFrFUQ6iRPcb0N5RAWHgXgcBrLLQY6g0CpnUK/rLZYAAP/0SURBVACzR1OYXKrxa5nymLW8ITx4AoRwEiRstlXHJI42Q3Nsud5FnYGsDb35a9VGwW+KNmib5jkZxRYNYW16i7P0fCEIGsQni98Qx7kW2z19T0X6MH5tCyGnL6PYPo6rC0PY/lH1Fw/EOTHulFNOSYLEkqgzkH300UeTXwAB4/rrr0/ixZjM0Sh2DEPYbYhvroEuJ6KsExmWaPxahXGwvH6I1XP0tgmWif1bGMguA3tZYgkR3/ejGKZTGUsyfq1i3zHrYL2EcBKcwJyiDZ65RVVZnRI2nUuD4JMNZFUsJBSw6FqUdxnIDsGcjGLLhrBVR7USmZxYpPvDHPIQc+sWJYls/n50Dl199dW9GL+2pS+j2L6OqwtD2GEw8qKLhzDo/tP9NZY41yfZQNamVbWP2AfdU1qKpxCH52QUO5Yh7DbEV/eaeJIhfEkmlmL8WgXj4ey7RNS11gZB30jKw0B23ojzBJNsbA3rAPF+KcavVew7Zh2smxBOgmdhLEIgtEhJIgWMpZg4ldEumEdAwIBsl4HskBBt5mAUWzaErYJwYbMiebdxcV/0hc6bbPyaRRNIAlVpp2pbV1GQTHc1itWWz7sA+xxXF4aww6GKqQLmuxLjVMpOP/30xY5B8QLSQaPDhHji3t1lIDskczGKHdMQtoqi8SuIwuKbNUg329La1jOMw40QgvfUeeedl14HwRCEgex8KRu/WmuMRVqDiOb22EukjzHrYN2EcBI8C3OKxnZUDiUWTqKwaKnGL4m77747zf/j8ssvT5WxXQayQzMHo9gqQ9g6vDequ5EABrz7XidJ6h133PEs49eMbidt7ES7vk/zaUNXo1hV5T6OqwtD2OFR6VcVk+CLccTVIcbRhuZXfuVXkriNG264Id0vuwxkh2YORrFTGMJmCCVVxq9GhXQauibGDpzs1PZY8qnxvIjfMEZ58cUXp9dBMDRhIDsf6oxfr7zyypQv+G7kD/KIpXUF9TFmHayfEE6Ck9ANoeqvMyAvUFTXsWfEu/Lggw+m5BwXXnhhOrZ4l4GsBXlIA9LM1EaxdYawVWiHlQh4ryraPCG6IJEi1rz73e9+lvGrhI6Xh8r0TTfdlDpxJLEWXYLFFCNVXYxiVcCKx9U5XaLrvaSaG4aww6OLx/iGZNA9KR5UjazNlXe84x2pbR2M98SRXQayY3W4TWkUO5UhrDi2y/jV/WWsyv2m40nn01K6ycQk1WUYY5QkBcHYhIHsdBDptxm/yg90+Pnv5A2KYDqVfS9LoK8x62D9hHASVCJxswFWfRcEVTDbji5MgQ177qg455xzThIH6gxk+Xlo41cJHBrXdgqj2G2GsHVYDIknRATqexvTScmLREJlnEiFbPxqlOX2229PozoXXHBB8myQ/Pl7VMxdHwnHFO2ebYxibdyKx9URTbp6F4Qh7LiolHn2dACIb1q/tYXPnd/4jd9Igi/4d0gkitQZyHqmCMhDH8U8pVHs2IawxKl77rknCVlNjF/FuDwOSIzQnTbWtemKuCTGidXEnmuvvXbzO0EwDfZvYSA7DtYQRa/77rsvxS3UGb/qTFcc1I1iT0Qott8eoyi5D+6d2267Lb3eZ8w6OAxCOAlqkbSq/Ntw2xTaJI7dIdEG/iU58Xzxi1989OpXvzq9rqJoIKu7wMJLKf8n/+SfpJGaIbsdpjCKbWIIWwVBgxJvvtgGv2kybxZehVJyANX91772tSeMX/0+QUYbPR+PjPc1dbtnU6NY17J4XB3RZJ/2+7e//e1JzAtD2PGwAWcO6z7VWcdB38ZvrvC+Yc4Jz7GuhjqygazPZDRQjLOh9ZqwMKSBrM6rsY1ixzSE9exr6day7r6BJOKKK67YavxKSPHfWWckIUQeAosEcI7oXBLjnErneopxc32vweERBrLDIW4T6e2pXU+IVTpMthm/2ispPvkefB+EF+LJXOlrzDo4HEI4CbYiyZfc2gRLEBnclVXmOaBd8+abb06v+WUUk/Ft6DAxygMBVHIxhoGshG1Mo9gmhrB1+M5Vcmyid42uENmy8auOE/cOc8bXve51z/JT0fJJjJH4Fc1g59Lu2cQots/j6sIQdjo8exJhzz/Rjgg2RudZW9wjjoGF57CJ6WkWggjJnmPdA57jMQxkxzaKHcsQtmj8arOtuECk93c2EaN0/Uj4jGyKL74THlJz4+mnn04JhaIJoY1oEnEpmBthINs/ZeNXezR7OPu1JodFiBc6G8U4xUFx2b58brhPxLg8Zm0fN/fumGB6QjgJdmLhEUwksWbmLUJzMuMyBvKWt7wlJQYCvOAnYWiKz6bKb/M6loHsmEaxqulNDWGrkFwZ87Ep0VFR1epfZfzq1AXtnGVRSCVCF4vviLpf3tTMpd1zm1Fsn8fVhSHs9Hj+3be6z4h2qpVDj7S0QZJ+7Nix9NqzYBPbBrHFmJyK2lgGsmMaxY5hCKtLpMr41ehhUxPpjHECHRxioaTCBl5n25ywporr4jHRhNgfBHNFd0kYyO5HnfGrf9qOlNszEc/zqLeYqYN4LljviSbuE+u9vKHvfX6wTkI4CRpBkFCB0g6pyi4gDtkK3RTChg2eURSbV8GvqwAxtoHsWEaxbQxhqyBsSLZURi02qtcZiVGV8St/AZ0iVddL1dz3JpGqa+GfQ7tnnVFs38fVhSHsPCAs5GqljaPnfSz/oW1IXnXTiUFik3ukK2MbyI5hFDu0Iay4ZwToAx/4QK3xaxcISxITRrHuObHVPTgHiHQSHrjftvk8BcGcELPDQLYdigXbjF+7Ikewf5QzKIDZD+4TM/vCaBfRJI9ZyxvCFydoSggnQWNs2lXHJJE2VWO0X2/DRploonKqwij49TG3P6aB7NBGsV0MYatwXYkFBA/v0/WuM351VCXfiCpsYJx6BH4A29o+y+2eEj1izJgQb4pGsSpYvA3Qx3F1krIwhJ0Pqv6edXFOjHOSFLFhKnSGiHG55fz6669vZdBcx1gGsmMYxQ5lCNvW+LULrrPrIXEh0BLHdD9NCWE7rxni+Rj+NEHQN/ZvYSC7HbG/qfFrV+wXdYMT6F17e0dr2ZT0OWYdHB4hnAStMKdogyeRVZXVNWHDOgWqjDwJJBKCHzPEPiEKDW0g68/IVe6+jWK7GsJW4Rrk92mxJX7UGb9uQ7eG0RfvJXvLbKPc7qnracx2z7JRLOEHfR1XF4aw88M4i3tbp5PNlU6wOiFwSBhyEk10cul+Ipo0mS9vwxgGskMaxQ5hCCtedjF+7UretBN/xJgxPK/qYDycvZYIuda/IFgyEvcwkH02XY1fuyJ+EqIVCK0FusP72D93oc8x6+AwCeEkaI2qP+XYAiShFHj63tDvwlG2NvigjqsMD8XQBrJDGcXuYwhbhQXW5t7n32b8Woe2WdUNSHJcuyYU2z1tfMZu95TY+L4lsujruLowhJ0nKpQ2ekYoxDiVstNPP33UESqmo0QTz6+YQDQZqrtvDANZMXIIo9i+DWH3NX7tiuvPQ8r3rfNH5+HYniJOOjM2CP5U5513XnodBEvH/iEMZI+zr/FrVxQgFL907+ls9Pc23QP2Rd9j1sFhEsJJ0BqJq6o/5VhioevDgqQyPwZ33313msnH5ZdfnpKaofGZtxnI2uR2rUoPYRS7ryFsEYkj41ejShkbDUaJbUQeHgGSMhWgtt0aU7Z7EsuywIFzzjmntRlkmTCEnTe6CnRKSPbFOJUyYyZjYQSOKA3GnO7/oRnSQHYIo9g+DWH7NH7tCvFH16HrY6SAYL/P8eZtcJ+L8TBqefHFF6fXQbAmDtlAVqGGYNKH8WtX5AnyBddd/iCPGKvj58Mf/nCvY9bB4RLCSdAJVVCKMeU4Lz7U277my+swIkIxx4UXXtho3KNPhjKQ7dsodl9DWFQZv3qfKrzep/nhpmKZbo1bb701vbZodammTtHuqSqVj6uzwPu35G/Xscy7UNkNQ9h5owNIt5Ok0v3vWd9n3K0pPDW0kkPr9FCm0XUMZSDrz+vLKLYvQ9ihjF+74v5iouh+0/Ek5g3diSYOSajgezeSFARrJhvI6nhYu4EsAX4I49cuyA8IxN6TvEERTAe7az4kTnHUgY2+xqyDwyWEk6Azkj6bYS3dgqDqpI3XUNh05y4KVf+ugkAfDGEg63r2YRS7ryGsZKTO+FUL9+OPP57aXS3ATZOLj3zkI6nSoPLc9ijVImO2e9pMFY+rU/mX0PquGcV2PWkiDGGXg6qc51AHgPimrVvL91CYOyfCwjibzf1U9G0ga3Pcl1HsvoawYxi/dkWMc410MhI1dAD17auSEYvEOP4PRJprr7128ztBsH4IJGs1kBWzhzZ+7YJimwKczhd7K0KxvXSXgmMTfJ+33XZbet3XmHVw2IRwEuyFpFXl32baBtSGdIgKKY+JnGyaxTd3PgeMwPRlIOu/zbO3XY1i9zWENeeu+mjDjirjV3+2BIrJ69lnn51+bRc6YHRrEF72FQrGaPf0GYvH1RFNiGRFo1gnsHSZCQ5D2GWRx/A8EzrrsidI3xgHY84Jz67OhznQp4FsH0ax+xjCeq61a49l/NoFoo33ZA2R8BCIiDmSuz7RTSTG6QZ0DcW4vv+OIFgCClVrMZAd2/i1C/ZNRj9dY9eayEM86Rv7NDGOXxUB2khnEOxLCCfB3kj4zZfbEEs0eVH0qWhrobz55pvTa6f6MNKcG30ZyErS9jGK7WoIS/gibuhU2WX8apNNYNF10sRrRIu/LhWfx8K1b2VhjHZP4lE+rk5Ckb8Hi32uBkv+2nZYhSHsMvH9S7o920Q7Ylqfx5K7LxwDCxXQPoxO+6RPA9l9jWK7GsJOZfzaBR09kjnjm2KN681fqy+cTiahUOwgfolxEYuCQ2YNBrJVxq+XXXZZ6tAe+wCHXYg7uhbFOIVCMd3+vi98d2Kcgh3B3smbQ3W1BIdFCCdBL1hUBCVJrHl4C0wfRltGRZwuYbNuERD8bOLniM+/r4HsPkaxKuJtDWGz8asFl9gDXSHaOetEG5/Txtv787mYCW5Dh4U/W9W6rzGHIds9dx1XRwiTMOq4cY2bmkeGIeyy8Wy7j3WWEe1UItuOq1QhkT927Fh67R7eZ5RtaPowkN3HKLaLIewcjF+7YFSASK0qK6mQCOhy6wNrqtgvjuZuuiAIlmkgS3jXRacARuCfwvi1C/ZPhHRroPVAfNZBvC/WaaKJ7846LW8gRgdBH4RwEvQGYUNCrdVRVV5AbNNGXUZSboNn/MQGV/BrKiJMyb4GsgSBLkaxbQxhq4xfJfL8AnRv7BIgJD8+jwVqW9VY0vLwww+n11dffXXnk4eqGKLds8lxdYQT340E2t/Z1Cg2DGGXD9EgVyKJdp7lfTamklfddOKCeOG+WAL7Gsj6/9oaxbY1hJ2b8WsXxFlJEKNY95x46x7cByKdRAXut65eTUGwZpZgIEvAz8avumLsj6cyfu2KHEGhVc6gAGbvuU98Nm5FNMlj1vKGJXvVBPMjhJOgV2z+VccklDZnXVqxYXNMNFHNVFUU/ObWTr2LfQxk2xrFNjWE3Wb8qnOkqbDhvyNW+DMkNHVHtRodIszowmHM1Tfldk9JHOGnC22OqyPYqH77TpsYxYYh7HpQ9fcci3Ni3CmnnJKEhLbo1hDjchv49ddfn0SEJdHVQLZoFGv0SZzc5S9SNIS95pprag1h52z82gXX0LWRJBFriWy6n7pgHCyvE2J+F4+ZIDgk5mggK9bO0fi1K/a4usqJ765rkxHwOopj1vIGe7Ug6JMQToLeMadogyeRVZXVQWGz2waVRRtqiYTgx6BwqRCO2hrItjGKbWoI28T4tQ0WNyIQYcQITvnPUD1gUoZLL720sc9LW8rtnrqe2rZ7tj2uTot7G6PYMIRdF0ZVPEfEQ5s0XWFtuqkYchJNPDsqmkSTuc2gt6GLgWw2ihW/dhnF+nN2GcKKf3M3fu1K3vwTjsSbLv5XjIezvxLx1poUBEEzJPdTG8guwfi1K2I10Vux0Lqgy7xqb7yNXWPWQdAHIZwEg6DqTzm2uEguBbCmicHtt9+eNt2goKvoroG2BrJNjWJ3GcK2MX5tA6HEBkLyZzNR7vR4//vfn4QMogpzsiEptnt6T23aPbXB80CArpimx9VJZvx9Kj46T+qMYl33MIRdF6qPNnruHTFOpez0009v1M3AmJRo4pn1XBNN9nkO50IXA1kxr4lR7C5D2CUZv3bFtWVa6b7R1aMLsWk7PtHcqCB4WJ133nnpdRAEzbHHmMpAdknGr11RgLBn1Clo3+oz2hs3ocmYdRD0QQgnwSBIXFX9KccSC90jFhtV+m3cfffdaU4el19+eUpG1oTrss1AVlt2NrFqYhS7zRBWMtfW+LUt3g+F32LnM+X3LsnJoykXXXRRqsgMTZd2TwLWPsfVWdS3GcWGIex60cGga0LiL8aplNWNrBUxJkdMBmPOOZoN7oOY0NRAtolR7DZD2KUav3aFcKQD0bUyLkCMNy61DfendQCur3gcBEF3xjSQXarxa1fkCfIF11T+II/Y1c3TZsw6CPYlhJNgMFRTKcYCfl5YqMB1s+kPPvhgSvJx4YUXnujOWCNNDWR3GcVWGcLWGb8STJoYv7aBIKLK6/0Zq8rdQb5HAoYqsgV+LNq0e6oUFY+rk8S2vTaEE5+9zihWlTcMYdeL7iHdTpJTz5rnuG5UDnw3tHdD91FT4+cl0tRA1u/XGcXWGcKuwfi1K+4vY5DuNx1PYl5dF5vYo0oN34WxpSAI+mFIA1ni+tKNX7sgPyAQ+/zyBkUw+1bXs4q2Y9ZBsC8hnASDImG0MVaVFwRVHqtGGmycc+eE1sNdp8KshSYGsq4h8alsFFs2hPXf92H82hYLXfYXofQzS7311lvT+M4FF1wwuj9Nk3ZPG5zicXVEk64eCHVGsWEIexioAHomdQCIbza5Vcdum00njIJPh5GWQ2CXgayYVmcUWzaE9Yytyfi1K2JcHhMkjujuKccv8UeME4eJK9dee+3md4Ig6JM+DWTFyDUZv3ZBZ7qioZF9ezRCsXWhXNhyjW+77bb0us2YdRDsQwgnweBIWlX+bZRtdlUei5VWPh85wZRMmE0/NIx51BnISvyNkuiQyEaxZUNYP/dp/NoGwgjV38yvzbsNOyFFS72q+hRsa/d0zYrH1RFNdrW7b6POKDYMYQ8Hwidh0vOnsy77fWR43DDnhOdVd8Shsc1A1kimim3RKLZoCOv5EVPWaPzaBQKRz299kFwRlwhHEjfo8BHjmBBbC8S4/HtBEAwDEbirgeyajV+7YA+lKOX6uY4EJeJJZt8x6yDoSggnwSgYl5BIS2IlrLwobPy0Nd58883pv3Eaz1SJ9lyoM5CVGFg8slGs8R0JBFHEr/dt/NoW36fqig074YeIIjmcqm1+W7sngUm1VgInoeijE6RsFOt6hCHsYeE+Isp5bol2RDnPs2fTMbBQlawyNz0UthnIile8kQgoKrjG/fxMdPccr9n4tQu5W8daIO64lnymnComoVCk0KkjxkX8CYJx6GIgW2X8ag9nD7UW49cuiF98/8Q4RUPrgTzB9RTj8pi1kzf7HEEPgm18zZ9vRP7d5nUQDA4fE6etQPXx0UcfTYuJheLGG2+s9T85RCQUrhfj2CKqjUxHyzB+9c8U7eoqmxdffHEaVYEESZt9+RSNsbHA3nDDDUmAkthqmXXPwXF12/wo2kKc8XdBUuO+do9Ht8lh8c53vjNtknH22WcffeQjH0mvVcuuvvrq9Do4DpFVjNNyXURl1jNbhHgsvoXx37PR5WTthE4dvjBEXF1wb37zm5OoGwTBNBhLFOMI6vBcimNG0onqfi970el89XtxIsyzMbqugxc6s3XYMeTXxSP2GYcKgrEI4SQYHSfnPPzww5ufjlIFUfA7ZGV9G+Y7La5PPPHE5leejdEdx0tOXX1VVc/HwTm9wajQHLBhIWjoBsg4gUhLbd/wXsinQkn+nGZRPgkpWD98howmZoyKZVEtOBmdiGKc9vYqVF4lFPEsVcOMMs/6Z1Rhdd0FQTA9uurEOOO7KBbAxDXx7RBHOJvy0EMPJX+rjKKcvEFHShCMSZT3g9F5xSte8axOhOztEVSjU4L5oVGTIloTuYg7y38OLetm6TP7uMn3jVM6isdae29DiCYodrDwdIhE7zDhLZQ7v3TR2RQH9TCx1gFWHu3z/OhkM5YTz1I9upmKpxGZ+Q/RJAjmgzE6MS4n+lk0MUZ3+eWXh2iyA9enaLLr6P8QTYIpCI+TYHSYmjJ6Ms4BbcXm3s0zBifz8Y9/PM2/amsvollMNwqDQEJU3bG7Y/Gbv/mbqX0SRJ2q05OmgHGtSk/GCAAfAF0AfcMNP1eU/DsbxQaHg7G1t7zlLcno1PG6Op14njDEHupkqyXj+nzwgx9Mxq/GE4swWdTqbvbf+nDInibbYDycRxDBD4CfU5zkFQTTUzR+9RrGcnigfPnLX07dicaKdxnIHjK//uu/njwRM7oTdatPve8NDo8QToJRuf3229NJCtBFweyUeSfzPxWySDKfwWL61re+9YTxK0MxSYajT/lnZLKBLLNYJxg54nhsGDoSDTIEFN0XU28Cfud3fufobW97W3rtuDqdJ4Q6iy5xp0/zWt9TNoRVCbFBYhQ7FwEpGB5iJtHEs0gkYQws6RfjPvOZz6T7bwoPornCC4YonI1fc4xjoEh4ymQDWWKkjfLU3klzgrB+7733ptfnn39+ij3uP4KTtcKJT0EQTEOd8evP/MzPtDKQPWTe9773nRgDN2Zt78b82h7Z9bTvDYKxCOEkGA3eJtn/QWuiVjtVf/PtEgtVWQsJ86xDRoLFG8OCmw0StWI7jQj5xBwGWRZXhoCEC0kFI1knLNg8Mygdiw984APpVAenPKgK+z51FE3ZLl51XJ335zQP15iZq1OIbFL2RdutTirVI4awDCwlegQk35XKSLB+eJsQgeE0E/c/138eFJ4Jz7C4d+jokiNoWg88M4xfjevoRIRr5zn1s+Tf5thG+fOf/3zaQBOSmZ4eugjlvrJWgK/URRddlO45HSfWBKa7Tnba57j1IAjao5Cii05yTwz2DBJL/COmQWHJ/s0aYX3wD9HzH/7Df5hGPO1XDp0Pf/jDqSMRP/VTP5X2VvIE+YLrJX+QR0SnTjAWIZwEo2BUghCACy+88MSRu9qJbYotLnnR4Ch+iKfrqKo6iUbnRnZZZ/z6cz/3c6kSoQJrkX35y1+eRpsc0aajQQLxmte8JoksxJPPfe5zRx/72MfSYm1BHvqYNqMJt956a3ptYSNE6PQwWvTjP/7jkwhh5ePqJGL5OjgGW6eTJNai20e7p4qv0y0s3j//8z+fWm59N66B5M8xtMG6YQz82GOPpdc6TYzmwAw7/x9JrufaM1r0wjkkiKvvete7ktCaO0rMrhPStbITRPxsDRBHJBDii59f+tKXphjp2SV8El2MQh3qOIp4o5INXW1XXHFFeg33lzFO95tYLObFkcRBMDyE81/91V89+q3f+q3UPcKbiefVG97whtruL0LKj/7oj6bOCYKnvZyxFGuGPfKcPOPGxJj1e97znvSan5/rCPkBgdi1ljcogvEAdK2CYGhCOAkGx+aXIABHsEn8i0g2bZJV6AVBVcVDGm+QLDzwwAOpWk30gOrr61//+iQ86CJRvYCkXHUWrhvBiQBgBECbtoVZYiZp13HhGLe/9Jf+Uqo6DoXjVqn/jLt0w+h2efzxx1MLqk1Dn+MwTbDpIJq4lwgYRJN8zTKSWoJGH+2ekkGzy1BNyokcQYvg5btwTPP3fM/3pF8P1oekn1gJIuaLX/zi9Dqj2mhzrANAfLOhfuELX7j53fVD7HAiAnHJMwdiiHFNsd7100HHx+Saa65JG2ObYB0lRuvEl7/zd/5OElUIAJ5dz7lxFM+v7rpDMgoUc8Q4HjBEkWuvvXbzO88gxrl2OhCJLLruynEwCIJ+EJMUve677770zEF3hMKXZ7QJBBJFFns248RinDWDMODI3aI56trxufNJYcasL7nkkvQ6oyCngGj0316PUKwze+hCYRCEcBIMCu+NnFRKJl796len12UkrSr/NsE21jbauWK7ZrLxq40tVKYd40tZlyCoyhoB0T0icShWqnVJ5NlYrdm6U4yF5FOKdDtYeKnyQxrI8mHR2eHkkCwaeL+SGqMqZ599dvq1MfD3SiiIST4v0aSuTb2vds+3v/3tSaz63u/93qNXvepVm189vrD7x/UnYoVR7Drha8OcEzm5r4KoyffEs66zziibjd+a8Txqs9ay7jNDEqE7QlIhkTf7rwsFRKfi6Vy6xTyb4iDPIB13TqsyDuf6+X/FOJvnQzGQ1XUjxunEca3EOIlWGaKTay32S+QIU0Sqqv82CIJuFI1f7cXgOdNhQhzu4lViRMfJf4RRAoo9im5Gf/4hGMhWjVlXYT+lQOXauEbEK+JJEAxJCCfBYGg1vPnmm9NrbXRXX311el2HpJ7nhI2yxNeMe1OlfmkQiIrGrz63Izezf0lGm6KEw7VRnS0jGdMSSmgqnqKgwySPQ1mEJBdDGMhql9dd4u+2uGW134aeKKTrpC8fkSYQoVRZJVW/8Au/kBbVOvpo9ywawhrPKLfD+/tz1VfnySF1Uh0Cvv8777wzvVYp9Axvw/NJTPBMEu2Ie0N2g01J2fiVME44d42K4oa29j/+4z9Oz2LV9ROrtKxrYVeRFR+z6KS93TqhA+MQDGSdBiahUFwgEhFNto3g6MSRhBnrFINcJ8eiBkGwP3XGr8TzfYskBBddiQo8h2Qg6zOKcXnM2j5uWxeJOKjbUIxTQLSWvOhFL9r8bhD0TwgnwSAYOXG6hE2txUTws9ndhcVAkJTEmmO3MKzJIKvK+FWnhnbO8qy+ynQeceIkXhRUMjk5UE20eEskjMfAddQFYaPMgNF3Iqno00BWt4XPoQJcHD3wd9vke0/+LiNHQ+O4Oosn/pv/5r9Jidgu9mn3LBvC6vipglAVRrHrgyBw7Nix9No9Y8PcBM+kZ0ZHGNFOBXFNYyZVxq+8j4welu99SQDhF4RXImsZ7elEEdVE4gkT1AyR01ijqqTK79oNZK2p1hBxi2jS5MQcLf6EbFVZSYXERPdbEATdaGL82he6Sw7FQNa6SDTxGa2L8oYme1T7KgK7Ndk6Yd3RQRwEQxDCSdA7EmUbPO3VNsqCX07mm0BokXRrUVStFxCL7dtLZJvxqy6HqkRdR0rRELaOolHs//P//D8njThZePzaKaeckhYm4kkfBrISpIcffji91k1kDKGIhMff4e/MleKhKB9Xp0W2KV3bPcuGsHUJGuEkjGLXheRVN53nxwbN998GyX6uIBLtPIN9b7jHps74VYyr8jkSqwiPRUPYOrJRrOeIIex3fdd3bX7nOMQB3Vz+u7UayBLpJAZwv7XxTBKLJXeMYt1zYrJ7MAiC5hC62xq/9sXaDWSNJRFN8pi1vKGNp4scQaFVzqAAZk9bte4Ewb6EcBL0ik0w0UTVT/VQ8Osycy4ZUR2TaNosDp14D8Uu49ey2JD56Ec/WmkIW0fRKFYFoioJI0ARBPoykDVGRATS0cK8q4zPRojwuSVJQx3DWnVcXVvK7Z6SL4JWHXWGsHUQZsIodh3oahDjcrv09ddfn5Lztqj6e/7EOTGOsEkAWBq7jF/rBEVCctkQtg6JQdEoVhyrionEAYL02gxkjYPl9cDaQUxvi8/umkn+iLhEP91PQRBsRyzZ1/i1L9ZqINtmzLoOe19d7kRz18O+2BodBH0SwknQKyqINrYSCcGPkV9XzCna4ElkVWV1VthkL4Vdxq91bDOEraPKKLYOAtS+BrIUfYZouPTSS2s9U4hnhBkCi1GebZ+7C3XH1XWh3O6p66mu3bPOELaOMIpdBww5iSbuZ+KkGLfP92jERHwgMNo06gyrE1Pnhvi0y/i1DiN8dYawdVQZxdaxJgNZxsPZR4lIK3Z3JScjBCtxiCC1hm6cIBiCIYxf+4JIsBYD2S5j1nVYg4j5iohPPPFE6npvsqcNgqaEcBL0xu233542p6DEq6Dui6o/5diiIOkUUOeecDY1fq1jlyFsHXVGsXXsYyD7/ve/P4kLxBBHTNdBKLGoSzQt8Nu6ONqi7ZyXAnS8lI+r60Kx3dP7rmr39L1uM4StQ9Liz1Wx0nkSRrHLgsEp0cTzQdwgmuzbBadqaKPnXhbjVMocLT53X46mxq917DKErUNMKhvF1rEGA1niu5FAOG7+3HPPTa/3wTVhNuk+1o1DABx6zCAIlsaQxq99Ya+ydAPZfcas61CAsD/VAWk/7ruzpw2CPgjhJOiFu+++O82T4/LLL0+b/z6QuKr6qzRKLHSzWCRU7+eGpKep8WsdTQxh69hmFFuH69vWQFbCk8dULrroolTd2Ib3oJpgIfP37GtIC0JPk+PqulBu9yyeCtTUELaOMIpdLsbtiLdgzNmXKZ/ODN0UBAExTqVsqLG2fWlj/FpHE0PYOrYZxdaxVANZ94P1BD6nWNsXBCudia6hNn8iet2x7UFwSIxp/NoXSzWQ7WPMug55gnzBtZA/yCOW1IUTzJcQToK9efDBB5NYgAsvvPBEF0Nf2PhSjC1keUGgSm+biR+TLsavdTQ1hK1jl1FsHW0MZH3XRAUVX5uJXRBWVKazseO+nUgqKsXj6iSxba5xE4rtnhbd3O6p+tvEELaOMIpdJvw7tEFDl1HT56opupZ0O0mWxRDPX5MRvbFoa/xaRxtD2DqImNuMYutYkoGsGKPaDe/Z+FPfuL+MXLrfdDyJeX2PUgbBUiCKT2X82hdLMpDtc8y6CvkBgdj3Km9QBLMfdx2CYB9COAn2wgY2d0gY2eiS7Dchmzyp1guCKoZTjzp0NX6to60hbB2uFZFpm1FsHbsMZHWg3HrrrWns5oILLmjsYWMRy94hqgpdzDRhI1A8ro5o0vU67aLc7um6ModDE0PYOsIodlmYcScggh/Hi1/84vS6b1Q2Pas6AMQ3m/fiEd9T0NX4tY42hrB12Pg2MYqtY+4GskQqMU6MJWZce+21m9/pHzEujw8Sa3TlDBVPg2COiAFzMX7ti7kbyHovt912W3rd15h1FTrTFRNZCNgzEoqtF30X2oLDIoSToDP8MPLIho2oGfchoaKr/Nvg2sTb1Pdd+W1KV+PXOroYwtahMyLPuu4yiq3DGEmVgSzhikGm9nqV96YQWFQYzOHamHcRHVybfY6r60Kx3VNyZTSoqSFsHWEUuxx42TDnhOdSl8SQECwJruKKzrrs0zE2+xi/1tHFELaONkaxdczRQFYnjBgnxro+hGHJz1AQoHyvRrAkjUQtgtiQf2cQzIE5G7/2xRwNZIccs67C3kqxyuf2+QllxJMg6EoIJ0EntP/dfPPN6bX2t6uvvjq9HhqigKTdplkCzYtizKoA0WYf49c6uhrC1tHWKLaOsoEsXwP43BKPbQayZXxXKh6Sgy4jKoQq1dF9jqtrS273fPzxx9MpOyCa7PJ12UUYxc4fz7hjYOF+bWNiug+eVcKF541oRyRse1T4Puxr/FpHV0PYOtoYxdYxJwNZ8UVCoShAuCGajDE6o8tGgmXEUzxyDXhRBcFaWYLxa1/MyUDW3yvG5TFr+7gxuj/EU52EYpxionXIqZ1B0IUQToLWGEtxuoSNpgVH8LMBHQuBXrCVhJtRF/SHNr/qw/i1DtXlroawdXQxiq3DtdZlkSvhsOBuM5CtQhJiHMnirV2+TUt8n8fVtcXn974t9rDo9tHuGUax84VocOzYsfTad21TPSaeN3FGt5fOJELd0CMkfRi/1rGPIWwdXYxi6yAuT20ga021zuhGI5qM6augfV+Hi6qs+CbB0QkXBGtiicavfaG7ZEoDWQUioom/13omb+jjoICm2GMR2/PIuDWOYWwQtCWEk6AVEmUbPC3SNtOCX9eEfB8INip02g9V7gXEfVq/67Ax78v4tY59DWHr6GoUW4dj43z/Prekf5uBbBUELkmJiqaksKlXxBDH1bWBIax7zCLvc/bV7hlGsfNE8qqbzndtY8VvaAok8rk6aITE8zXE5r4v49c6+jCEraOrUWwdUxnIEuls6OF+m8L3iBAlkWQU654To92DQbB01mD82hdTGMgaFZI3jDlmXYUcwT7Ufo7fif1qH2tccFiEcBI0xsZX8FOJUzEU/KaYA89IalTHJJ02nV3btavo2/i1jr4MYevYxyi2iIXV6UkwSsTnoM5AdttYgfuFCEKAafJ+hjyurgmSyuzjY1yBkVlu95RYEZH2IYxi54VOAzHO5tp9LMZ1NTLuA1V/z5Y4J8Y5kUpy3wd9G7/W0YchbB37GsXWMaaBrHGwvAZYX7r4tfSFz+X6STQJusRD3U9BsEQ8u2szfu2LbQay4l6fIv0UY9Z12HfqlieI+6z2yITyIGhKCCdBY1QNbU4lEoJf0xNVhsScog2eRFZVVpeFDfo+9G38WkefhrB19GEUC10fRkq8x+x5QqSqMpDV8q+q4O8u47/N78foyzZvj6GPq2vC29/+9iQOZUPYcrunrqd92j3DKHY+MOQkmugss2kU4+bwXRgfEYt0Otl86hzbR7gVb/o2fq2jT0PYOvowiq1jaANZxsMMiCG+MHKcmpzUELvEpH08soJgCg7B+LUvCAlDGshOOWZdh/VO4UBB8Yknnkjd81X71SCoIoSToBG333572jCCWq/yORdU/SnHAr4EVGDukvAMZfxaR9+GsHXsaxSrnVPVBpIfLZ5FygaykgsnLvls/tuygSxRJXt7EGKqFmbt4vwWMORxddtwH+SkxglCWTQrtnvaaOzb7hlGsdPDBJVo4p4lShBNhnjmu6AiaKPnmRDjVMpOP/30Th0hQxm/1tG3IWwdfRjF1jGUgSyB3hggzj///KNzzz03vZ4DPi8vKs+DThtC4qGNNATL5JCMX/vCfmYIA9mpx6y3oQCh+KXb0t7ffVLe2wZBFSGcBDu5++6704w3Lr/88rRpnxMSV1V/VUeJha4YC4BKfhMkIkMZv9YxhCFsHfsaxfI+kCyoTNR1ffgOdGU4jYHplvEmSUWVgazFKQtdkpJyBYL4MuZxdVV89atfTd1APouKc7lTp9zuSWTbp93TNQmj2Okwkkd0BWNO3++c0AWis4I44LlRKTvjjDM2v7ubIY1f6xjCELaOPo1i6+jTQNb3aM2B93rRRRel13NCXNal6Hpq4SeQG2EKgjlyyMavfdGngezUY9ZNkCfIF3xO+YM8Yt8Om2D9hHASbIWvBUEBF1544YnOgrlhU0sxtmjmYE/d3jZPP4bxax1DGcLW0dUo1vjCrbfeml5b/HZVHYkj/mwdSUSoOgNZCYYKuhEfnjFZ5FLlKB5XJ4kd8nuoQyWYuGUR5T1TlRAV2z0tuvu0exJOfDdhFDs+PD60JkNn0b4mykOh40m3k6RbvPJs2fhtY2jj1zqGNISto2+j2Dr2NZAVV1TE4c8xIjVX3F9MFN1v4rWY1+e4ahDsC8E7jF/7hdC0j4HsHMasmyA/IBC7h+QNimD2/j5jENQRwklQi01o7orQRqydeM5Icm1mVe4FQdXAqrGHsYxf6xjaELYO14ew1MYo9iMf+UhS5FV02xzJqnWeUWOdgawTdR5//PHUFmqjI4mzOBePqyOajHVtihQNYVWrtiVCfbZ7hlHs+JiDJ+rBGFrTk56mQhXVc6sDQHyTKGixLjOW8WsdQxrC1mGz63P1bRRbRxcDWbFFjOMnQIS49tprN78zX8S4PEpI9NFxM0VcDoIinrkwfh2WLgayfv+2225Lr6cas26Dop3CIisCe09CsbVjioJdsAxCOAkq4VGRk0ebQ8Z1S0DSqvJv8yphkEAUK8hjGb/WMYYhbB26IfLsalOjWJ0xuj+MLnUZWzJ2Umcgq/WbcGU8xYZHQkHUmfK4OpQNYXfRV7tnGMWOC/8a5pzwLOqMWALESOKuGKazLntwgOCmu2QM49c6xjCErWNIo9g6mhrI6k4R43TxuSaEYQnJ3CFGuYfEbAkqQYz4toT3HqyPMH4dH4W2Jgaycxiz7oJ9lsKVz+SzEeWIJ0FQRQgnwUloybv55pvTa21rV199dXq9FAgE5ultoCXivCi0jo9p/FrHWIawdUi6mhrFaj3XFeK/swDuo8BXGcgSTfyZPBdsylVjJR9THldXZwi7jT7bPcModhx8z46BhYrakMalQ+C5Jb56loh2xEaxbkzj1zrGMoStY0ij2Dp2Gch6TwzWifnEFKLJkkZedNBInox7ik0+Hz+rIBiTMH6djl0GsjqHCfZ5zNo+bkldG+KyLkExTmHRGubUziAoE8JJ8Cwks06XsPmzKAl+NoVLw8iOoC2JNX+uA0WyjqGNX+tQIR7LELaONkaxOi9cM9XUqnGAtvg+ygayEjzk72bK4+rc89sMYbfRZ7tnGMUOC2Hh2LFj6bXvqM0I2pzwLHludHIR7QjFYxm/1jGmIWwdYxjF1kEsrTKQNfNPCJV8EE2W6L3A20WnjKqspELSpCsuCIYmjF/ng+6SKgNZ3xHRRAeKvCEfBrAk7LeI3PYI1g/rqQ7iICgSwklwApUkook2Zxtuwa8uqZ47Ns66GLKHCZgFaiMc2vi1jrENYetoYhTr2j388MPptY6jPn1figayuiuefvrpze8cT3qygezYNDGE3UZf7Z5hFDscRFTddDbfNkS+56Wi6v/EE0+c8DCBRPbGG28c1Pi1jikMYesYyyi2jqKBLN8ToizEFDFubNG+L7x3SSujWMIJ4Y5QFARDQBAO49d5kg1kdWqIcdZUEId1OO4ykJ0rxGGfwd5UAcxedIr1NJgvIZwECZtdoonqmCoh0WTM9u6+qDJ+1RJNOZbMEg2m6PSYyhC2jl1GsUaKnKSgO4TB1xBop7cBL1I0kDXeMxaS0KaGsNsot3sS8Ah1bQmj2P4hMIhxNuDuLTFOUr00qoxfPc+qfX5PIitxH5spDGHrGNsotg7Gw64J/P1E4l0GsnPHe/ZZJLXEXQmT7qcg6AsFgzB+XQY8tXT26Uy3bzPGs8tAdu7YExO7FVp8DusrETwIEMJJkFAptMGUSEgoGN4tjTrj18suuyxt8CSyRimIJzb3YzGlIWwd24xiqezM13DppZem1sW+KR5XJ6kh2MGGnHmiTbmuF6NFXY/4bUNbQ9htlNs9JUtt2z3DKLZf3FNEE2KgjZwYt7Truc349YILLkhxjzhMLNDRNfTpYEWmNIStYwqj2CKMh7NfkphiDHGXgexSyB5URCHxaZdfVhA0IYxfl8Wv//qvpyIRxDdxbpeB7FKwtipEKC7q7NSFP8ZeNJg/IZwEybTOJg4UfSMUS0L1bpfxq6o/5Vgwl4zy0RgrcZraELaOOqPY97///Snh52tyzjnnpF/rE10mb3vb29Jr3Sy8GCy0klrfE3+AbCDrdCfXzvjKEAIO3DdtDWF3UWz39Nm6tHuGUWw/8NEhmriPiAlEkym6zvZB99E241eVPhs9z5YYp1J2+umntx4368rUhrB1iBljG8WCiG/0D47xd5z/LgNZ60P2oFoCPovqsudKFw1BMsYngq6E8euyeN/73nf0D/7BP0ivefZlYWubgayujSWJXwoQ9sI6O+UZ7kl70eCwCeHkwLn77rvT6Sm4/PLL02Z7KUgO7rjjjrTgZnPROuNXiauqvwqkxEJ3jeCuqj8kczCEraPKKNZil0dWLrroolQp6BOCSNVxdWaXVS50nlx55ZXJnDUbyEoq/rv/7r9LAoI28T5Nx/YxhN1Fud2ToNe23TOMYvfH2B6xFIw5fS9LQdcVkVGM3mX86vd0WRAKxDiVsjPOOGPzu8MxB0PYOqYwinX9rUvw94mjReoMZCUhhH+C6ViC174QynQsurba843A8UAJgqaE8evy+PCHP3z0wQ9+ML22HhmjKqK7pMpAlu+UEc4lrcHyBPmCzyB/kEcsrXsm6JcQTg6YBx98MIkOuPDCC08cFzt3bISJEWZgdSlAwksw2Wb8asNKMbZA50BOJR9yFn8uhrB1lI1iVQck+qqzNi594s8mmuTj6iSx+bsi0KimZzNHoynZQNavEU+IKDwDbK76MpDd1xB2F8V2T4tu23bPMIrdDz4g2oWhm6jKCHmO6EYw+mI0R/yAyqsYt61zSbeUbifJu9jouRlyNHBOhrB1jGkUK5aomkOHmDGqOooGstY0cULsJZJ5n0sZfXF/Ge90v+l4EvOWdNRyMA3E7DB+XR7FMeuf/MmfTN9ZHYQvBTn7GOKqAueTTz6Z1if78SUYyMoPCMTuV3mDIpg8w/sPDpMQTg4UG8ncCaGNWDvx3KkyflW5U3398R//8UYz/dnkSRVfEFTpG2oEYm6GsHW4JsQkyb3rSpjgmdCnz40Fk2jimtcdV2eBIp74TnR/SB602qua20hJAiU/fRnI9mUIu4t92z3DKLYbZuUJbeC78eIXvzi9njOS57LxKzHCiJ841UTYU7G1YdUB4FmSlPRxnHgVczKErcMGdwyjWPFEjDPjTzy49tprN7+zHd8X4Z/YIE6IlUszkBXj8lgh8Ug3zVzXu2Ba3ONh/LpMrCm33XZbem3M+pJLLkmvd0EgUfSxZyOyinFLMpDVma7IyNLAHtZnsI70UbwLlkcIJwcI34icMNqw7WuGOQZ1xq/U7rbVLUmryr+NqeREstJ3JXqOhrB16IDIs6jer1Z71fm+8GdKKAgzxoOIJlroyxBqVDOMC9l0F4UMYyo/9mM/lmaddV9YeFUA9jGQ7dMQdhf7tHuGUWx7eNYw54TnTzfEnNlm/CqpaJuEEhoJyeKlPy/7a/TJHA1h6xjaKFbHiBjHhNh10E0nSWiD+EcwXqKBLGHK/SoeS4aJaYS+ttcgWC9h/Lps6sas22BE58wzz1ykgaw9lyKW9+t9EwCJJ8HhEcLJgaFN7uabb06vtZtdffXV6fVcIW7sMn7tgkTbn2UzLaHnRdFntWOuhrB1ZKNYWNz69EYgeKlGSgiIJvlEhip8D6oQEpGqsRQdJnmkbB8D2SEMYbexb7tnGMU2x3d75513ptfuoTmZlVaxy/i1K4RHoqXnhGhHYOzziO+5GsLWMZRRrFOzJBREeAIH0aRrPFmygazuGGuH0U9xynt3nH0QhPHrsimPWdvHde22WLKBrPiuA1CM4+1k/XvRi160+d3gUAjh5IAwhuF0CRsyC5fgZ6M2R9oYv3ZFgBb8JbH+PsG6D9MqVd65GsLW4T2bT4eqrLEGM8f7Uj6uTpK1DYmBEScLqhb2qjZ135kuEZvyLgay7v+hDGG3sW+7J2EojGK3Q3w4duxYeu3a2pzPlTbGr13xnIifurSIdqp6fYx+zNkQto6hjGKtqdYPzzfRpA9/BoLqEg1k+bbouFGVlVRIiHTIBYdJGL8uH4Uaook9S92YdRd0lyzRQNbeiwhvr2EtsXbrIA4OhxBODgQJpQ2epNimXPDrIzHuGxvbLsavXSEgqRhqG1TRFxD3bTmfuyFsFSr07hELooWA6eO+40tVx9XtgnglUVCtlPBt86XwXr3HOgNZC2/V/TK0Iew29mn3JJz4nGEUW43kVTed715FS8yYI+7tLsavXZGA56oe0c5GdZ+kZQmGsHX0bRRLpLOBBo+XvsehlmggS6CSIBPi3XPiuHswOBysr2H8unyM1Mgbdo1Z78MSDWTlCPaqcgYFMPvMIdbuYJ6EcHIA2OAKfipWKoOC39zmpfswfu0KtVh1TDJqE7xPG/dSDGGLWKScsASbG8aEFkrCQ9cEa9dxddtwbxJcCDlN3kOdgSy/lLKBrKR1DEPYbZTbPSVERMEmEF3CKPZkVOTFOJt037cYJ7GcE30Yv3ZF1d8zIc6JccRGSXkXlmAIW0efRrHE5hzrr7rqqkF9rJZmIOv9uK66nAi9xEzdT8G6cW8qevEysX4jjF+XS5sx631ZmoGsvanuZUK296gQR+AO1k8IJy1h/mbTa4GwIZCI+YcoIQlSQVSxtzmbizGa6qBNokRC8OvztJQ+6NP4tSvmFH2fvkNVWZVDiUEbfPdLMYQtojPE+If3yyQ1V6ddiy5jLG2Oq6tCV0Z+D2Zqm/p5ELt2GciOaQi7jXK7p66nJu2eYxjFEmXEOAJmjnH+LcZlYYrQKb7NYVxATCaa6FCzuRLj5jQ337fxa1eMfYixOp1shnVrtRWkl2QIW0cfRrGMh7NHkjjC8HAMlmQgm5MsIptYRbSaS4eMpN6ap0CQY5zXYpw44r746le/mmJt312uaySMX9dH2zHrviBILMVA1jquICJ2PPHEE6mb3z5zanil5VFJ+7icp3qfunoU6+yb5Cri8lwtG+bK1/z5Bf53m9dBAZtdm0sLvofXzeeGU9FsSk7WbC5tIrRyjV11uf32248effTR9Fp1sO/TY/ZBtUyng8QRumH4mPQ1e94W6vENN9yQ1G7B+cYbb2wVBC00fDb8P9pUl4B7WlcP3vzmN6f7U9J8+eWXp1+7+OKLj1760pem103Qnk0Eg+PqJIddoOD7LsAHom1F1Xfp3vrN3/zNza8cN8DN95r3OGT1pCkPPfRQ6kIAgcn93wTPskqHTpWuIynEGtdZjJPQi3FZrGqKrgWbBTFOQirGjZkcWb7cJ4RhIoBndk7JvO4g96HNFVwr3/FU5r6Er+uvvz69H9Ux16vNyKb/17W2iSZQLRXC40033ZRe6wxsY/BH6L/rrrvSa8f4O7p9CnyH4pvRo4wOGvdX147JIdCBkP1wrDVjjnYRecU4wpLEQYyzvhFFmkKMsv4QrcQ2RZU5jg9MBR86MY6YDmuAezA6TJaLYtpHPvKR9NqY9VjCcBlCpnvLAQAZXSni7pxMshVMdcfAmjpmJzChV4yzHxTjXDMxrk1qr6PR/tiewD5OjPNrQTUhnBSwqFJYJX8qUtS4vlGlNYIi4Tn99NMHVSfvvvvuo4cffji9lgibI5wDHvAPfvCDJzpMYKH1z9QVbJtRiZhuC9+NINhE4fZZ/LfIfixLQLu5sRgqfz5tCcamVMlViowWNDF/lIBLrIiOqtvXXnvt5ne6wWjRn0lI04HUBcq6hZeglZG8em9maucA4YSAgksvvTR1zeyiKCyp6jVNxF1PMc4iTxgeAhsaMU4Hkxins2YodHGouEPz5Fw267qc3Hc2MtBVIr61GVkbCoUAzylxUZdTvo92QQR65zvfmV7z9lhit0mRXFQQD7xugrn72267Lb3eJy71iY4J91reuOPss89O95tq4hzg+/X444+n1wS3IavXKr8SLddDEWQIiClinG4lYtVcrvOYGFNz32UvOomWe25JnkfByRiz5gMHY9bnnntuej0lxhLda/Yv0AnmXjvnnHPSz1MjV7SOen/WernAkF4+Yql9jxhHKBkC66J9fI5x0ZXyDAcvnEiUJY7M1vJDOSYq/NRcR6z2qaAKMu9///vT64suuiiNTExNVRJrFOS8886bVYuxrgRB0MkuzAMFwV3tunwKJEmCzBKOH4ZWPfeGEGBGv3wEMbGNcs2gddfpJDoVJGNadinWrtm+IlhOUgTs9773vXuNXxQ37hn3ncrFHMZNjBD9t//tf5teu3+ajA8QtMQtZm1OoKpDV5EYZ4Qqd9yMCQHFc65S1Gfbe/78cKQ0kWZqxAAxjnCSYaBqkzcnM27JpZMSYFO061h6hrCXXXZZihk+zxKOH96FcQ2fSffBK17xihQPtlEUx/MYwpxQ7HHvEcbA+8R916ZjcEh0NEqAFI90+/TZ8WfvpvNGDNWiPja6K3mx+ffa8RwofCmAQVxzn4kLwbKxR8h7CTmD/eGccKqgGKdzEvY+7r05HHtubFLeYC9MRLRW9Gk1YKxb8UKMazP50AeEYYV3MS6OXz5gjxPVVgHiTW96U+owMUc3BcQEIyta47w2p9zWW6OMDUQ+DpciKzmckimNX7uQTZ4EafcFRXdbRX+JhrDQiqnt3uJTJYy4Du7NXUaxFowhjqvTHk3sIGDZnHV1LZfM5tZ695uOmG0GslNghI6oQahyzX3WXR0xEo9tRrE6S4w56cowmuB7mgJeAmaUxQDv1T2yrweJeXqnJ4HXxrbTl8aAAK9zaArj1y7Y2Hmec8XKRsxJRHUs2RC2DptB34u9wC6jWDFEjDN3r6tp3266IfCdztlAVoxzrQlWkm/VzH3XSnsd8c1eThcegW8K7GusJXxvjEDqxpqTUNoH7qkwfl0v1oLcTUcAvOSSS9LrOZENZMXtuRnI6oIx4qITxF7Y+7Om7FMsUtQ0jsnDzf6CWKlTdGwUFwjyRi4VvnXYKJCuYR/QhYPrOKHaCfzFmbltuOl1HUisbDzMDuuOMLpgM+JhcfNIXHgDSPIkB0QQG2iLjRvOjG3TS009VQFz8kFbfK5bb701vbaJUlGbEvPgFGKdCLChoBAvYZTFhpPYg7quCwaDrjFxiCHsUo4fhlNl3KvbfEx8ftdBkp69S4oIoDpN3N86pqjsfW7QiVK6TYg4/t0F1U3Cge4uVU/owFA1y2KCBdl9OaWhb5d2z6LfAl8d42UWtvvuuy+dltQECSRhjFjou5OAiXGuuRhnXEvXj/fH+FqMc99r0SaKSBp4pGTj0ya437QBdxn3kJxkYXjqZ07cF9/84/pAEuFe6ir0jYlRTiOdqLuWnu0sFIztUTEGb3zjG9O4S10XibVcjLMZdr+KIX0Iw0NiryG+Fe9L8c992feRyW1wLcU4XSFim9jc5VoabdRRmwsxuxDLbPTFOC3oYhwRkICrcEM8F+MIY2KcziriQI5xigf2cU3b4u0Jed+88pWvHHRUcQzs3dxH1pqMZ8W95FoGy8eeo88x6zHwjLovcwEFOnXdl0OOyezCtRTjxF0FYiPnbfE9GJcS4xRlmqDQxoOJF5N9oIKo2CPG2eOJcSCCEHc912Kc7h1dMtZAYk8evduFmMqXzz4u/9mHwsEIJzb1EozimEgdNr4Seze9132oahZk1R/ttBRJ1btdmKF+9atf3TgRlSjpoME+ppF9INkW1PJowNTGr10pzvVXtagv0RAWRhxUxwVUgkRd4CP+bTOKveWWW9JYgk2nRL/vTbkgr11UoG/q/1FEJ1A+frhsCFtlIKvq7j61yZ4CQk7bds9sFCupU3EVY3YhPmi5FOOIJn3g7xbjiNOef8nGLiTqOkYswk0ofp8qT+LjVMzN+LUrRLb8DPgujI0WsaFegyFsHduMYsUdn9+9LNEmmtiQLgX35twMZHXviHEECl1yYlxTrLVObMvjSHWoSDtxzHfpvu0i0FZBMNYtk2McL7RtOMlQgWIOXjhdCOPX9TPEmPWYEDPdo3MykNUFwzAWCuFXXnllet0EHjNy1V0jhz6bGKeTz75VJ28fEFKsifb1rumuTmUHBNiHTT3ZMCYHIZzwD9hVrZY8SMrMcY2xMVLFMKtm872rUqtlzoZ2GyovNiNari1ugt8UbVRzNn7tiqCc/WIIJ3mWtzjzviRDWPCEcM808SuoM4rNohEcVzdUtwbl3WKiipBbSZtAGNENJHlwhGfd8cOqoL7joqgqDrhnpzCQtZHxLFuwVBDcY9sUfUKshG9XmzqRRIzThjvGcb2SGzFO0rYtwdBd43tyvbchWckGxvx4+PJMwZyNX7tCHLYWoegXUxSO12AIW0edUaxJZuMlOks9h1OP9HVlbgayxbWziS+Y5Mh6Y3x2G+ICzzgxboz9BqFYjNPBmLtqqyBS6Vjtcrz/FITx62Gg49heQz4i8fZMSoSXiGfRPavjA1MbyIoLck8oOCo8bsP7998Xc6cqFDbEkbE83QjExhCN6eTuxSoUTcU4HUtrZ9UeJzYJNoHbFlueB5I+X7hW1n1nbptCLTSKw5COek/Rr2s7ZeTH68E4QZWoo93KDJxqiI2fquDY87WST+3zZmDzYuvhzoJCn6aQY0OIUnmUCNpEa3+TQDAcdc1t/JY0oiPxy6ctMYXc5TEjIPLLsMhKzincPHlsFuG4uiE3VO557ZiEBM9A00opwcUipJuBsFC3kdYq7jN5Hn1Girtn0d9poSCqjnn/EjV0xvAFMR6ga0uVuArfga4fbat12DyICRdeeGH6LDYUY6BTxiKqZV37qBGf7P9RhMClsqGrwVhkVfcJQZZo4vtQXZmim45Q8q53vSuJiJ57EB69lyWM5WyDqEaw8w8hTuXRWqhqZm3yOdecNBnhIPB5/nUJuA8JRcQ66OqacsRlXyRDOqF8Tms1MdkzpfPQ5x3zCHGI6ZJx/nLuObHdPViFokUW+qtwnxptlvTZT/mMY8VrngrWf7GVyG4vJmaXEZ8J8+KfDhhFiDlivdQ5K0lShLOP1I5vhG3K8Yegf3TByxt008lH7BGW1E1XxrOo4OU5ZIgvpujCd8gAcXjsI8TlCJ5zOYMRGDGpbp9AMBG/6sZkxErCiz2Qrv0x/ap001v77eMUTcWwqv2mDhnjfHKlJRWRu7Ba4cQGV/utjVAVHKP9vqO2pg4WEkEig2oJn5SqDhQLsmRX8ucIyYxNreCnIuOmFvzGPKHG378k49euuOYCgyTWZtr3QdDCkgxhodVZgNZCqDLXBMlsHr+w6baxgvnGoSvt7iGbUfcX4aZ8+k8Vktw80qFVukliQBDzZ9sgEk/EjqkMZI0FWBwJVro1JDvlxcgiyhRRy3sV5usZJ6rA9unu3gWbCO2zRA8bGhubMhIohsU+e/H7slCLcTbyvgMxTrI3Fu73exZk/NoVbb/ud3FOjFOF9BytyRC2Dhtr32M2ivX851O4dDZN6X3UJzbg9hpzMJD1d1k3tYXriCGKKl5liJNGCO6///7Nrzwb/69OXCOYvp+p12BiI4GRcGN9rWq1t7cj0Pnsc/IHcS+E8eth4bkR74xZW1P7POVqSuZkIKtQpTBEpPb320eLDxnxwD4id3uW0QVkVF6u6jkcq+hVhT2w+MwLjTgl56zqsiNW2bfaw9k7rJHVCSceEps85mFVaG/ijq8ykUcO5oLETTKr+i1RqqrO2tBKXm1yBQYVQRs9iYTgp7I7FtRFwTe3lkmOzPKqUEydqA2BeWkbPIlsFokEkSVtqi0kNkfgGdLUuI7qnCvS2buC+Oi7HgPPqtZHG1LJ9677i4Iv+RHo60Z06iBkGmnR+eGziil55lNlxrUYA+/D9+OZt7Gl5BPw3IOSOZWUKmx4CZkSpCna8LchcSOoSjIsvHmTnpE86bSxIItxKhtEE9+7DY8YN8aYERi0GTsU47KYbfNyxRVXpGu8JLG0KTqExHNCpWcdktO1jugUcU/yB5KwuzchdhAe14Z9gvFFSRPzXzFOp5HXNrtjFV9yssbzjWgnXtlwi7WKL3VecAR7JvjW5DFF1CZI3IxBKchZb8tHhxL/iSfed7EINgXirP2AIkN+3rNJMnF4rp0xwX4Ye5PcQse9Lqi1oWtQ7NZZo1vcmmZv4T4nSDT1VdsXewbFF3tJxVaCqT2k4qN9nH1qGbFBJ7e9h88xN6yVuux1pBHfXOMirrUcnMDiv10bqxJOLLwWW8peGa2qOgNseueugkkQKKbep01s+fgpD2Bubc+ihcpAl1N4uqA6ZUzFHKyOE0ktnwzjTk3HKJaKqr8OBJ9b652kYqxErg+0PUvCbdh0W7XBJouAAKq5BXcsCCUWPwm0IL2tFdB96eQVaPHuKuLpbshmxmKL5MJzJ4m2IDQVnfah2O7p8xPsJAxVniG+E+Fcp8lUpmhNUXE1e0z8JQyVkTCJ4ypFhCJdR0STseKLCpBNi/fGBsxmhwGaODdmR9/YqCrZ6BnhIBxJZPnPrKWrZhfWVvcbCHeMqdcK0cT4kfZ2ewzdRQo2Rptt5m3ux4gj3oMxPnFV90uOcVWeTbpZFYsIl9t8n+YAAciYpI7Aqj2p2OI6TzUCx/hVjCOWQYJmD6drZkl7mqAdY45ZT429k0Kb4qYYk4t/1neCpj3TGOKgYrh9t2K4/Ems1cFqjS2j4CW/qhvPnhP2CgR43dm5uFREcc8BDz7/mliNcOJmJJpQ9sqocDKVLLaBLgFtXhI3i6uHrojP6eHz0POpGOMkB+1mRgMsuJJI2BgQbZqMQqwBbWiSCkioiFeC8pQtdE3ROpzHV8xLtnHhJhyY+c9e0ja1Ntxjeun4u1RJPAs6s6qOsZQA2FjbrAroFqF9II6JG/4+f6ZNvefRvLpuCQLA0EeT5nZP1QrClYWojPlTi+1Y3TB9QcCzQZCsStqKGBWxyfFsadl3HYZGpfttb3tbesZ937pKVLetLXNqrR8Sa6nrAPcaMaHJeNzSscnL3XggLCztFLguEMcIErqNiOM29zpuJFcKBLpChhbOVLyJwcViUBlJvTiwpPZv64f9gdODfLayNwAxnKgieR1LnFRYMMLpOdfhpwvQOKvuqjHHGILxYbKvixJjjFnPBd0lvIh0P+iG8I9EX+eXEdQx9hbigBjgmZdHlCEEOwZanFtSN6uilv2xfIIYXN6fEsMVPNe0h1iFcCKJ0VpYbheCX7fpXUJiW4WkTLuZhypvZjOSWJ4oEsQhEyYJzVqNX9uSDWF19xAPcgC28Zm7BwDBi/illdhGqSmSV+Nt7jULj3uRcObzj6kk58CcDRyrOqyaGsK2ZZuBrKqB6zLkc0C4suEtQ0xiKqbLZKno3DH2pQJUrsy6tr5Dvz/k+B8Req3Gr23wTGdDWBs94pWY737381oRM1TfQUAQ13OcmWOr9BBMbSArtpf3ONBlJtHXhbtU7M+crEEcyh1NGc8YUVxiMeQ+1T2ucGLEOoxfDw+d0vztMOaY9ZyY0kBWfiCWGt8ro3PDaW5LNlUlsMsL7aXKHdE+s7i3byFzLixeOJFM2NyWsQnQ7qnbZA1I2CRnKu5FRY94QjXV7tq3eHIoxq9N+ehHP3oieVX5Ui3X1myTrUI3RtdPV3QseB6Ii/mUkyZYWIgmPiPhwriECpVqlUo0pX7MKpXFxwbb9SYY2tBnBOy2hrBtkeSPbSDLHFG3TxkLlcV2Lce/Scxd32zKmSHY+TV+Bn0flXgoxq9NIZAbk1LV5y3Dp8G4lOdNsqXteW2IG2Kc2GgDK7b73rNRrI6oNfrZ1DGFgayTXDyHZVSJxbg1eOy4pyRtOpmysXyGUKWbkFl736MDvsMwfj1sxHBd93CPXXLJJen1oZINZO3ZxjKQtXe2TyxDUFWQnZvnZheMdtqX21flEcCMHNJauwbxZNHCiaPsjKmUkbxYiNdWKbRhsZGQOJZbPnXdEDX6euAPzfh1F6rQKrFaW7MhLNVa+74NpaRLsJjrLJ/v030jOPP9aILPKqEgkBSPqyPQ5VlRyvKYgZDgY/ExryqZKYoj+xjCtmUsA1leLe67MjmhWFtrNSFO3GbiVuwg1Akh3hOt+khiD9H4dRc2OrpukA1hCYQEcuuA65R9MdaChFWMs576vNddd13aTCtSZKNY4yuet0NjLAPZO++88+juu+/e/PQMEgqxb6ndwnUYS7J3KJt7G6Ul1EnoXPN9CePXAAo7YpwiqyLLG9/4xs3vBPYbYxjIOhXHHryMfeoavw+HsChyWkOLEE902BntWTKLFU7c5DofysapkiaiydoSikyueKtYSNQzklybGr+3j7EXEeBQjV+3ocVR4iAhVo3O+Nk1EiAk0O7HOVZxPBPEBm7/TRMfSWXdcXUSKq7g7sF8EsJYuMYqA5Ke3L7tfu3DELYtQxrI2lhL5Mq8+MUvTh0oErw1QowkAvv8uk0yklvf+0te8pK9xqIO1fh1F2KE5E1i51pkPNvWF/e3xI4wOERn1dg4pUpCQfQmBIhxxY4mz657UEu3CuUhrn9ZKBvKQPY3f/M3kwBcRlek0xHXCmGOMOWkuCKuqX3EvsWIMH4NUB6zFuMOabS+CUMbyDrByAhwmSuvvDLtO9aKa2ptkFMWsTd2XZc8+rtI4cSGh2hiAS/CgMvmb+0Lg2qo9mHV7TyPD9fF5tb8YtuKRRi/1qPaqoUdXMjLG2iB1WIkqXMdBdkxzKaaQkHXpeGeoG43qeDtOq4ub5a19ducjWkUa7NubMoip61cF0yfhrBt8d33bSBr8yzGlY22XGcb4rVDdHLPSdAIuBmJvbER4lFbxMtDN36twyaREAoxotw27P62LphT1lmlGjfEyMaYGEUSr8VDCUX584gr9hhGHYgnh2AUW8cQBrI21FXCMNFEV8Ta0eFEgCy371s/7OW6+B0oIJSNXxnBh/Hr4WGMmGhSHLMe2sh+yQxhIMuMN4+PF7HnKBYn1grRXT5eFk/kSvZfcvYlskjhRAAoz4hahIgmY53NPTXapyl2KmISyIzEgplf0yPGbAzD+HU72RBWUHV2eRXGC2x2dELp0lCtdE/OAa3QEngbf0ds7qLpcXWCInHFAj2mUSxhyuZd9VMyR6QgbvVtCNuWPg1kne+fPTcynnf34qGg+8PCKqHXGZIhKvlZItcE90kYv9ZTNIR1Xeqed9c7V+N0N7qfl5qM6djScQSdDXVdeERxG+dDM4qtoy8DWf+vGEfALKIjUgw/FHQyEW2zd1qGYaVnq+n13Gb8OqThZTBPjJ4Qhq2VilxyJkJwsBvPXR8Gsnyhit3pGf4yxMxDwdpqz142/raHsFcm6i2NxQknkjqGpUUEBu2eS/wC9sHnllhYLIvngUveJZHbkoIwfm1G0RDWhm6b9wGzWMKVCqVN+RzauwX8Bx98ML3m37CrG6vtcXXuM2qyBXpMo1hJNXGHIJRdyocyhG1LHqfraiB7yy23pC6hIiq6hOG1jufUYbNHgCy3tOt6cL9t63qQ1IXx626KhrBEhG2ngxFe3cvinBhn49O3Ye/QEJJzTJe8b2sZtlE+ZKPYOvY1kNVpUj5dwlz8zTffvPnpcCBCuWYSiSKKEroYtz1fYfwaVLFtzDpohv17VwNZncL8N+39ipx33nkpxzo07BMUaFy7ItYMXlZL29cuSjiRBFa1dqqW+WIOEQmkioWxgCJ8FrhnVy26YfzajCpD2F04+UM7O9NUGyFqq4RkKgiNzJi8d94Q25DYtz2uzthMrkKPaRRLAMp/L8YwhG1LFwNZIxPGpIoYJVijEWxTxCcVVJuWItYDFeqyABLGr82pMoTdhXENa4dWZptzXVZLEdqdUJW9kMQLxoC70Flz6EaxdXQxkCXUGQkuQmQW4/bxElgyCmDuLQJmRleddaOqeBHGr0Edu8asg3Z0MZC19yiPp+jgP0RhOCMHIUAZ8cyYlnA9l2YWuyjhRDWs7Gty+eWXpyTvkLF5kdxnISTjwc7mmfAgh/Frc+oMYXchQFJWBQSJsoVrCt8dbYaqUZAUaT2sw4kl/B/Q9ri6qYxiCVTaxEHkmavnQlMDWeanjG3L7etvfvObZ3ta01gQPgiAWQiBlnTXUhdAJoxf21FnCLsN1SHfh5ghxnkGdQvMvYNHweDee+9Nr88///yjc889N71uQhjF1tPGQFbioRuijNGpQ/cZ0s1FoHPNMl4bgdLNmgnj16COpmPWQTsIkU0NZMU962oRBWz760P3mFFYVqB1zTL2dGK/a7gUFiOcCAgPP/zw5qfjaIevWoQPkVwFVPXPaE8njvBVCOPXdriW2wxht+F62+jYBEkstHgLuGMfq8jTwSaWYr6te0Qyv89xdXlTPKZRrA26ezqLDO7zOVdWmhjIqvwT2orodDoEE7EmECQtusWj2CXtRhL5M4Xxazt2GcJuw/XViUFMEONUxq3Hc8X7FC9AxLzooovS66aEUexumhjI8l0ggBbR0j62ofdcEcuMyxY9nYjAro89SRi/BnW0HbMO2qO7ZJeBrK4v8a+I4tdSjVD7RA5kr+t6FZE7yEmX4qm5COHEhsXNWPTx8AXcdttt0XZdwMPseL8ikncLbe7UcRoFwSSMX7fTxBB2GzaRNkGufQ6u1P9t/gF9Irm89dZb02uLqK6QKqjmfRxXN7ZRrMqxjaTrbJ5U9wlvnrHFqbbUGcgSNT2rRYxNiHHBcXQ0aI2V8BcxwlM8YSyMX3fT1BB2G8Y63aNECcKVe7nJOOPYiBMq9DDOYGSrC2EU24w6A1leW7lLIqPLwjhBcBzipUJEuc3fM+ZAhDB+DaroMmYddKfOQNYoaFkYJgi88pWv3PwUKGQ5SMP1ytiP2MfrSFkCixBOtD0VZz+hpV3yHzyDDYvkIp8WAJUJ2MiovqqUhfHrdtoYwm6DOm3zqHWPeKL65nsYg4985COp00WlVBtvFYJ9n8fVjWUUq4smH/FmBEllU/ukDeVSkuWygaxrZoa2yJve9KboliihWqFDp5iAEf2IfeaQw/i1GW0MYbeh6u05J16JbxI7Lc1zQawQ4zxbxouuvfbaze+0J4xi21E2kBXjisUvGNFp0+l0CChCuMeKp6pJLIwCZFE4jF+DjNibCyxtx6yD/SgayFpPFSKLGA9WhI39yLMhkChCFLuHxTyegFWeMXNjnPL3HqjUa0ErolprRjk4Ga2b5VM7JJV+PZy1d6Nq/f73vz+9NiZh87cP2vOyP4oF7u1vf3t6PTS5Kq8LowqJhLZf6rgKl/e4zb2/Cbpz/IN8DYeAqg+jLzbmgi3ybO+SIP4yV5T8F2HkO5bItjSMzpXFXz4LhOF9n9dDgOiUnxWVyX07D3WrONEKfESMCM4B3Q5inGdLZ0wbn6o6mBHzFDNKMWSMWxNiNJGpLAw3NSM+RC677LLNq2eQhHnOQqwLMsasxTgYkevaTRfsxznnnFMpZtqrDD22vkTs11ybMiw5lsDshZOqzQmzv6Cequtz3333bV4F23C/aV9naNdlRKcKYsKll16aXjtW1RGpQ8LnQTu5gF0nnDiGWgIlgEko+jJWzS2iTAB17vSNTqDsA/KKV7wi/VsXlWqwDpryGMcSqIpxkoqgGhXqcowrCp7BdvJ14gnUl3mgeXpHLcIx99k7ZSq0AksodNPpqhHj+uq0zDHOaGL5pKegmvKzqcU9Ylw9Oifz85RR0TayEwQwIiLG6eIyZt2HMBx0g7dkPq0tw+cwfGbq0SFcHu2VM+hMnDuzFk60PVUZwsaIznbM3jFpK8I0KnsABNWYhc/HOvc9I6orIv+ZDz30UPpnKLLxEtGk6nx0x9XxhIDFVmtwXxj5yYKTzXL5HPt9YAibN+C6NHIHlTbILBCVTafmjqM73XdFCEJVRxUHz2Bm2BhakWyMF9RDWDRmgr5jnPs2d385zevxxx9Pr6dAQmEDxvNIjOtzbNAoUhacQqzbDW8TJzcVufDCC0fz+1oqrlGZiHEB7KsUv5iQ2nOJcTEOMh1VXZZtDcgPkaXGuFmvXFXJZd+bvbWSq/EZrcVDJutrIG+CdYgMIc4xicoKtK4T3Sd9QxBhNoqqbhOtcFkc0io3hJmjESeLuc6dPhMLfxajQTOQ5TiQEzaz9EuqAkeM6075Ohk7W2LH0VjwScjPI6+EIcYkdNblcT2z3Z/+9KfT6zHhm2FeGhKK8uhqH1hfJSqqvmVD9uDZlGMcwTNGrXfjOpW7Xh0BbjwjOFyMvBFN+hyzDrpjn1uOcQrXjK+D7bhO5ZF01hxF75M5MmvhpNzq7zSKOR85OidOP/30k4wyhxidWAuuDSNBlEWnPjGj7Eha8DvpO8nPHRf+DjPRRQQkprFw0o5WuaHISS1xKCcx++C7ya2Q/uzy3KjPyhgNS0memf9lE+KMWVlt7MFuJF/Pfe5zNz8dJ2JcPcY1bUiMrgwZ42zk89GLNvhOvBqLO++8M43Q4KqrrhrMqJa5c45xxCgGz8HJWN+MbRZRQAiaUSUwlbuwg8NiqDHroBueR6OhRSLGNad8rYyezT3GzVY44dPAs6AIY7agOeXrJVH75Cc/ufkpyPRtCLuLK6+88sQolUWwrwrSU089dWLsI3dgZBxXd++996bXjqs799xz0+uhUHXOlec+uk7KhrBV5M/sGpQ363OkaqxIJ0DQDKam5RgnUdMFEDybvg1hd+GIWSdG2VCKceVRjSEQI/JnfNWrXpXGeockjGJ3UzbsNp4TMa45kuJcEMjwDyqfThQcBkOOWQfdKMc4JyGySwiaoTOnfHDJ1B5pu5itcFIeY1DhGbJCvkb4QJQr80OMhywdm96+DWF3YdH763/9r6fjoiUW5WPMupA7LZhS+bMz2nvvuOOO9NombKzZy1yR3dcotsoQtgrB12fHErxOiFlFvHfHOAfNEePKRIw7mZzY92kIuw3HmhNPHEXrdBsx7stf/vLmd/vHaT55NlqVvuq+GIIc48Io9mSsbeUY5+jOOBWmHeV72chdxLjDY4wx66AdxuLLHdVjrT1ronzNFIEVe+bKLIUTG6xHHnlk89NxQjRpjxns8nV79NFHN68CDGkIuw2mrcQT3S06qyQW5Q6rNqjo5mem6G2im8WfjbGPq+vDKLbOELaO/NldCwnbXCEm5dGwTMS49nz7t3/7SeMYEeOezZCGsNvg0UA8Eevc6zkO9Y2TRu6666702glbF1xwQXo9BmEUW4/nUEGiSLkTMtiNo5yN1xV57LHHNq+CQ2DMMeugOVV7jfhu2lO1Lsw5xs1SOPnt3/7t1P5apNyuGDQj+2lkvvSlL6UOhOA4ebM7lCHsNlRjiScqcDpOJBaqdF3IHRYSSV5A8GdOfVzdvkax/p86Q9gqfPZsejnnrpPsw1AkYlw3yteNWGgsMRjHEHYbhE7iCYjUt912W3rdF8U/k8nca1/72vR6TMIotpryWLCu4TgRsRvlfVzV+hGsk7HHrIPmlGOcruFv+7Zv2/wUNEUuVO6gmnOMm6VwUm55Zfx4yimnbH4K2mAz+fVf//Wbn44TLcXHGcsQdht8ALKgUewOaYOujCwS5I4L3StEkzkcV5cFj7ZGsbsMYevI10ClvVzxnAvlZ9AIhcUjaA8j7DIR444zliHsNtzbr3/969PrYnfIvogPYhy+7/u+7+gNb3hDej02YRRbTblAU/WcBs0oXzuC6BNPPLH5KVgr1rEpxqyD3VhXy6fGRYzrTvnafeYznxnFG60LsxROygvCi170os2roAvlKk8suOMbwm7DCRRZPLFQOm2nDUQT423f9E3flNoEHVcnoZjLcXVdjWKbGMJW4b/1eV2TOXadfPWrXz3h2ZKJSmx3CIPf8R3fsfnpOOXre4iMbQi7DeMsThQDP5IPfOAD6XVXjOGJcV/5yldSF80U3XRFwij22fzzf/7PT9r0xj6uO9YHI29FYh+3bhTSsjA89ph1sJuq5y/2cd2punZzjXGzE07+9E//9Ojzn//85qfjxBHE+1H2ABCQhzTqWwI2t2Mbwm6DsHDppZem1zoz7rnnnvS6CdkUNs8J6lqZ23F1uSLb1Ci2qSFsHcWuk7nx+7//+yeNIkaM24/y9XvyySc3rw6XnMC7NmMYwu7iJ37iJ47OO++89PqBBx7o7JzvpB4JxZ/8yZ+kThox7jnPec7md6cjx7gwiq1+/vJJckF7rOUR4w4HY39i3JRj1sF27OOK6Bje5cEX1OM0IkWwIuVrPBdmJ5xI6suoOAfdqbp+c3YsHpqpDGF3QfjI7+ehhx5K/+yCgdIXvvCFtLEiFsz1uLo2RrFtDWGrcC0dfalt3njAnCjHOCNUEeP2o3z9PBNE+ENlKkPYXRBBs8D77ne/++jxxx9Pr9sgodDR8HVf93Upxn3Lt3zL5nemJYxin6Ec43Tj8KkKuqMztUjVXjlYPvZGil9zGLMO6ik/f7GH25/yNZxrjJudcFI+aeK5z31uUqKC7nzXd33XSW3a5et8SORN7RSGsLt42cteliqz0HWy69jB3FFBNOG6Pufj6poaxfq9NoawVRhRygla+Zz9qfmDP/iDzavjxBHE+1N1DcvX+VCY2hB2Fzrr8ujeW9/61pPmxLdx7NixEz5JEorv/M7vTK/nQhjFHqf87KmaB/thH1eExwKBOFgPxqyJJnMZsw7q0T1dJGLc/pT3ceVrPBdmJ5w4F7tIeXY96Eb5Opav86EwB0PYXfACyJVLfid1bd9adXPn0F/8i39xEcfVZSGkzii2qyFsFY4mBZOpNqa0QxMxrn+I6+V75VBj3BwMYXchIcgVdInCH/7hH6bX27jzzjtPOO1fddVVJ42gzoEwij1OxLj+qbqG/+Jf/IvNq2ANzHHMOjgZY6LW2CJzE/GXSDnG6T53OujcmJ1wQmktEoGjH8rXsXydD4E5GcLuwikUeSbcYlrVspaNT1WUH3744fR67sfV7TKK7WoIWwX/mvx3zckkNmLcMESMm5ch7C4cU+xUMZ4lYtw2B31xIX+uV73qVUdnnHFGej1HDt0o1jr7Z3/2Z5ufjuN7DvbDSFpZHD7EGLdW5jpmHZxM1XMX+7j9qbqGc4xxsxNOvvjFL25eHWfOye2SKF/H8nU+BGxi52QIuwuL51//63/96N/8m3+TEoui8qoV/FOf+lR6bd4fSzmuLldky0ax+xrCVpFNYh2NWTadngJjFOVKRcS4fogY94wYORdD2G18wzd8QxJPmOo5JUeMqzItdwrPBz/4wfT6/PPPT75HcyfHuEM0iq167iLG9UPEuHXyvve9b9Zj1sGzsV6ViRi3P9/8zd98kp9P1bWemtkJJ7wNimg3DvanfB3L13ntzNUQdhuOHySeCMj/9//9f6fEwr+ROyi0dGJJx9VVGcX2YQhbhXGAPBs+hxN2qp67iHH9cOgxbq6GsNv41m/91iSeiHXG9MS4Ioyd77rrrvTa6N0FF1yQXs+dQzaKjRg3HOXreMgG2Gvhwx/+8CLGrINnKMc4PjRh4NsPS9jHzUo4UYl1/FaRcGLvh2/6pm/avDpO1bVeM3nzOkdD2G2oxhJPvvEbvzF1nEgsCA1ZONEOvsTj6spGsf4RIPcxhK0jm8S6Zpzqp6Tq748Y1w/l61ju7FkzczeE3QaRlHgCAvdtt9120usf+qEfOnrta1+bXi+FQzWKLT93xsUYXQb7c8gxbo38o3/0j47uvffe9HruY9bBM5T3cbGH64/ytZx6z17FrIQTs85ltPMG+/Oc5zxn8+oZqq73GlmCIew2zIdnYYTXyXXXXZcEEyz5uLoskDCK7csQtoof/uEfTl07rtnUXScR44ajfB2JCYfCEgxht2G0iK8TdJnceuut6dhhfN/3fd/RG97whvR6SRyqUWz5uavaewTdKMe4Q9nDrREjfHfccUd6vZQx6+A45ecuYlx/lK/lHGPc1/x5MnE8A5sBKjPnnHPO5qfjUGPjuM79+d3f/d00O1nktNNOW317GX8Q3hZuc+105c6bJcFwrzjvZ0zn277t21Kb+1LxebKRIMFkqDlRqrW2ZtXPKY0KddX8/u///uan40gUv/7rv37zU9CVD33oQ0e33HLL5qfjJ03pVFg7X/nKV47+6I/+KL3+j/6j/yh1py2V/JxmvvZrvzbFhL/wF2Y3VdwY5nY66yS9ZrjXjs7I4ilJxLy5HQm/VBzfnTvLoJNnjqdLBdsRsx0lbV9q7TeyGCyHp5566llCOOH/Xe961+anYB+cmJdPz8NLXvKSoxtvvHHz0zyYlXAiwS23qqmkMcgM9uOJJ544uuSSSzY/HceGdM6nLgTB2mB+WZ5Lt0h83dd93eanoCtmxW+++ebNT0cp2daRFQTBeHzpS1864cUFYt5v/dZvbX4K9sHomj1xRtHkEMS4IJgTTg4rdtbxGHzHO96x+SnYh6uvvvro8ccf3/x03Nvspptu2vw0D2YlnKjMOMqvCLfpF7zgBZufgq5oC3zd6163+ek4b37zm1dd6dbBlE23qJblM8KXhpGW8rHEuoao3UtEN9A999yTNtrQIXDhhRcO1vb427/920e/93u/96wW+rH5zGc+c/Se97xn89NxHn300RjX6YEHH3zw6Jd+6Zc2Px2l2CbGrRndS4888kh6zTh16SacDz30UOpYIHplDy4eRUsvnnziE59Izz7PqiWOUrXBprd4WppOT58/2B8jbA888MDmp+PHd15++eWbn4K5I9kW4yTevBwUimPMY3ko0uRTLfE3/+bfPHr3u9+9+SnYhyuvvDLt1TMOi/i7f/fvbn6aB7MSTlRi8/GhGe1PS00M58Rjjz120pz42ivdvD94mzCEXZp5ahkCYhaB8OIXvzgJKSCI+Xlp/P2///eTt4kNhCRX66rPURb4+uKP//iPT3Rd/fzP//zRi170ovR6TKo6v5jWEnOC/SDC/eqv/urmp/VXum3CL7vssuRtwhD2p3/6pze/s0yOHTt2okX3+uuvT6eg5Q3Um970pqNTTjklvV4i9ja+q69+9atJODnvvPM2v7M+yp1fYrtxxGB/VF6zHxi+//u//4RPRjBv/r//7/87uuGGG47+1//1f00jVsYPCF/B8ih3frGTyCa/wX685jWvScbwGeLiNddcs/lpHsxqcLiq6hqu4f1Qvo6q+2sWTZZuCFukeFwdfuRHfiSJC/m4y7e//e2po2hJ+G6KhrD5OyIG/U//0/+UXveNRJoJG6YyiY0YNxy5cymz9i6epRvCFrnzzjtPiCZmnPk2ELsdJw6niRV9M5bGIRnFlp875n6SxmB/Di3GrQkxjGjCm05sC9FkuZR9xGIP1x/lGDdHz7ZZCScS+fKJGlragv0pX8clm6TuwmfNBmqOvR3KcHQMisfVZfLxuk6hOPXUU9Nri3J5jGfO3H///enf3/u933v0X/wX/0XqCvIPiuZ3fZOvHUX7s5/9bHo9JlXPXcS4fjikGGcDng03JeRL9qoSC/JnedWrXnV0xhlnpNdwTDEzZ8m3GKdrbKkYQ/5P/9P/NBlCDhnjpiZi3HCUr2Mcg7oMfv3Xf/3on/yTf5JeE02++7u/O70Olkn5uYv41h9LiHGzs6ovz2h/8Ytf3LwK9qF8HZc+C78Nm1KnGPzH//F/fPTyl79886vL43d+53dOtOFm13WzlMV5f4uwn/mFSCz4A8ydf/yP//HRP/2n/zS9LlbKc0WWoFGcke+Tv/bX/lq6hjAiMzZVIzkR4/rh0GIcjLHmzrMl8vGPf/zogx/8YHp9/vnnp3nmIirqxBPeIE7gEuMYLC+VHON01yytS7ApVc9dxLh+KJ6qhzXHuLVgzNrYIZxs+YM/+IPpdbBcdC8XsSYVDbGDbsjbysJJ+VrPgdkJJ+XuAIaxwf6Ur+OSuzC2oZMgL1J5k7pEdI9IEqArI7d2lz2AuOoTT3yfArf/Z84B/F//6399IumTJBEyMk5AyUKX/+Zf/st/mV73Tb6GTDXLG9GhYXoZMW4YDiXGGTP7n//n/zm9XnKM43tx1113pdec85nbVkE0Jp6IdUb8clxcIkaQstC11q6TqucuYtz+WDvLI15rjXFroThm/VM/9VNHZ555ZnodLJtv+ZZv2bx6hohx+1NV+K261lMzO+Hkr/yVv7J5dZzPfe5zm1fBPpSvY/k6r4W8GTX28QM/8APp9dIQPH75l385nSrxn/1n/9nRt3/7t6df929mcGVUY4knZgH9vxILHShzxPfzf/1f/1dqv6tK+oxWEVAoz0MlFq7hf/Kf/Cfp9RRdJzqhikSM2x8Vnz/6oz/a/HScNcY4hrD5uWAIm+/jpUHgZrCHH/qhHzp67Wtfm17XQWAlnqD4/y4RXXb//r//76dT337zN39z86vrgcBVTugjxu1P1TUsryXBfCiOWf/kT/5kMrkM1kGVP03EuP2puoZz9AKanXBiBriIChOlPeiOyn25VbZ8ndfAGgxhdYsQTf7Vv/pXSUBglJiPcix3mxThA0A8QbFbZU6UDWHLfkaZLKgMaRSbr6XqPZFmTMrP3hReK2uj6houVVTYxhoMYcUBMQ7f933fd9Jpb3UYS+LrhGK3ytI4BKPY8rMXMW5/qq7hGvdxa8AYXh6zZkh/0UUXpdfBOvjar/3akwozTz311OZV0JVyjDOm89znPnfz03yYnXBSbN3P/LN/9s82r4Iu5LbuIlXXecmYi8uV2KUawjp5QEKh5c9xdYQQC7BqOsO9XW2eTqDI4on/z2k7c6JsCFvHGEax/v6//Jf/crq2Y3edFD1qoEtIF07QnfIa4eSC8nVeOmswhDUaJ8Z95StfScl1jldNMebyMz/zM+k1f5QPfOAD6fXSWLtRbPnZiz3c/pT3cSqxz3nOczY/BXNB4SoLw//5f/6fH11xxRXpdbAuyjFuSYczzJXyOjHXPdzshJMXvOAF6ajcIp/+9Kc3r4IulK8fBS+Pf6wFm8+lG8LqEikfV5ePzc2nweyC4HDppZem1zo27rnnnvR6auoMYevIFVkK9FBGscWukzER48pEjNuP8vVzasGST5qpIifYSzWEdTKOhOJP/uRPUseMGNcl8fuJn/iJo/POOy+9fuCBB45+67d+K71eGjnGrdEothzjdFJG18l+lLsv42SW+WH8TozLY9ZtheFgOZSfvyeffDIVBILuVO3j5sjshBPmiaeccsrmp+P87u/+7uZV0IXy9Stf36WzBkPYquPqHnvssaMvfOELSUjZNqZThsiSr8NDDz2U/pmSbYawdYxhFOs6iTda5bX+j4WxqrJTeMS4/Vh7jFuDIayE4p//839+9HVf93Upxu1j+kZ8zWLyu9/97qPHH388vV4SazaKrXr+IsZ1x6h1HkPOrC3GLR17FMWvPGYtxvEyCtaJMdMyeQ8ftMf6ULblmGuMm51wAu1tRdyMX/rSlzY/BW2w4JZbyMrXd+nkTedSDWHrjqvLnRBEk7Zzfi972ctSZRa6TnSfTIXvZ5shbB1DG8Uah8rJVx6BGItTTz118+o4v/3bv715FbTFglteH9YU49ZgCHvs2LETFXMJxXd+53em1/ugsy6P9L31rW9dZNfWWo1ixVYjmUUixnXnk5/85ObVM5TXkGA6jFkTTYpj1kaBg/WiuGlPWyRiXHfK106BRXftHJmlcFJ1zrnqe9Cequu2pnPkl24IW3dcnbY/Yzto021ShBdArmjyO5miHbypIWwdWWgZyijWMaj4zGc+M5gRbRXlZ1Bnke88aE85xjnVY6knalWxdEPYO++8M42jgNm1Tou+kKDwdoLE5Q//8A/T66WwZqPY8jNo/eFFFrSn3BH5Hd/xHXGizoyoGrMO1k95Hzdm5/LaKO/j5pynzlI4+a7v+q6jb/u2b9v8dJwpK+ZLpnzdmO2sJagv3RB223F12bBU8NjnWFWnUOTKlMV9bAOrpoawdago56ryEF0nNp/5zx/TJPb000/fvHqGiHHdyN1amR/+4R9OI1hrYOmGsJ7//P5f9apXHZ1xxhnpdZ84ptj4Gw8VMe6P//iPN7+zDNZqFBsxrh94ApU7TsS4YB5UjVkHh0E5xll7PvWpT21+CprCbkHXZZGq9WMuzHZ36QivIipWqrJBc/7gD/4g3ZBFfvRHf3TzavnYZC7VEPZ3fud3ao+rE0By8O3abVLEYk4w+zf/5t+kxMIpLmPQ1hC2jlyRHcooNl9j38nnP//59HpovuEbvuHoR37kRzY/HWfscaE18Mgjj6TEokh57VgyOZFeoiGsU28++MEPptfnn39+8jcaAs8S8eR5z3teOrVHjHNa1pLIMW5NRrF/42/8jdQZUSRiXHuqrll57QimoW7MOjgM7DUcTVwkYlx7qq7ZnPdxsxVOqo5eHep0jbVSdb26VP3nyJINYXV92Nyj6ri63Plg41meE++C0QXiiY4cpxv4u/17SLoYwtYxtFGsVn9dbhjzhJ1yjPO5JJtBc8ox7hu/8Rt3Htu9FJZsCKtl+a677kqvjcNdcMEF6fVQfOu3fmsST8Q644E5vi6FtRrFlk+D+/3f//04QawlDz/88ObVcaxV9gbBtNSNWQeHgxNgyzHOKW9/+qd/uvkp2MWf/dmfnRTjPEsKInNltsKJo7z+5t/8m5ufjiNQaWcNduNmdL2K/NAP/dBq5mLz5tKYxZL8DHR7bDuujpdBFk7KAXkfVGP9XRJL70FioQNlKHw/DGG/6Zu+qZekb2ij2HytXXuu+GNAxORxUORDH/rQ5lWwi6eeeuqk01TOOuuszatls2RDWKL2bbfdll5bc1772tem10NDnCWeoPgelsIajWKrnsfyviSoR3Hoc5/73Oan46wlxi2ZbWPWwWFR9TzGPq45rtVXv/rVzU/HmXuMm/UguNnfIjwtHnjggc1PwTZcJ0lmEQF+DSzVEFZHAdFk23F1WtaIg7pD+vYD4AOQhZpi10vfFA1hVZrbGsLWkQWYIYxizYy75q79mF0n5RjHIHaJR6tOQdVasJYYt1RDWM++GAfHNb7hDW9Ir8fCSBNfJxS7XpbAGo1iHbteHjdVkXUsdbCbcoyzlq4lxi0Vo3R1Y9bB4WHNKfvafOADHzgp/wqqca2KGO887bTTNj/Nk1kLJ1SnsuHnb/zGb0TXyQ5UK12nIqpxa5iLXaohbNPj6nLS3me3SRFjKVk8sQFw2k7f7GsIW8fQRrH5mo85o1pVqSo/u8HJ8Lspt3eKb30cczs1SzWE5S9CNPnKV76SOmRynBkbIy9OFIPRt/LGbM6s0Sj2vPPO27x6hlytD+rh31T2qHMtHdMZTMM/+2f/7IQwXDVmHRwm5Rin6BExbjf2umUz96r1Ym7MWjhBeTba5uzuu+/e/BRU4foY1SlCZFgDNpNLNIQlmuw6ru4Tn/hE6kpRVerDFLYO4sOll16aXuveuOeee9LrPigawg7hy5D/zCGMYnkxfP3Xf33yfxmr60RHQfk+fuKJJ0Y94WeJvPe97928eoY1xTgsyRDWiTYSCka97mkx7jnPec7md8fnJ37iJ05swFTtdTkshRzj1mIUe8opp6SRrSJET34nQT1rjnFLxAidfVzdmHVwuPDx09FdxPNrXD2oRoG/HON4lYVw0gOEk3JXwbvf/e5VtLEOgVZpTt9Fnvvc554wv1wySzWEbXpcXU6WiSZMDodEd0W+hg899FD6Z1/KhrBO8umbIY1ijU1lwWrMcZ0qA+A777xz8yooY5TJjHkRQmr5CPslslRDWKKJ8QvVcDHuW77lWza/Mx1GnHIXmT3DUkbg1mgUW7X/eNe73rV5FZQh9hmnLeJ+/uZv/ubNT8GY2GcQTbaNWQeHjW7uIgq8sY+rR/wv+wm+8pWv3LyaN//e3/1zNq9ni81YcdND8TWysaajdfvipptuOuk8bO7Ejz76aLpJv/3bvz1V1ZfIW9/61vS965hYSrcJESu33Tuurq6CTFjJowdXX331KNXaF7zgBalSrHuDZ4gZ+31MKLUmErcYwv78z//8YBsLwpNqrM0M1fr7v//7N7+zPxTvj33sY6nrxLMyZDJO5LR4ZD+Y4kysZ5VhVp+fbS0wAC0LZrq0PGcMj1UDlzLeUsS9/Pf+3t9L9wFD2KV0mxw7duzod3/3d9Pra665plYYnoJTTz01mWH7xxHv7o05iDq7MOdNSHefO7lhqYUP68Gv/uqvpqPejasWTQCNrepOihNino2uaom565WxZyNOxpjO+Pge3vKWtyRh2Jj1L/zCL6R9QhDgscceO7r11luP/uAP/iCNqRYPXdBlrjC2hqJOnzhZzTNVxJr3pje9afPTvJl9xwlsIssn7KjMxdGdz+bBBx88qarmoc1ny9uIGdEw8018WhJLNIRtc1xd7jbh08BQbyx4AeQEjd9J19bwoQxh68jV+L6NYl37fH78UF0njqp7xzvekTbHuRPJaIGTj4poYyzPuB86krA//MM/3Px0HMa+EmI4jeSSSy5Z1GhGZomGsCpqRExcddVVqVtibnjOcjVQ1bh8/8yRpRvF/ot/8S/Stb7xxhuPPvOZz6RfqzI1fdvb3nb0xS9+cfNTANfky1/+8uan47zmNa85+g/+g/9g81MwJk3GrIPDw6jhDTfckJ7XP/qjP0qFwpe+9KWb330Gvx88m6oT78Y6fa8PFtFxAopd2Qzw937v91Iy6ojVQ0fi+sY3vvEk41xdGmbGXD8PtwqWVnBeFKoXjOjmji4TlVhKrhnfLATNGaME73nPe9JrG8ZtbfeOVc2GoISt8hG1Q+M4Z8nEF77whVSVVTGWvLWB6GJzT6h71atetfnV4TCakSvJ3nefJrQ6ZggyNvQSwbKg0RX37wc/+MGjX/qlXzohAjp5hMGcBdffqzOsiHvjnHPOSZu2Q0eC7toVYbDshAPXTzVQVVC3EJ8dopRfW8IR7DbmeXRBkrSE44eZQGex1DO/TRieGkaOREgeLIRWnVxTerA0gRhoj2P904Gm03LuePasZb/2a7+WYjP4mzhdiYcUeDhldKDoPBnKDH1pKH6VPcesx0upxK4NY9ZZGNbpyHcqOGzEK3v7v//3//4JY1Ox7ed+7ufSPtR+VBd3JsfvuZ8UMxaKX/bXRewdXv3qV29+mj+LEU60xmmDKlaXeSrYKMe59kdJNClXblRe82b2r/yVv3LC/FLSZoNjUybBUMkwtzlXBCltcBIgiv/c0bWRFVXdC76HbagoqtDpqqo6ZWUMiCcUdImFe8IGgTdOE4hwOYEyZjSW8MOMS2cBAy73dV+eKoQSC5/nidjxohe9aPM73dG9Iuk30kDc9DxaKH76p3/6RIeRk68IWJ/73OfSz/DZfCe6Kg4Z10DyZZyliJGw3E3gRJ2XvOQl6TV/ADHuk5/8ZIodvAHGFiTbYDNhE+a5c0/MHd2e+dSA888/f7K41RSeUURKIyPuJV0Qp59++ux9CtyzjlU2fjv06OC+6PYyTkIEhPGiyy67LAm/eS1xf0tEfQeZz3/+80d/4S/8hVl2K42J9bdqf/OLv/iLMRoyAU3HrIPDwN7DXt3eXsyCveHP/uzPHr34xS8+0WWteGjcW76acRoTr057vENGQVkxv4i9u1EnlhJLYTHCCdykRlG0umd0UXzpS19aRDVmKPia2FwVsQmp+mollwwwjerYPFJDXVPJmsW56ojcKVElpOzC4jX3WUEJm42O5FiVk6C1DcmS6hwuvvjiyQQsnhCEG2KaTa2uJJ09u2aqiZe6gbQWM4Tts/NjF7oJYFGyWed51NeIkD/HBp+gZXyqa1AnlGjVdGKSa6Q7ztjW61//+iSelJHcWXSLfieeU9XxKhPZQ0E1R/dNEYJ5ub3Tfew6ESxtXAjrOqGYSruviW1zW6CJanm0SLzQeTRnrDW6fECMv+iii9LruePZ08Xh/bsX3BtnnHHG5nfniTWZ54U4RDzJXRtzwrNFMNGtSGiWIBgB1YVU5Sejm6p8Ipp1x68vodNqCFSkJWDE3iLEdWOcwbgYs9YdCut1fAeHjcKgwlc+CUweJR9RNCiv1/aOimEKikWsOwqUh2rwrBgpxhW9m6D4xYtsSSxKOAHFLvtGZCR5VKtDTCycFmA2vojqGlWvbgOuyuaIQBU35qA2ZQQoauDcDGSXZAirNZloImGzQWcitsuk8kMf+lBKjF1zm80p8Z0zjP3t3/7tlFio1KuyqAbWMZYhbB1DGcUSsIge2ZzR89IGXV1GL5yO4P4FryYCgGtcB4FE4pFPj8qolLtHljBa1zeeqXJrJ9FJbKi731xH9wIx0HdIPCEOE6Ukd57PORjILs0Q1rOex6WMYBgzWxK6ySTnNrE6ytwXcx/99MzP0SjWvaBTiujnPpYwGEnVGVY+mrMIMYUgX/bTMqbomT3ExEKnST5NK+NaxIjO+LQZsw7WTTZ+VVw2VkgQUShQsCmf9lqE0SkRVFEvo5hqTHGfQtxSsXYRTYqdhvB8LcnbJLM44cSNa/OT5w4zEgsL8hBHoM4VJq82LmUstk0SSBV7CqhWdyMBKlsSPhshD7kN2pTeCqpSWbWVlM/Zy0ZgkOAJDJJuosmu4KhbQ1CmwDJUnUNSbGxL0H/kkUfSZ9GSKEGqwr2Su2WIPlM9e94zsUcF2QkNfZ2aQTAinrgGumkkLbvQDafF953vfGcSI2GhNB/tOjYRltwHFmnO40WIKcThQ3Jod3+Jc2UY9lV17JQx6mDMSSInSfac6gojxBCYjfdMiW46myueQk6k2SZSTo3nXYwTr3RGXXvttZvfWRY2vGKExN2z/Wd/9mezHhMhAoobxpQl1+7nKddChRYFG14muftXRZ4o7L5ogv9OocE9ldEFK44rksy966pP7BXK3lY6fwnD4d83Lm3HrIN1orOEb58cxESD+MtfUYxr2hXH08T+sWihwPz9ySefTKM99h+HgL2sEf7y8erySzFuif59ixNO4ILb7OS2qQx1UNJ6CHNkOhXKRonQ2ikJbwMxSqVzTgayqvRLMYTtelwdnwCB1SaRGjsXVPwkpTax7geiWpUQN7YhbB1DGcW671WfLJxEsHxySxXbjF8lFW03wK532e8EWTyZsydRXxCfnCxU5rrrrjtx8lFTxDYGlHMykF2SISxRnWhi4+d9inFL3vgR0ggSuiZ01tm8zekY5TJzMIr1zNQZv9o/fO3Xfm36taYYk1LwygaL0AFr5Md6fwinyDh1qOp0SKNPc+ksOhQI2GJc0zHrYH1sM37tYgzs/1GkEdcy/lziidHysTu0x0ZuRDSR5xSx5yKazM0aoimLFE5gYVX5KB8tSLlXvVN5XitOM7CwlnGyhE1MVyTLczGQXZIhrGRZNdDmW0LRVLjTLSQpP/vss2e3aXfdCTq+f4mm7phiNXEqQ9g6hjKKNUJBRJQ41plQNzF+7YJkxJ/p784QaPilSKSadFwsFclZlWhCYDBz3pU5GcguxRDWpk9CQUS1topxS93wFBEjPE/uA8+4zdzUHUjbmNIotonxa1t0V0lQ7dkUwjLEOR3FuoCmXleGxFGmRgfLeL7G9AoLjtIzpfjVZsw6WA9NjV/bYk2Ri5bFUQVHeRW7hL58+eaG3Mb1U5wqo9N+ydYaixVOQLHTdUIlLGIejZJnvn1tvOMd70iV/jIqsDa3fWBDOaWB7JIMYbseV6c7SjcDsUVlY5cJ6xQY2bF58Iy5D1QULQJTGsLWYYFC30axBKTcrqnF//nPf/7md47SgtDG+LUtrr3KsgqsLrCM55Lngfezxu46caxqPEfn2ZVXXrn5qTuuq0VbzJzKQHZJhrASCs+/GCWhKD4DS8d9QDxTgLGRVRyY6+ebwii2rfFrW8Rtgry/x7qSEW+tj/YiU3SDDQmRyF7BZy4jvs3dy21tWFvFuDZj1sF6aGP82gUx015aPCsiliva8M9jP7EmiE8KqjprynjW5u7ltotFCyegBrrhs59ARqVWIFzLMZ42Lb6q7PRdxGek4PUJ4SkbyFJjPQiusYd/aAPZpRjC7nNc3Z133pnmw21+53y+OyNTFWeO2LpqVAAF+ykNYesYwiiWWOR+zx1Y4o3XRiwk922MX7tgnEB3nZZ2f38RlVodLktzJK9D90VdQuG4W9e3T6YykF2SIeyxY8dOtNnyYJnzOEtXPD951I9A4Hvvyyepb8Yyiu1q/NoFXXkELM+9efgMIcX6qlCzlrEVor5rWPavgj3ExRdfvPkpGIOuY9bB8ulq/NoF+RJBvnzSjjgunoup/ps1YA+u06Sck4P/Zu74XTKLF05sbM8888xUEctztxm/JuGw6C5Z0dNGbLH1WcqorPctmhSxmIxpILsUQ9h9jqujwj744IPpNQ+Mrq3OYyGxzJVOSVQ+FnZKQ9g6hjCKtaDawBO63PsEs7wotDV+7YJnUMXCrKyNXhFVcqKWTqe5nITVBSMIFlsjM2WyKdtQEAPHNJBdiiEscTfH4quuumr2p8/sA/Had068E+MUDeY4jjS0UWwfxq9dkKwazbHp1r1XxK/Ze4ixSzQSzDgN0j7OZyljHxCiyfh0HbMOlotC+77Gr12wh/Pnl08IJNooSK+hCHb33Xcf3XTTTamTtww/Jx3qa2DxwgmIJyr3RnbKG28JnyRX8rHEapkkzekFVYut+WI34xiMYSC7FENYQW6f4+p8p+5Vn28p6ivxTDs781X4vlXI5oa27lw97ssoVtuuSrTZe4k19jF+bYu/9/bbb0+LkQ2eToUikh1CpmfU4rw0jDs5JadooJZR/RnryNsxDGSXYgjLRyt7GBnLUJxYO/w2dFroVJVM6UYiVMwNHTF9G8W61/s0fu0Ckdua6JmzvyjiuXHSmxHIpRlju7a33HJL2jNIjsrY37U19A/2p+uYdbBM+jZ+7YL1XnedLpfiaCLEPeuPYuTSCv32oDyb5Npl5IfGPXVrr4VVCCcZ1V8VWTdfGVVolX5VRZW+uaOV8/rrrz+xeS0jaeWlMDZDGsguwRB23+PqzKar6EHixJByKUjcfdfwnFHH59gt4xnvyyg2G78Wj5Rj5On5I1QMjY32zTffnLpKCDjuPcJJ7vrJqNISMd1fEqu5dmoVMWrkOddtUoUK4Cte8YrNT+MxpIHsEgxhGdnde++96bU5b2NSh4DuIoKozk7iiY5Vo6pzGUUs0qdR7BDGr13R5UOks7codxATitybhGTf0xJOddJlIsZVzfoTY60txNpgXPYZsw6WxVDGr10Rq60rOl/KBXHFPiem6kKd8xH5RQhRfNrK8RqEItYLaxknz6xKOIGqkRvTRlfnQhGK40MPPZQ2wlry5lhN0s1hc20jU0zWMhZbXSZTb2Ylo30ayBK75m4IK4na97g6vhg2hcZI2naqTAl13D0pQZfAM7jTcaRCODdjW88I9jGKrTJ+5eliETb/OlaFwhjeE088kV47htd94xhP15yIV8a99cADD6R71HgdH4S54TvRYaLzQiwuYxbY5yaET8UQBrJLMISVjN9xxx3pNYHczPch4TknPLoOvmffu+dtbvRhFOteHtL4tStim8+jA61KcLDuECQIJ3PtIhabtaxb76va1iVFEgoxOhiXfcasg2UxtPFrV+RH7jt7iqrxZAVKe097jLme9Ob92ZPyaKlCtzexqm+/mDmwOuEEbjSbbpuKPFpQREKlFVkSZJM+h+qszY+ZclVWQkQV5rAttkPOGrdBJa4vA9m5G8JSU4kmNkE21r6ntsaRKmXZj8aCLflaCirQxC2LDV8GwoLEQtBXrZmbT0NXo1jCQ53xq/ZJ1WgjS0TDoQUjJ2jpyoCW+eJnEAOIN8S8cls7dIDZIOoMEg/nUJ0Vd7VHS9YIrFXYTDAknctJGn0ZyLoH524I6/m2yYQxjbFGpOaG51yljHiieOE7n+PYaFejWN/zWMav+2A81B7C+y37nliHdRHrGvD89W3K3RWCifglduexzjI6zewl5u5ttkb2HbMOlsGYxq9dEbfkqeKAWFZGUcl4oiYAMXouY9g8Whgq6+LJe+QyPNF09MyxW7MPvubfVQ1droj3vve9yQhoG9qymdY0Ta76xAPz8MMPp4Beh02RY+rmHuQlRkxPzYfD+z7vvPOOXvayl21NrJk0+Z7gu5qbQmljan5Px5JRJB0/XYwDJeO6AXy+XffknCAm5NEpLdyUZAq+awJtj4x854ZnS2cD6MPbBEdGiFrWdQVkLGru3aLL/ute97okxppJV7UYCn4DWjZhsa+rKAvfVH2LWB1Ek7PPPjvFuClOpxDbPOMq23UYPRDj5u75QzgT43QiwHiie2TX+yaKS/KMiUqq2oquQ+MZNxoqIfWcrLCe0hqiJW8hnHXWWUevfvWr0+s5ofPC2AHvI2vKthNBFJLcu8VNOqHS/Tvn0T6bc91/uVurCuuxRFiMG/s4aWKoZ1uMq+qQyUh8jFfP1btt7RC1iNfQSXiowvCasS8V43KHicRdfPPPnFGME+O27ZHYJIhx1qJ9xoW7IAaLvzp46ope0IkvxikorZnVCyewyX3nO9950lFQZSy4Aiqn+iFbKFVQVLO8n6ojm4qobGstW5Ihmkq/4KWLBh5ygavKYNADKRm3+WAIO7duExV7AoHxgjwm1XVjpg2aCMM9/6UvfenmV+ePlmMdDEYX3vzmN29+9dnChFlRosLc8P68T6N5uZpeRNeAe9U/xs4gcXS/VlUxs8gnYc5iX99YnPLYWtNnwvcjxvn3Noz6iHG6xIasYLjmYpzqRNU4ThGfTwyY4+hkHTYR7pn82VTG3TNVSZHYwQASNhVz6zYx8kE00UGm00KMW9J3MSSKGk4KwBzXJxj7svHOZq5l3KNEYf4gGf+t+9VmfCmovopxPus2dOIRvcW4ofZNBEaVYJVtMa5s9FiGFxpPs2AaFPXs46zxkrscj4N1oKhpPbbnyCg2iXFzHImtg5WEjud8olkdYpsYZwphKCNZ64ZcTgEhdz7XoWtGjBuymDgnDkI4yWjbkpDkjohtuBkZ2kiiVGm1u3dxltdiythRS72/1+zarkQCgrvWMtX8pSLJFMz4YcA1FMh8tozWfbPWWvO1D88NbvjGUlT0JBRdZ6rNA6o0a7lzDy7B2A7EPSctQLWmbLSqVTyfEmIEYW6Gl4TJyy+/PL0uC1a6S9yf2aBLEuH+lFTUoe3Tc2n+/tJLL+3d2K94vbtUuY2QqEBvqwpk+AiZtSeIiXGElC4jV0bQmNXanIpxjnOtmusvQ8DxnRBzlohkyf0jKc24nu6hYsWFKMGXQUJnxG9OuI+9P8UF3TBi3JT+FnPkvvvuO/EdS37n1hVFLCVuQ+dfcc/gffsnn8TlOXd/GrFdKrrrrKF1beJFjDPlGOeZJHB2QSKTY5zClxjXBGuiGLfGOf+loIBHNDE+7h4Q49Y6QnBoGDW0BhcP0RD/JPBzPbFuF2I1sf6ee+5J+81dKPCJcXIT93dXsdhoIZsI3TpiXO7a2Ya8yJ5fUfiQii0HJZxkJCdGJnZVZ8tINCyA5uW0hjLuIaZINijZkgUigQXdyQmStiqPlW146FW1dL2sARtzgU1LccZIlM2bM9QtYuAhYaZ5TmRRB46r26fF1ryfZHaO4kIdEkOdAIQFLdBMA6vw/eZREZ/NZ5wTnnVjUp5V4hVfFu/ZeAK0qbsfm5rE8XvhH2ITzpunL2zGnaADz//VV1+dXnfB88YAj2jbFIugbioxThKtUmMxdN38nu4cMY5QIsbpVFDp0anQBt1JqvdLTt6KiPXuJ5XnDFHI5s3paKrk4H0wt82ckRxiF78esXiuRnRT4zvMY3xiuYrfnDBSpCpI/PXauuWe9IzCMy3GreX0ELHImiPG1XmJVKFg4RoZaRLjdA7yYfPrYpwOU8UuMc66x+NGjKvykdqGNdA451KTt7XQ15h1MD+IJWIc8QSKemLcWMb9Q2OPZe8qxuXicxPs2RSixTjd/rpBxLgsFhJj5GWERDFO/OTh2ObvUAB2rcW4JZxS2zcHKZxkCCe6IrRd5zb9KbBoqy6rhq/VZZ2IJMhpbc14oD28DGHndvywqn0We4xKVY0ZNUXHis4V6M4Y4xjbPlDVszhJoM3PbzuZhkKurR1GduZ2ZruuE/egIF9M9G1wLQDbPlsZiXI+hrpc4e0Kpf9Nb3pTEqsYkWb/mH3Ruup70eY+Je4hMc6Mbteq79xRkRbj8ilIIDplQ9i5CaaEHK240HWiahXUk8f+4Fmdk/Anpom7NsXFGJc3uHMTs/vE/k2nnXV2ShTWxDh+UoeYTMyNPsesg/kgh7DOZpsD+2kxbm57zr6wJ5SLiHEmF6aEOKWIKsa12TOvjYMWTjIUS9VCyUXeSA6NLpU8pyYpX8roxr6UDWRhs6HVay4ns+gm0FUAp9/se/SzBVvrm++aAeYSqDKE3UWueqIvQaEPtFnrHirec1XGr20wTqNzrQ+RwwZAIkb9Ny6j7b7vE3uIPWKc76dtp11XVD50zrjWOjAOhbKBrLimXd+GYy5ks1pwwJ/jkbtzxLOuhVkFT1w3CjIHGL8yF3SyXWYJxq994hrotBHjJMtjoKIrxjnyfi7rXXCcvsasg3mwVOPXPiGc2McpiIl3Y6BDL8e4OD79OCGclNDCxH1b1VCi1dcCLHibL+aZwjvFWMqhiCVltKCp2KsIZLYZyI6JE0DuuOOO9Fp1nJ/FPqhC5xNnqjxC5kqdIewuHFPGx8epITYrU5zikqkyfkUffjpGYIyXgeks89kuaAknmlgEeUu4ZkNXKz1/YpzvV4zLCf6+iGc2pyrxYtwUp5TNhaIhbGabgeyYOIpf+y+M381J0Jk72pl153hev/mbvzk9r1N2EFYZv0L3kPd5qBiRFuMULMS4XJ3eFyKUGEcwF+Osj8H86HPMOpiWtRi/9g2TbMJg9iNpOzJdB39PAok1RIzrurddMyGc7ECbFE8EyYU5MDOvKtg2LDpV/L4ETaKoLVuV1dwsIUA1W5JmwyxhntsRlFNRNITVXicobjOQHYshjquToOtk6nP8Ymh2GcJuw/PgcxKMPAcSC9/z2FQZv7rX8gkZZaPYLvhs+3QSCb1EE4ueuOHPm2Im3rMnxvHgsUkR41w3Y3SEZN8p4cnx4mIcbycbFjGOd4Jr630PeUrP0siGsJ57XQm7DGTHQoJ91113pdc8WMwoB+0wE+77zR1intsp2parjF/db8xsMaeuv6khFuuiJHiJcbxf/JoYx9NEjBOPxTjdfgQSXhhE7BzjfNf+HcybPsesg+lYo/HrkIhpYpyuQzFOl7EYx0vSPi4XqsU465XxNfs4BQD+P8bY7FW6dmEfEiGcBKMi0bTRRDaE3WYgO1YypgXOZrjP4+qKXhjXXHPNIirwNpBNDGG34f8lnqj6EU1830SUMaDAu5fqjF/LRrH7VCyK3jXMIy1AbSh6JjDp1I0WLB+iXdkQdpuBbNv7pisqdrfddlt6rWL32te+Nr0O2qPjzHohXo4tiu8yfi0bxQbBodD3mHUwDWs3fg2Wzb/35xv2v7t5HQSD4xQSKihDWKcHwayi9n6eLwIlxVRrrbEZFSEdO2bKh0In0S/+4i+mE0NUgR0Z2kd30Ic+9KFk+un983BZAjYdxC2Cgopll2P7fFeOSCMKaB/UzWBTP6SHDaGE8S5RxP0FhojEOe8lo82ajxG3fffaPmIWld5JOP4sKn4bs0iiTfaDecMb3nDQYy1rwj2lSysbwuZkVkeR71iS7X7RtaDDh+GbjkVxZ8iORM+0kTI4bruPbrpDRjszQYwYpUPL9zn0OIDvUAcjM1T3marhf/Vf/VcpfvzVv/pXN//V8SN4HROf49KU45JBMBZE6dxNZ8zasxEsC8avt95669Hjjz+ejK6NQRqXJ/ITiINgDoRwEoyGE4yMgUBSXjat0zqmA8V8na6F3Hpmo6gxygaQV0yf2FwSTST4EmGiiVGEfVGJtABoj9MOPxcTwW241nlEh9Czjx+LDhPdQsaUXFtimIStb4zNOe+eEJHn2I3OmGv291UJP94bUcf43d/4G38jeYt0hRhEPPH5dOhIVHbxG7/xGylhhg0B061gHTiJigG2Fn9dZmWxMJtJSnQl2+JPNnzjETPEccCeazFOLNLV1Ec3XXC800PsMOLp+TfyNsTJRMZL3v3ud6e4Id5BBx1RuKpLjUgn7vH2MC7mfjsUg9jgMPEM5m46nXy50zdYBsaVndwoRzBaIn79nb/zd1KMi7GcYG6EcBKMgi4AlVjVVQFxW3WOyqxS63g/ybDkwgaQ6GL+uC8RQiLBzFQCTbQhmvQ138dLQEKtc+Nnf/ZnN786byxckjmGd11GdMoYQdAuTqTwPRLD+uqscB998IMfTFX0PJYjiVBJl1RsSxSMD+ky8o9xoiYnBtXhXtQZZbEnuO3yrdCCypwTngPHugXrgCGsrie85jWv2brhE9t+7Md+LMUd8YdnFrNe419+rS9fIOIz0YQJsfcjxh2qKfkQEMAIFbpBdNYR9vs6vcM9QSwhZotVIAbrMLE+GjesQxxi0p19PHR4BsEaIVSLcYprxqzf+MY3bn4nmDu8ON7znvekgoNxVhgjJZjEWE4wV0I4CUZBcLSxlBDkY253IekWRI1+SI5tJG0GJRi6BnSI7IOkW1XOZldC0ad7tJZqybTEeAnH4BGlsgnX1VdfnSrjfeD79l05pUqCqBNnXy8PHhK+O8KUzZL75NWvfvXRT//0Tzc+4ULCo5OJmOP+2qe7xlgGYU+S6mjtOlxjx8DCf+f9BuvBM2/zZ8PX9LvVYfKSl7wkvdZ5IsZ98pOfTLGS8LjPc8g7SkJBtNQBI8YxvAz6Rewg5Pr+xAHC176dQ0xff/mXf/nEqX66LXlPnXPOOUfPfe5z06/twr1jlOh/+9/+tzQuSqwLgjXh3lb86nvMOhgWo4bvf//7U5eQbj0wflVkZOI/hdl2EDQlhJNgcFTjKMrgct52A2dj+uM//uPJuJVniCqaGUgeATpEuiQDTvbhdQFjHX2q2+Y0dSEQZFQ/dMnMGWKGbiCnCxg32acDowojOzYz2jF9fyqlRmTaohr/tre97egTn/hEeq+6ShjAvf71r2992oHkBqpVkhPjMl0Xa+JQbjHVvs+dvAyRh1EotM6/7nWvS6+DdUDMI8TBM9/GdNizoctLi7kEgMCo84sJqDE3Il+X8UEJhedN/JFQVN2XQT/4/ohejogk7OdTCtriOyeYfOpTn0pijHhibFIHYNuRQmsjMdeojwRTESII1oJOZDGu7zHrYFgU6BS+7Adhfy8vYJS+j1l/EIxFCCfB4FQZwralTwNZx9X9g3/wD9JrATsbOPaFrgKz6Daqp5122uZX50sfhrC7YNCqAu40Cl0+qqFNZ1d1GzUxfm1LX0axhCD3YO6KUjEpInm9+eabUyLEHNQ1DtZDnSFsW/o0kCXSEevAa2UJXW9L59RTTz0xAkj48H01FTuaGr+2JYxigzUy5Jh1MAxh/BqshRBOgkHZZQjbFovkPgayjqvjjQHdCvmY2r548skn0zFq4LfRtK16Kly7vgxhdyEhzBVQSd2u9vEuxq9t6cso1iaAGOc9F/8c75towjhS540jTJsYyAbLYZchbFv2NZAl3OaYe9VVVw1+2kvwDIRy35WRLTGO2L+tI7Kt8Wtbwig2WCNDjlkH/RLGr8HaCOEkGIw2hrBt6WIgqzuF1wqGOq5ONwvDK581exfMmb4NYXdB9NLOzpRVVVYlXMJZxP1SZfx65ZVXplGiPjf+fRnFEsjyn2PcgrDDkJNo4voSUmzw5i6kBe1oYwjbli4GsoyHs1eR5/nMM89Mr4PxYFCpg8QIgeROFxEBo4gOta7Gr20Jo9hgTQw5Zh30Rxi/BmslhJNgMLoYwralqYHsGMfVmSNXPYQkirnjnBnKEHYXxBNVCImF78kimgWFbcavZYGlL/oyipXMOn7ZhsFnJEoZTZI0EU3CnHF9dDGEbUtTA1kneRm7g3nxc889N70OxkVXEKH3d37nd1KMM6pnxDR3yPVh/NqWMIoN1sDQY9bB/oTxa7B2QjgJBmFfQ9i2bDOQZSQqwRn6uDoeHMQboxpDdLP0ydCGsNvg02Bsh8AlsdAppEvojjvu6MX4tS0ED+xrFCuJzYKQSrMuAVx33XWdzHCDebOPIWxbdhnIEm9yNx0h2ex4MB3il04PYoXvx/fFl6Ev49e2hFFssHSGHrMO9ieMX4ND4Gv+PJn8d5vXQdAbOkyICNqCh+o2qcPoDp8RZlRFeEwYnRjC/NRYhmTF48RX4Iwzztj8zjwhalnkLGY6I6aoAtjEExWYxhZhsPmyl71s9Pd0+eWXp3tHVaTrqTcSpdzZBK33WvCDdaGqpkvAc+9+Hfto6aeeeirFOMd8F5ki3gb1+H4cCV1EXBPf3DdjQsAR1xgzvuIVrzg677zzNr8TBPOGv5N9CoxZhzA8L+y1rUf2TzBKL8aVjfKDYA3s52IXBBVIyLM3hQ3a2BjPIV4woy0eBaz7RNVCV0rfaB8lmqgizl008d3kEZ0LLrhgEtGEEaLTHoqiiXZyXSeS0CneU+4SsknTMdIF1dyMUzZCNFkn9913XxJN3LNTxDiVPONfnpWiGbZRntwFE0wLYTib9GaMyfDEGVs0gVHHHOO00utYCoK5Y+QtiyY67kI0mQ86S2644Yajt73tbUk0UZQUY8S4EE2CtRLCSdArRmQYFIIh7FTHjGmLJg5oa5eEa4XWHv3AAw8kfxMjIX2ibR/MHOdO/n60/o85ooPid5CvWT5uk5hC2JoK1fpsnCixaIv77UMf+tDmp+MCVbA+jHPlOXuiSdMjgvvG6EUWbJ/3vOclfwz+J3yWzJMbCQnGhwHrXXfdlXyjnNiFbBpMvJ9S2Dr77LOTcbp7pkuMC4IxMT77K7/yK+m1MWsnFQbTw8dNZy3RJI/lGP8jmOg0CYI1Ex4nQa+MYQjbhOJxdYK7WfJdBrJdIcLwUyHQ8DqYKpFqwlSGsKgzfnWOv+9BWzsvAP4rfRzF2YWuRrGuq2NgwchT9cXRe0ahjIgF62EMQ9hd6NQyAuI+00lw0003pTlybDOQDYalzvj1wgsvTKKx74anE1+lXcdKD0UYxQZLwP35lre8JRW/+AXpsJvz3uoQCOPXIAjhJOiRsQ1h66g7rm6bgSzzvL/8l/9y+u/aoo1UosKs7IUvfOHmV+fHVIawjk/VyrnN+JW4YFOkeuG7cRznFIaqXYxiCUHHjh1Lr3/4h384+QhIbP3/BJgldCEFzRjTEHYbEgrPiVFECcXzn//8nQayRMFv+IZv2PwJQZ+4xruMX3031gnHsRPtCfa+t7EJo9hg7vzLf/kvU4wTtzwnYlzErmlRcAvj1yAI4STokbe+9a1JjDDu8PKXv3zzq+Oy67g6M5innHJKOh6Sek41V7X9R//oH6UWaxU4nQZNIQo8/PDD6bUODkfPzpV77703iVsWOf4vQ5jkFtHdo3XTaUPuC5jtd47/C17wgvRzEb9GcHCEr24hldHc4j4m3/3d352EN5s398j3f//3b37nZCSvDIclS04Kcl0hOfnYxz6WEqWo6q4D9wLh8f/9f//fdB9PdRQmkY5Yh2uuuSbdr0XEIPes+9E9TDwhDrsf3aeqt1G57QfxVAcSMc39QWQ1488UOo8gFuF79L//7/97+ofI4rsY+kSdKozr8Jhyf/zFv/gXU2dMEMwBY9ZEE8KvQgbRxHoaTAPj11tvvTUVGRlLM37lM6NTeKpR/CCYkhBOgl6gRmcjPMmjroKxaXNcnQX5B37gB46+53u+J3UFqMBJ9G2AjZHYSBZNF+swmvTFL37x6Ed+5EdSpXeu+Gy/9mu/ll6rhDYdQekCr5J77rnn6B3veMcJl3XXR/cPs9Rtgo1kzxiEaqjkcCrRwegQfwKbN50vVcmNz0Y0+bM/+7PUMXP99denJASSV9UyCauEau6GwcFuiLLGLAh611577dFf+AvjW4QZB8txlgH2D/7gD6bXVXifOqAk8MQTSbJREebHf+kv/aXJRkXWgPjES+Y3fuM3UryD9YYovGvM8LTTTkvfgzgnxhHyu3Y7dkV8EocJ1O5p98kUa3YQlCmOWRNN/tpf+2ub3wnGRGeJbuqPfvSjaexYvOBbKMZNUdAKgrkQwkmwN7oJLHaqmQLrts38UOgYIWLAcXX59IBdUM9VjiXnEmHJhY2k5EQbvMpcHY4EtXHGpZdeOmsfAQug5Em7uPbxIfD9E67cC9kYVRJx5ZVXptGgphtzM7Pa2b/whS+kqqyKOh+HMeHRkyvD3kd5rMmJKkQT15SoYoPHnLOIzh5JKmHNCBcDz2CZGLt65zvfmV6/5jWvmWTjyNQ5+xN5hs8888z0ehdim3ExYjEhUBeUURHdcn7NvR40Q1eimE+EFhtADNZhYh0xYtgERpe6VYirkkQdQmN3K+p24fVl/fa5sjF2EExF3Zh1MB6MX+2ljd0Td2Gcj2AS30cQhHAS9MDUhrD/4//4PyazKuj6cGJLW3htWBzaGMgyyVJ51CVx7rnnbn51foxhCFtn/Mo8s4vooRtIxUNi4TuwYJeFiaGpM4r1+YgmRookO0STqq4YQon/hnBCVCIIBctkakPYj3/842nUDmbKu8QbHSaMixEGsu2pM34955xzWscmHT9EZUetinFG/oyPDj0+WcZ3HkaxwRzYNWYdDIvO2DB+DYLdhHAS7MXUhrASAKdLSGZV8Rg27kNTA1lJVB59ufjii/c+mWcohjaEbWL82gUeDAQp4pXEQheQTiZdQGNRZxRr3tcJQLjuuuu2mtj671XQCGzGlcLgbnlMbQgrsb3jjjvSa+Ku+fKuhIFse5oYv3ZBrNT14ft17X0XY4/0FY1iddBY+4JgbNqMWQf9E8avQdCcEE6CvZjSEFaVjGjS93F1qn7bDGS16UukCCuqdDbRc2UoQ9i2xq9d0OXhz+I1IrFQGVeFGtNbomwUq/vl0UcfTb+nPX+bcSwIarpwsgmj+ypYDr7zKQ1hPbs2tDAScsUVV6TX+xIGsrtpa/zaBV1p1hPiic4038PYo67ZKFYcD6PYYGyMs951113pdZsx62B/xJ1f+ZVfCePXIGhBCCdBZ6Y0hLXZH/q4um0GspJ4XSkXXHDBVh+UKRnCENZ16Gr82gVjUoxXH3nkkfRdE7H8PWNSNIrlvQIbCx0oTSD0EE+8d10/2UA2mD9TGsJ6fgnDTpkw1uHv7xufKwxkn80+xq9dkKDoXDFyKkYwmx7zWPswig2mwqjavmPWQXuy8as9fBi/BkE7QjgJOqE6NZUh7NjH1VUZyBJNJFGOl5yrcNKnIWxfxq9d4L9g7Id44foTb3Z1evQJ7x5JDU8IuN/PPvvs9LoJ7g/dSjYoxD3V/GD+TGkIS6QlmjAh9veKcYSMoQgD2f6MX7tAuCJg6HIhyjtRpHzM9JCEUWwwNkZg7eP6GrMOdhPGr0GwPyGcBJ2Y0hBW8j7FcXXZQJaBmdZ9C/4uA9mp6NMQtm/j1y64z1xj3iISO94tQ1R/q3AtebhkbPLadu+4X1RzJcRnnXXW5leDOTOVIezTTz+dRBMioedLjBvruNpDNZCtMn593etel8azxjKlFlMI1K67WEGwGrPjJ4xig7FwjxFN+h6zDqoJ49cg6I8QToLWTGkIO/VxdY899lj6h2gjwZBQqNJVGchORV+GsEMZv3bFyI7NlTZT/jIqwNuMWfuAWHTs2LH0+vnPf36qxhaNYptC+PnoRz+auk605vuzgvkypSGshML9zQhZQjH2vXJIBrJDGb92xXUnVhkJJMgT48f6/sMoNhiDMcasg2eoMn699NJLw/g1CDoSwknQmqkMYedwXN2dd96Z5t51nvC52GYgO5WKv68h7BjGr13x9xNxnnrqqdR1pEo61AiF5NWxwxIqJpq33HLLs4xi24wLEXncF66txEiVJ5gnUxrCEumIdbjmmmtGHdcos2YD2TGMX7ti/JNw4R+Cjus8logTRrHBkIw9Zn3I6B5zAqB/h/FrEPRHCCdBK6YyhJ3DcXVPPvnk0YMPPpheO91CC7fFv85A1liLjafulLHwd3c1hB3b+LUrEjkjFCqjkswh2sp9fqIJo0adLtdff31KJIpGsbpd2iQ0Ni6EP8Jb2/83GI+pDGGJsjm2XnXVVaOfrlKH67AWA9mxjV+7ctppp6VrLM6JcU7jGqOTMYxigyGZasz6kCgav/LICuPXIOiXEE6CxqhCWfhUG8c0hNXFwVMFUx5XJ6FiruVzZx+ATJWBrI2nREjL/VgGsl0MYX2fUxm/dsV8rnb2L3zhC6kqqzLfl9+KzQbRxHXk60A0yT4HRm5yNdjf3WYMyp+R/18jEGOfDhTsZipD2Pvvv/+EJ5Hn9swzz0yv58SSDWSnNH7tCi8lnTFGGiSbun8IG0MTRrHBEEw9Zr12wvg1CMYhhJOgMVMYwjrNZA7H1TEzU6mEhEpCXUU2kP36r//6E2MZYxnIdjGEnYPxa1d0+qiuSCxcX5uDfY0cXQOiyWc/+9mUpKiKlbtZVN51FOnQ8T236eqRYDpaOQtw7olgPkxhCPvxj388jdfB3Pm5556bXs+VpRnIzsH4tQu6eQjYjmwV44wOGg0do/PPdxhGsUFfzGHMeq2E8WsQjEsIJ0EjpjCEtSl3uoRkdurj6vh9EEKMWDTpeJFMM9dzbLENr+rdkAaybQ1h52b82gX+CsZ2CFMSCx0+xAgdPl0xE+zkHlx33XWV5rPEDzhOsa1RrMQyiz3alaMSNB+mMISVnN5xxx3pNcHVDPoSWIKB7NyMX7sgLusAcZ+4rq7zGWecsfnd4Qij2KAv5jBmvVbC+DUIxieEk6ARYxvCqnQRTeZwXJ3RDQk1LPxNzQNVBs2mj2Eg29QQlvgzV+PXLuj48L75jkgsVL1Vs7r4UhjRePTRR9NrLfzbzF+NBnU1ivXdqCIbNZKQ7CP0BP0whSGs59WmF8ZG+CYtjTkayM7Z+LULz3ve89JaQTz54he/mK7xGGOyYRQb7AsfpLvuuiu9nnLMem2IBWH8GgTTEMJJsJOxDWFtwOd0XJ3PT9G3IF122WWbX21ONpCVbNuE9m0g68/aZQi7FOPXLhh3YeBqBMY9Q6Bq6x/C/+Dhhx9Or20+dJHsoqtRrONFdR85mlhSt0TBam2MbQjrmSUMO2XCOIa/c8nMwUB2KcavXbD2iC9GV8U3ptUvfOELN787DGEUG+yD4sAcxqzXRBi/BsH0hHASbEWiP6Yh7ByPq3NEqM6X8847r5WfRZmhDGS3GcIu0fi1C0ZgjBgRMlxbQlHTLhCbEOaccI+fffbZ6fUu9jGK9b18+tOfTl4nTf++YBjGNoQlnBJNbHz9XWIccWENTGEgu0Tj1y4QpYgZOmp01hHbhz6uOoxigy4YY7WPm8OY9RoI49cgmA8hnARbGdsQVoI/p+PqeIDoDtAZYPHvo+28TwPZbYawSzZ+7YJ71PXjUSJp4/uyq9Ls+jkGFmeddVZrQ1DJTBejWAkzU1BdJ8ardMwE0zCmIezTTz+dRBPinmdQjBvjmNmxGctAdqnGr10RX4iurinRnRg1dDdPGMUGbXCfEE3mMGa9dML4NQjmRwgnQS1jG8LO8bg63Rw2/Vq++26Ntgnex0C2zhB2DcavXSFA2KRpaXVNVZurDF5BUNJNBG3oEq62SFzQ1ijWe5RE+3+MFYT54jSMbQgroXBf6jCTUBjbWivu8aEMZNdg/NoV19SaxCOJ2E5oH/I+CqPYoClzG7NeMgpiCl9h/BoE8yKEk6CWMQ1h53hcHQEi+17o5tAm3TdmVLsayJYNYf2/azJ+7YrPSjB66qmnUveSiml5/ELy6thhSRdjS9evK12NYiUkTDQlQVHJHZ+xDWGJdMQ6XHPNNYOPWcyFPg1k12b82pVTTz31xJgg8cg1HFIwCqPYYBdzHLNeImH8GgTzJoSToBJq91iGsHM9rs6YklMMmKiqmg6JjUYbA9miISxRSxt82fjVaNXSjV+7IkkzfqFKKlktChOuEdGEwaIOleuvvz4lA/vQxShWQqkyJ4mUBI5xzGjwDGMawhoHy/H0qquuGuVUlLnhOnc1kF2z8WtXTjvttHT9xDkxjgA/1NhXGMUGu5jbmPXS0Fmi6/qjH/1oGL8GwYwJ4SQ4CYm7RVA1cGhDWJ0VBArM6bg63Qo26dAe2ddM/i6aGshmQ1h+ASqOazZ+7YpZYO3sjFtdI6KU0R2iSb52RJM+vBC6GsXqFpI4EuiMgjl6NBieMQ1hGQ9nHyKjJGeeeWZ6faiIbU0NZA/F+LUrjDd14RBgJa06e4bojEQYxQZ1zHHMeimE8WsQLIsQToKTGMsQ1tGKcz2ujiGXKqfOhXPPPXfzq+OxzUCW+dpjjz2W/judCodg/NoVXTwqORIL1y4bx0ouVMX6HI/pYhRLKPnsZz+bhBNCJbEnGJ6xDGEZABupg9n0KWLJXNllIPvoo48elPFrF3TqEMsd/SrGGUE09jlUl2EYxQZl5jhmvQTs3cL4NQiWRwgnwbMYyxDWRtnpEnM8rk5ClcdgLr744lan3PRNlYGsRDtzSMavXeCdQPwiOkksXD9cd911taaxXelqFOu/Ua0j1BmxCjO9YRnLEFaCeccdd6TXRFBz6sGz2WYgS/A8NOPXLlgDdIO438Q413Cosb8wig2KzHXMeu6E8WsQLJfhhrqDRUIBhzZc1fohUK1SSSQG2PCNccxxG5jgQUWtqdHnkOheMM/+Pd/zPZtfeQbfkd8L6tHVUTSOJAYOZcxptI3QxnA0P0u7cI/lUZF87wXDkKt80Lkw1IgOATp30xktYewX1GNE0ZpTZfDq12MsZDv8JIxIoHjvDYFxWh0tquSOgw4OEyOmuZvOmHV00+2GuHnFFVek4qS1SNzTRceknOFzEATzJzpOghOMYQg79+PqHPHL0ZxD/AUXXHDCU2QqjH3cc889yfg1z79C5ZW5qepinYFscJz77rsvdRlkGK/Z9Etoh6CLUSxjUgaP3hd/mn3NaoNqxjCENVqnm04MMUbh7wnqKRq/GteBJEJyzkujqYHsoaMzR6wxAiuOWB/6PkIfYRQbGA2b65j1HAnj1yBYDyGcBIkxDGGXcFwdTwIJrHZJs6ZT4XvQAus7ycavNqeEHa3txB2dE9sMZIPjYmDuMHBfG5kgarhuRKkhOoq6GMX6zhglf+lLX0pCok6soF/GMIQ1xkA0sTn254txEv7gZLYZv2r5NwbSxEA2eAYdO4QNXSe8YgjpQ3TXhVHs4WIU1T5ujmPWcyOMX4NgfYRwEiTGMIRdwnF1TCMlr9r4X/CCF2x+dVx0R7hWBJxs/ErIUnnF1VdfnSrm2wxkdT1M6c0yBwhJjoHFWWedlUxA3d+uTTaJJUQNcZxpF6NY4z0EMMm39xv0y9CGsE8//XQSTYhyDJrFuKGOh106RjyaGL/uMpAd67SzJSHWEN5dL/GE0DREp04YxR4evmuiCT8i4pkYx6coeDZh/BoE6yWEk2AUQ9glHFfnpBpVf8KOqqfujTFRTX3b29529IlPfOLoy1/+8gnjV9+JVna/Zoyj3MFQZSD7+OOPH33uc59LHT2HmLwRnY4dO5ZeayWXlGW+4zu+I43CaJ91vRxpOgejWKKOVl7Cnbb75z//+ZvfCfZlDENYCYX7SdyQUMT3dzJMXwkmjgdvavyaDWQZJ5cNZI18EinDUPnZuF5EJsexE9KJ6H3fj2EUe1jMfcx6LoTxaxCsmxBOgqO3vvWtKdnWbvvyl79886v9sZTj6nQn/Omf/mnq4hjTcFW3yLve9a6jD3zgAydOfVF51c6p64UBG3HLost7puqoSb92yimnpKMoVTtUOVS+CUFaqY0NHEqVQ/J68803p8TMiTquWRkVbkLUU089lbqgVE/7Ht3QIk8stOH0newaCyLg+K5y95DKVLA/rj3zPR09nqsh4g+RjliHa665ZjDz4aUifun4IV75PsQiJqME6ipD2CokaZ4hz7RninhCHP7Yxz6WnnUV8Kh+PwOfmDwySKhyffo+lciIIUNr6xYxWlwN1scSxqynRveVEWr//upXv5qMX52kxhicQBwEwToI4eTAGdoQdinH1T355JNHDz74YHrN9bzYLj4UReNXIgdUVY1KmfUnhkii89HIKrO7Rj5sapy0I3GzmVUR9GccioGs60g0YYyos+T666+vNVqVgBndUDGV9A7Rbt7WKNZmi8hIwGtqLBtsZ2hDWIJrjqFXXXXVIP5QS6Vo/OqehjWAKNx1RM73qIuM4EI8IaKEgWw1CgCujTgnxhHX++xADKPYw2AJY9ZTEcavQXBYhHBywEisLYiqdUMYwup24J0Cx9WpMM4VyRUjL9cgz9QPhetdNn6VRFx55ZVpFKe48Xz729+ekgOt19rZmyIBV1k/JANZmxaiievF/4BosksAM3esnZ2Jq6oswYk/RV+0NYr1fvN/byxhqJN/DoWhDWHvv//+JD7D83nmmWem14fONuNXcUl31b6IbT/2Yz+WxOIwkK2HgaeOHyMWkl9dOwSPvgij2HWzhDHrKQjj1yA4TEI4OWCGNIR1JOJSjqtjeKYqCsmVpHsoqoxfX/3qVyezynLCTuTISVk2hG3LoRjIupZEk89+9rMpKVAVa9o9okNH1Uhi4brY9PTZcdTWKFbS98gjj5wQ8nxPQTeGNIR1ApcxOphfP/fcc9PrQ6ep8WtfhIHsdnThEOYdISvGGWU00lk18tkV1ziMYtfHUsasxySMX4PgsAnh5EAZ0hDW5tXpEks5ro63CFHBaMRQXTF1xq+vf/3rk7hRxmkvfBnqDGHbsnYDWbPFTsrBdddd18rslS+CsR2CksRCZw7Boi9zYEIImhrFSvaykKM1OqpX3RjSEFaSeMcdd6TXhEmz7IdOF+PXvggD2e1Yb3SGuG9dD9fnjDPO2Pzu/oRR7PpYypj1mITxaxAEIZwcKEMZwqo4EU2Wclyd1uJ8+orNQVOjwqYQZLYZv9bRxBC2Lf6MNRrIGsV49NFH02ujALtMWKvQCeL74EcisVCtVl3ryw+jrVGs70qF2BiRJGTsE56WzpCGsJ5Lm2cYP+GJdMj0YfzaF2EgW8/znve8FOOJJ1/84hfTtelzPDeMYtcDv6C77rorvZ77mPUYeGbC+DUIAoRwcoAMZQhro7q04+oYeqkeWPwuu+yyza/uTxPj1zqILW0MYduyJgPZ++677+jhhx9Or21idHN0xUgMQ1ljMu5hwlKfHiNtjGIdHaojyNHEEtFtIltwMkMZwnpOCMNOmTD+4M8+VIYwfu2LMJCtxjon7hilFd+YaL/whS/c/O5+hFHsOiDYL2XMemjC+DUIgjIhnBwYEuUhDGGXelydbhPdMeedd14vAkUb49c6uhrCtmXpBrIEQLPGcC+fffbZ6fU+GJMxOkXgcE0IYF06WKpoaxTrXvr0pz+dvE76+GyHwlCGsARGookNtD9TjJOEHxpjGL/2RTaQ5a2ieysMZI97LhE5dArprCOS93V8dhjFLhvjpPZxSxmzHoowfg2CoI4QTg6MoQxhCQVLO66O34iqvoq+DcK+LdxtjF/r6MMQti1LNJB1nRwDi7POOqtX40/PhhEp14AQyG+mrwq6pKWpUazknAGprhPvRzdMsJshDGGffvrpJJoQ0zzLYtzSfYG6MLbxa1+EgeyzEXcIs64FsZyI1FcXThjFLhPfF9FkKWPWQxDGr0EQ7CKEkwNiKEPYpR5Xp7PDBlp7+T7tym2NX+vo2xC2LTbTSzCQJUxlXxrt4BK3viFSmNPXqutaqKK3MZyto41RrE2rhN1/ZxQiDBd3M5QhrITCfaATS0JhlOqQmNL4tS88T2Eg+wyuhfVPJw6RnEDex31dNIqVjBPlg3mzxDHrvgnj1yAImhDCyQExhCHsUo+rI3ZkbwydHVqX26I7o4vxax1DGMK2xd85ZwNZyatjhyVvDCBdp6FQTSdiPfXUU6mbSiW1j7GPNkaxkhDGlhKcqN5uZyhDWCIdsQ7XXHNNb2MNS2BOxq99EQayz3DqqaeeGB8kivnsfQhh2SjW9Q2j2Hmz1DHrvgjj1yAI2hDCyYEwhCHsko+rM7LkZAHVRwZobdjH+LUOIsyQhrBtsYGam4Gsa000YWioI+T6669Pm/IhkVwZ+1A9lTz3JV40NYol6KkCSuwkrn0eIbo2hjCENQ6W4+ZVV13V6ykkc2bOxq994T4JA9mjo9NOOy19bnFOjCOc79tdGEaxy2GJY9Z9EMavQRB0IYSTA0Dia3FUTevLEFYHAvEBSzuuTgeBhABaMZvOt7t++xq/1jGWIWxb5mIga2NDNHGNeBIQTcbyVDDjrJ2doauqLDGpqWdNHW2MYnUgSeYIfUbKHCsaPJshDGHvv//+E35DnskzzzwzvV4zSzJ+7Qux7dANZBmB6i4i0kqideR06cIsEkax82epY9b7EMavQRDsQwgnB0DfhrCOMlzycXXMv1RUdROce+65m1/dTh/Gr3VMYQjblikNZF1voslnP/vZtJlXFRt7ZEX3jQqVxMJntsHaV7hpahRLKPHZCSfEO0JO8Gz6NoRlymt0Dmbcm8aJJbNU49e+OGQDWR02igCOohXjjEQa19x3XNQ1C6PYebLUMeuu6NgM49cgCPYlhJOV07chLFNLp0ss9bg6yVUeibn44ot3Jvx9Gb/WMbUhbFumMJA1f/zEE0+k19ddd10vJq1t4XlAaCMWSSx03ejc0nXTlTZGsYQV15ngZyzs0Iz7ttG3IaxE74477kiviYXm3dfMGoxf++KQDWStbbpE3P8+q8++72hgGMXOkyWPWXchjF+DIOiLEE5WTp+GsGs4ru5DH/pQSvhVvyQHdfRt/FrHHAxh2+I9jmUga/zi0UcfTa+NC2wzUh0a4oXvnjeJxEIlWpVuHy+NpkaxBD7dTtls0fUP+jeE9SzaYMOIyhVXXJFer5E1Gr/2xaEayOpuE7+JJzrcfO59R3vDKHZeLHnMui3u4zB+DYKgT0I4WTF9GsLa9Cz9uDrdHRZRLvIXXHBBpT/HEMavdczNELYtQxvI3nfffSdOPrLR0ZExNcaSGNM+8sgj6VkgGrkv9qGpUSyBhnji79SdNLQx7hLo0xDWvaubTnwwtuDPWyOHYPzaF+6rQzOQlVCKQUZyxRpm3Psc1x9GsfPBKJYOWixxzLopYfwaBMFQhHCyUiSyfRnCruW4Or4FEk/dHeZai2TjVy3rOgnQl/FrHXM1hG3LEAayRD/zyHD/nn322en1HOB38PznPz/5H/i8xLZ9OmGaGsW6jqqFX/rSl5Joqep9yPRpCEv0I5rYZPtzxDiJ8Zo4ROPXvjg0A1lCEcFDV5L1kAC+zzHcYRQ7PUZC7eOWOmbdhDB+DYJgaEI4WSl9GsISYNZwXJ22dEmnlv7iuM2Qxq91LMEQti19Gci6No6BxVlnndWL2WffeK4IcD4fQVE30z7V+qZGsUZSiFISfdfmkOnLEPbpp59OogkRzPMuxg3h1TMlh2782heHZCArBiko+JxiDoFonw6bMIqdjjWMWW8jjF+DIBiLEE5WSJ+GsGs5ru6xxx5L1XrijwqrToihjV/rWJohbFv2MZAlXh07diy91tItuZsrRnaMy2gL9jlV7Lsa10pK3JsSlG1GsQQb7ccEQC31Ol8OkT4NYSUUvj8xQUKxpmsaxq/9c0gGsj4ncUiXDQGc+N31+Qij2GlYw5j1NsL4NQiCMQnhZIX0ZQi7puPqdDCY57dZUxkcw/i1jiUawrZlm4GsjXiVgazk1bHDEjymjK7N3FG5J4A99dRTqStLVbXryEgTo1jijFb33NGjmnZo9GkIS6Qj1uGaa67ZaxxhToTx6/AcioHsqaeeemKUkADnc3UV3cIodlzWMmZdRRi/BkEwBSGcrIy+DGHXdFzdk08+efTggw+m10QTY0xDG7/WsXRD2LbYrJUNZFUvywayvg+iCSNCnRzXX3/9YsxPJU5GRlRSJeH7tKE3MYq1QSRoEgK3mcmulb4MYYmpOVZeddVVe58eMgfC+HV83IdrN5A97bTT0mcS58Q4oniXcbYwih2XtYxZFwnj1yAIpiSEkxUhMe3DEHZtx9UZW2IaZvOgRRhDG7/WsRZD2LZsM5CF+WTXhbBFNFma74J5aoIQc1dVWUJRF3+cJkaxrk3+b4wK7Huqz5LoyxD2/vvvP+Ex5Dk888wz0+ulEsav07N2A1mGojqZjHxIxnXbEELaEkax47CWMetMGL8GQTAHQjhZEX0YwjqCkMEW/tYKjquTIPFDyIxh/FrHGg1h21JlIPvpT386/ZvHxA033LBY00CdNaphEgsJk81cFwGoiVGsRMyRyDaTBFKdKodAH4awTtcyLgdz8Oeee256vVTC+HVerNVAVveMgoMjbcU4o5VGMbt0aroGYRQ7HGsasw7j1yAI5kQIJyuhD0NYx9U5XWINx9Vl41empDBrfvHFFw9u/FrH2g1h25INZG3CGZ3CPLYkY5eB7FxxjxnbUU2VWOioIWoQhNrQxChWApZFGv/tIVTc+jCElazdcccd6TUBz0z8Ugnj1/myVgNZ3Zk6RjxHPofPdcYZZ2x+tzlhFDscaxqzDuPXIAjmRggnK2FfQ9i1HFeni6Fs/IrLLrts0s3ZIRjCtkWHlG4T8OrgybDLQHbu6BBhMMynRGKhyqza19aHo4lRrHuI8GQsgAjVVqBZEn0Ywnr+bMJhjOWKK65Ir5dGGL8uhzUayD7vec9LsZl48sUvfjF9pi5jwWEU2z9rGbN2b4XxaxAEcySEkxWwryGsjcvSj6sz1nDPPfccveMd7zhh/KoFWAJuoZ0ySTo0Q9gm3HfffUcPP/xwem0zpIpELPA91hnILgVjM9r1jdJ4prQXd/Eh2WUU61hQHVU6diTPY5wINRX7GsJ6BnXT6WoybuDPWBph/Lpc1mYga00Vj4z2im9MvV/4whdufrcZYRTbL0R0XbZY6ph1GL8GQTB3QjhZOPsawi79uDqfW1uqlnXVfWTjV2KSDprzzjtvUrHiUA1h6yD0mVmGe/bss89Or1WVtLZXGcjqplChXAo+C2GDt4HPQhCq6hrZRhOjWPe/rh1eJ/k6ro19DWEJcUQTG3H/rxgnWV0KYfy6HtZkIEsEIn7ogLL2ErfbHucdRrH9YMzaPm6pY9Zh/BoEwVII4WTh7GsIu+Tj6ngeeP+OR7RhKBq/2sypxqvE20RM1Q4dhrDPxvVwDCzOOuusSoPPKgNZm2sJhi4MXVFLwDNpNMt7J0zyuWnbGbDLKJYQwOxU14m/y1HOa2MfQ9inn346iSbEK2bQYtyS/HPC+HWdrMVAVjwi3voMRG7iT9vumTCK3Y8lj1mH8WsQBEsjhJMFQxzYxxB2qcfVZePXT3ziE8lsVXsvE7Si8asuD5tRrextW4j7Igxhnw2B69ixY+m1tmwJ4DZsynl3/Nt/+2/TCQ6qksQwHgFLMZAlZJjf14LsM+gOMHbTlF1GsTbIxAG/Z3zD9VoT+xrCSihcdx1LEgpdQEsgjF/Xj2d3DQayPoO1VgcNcZuw3eY5C6PY7ix5zDqMX4MgWCIhnCyYfQxhl3hcXZXxq8qrds6ivwNhJftn6PLQTjwFYQj7DJLXm2++OSWBjBJdjya4Zqeccko69lJ1SlVqaQayugSIZ0899VTq7lJhbTNusssoVuLBbNL1WFPFdl9DWCIdsQ7XXHNN6zGCKQjj18NjDQayp5566omxQmKf99xG4Auj2PYsdcw6jF+DIFgyIZwslH0MYZd2XF2V8asqndEks/5lQcL4Erd//w2TtCkIQ9hn8J0RTRgI6sC4/vrr0+a4DTaGP/ADP1BrIEs4m7OBrKTIuImqqmS+rcCxzSiWMKjiKNmSbHc5HnSO7GMIaxwsx8errrqq06kfYxLGr4H7fMkGsqeddlp6v+KcGEfwbtoVGEax7VnamLXv1Z4ojF+DIFgyIZwskH0MYZd0XJ3PR+CpMn41+lK1sVLVl3xA2+dUs+JhCHscGySiiWthdp9oso83Q52BrPb2uRvImt0m9jB6VZUlAvHdaMIuo1hdTRIsgiGRZqr7vi/2MYS9//77T/gKefbOPPPM9HqOhPFrUEZsW6qBLGNSXVOEXEm9TpqmHZ9hFNucJY1Zh/FrEARrIoSTBdLVENbRgUy4oBNjzsfVbTN+3ZZsMhpTvZU8nnvuuZtfHZcwhD2O741o8tnPfjZtnlXF+hojWaqBrK4ZM90SC+/VxrGpkLTNKPZ5z3teus6EE4IjkWbJdDWEZZRrRA5m5aeKAU0I49dgG0s0kNUZo7jhaFwxzoimMcumY6o+UxjFbmcpY9a6H8P4NQiCtRHCycLoagjruDqnS8z9uLomxq91SLTyeMzFF188SfIchrDPYI75iSeeSK+vu+66VqaoTVmagSyvAqIekUdioVtGx5humV3sMoolpvjshENdOUsxCSzT1RBWwnXHHXek10Q1c/NzJIxfg6Ys0UDWmq17xPPoPXrPTccHwyh2O0sZsw7j1yAI1koIJwujiyHsEo6ra2r8uo0PfehDKXlWqZKITEEYwh7HmMWjjz6aXhs7KBua9olrvCQDWQKHMR3VY4mFCrKqYRMPj21GsYRCHVrZYNE1WRo+UxdDWM+cjTqMulxxxRXp9ZwI49egK0szkNUBJ+4ST3TBeb9NR4rDKLaaJYxZ+77D+DUIgjXzNf9OC0LQCDPoNgBa5SVkNr86DFS7JT3m0Y0kGBXQcqp60mfXAxU/d5vw0GiyENl83HDDDWnO1Hu58cYbZ1WFdy0ffPDBVGXOqK6dd955rRZa34MFWqeHTpwpfA2IP3l06rLLLjvYbpP77rsvjSHAhmnsqqGODPfUk08+mX62+XY/qXbNyUDW++T5Ai3MTU8aYhL7K7/yK+k13btoHmpzretCUv7e9763lUeGja44IdHxXPKnyTHOMiHG6YyRxIlxRuY8o8YG+oJBKmFB/CS+NUkGPXeuI2HYtZhbLUD13P3oe8uoFL/sZS8LA8ygE0Zh3FO6OeB5dD/l0Z65QDy//fbb0+uzzjorjds24SMf+UgaSRGv7XX6Oi3G0e1EdV0t2UvFnkHsE+PEG7FTjLNPyjGOEDQlvu8sDBuznpswbC1T9PJvKGa4H/0TBEGwJkI4qUErPHMzs8W8A2xQCCRtkbSpvHA81zlhY9/F/dwiLxlXiWUI26TbxHF1RBOfRZs/0eT5z3/+5nenRZXMxk+C7TVcG8ltlwoTp3aJok6Pu+++e/Or43LTTTcl3wqt1W9+85s3v3pYFMW9pvfpUOjMcI/puIJk3EZuTmahRRHE3DePiyb4f/y/YkneUGeMfIgXhESVyTp0QGilzjEuX6e2SDTEOO3YOmI8x13ijDjl9BwYzWvSbSIBIpro3PEexLimZpRDIylz//FdyeiGcQ/uGjsMgibwujC6oZAD3ZburzmdIvXwww+fWJPbrAnG9JjjZrPkthB8xTgCuthCYGWs3QX7J50wOnvEON18fQrG2zBmbR9n/2nMOsfIOUBoF+N0mGQUStyDMZITBMEaCeFkg0VWdYRHAHVfp8ZQSOCYRBot0F3RpEWfi7q5Zoaw2r2bcMsttyTPEFUbCYUFfw7oLrHYqmpDEmGhtUHqioTTpuiCCy5I4svYMITN/ipGDQ7x+OHiNWhTXRwaopr7zXHIYLrofrMJnQOeh3yCjPGUJmaoqqaXX355es3P56UvfWl6DYmUk2VUabPnB8S0xx57LAlKjKJVWoeC95LkTYxrejoGAUTFkiGsccJdqB77f4jaKsNi3Fw8QowNuucI3SAGi0vF7qAg6AN7F/da7vLDC1/4whTjJPpzoNiF6JSsJp0xihCKEdCN18Tw2h7APo6oLMYNub11tL7Y5ujkocYiidlEEyKs71KMm8P4r05E91w2wYfvR4wjYAdBEKyVgxdOiCRaw7W4a9ccG9VaIx0Szbqj2VRNLJjg+UF02UUWWuC4ujlUoIg4FluVH2hTt7nb1+BMMshQlkCk62TsEylsXHUDEYIYwh7i8cO8NZygAxtJpwnNCUm2e08LeIZngPvPBnhqJBWSCxBOCCi70Br9wAMPpHGcd7zjHScqfEZsiCkqlL4HcU2M85xMgTZ3x6tKluoSuaJ4dOzYsUabbyM5ugKND4mPBLGpEXPdZzphoM3fPTbXky+C9eCeE0ccS54x1iGZHas7Yhue7zyS62QVououjPkQQhRX8shPGXGO14vuG+vQFChoiXH2cX0dFz3XMWtiiRhHPIEikVHYU089Nf0cBEGwZg5WOFER9I8W9S6YKZb4S1p0jBg3UV1U1c5ts21RlbQAFavH4JtBbFDdaHL8sNngnCBO5fdRxHu30BJOMhJDCQXhaF+0rmrF1SLKU2NsjKbYTEhczWP38ZmWBEPeN73pTUlAYl5oszdXdGq4F4sigg2v5GLqTSnRT3cMdFAZ3dmFrhOfqTzm4z50AoOYxPujLWKa+9nYiyNGc4zTpfKlL30p/dMFYpUYJ6HL2IATHgk+TTtuiCs6Z6DrRIV9SojbOn08CxADxLcmAlgQ9MlTTz2VYlw+0QyeOfejZ3lK8oghrBm7OjWM4IlrxN9XvOIV6XNkCEWeuYceeijFjrbo3LCPY9btuii8GG8W47K/UxecduZ97tPROMcxa+M47itCDhi/uqearFNBEARr4eCEEy3sKrsMEJtAzPCPaqaTDyj/qjfbTCYlGI7GtcAwBnRqBh+BvKnehYqFo+bOPffc1oawkiUnuyD/GVPRl/HrNswv24BBRWps7wCi0CEbwkraXX/ftc4NrdVNjtadmrkayBrDe+SRR9LrJu3pRY8UHRiqf/fcc0/6p4lgko87dVS078/mXIwzTrgNIpnERYxzugcB2iy+100QU1/5ylem56WtIeydd96Zqsu46qqrGh91OgRh/BrMlbkayBIEeCsRLAgCvEO2UTaKFR/8rOOuCf6e7/me70ndbjnGGWPc5cFBQLFPdCiAayjGWTea+qToDBbjmowYlZnTmHUYvwZBEDzDwQgnkncbdBvdbZiR10JqtEXroUW3L1RptZJ+6lOfSl4qf/qnf7r5nWq0q1u8JXVNTNW06NpYgCkkc8gp6Nv4dRu//Mu/nK6n78tI0tgcsiGsqhzRxDNFTHQteE0siTkayDo6/Pd+7/dSgmDTvOuZyVVcsYpgu8ufiYGkGGdjbzxwl1DRBhXiHON09RiR2obPJg7q3GtiCEv4VmWGkTijcVMQxq/BUpibgayuXF1ied0Q43QvbCMbxRJ/CLS7jPrFFc+jGGdt7hNiMVFDzBXjdm2hdaBccskljb0/5jJm7XOKcWH8GgRB8AyrF04szgwrt833a0O3Af/xH//x1Eo+Fhbef/gP/2Gqtm6DR4A2/m1dGozQmJJiyuPqCFQW2z6NX+uQ7Eq2QLToe4O0i0M2hBU2iCYqh8Y5bH6XbAo3JwNZ3RyqslruJQqu7ba5ef5Muk2yEWkV2r3FOILQmNVL702M2+Wv4t5RRd425kakuOuuu9JrIiwj6CkI49dgaczNQPb//D//zySe5E7F/7+9OwGvorr7OH4AC3kBgQIhIIoQIgWBtwKKxaYI1YJpWrXWRrHuxlitdcsLtVpbt2qta8UKWhdcq5Za32pBohYFFEu0KEEFKSBLQAOyuaAV4X1/555JLpN7Q5a7zNz7/TwPj+dMbCUDmTvzn//5HX1+N/SS6t5777UvvrSEJR7dH6mbRksvVRxKBRWGdY1TcUrF7oZoGfGelhIHYZl1rOBXFaD0dyXMn/EAkAgZXThRcOItt9wS9+2E3nbohve4445La1u1tg7VEhu9FdI4Fi1/UKCafq9+QdiuLlnBrw3xWva1zMALJk2VbA+EjV6rrof2THhoDFKArK4DerBQW7iKJiqeqIjip11zGtp+W79v/f513UjnEiQVOVVwUMt3vIcftc9r29FYXSd663nrrbfacbqyjAh+RdgFKUBWS190jWsoG0tf02eNckzi0f9WP4fpznLTcmxd46ILDn4qsqp7JtZLniAssyb4FQAalpGFEy2JUbt79M1BNHVwnHbaaeakk05yR4JBy1oefvhhm2kSL3xRqe2XX355bchburerS3bwazz6fs844wzb+aCdQ7STSyplcyBs9O4IetBNRjdROgUlQHbVqlX2wULXAt1w62fbW1ajTjoVC7VMLBa9cdVSPV0vgkTLBfRwoDer8Sgc9oILLnCz3XcV0981/Z1LJYJfkWmCEiCr//61115rx/7d2HRt0zUu3vJqBcvqWpHqz/490T2ZrnENFXuUzaTiiEddK97W8elYZk3wKwA0TsYVTrQ9pdo+vcwCPxVM9LZSa+qDSg9K6qbQev5YtIxAb/n14aaiiT7sUr1dXSqCXxuiBxmdH/23vFyXVMnmQFgFK3vt3vo50tv/TBWEAFn9HlQ8EYUMKjBWS8T08x8rP0QPPWrxVihhkOmapWtcvGWKag3X96hCi75/Bd2qq0nHUkUPbPrzJ/gVmSoIAbLabtjbaliF3tLSUvv5rvyyWHTf85Of/KTe7oNBo07gu+66a7frRzSdY92rapn1DTfcYI+lepm1Pl90rrXkVgh+BYCGZVThRGvpf/nLX7rZ7tRqqDwMLesIizfeeMPeUHgfatFU+NH3ogJGKrerS2Xwa0POPPNMG4KprpNU30BlayBs9A5PjQkrzhTpDpDVjbe3c47CqxW+GosKeOrU0JKXsNBD02233Vb7pjOavtfOnTvbApHW1usapzydZCP4Fdkm3QGyTz/9dO2Sw4aucfo96T4uDDu3ebT0U8sMY21vrJdg2gBAhfhULrMm+BUAmidjCifKM7npppvcbHd6O6G3GGGljgqFw8aiZUc333xzSgIfUxn82pCKigozZcoU2zKvB/lUthZnayBs9PftvRXMNukMkNXPnv6+xVrCp3BrdaLEyj8KA4Ws6u1yrGwAPVCoaKICsh6oko3gV2SrdAfIqptRXWixCgwqVv/85z+3Xa1hpG2NdY2LLlR41MmoF3sqriR7mTXBrwDQMm2uTGXvc5JovbzeWvppa1S1QGrNaJgpoFIPaWrp9O+cobcV+loyCyfKL9H5VcFC/z21qWt9rt78pOMNrApJejOmtnnd2KWKbiz18KpzoEDYbFmio7d/Ks6J1pP/9Kc/teNsoyKZdt5SCLPyLhTgqm3FV65cabs8krlMTuvlY+WZ6IFGRYUw58zoweHwww+3RWB19/ips0x5BsncKUPBr97W5uqk0xJAdbUp9DkVBRsg3ZSfpC5KFSe0NE7Ld7T7jX42tM143759TceOHd2/nXjKd1NgrN83v/lNe40bPHiwOxI+Om/KyZLoXBnR54kK4irA72lb5pZQsUT3w14H84ABA+xLRRWG6TIBgMYJfcfJgw8+aG6//XY3q6OkdS2pyKSbXq2513r/d955xx2po7cxemuQSOkKfm2Ifi/XX3+9HWv9cDJvNPyyMRBWBQJtO9zQzgfZKJUBsuqkU0ednwp3Wr6SyjDoZNNDhZZb6kHNT8U7FVgSieBXILZUBshOmjTJdjX6aUmodqHJJOoe1DXOf+utfBl1dSZ6OTnBrwCQOKEunKit2nuIjqaALVXW07n9ZrKo20FFkliBY3qISkSoW7qDXxui71EPO/r9RO+8kWzZGAir4oCKJvr7oG1tVYgM09ryVIgVIKubUv1KxPUn3nbDypfx/j5mmjVr1thrnP/ts5Yk6XwkYmtMgl+Bxkl2gKw+Y6LzhDznn39+yneXSRV1D+oap266aHrRp2XI2oK+pQh+BYDEC23hRG96Y21LqQ9zPVxnunhvaPRgoaU9zRGU4Nd49AZMWQ6S6nyRbAuE3bZtm72h1QNmXl6e/f619A2xJSNA9vHHH68NhY2mhwk9VGQyPVBccskl9YKx1c3zxz/+sdlB2AS/As2TjABZdQura9hPReFMDx9XYVjbL3/wwQfuSIQ6TnSNa+5LCoJfASB5Qlk4Wb58ud1Nxb8dpz4c9ICXLdTCql0poiknQEGyTe0MCUrwa0N0kzV79uyULxnJtkBYXRJUNNFDq3YxUSGS4LjGSVSA7Msvv2wzhPy0nXoqt6tMJxU59L2+/fbb7kiEirhaNqcOlKYg+BVomUQGyMbrGM6Gooln2bJl9hq3ceNGdyRCXdPxtmOOh+BXAEi+UBZO9PCgPfKjfetb37Kp5NlEf3Tnnnuuee2119yRCD2kqd2zMZQZog9bLUURtanrg1Zt60FSU1NjzjnnHDv+xS9+0eyumqbSjaKW5qigpEBYhUVmOnU5eEsYlB3Ng2XTqKCrnyltQ+nR31f9XGnJ057oDeQpp5xiw2ejaamc13GVLXQuFGCo5TvRdH1Sca8xFG6pPw/vza6KyvqzGDNmjJ0DaBr9LKl48vzzz7sjkYd9FSLVobgnb775ZszPUgWP66VYNtEyT13jdK8RrayszP5qDBVLdI3zdiRS8KuucYlY1ggAqBO6womq8GoXjaYOgHvuuScrwjr99HClrWG9JQKePb2ZDmLwa0PUzqudRdQefMstt7ijyZdtgbBTp06tzbbRUrgw79aSbs0NkL3ooovq7S6jUFRvZ6NsozBsXeP8O4qpiKRiUjwEvwLJ1ZwAWe0ic9JJJ9W+rPHouqglyNlIncOxQnC1m5B2FYonVvCrzn+27PgHAKkWqsKJ3m7437hqHagebhvzJjdTaUlFrLc0Wtpy2GGHuVlEkINf49GbGOU6KBhXHTYtyY1oimwLhH3kkUdqW7D1pktL39ByTQmQjbVLmIqFusZp2VS2eu6552ynWTQt1VEOjH+bYoJfgdRqSoBsrJdfyknxlsNmq4ceesgWSqLtu+++9hrXrl07dySC4FcASI82V6oXPwQ+++wzGxboZQd49NtP1bKNoFJrrMIo586d645E6G2Q90GqsFd90OqmRetqRUswtDONlqAE+YFCQY6VlZW260N/B1JFHSbr16+3gbCZvkRH2RyPPvqoHWsLyGOPPdaO0XJ6C6jipG6C1YWi4FPd+GoJiQq//fv3t/+eHjpivXVUp0kidlkIM52jHTt22C4Sj2r+69atqy3wKRPl4Ycftg9g3tIedUypc0rLcvwPHwASQ9c2ddN17tzZZtApQFZh6upo7dSpU+31S510/s45fa7fdtttpmPHju5IdtL9mK5b0Z04Cmn/6KOPajs/1Vly77332kK6li+Lrn/aoWfEiBF2DgBIntB0nNx0003msccec7MIFQX0gYGIWNv6nXnmmfahQ2+Dghz82hCte9YD0oQJE2w7bypkUyBs9PdaXFxsl0UgeeIFyP7pT3/abScEUUCs8k4QoZyj6GUBcsUVV9iiis4pwa9AejUUIKsXXf4lOvp8PfLII90su+kzQfc5emETTfl9KkgR/AoA6RWKwol2VTj11FPdLEJvMPThrLZ3ROjthD5IvQKJp2fPnraVM6jBrw1RPoTeRmlJg3YL0hutZMumQFh18lx33XV2PHr0aLs9IpLPHyCruf/n9tBDD7VdT6ijLrof//jHbhaha5u67nSNIPgVCAZ/gKzuT9QVFk15Q5dffrmbQbRzoLdE2NO+fXu7Y6IQ/AoA6dO0/RzTRMGvfgo+pWiyO7XExgqE1Q2LblDuuuuuUBVNxMtiOeqoo1JSNBEtWdFDrFqIFWKXqRSaqU4u0RbPFE1SRzfCCnC+4447bPCrfkb9tIwOu1Pnl3+niS+++MIWnlRcV6GJogmQfipmqltUHSVDhw6td43T52tDAfbZSss69cImmq5vbdq0sS90brjhBoomAJAmgS+caI2sv339iCOOsFvfoT594CpoLZo+dNUqG7YdYRSmqR01RIWTVFAbsdcOq5bZTN1FR1kbKpqou0bBytm6m0G69e7d2y6d08N/NBUBMnl5WEuocLL//vu7WYRyACiYAMGj65gy2PzNzVp2p5c9qE8h+P4Xg+qoY7ccAEivwBdOtNOHHxkMDYu1tMQL/gyTZ5991v5ThSA9XKaCciZEgbCZepOiN38qmqirRm8FVTRRSCnSw3+N08ME17iG+a9xKjx5P7sAgkNBsf77j0GDBjW4lXi20+ey8umirVy50uZjAQDSJ9CFE2219vLLL7tZhJacKEwR8R100EH1tuytqKio3SowDFavXm3mz59vx6nqNlFIqnYCkExdoqO3fiqaaMtWbW+roklubq77KlJt5syZZtWqVW4WoW4TLeVBfNrmdPDgwW4W8cQTT9gOKgDBoSwnhTdH82fWoT4t5fQvT9Y1DgCQPoEunPz1r391ozpaPoE9i/Xg7wVRhoHXbaI3U+r+SDY9cHlvxbTcKVOXSahoooKkKICORP708l/j1G2Sybk6ieT/LNCOFGG6xgHZwH+N02c6S072TNun+69xyiV75ZVX3AwAkGqBLZzoJviZZ55xswh92PKg1zhDhgwxhx12mJtFPP300/XWGQeRkve9wkmquk2yIRB26tSptTdd5eXlbNWaZtotzOtw8qh9vW3btm6Ghuja4M860TUOQDCo07WmpsbNIrQjDBpH56p1691v0/33xQCA1Als4UQPzjt37nSziGOPPdaN0Bj+86UARa8gEWTaSUcFnl69etktcpMtGwJhlaPh7VCkcM3CwkI7Rvp4fx7RuMY1zTHHHONGEQqTXrx4sZsBSCf//YZeTBx99NFuhj3RUh3/NU7FKP+2zgCA1Ahs4eSFF15wowh1mhx66KFuhsbQzkM9evRwswj/eQ2iVHebZHogrIpC06dPt+MTTzzRFBUV2THS6/nnn3ejCG1LvM8++7gZGqO4uNiN6oThGgdkOoXC+ndEVDYRmoZrHAAERyALJxs3bjSVlZVuFsGa2Obxh8S+9NJLZvv27W4WPHqbsnnzZtv1kYrCSaYHwur7mzZtmh3rBuyEE06wY6SX/s598MEHbhbBNa7punXrZgtO0XSNA5BesX4O/fcj2DOF/fuXqHONA4D0CGThJFb41dixY90ITeE/b1oCE+Rwsehuk2RnPWR6IKyKj5MnT7ZjLXlii9vg8P8MtmnTxnaIoen81zjtyPXuu++6GYB08O+I2Ldv33o7YaFxxowZ40YROrefffaZmwEAUiWQhZN//vOfbhTRr18/U1BQ4GZoCgWA+rebXbBggRsFi35fK1eutONUdJtkciCs0ve1g44MGzbMXHzxxXaMYPD/DCpzhlDY5omV1xPUaxyQLWJd49A8XOMAIBgCWThZuHChG0WMHDnSjdAc/mwY/04eQeF1m+gNsj+bJdEyORC2urraFk3UUaOC46RJk9xXEATbtm2zO+pE4xrXfF26dKm3ZXlQr3FANlBAs3ZGjEZGXfPp+qbrXDT/fTIAIPkCVzhZs2ZNve3rhg8f7kZoDv/5U1eHckSCZOnSpbU3AuPHj7f/TKZMDYTVQ7mKJuqkycvLs0WTnJwc91UEQVVVlRvV4RrXMv7zF+scA0gNrnGJ5z9/ixYtciMAQKoErnCiJQZ+Q4cOdSM0R6zzp207g8TbmlXLSpKdNZKpgbDKr1HR5L333jMdOnSwRRP/Mi2kn/9nb++99zYHHHCAm6E5/Nc4FYbXrl3rZgBSyX+NU7ZJu3bt3AzN4b/GBe0eDgCyQeAKJ8uWLXOjCC3ZSPayjUynjBg9SEfTUpWgUIfR7Nmz7TjZ2SaZHAiroon3pm/ixIn1kvgRDP6fvYEDB7oRmivWOVy+fLkbAUglrnGJ5z+HupfxMuEAAKkRuMLJqlWr3Ciif//+boSW8D9E+89zOnnZJirwJDvrIVMDYadOnVq7U0t5ebkNBUYwqSMoGte4ltOytM6dO7tZhP88A0gNrnGJF+scco0DgNQKXOFEwZbR+vTp40ZoCf95DEobu96aRG9BnEyZGgj7yCOP1C51KisrY/eCgOMalxz+8+g/zwCS74MPPrCf69G4xrVc165d6xWHucYBQGoFrnCiD91ovXr1ciO0hP88+gN400VFk+3bt9sOkHHjxrmjyZGJgbAqBE2fPt2OTzzxRFNUVGTHCKatW7fav+/RuMYlhv88vv/++24EIFX893DCNS4xgnofBwDZIlCFk507d9bb7YVwy8Twn0ctVwkCr1Mi2d0mmRgIq+9p2rRpdlxcXGxOOOEEO0Zwxfq54xqXGP7zuGnTJjcCkCqxfu64xiVG9+7d3SgiKPdxAJAtAlU40Vaqfv7WRDSP/zx++umnZseOHW6WHi+99JJZt26dadWqVVK3IM7EQNjKykozefJkOx49erQpLS21YwTbRx995EZ1uMYlhv88xvo8AZBc/p+7tm3bmvbt27sZWsJ/jYv1eQIASJ5AFU70MO/HB25ixDqPsc53KkV3myTz4THTAmG1Zbd20BFt33zxxRfbMYKPa1zy+M+jf0kUgOT77LPP3CiC61vi+M9luu/hACDbtNr1/9w47VavXm2OO+44N4t4+OGH2couAV577TXzk5/8xM0ievfubdq0aeNmqRX9104dJ8mUyv9WKmTa95NN9DC/YcMGN4uYO3duxgQVp9OTTz5prrvuOjczpnXr1mbfffd1MwCpoI6TLVu2uFlkmc7MmTPdDC1x66232jB4z+DBg80DDzzgZgCAZAtcOCxSRw/g6foVLdbXE/krWqyvh+1XtFhf51ewfyF1Yp1/fvGLX8n75UdxP3linW8AQPIEquNEeRdHH320m0Uo/HLIkCFuhuZ69dVXzfnnn+9mETq3HTt2dLPUWb9+vfnd735nx+eee64ZMGCAHSfaggULanfSueiii8z+++9vx2GkH9M777zTbqms7oTzzjuPt+khtHDhQvOb3/zGzSJmz55t9t57bzdDcz3xxBO11xXROb3//vvdDEAqzJgxw9x3331uZuwS2eeee87N0BI33nijefzxx90sskNg9LkGACRXoAonSmP3b0mrh8WRI0e6GZpLO7BMmjTJzSJeeeUVG9yWanfffbdt3R00aNBurfWJpEBYFReUbaJA2LPOOst9JZx0w6Q/L7nyyivN17/+dTtGuGhnp7KyMjeL+Pvf/27y8vLcDM2lQvAdd9zhZsb07NnTPPPMM24GIBW0Rf4111zjZsbk5OSYefPmuRla4qqrrjJPP/20mxlz6KGHmj/84Q9uBgBItkAt1YnV/cDOCInhP4/t2rVLS9Fk69at5tlnn7XjZG5BnEmBsFOnTq0tmpSXl1M0CbFOnTq5UR2ucYnhP4+xzjWA5PJ3zyks9vPPP3cztIT/GkenIgCkVqAKJ3qQ938QsE99YvjPY9euXd0otbSTjpqcevXqZbfRTQYtZ9FbL5kwYUKogzcVBOftPqROhcLCQjtGOKmQ57dx40Y3Qkv4r3GxzjWA5Ir1c8d9XGIE5T4OALJV4MJhe/To4UYRysNAy/nPo/88p0oquk28XBOt//3Od75jx2Gk4s/06dPtWAWgoqIiO0Z4devWzey1115uFvH++++7EVoiKNc4IJvF+rnjPi4x/J8VXOMAILUCVzjRFrnR1qxZ40ZoCf959J/nVKioqDCbN2+2HSDJKpwoy0U5EhLmJTr6PpTZIMXFxaakpMSOEX777LOPG0VwjUsM/3n0n2cAyaduUv9OOlzjWu7jjz+u153INQ4AUitwhRP/zicrVqxwI7TEypUr3SiiT58+bpQ60d0mychXUSCssk1EgbBf+9rX7DhsKisrzeTJk+1Yy5lKS0vtGJmhb9++bhTBNa7ltmzZYjZs2OBmEWHeRQsIq9atW3MflwSxziHXOABIrcAVTvr37+9GEXpTQXhiy6hNVjsWRfOf52TT1sBe8SZZ3SaZEAi7ZMkSc9NNN9nxsGHDzMUXX2zHyBwFBQVuFLF06VI3QnPFOof+8wwgNfz3F1zjWi7WOUz1fRwAZLvAFU5idQksXrzYjdAcVVVVblRn4MCBbpQaXrfJ2LFjk7IuNxMCYaurq23RRJ0zeujzbx+NzOC/xqlTYu3atW6G5vB/RujnPz8/380ApJL//oJ7uJbzn0N9jvjzsgAAyRW4wskBBxxQb2edhQsXuhGaw3/+evbsadchp4relHi/h/Hjx9t/JlrYA2HVVaWiiTpm8vLybNEkJyfHfRWZZMiQIW5Uh2tcy/jP39ChQ90IQKr5r3HajviNN95wMzQH1zgASL/AFU5ESxSiaZkHmk+ZGdGGDx/uRqnhbaerP9dk5I6EPRBW2zOraPLee++ZDh062KJJbm6u+yoyjQpj/pwTrnHN98UXX9S7xh100EFuBCDV9FmvrJNoXOOab/ny5WbdunVuFuG/TwYAJF8gCyeHHHKIG0W89dZbbNnZTFrCogfyaAcffLAbJV9NTY2ZPXu2HScj2yQTAmFVNPGWU02cOJElBlnAf4175ZVX3AhNNW/ePPPll1+6WcTIkSPdCECqaQmJ/2eQa1zzvfzyy25Ux/8ZAgBIvkAWTg477DA3qvPiiy+6EZoi1nmLdX6Txcs26devX1IeZsIeCDt16tTaG8ry8nLz9a9/3Y6R2fw/g1u3bo15c4w9e+mll9woomvXrnScAGnmv8Ypo2P16tVuhqbw38fp+qbrHAAgtQJZONEWa/5wseeee86N0BTPP/+8G0Wo26R79+5ullzqBonegjjRwh4I+8gjj9QuYyorKzOFhYV2jMz3rW99yy7LisY1rum0TMd/3g4//HA3ApAu2krfr6Kiwo3QWFqms2jRIjeLiHVuAQDJF8jCiRxxxBFuFPHmm2+ad955x83QGK+99potLkT79re/7UbJp6LJ9u3bbTfIuHHj3NHECXMgrAo+06dPt2MVfYqKiuwY2cN/jZs5c6b5+OOP3QyN8fe//90GT0ZL5TUOQGz77rtvvTw1XePQNDNmzHCjOlzjACA9Als4ibX7yt/+9jc3QmPEOl/J6PyIx+umSMZ/M8yBsPq9T5s2zY6Li4tNSUmJHSO7+K9xyunwOqjQOP5rXO/evc2oUaPcDEA6+a9xq1atqre0Dg3zX+O+8Y1v2KIUACD1Als42WeffcyYMWPcLOIvf/mL2bx5s5uhIWvXrq33pkIP6Z06dXKz5JozZ45NgW/VqlXCtyAOcyCsdv+YPHmyHavdtrS01I6RfQ499FDTv39/N4vQNQ6N8+qrr9ZrYdf1AEAw6J6jXbt2bhbhdVpiz3Su/Pe8XOMAIH0CWziRY4891o0idu7cWbs8Aw2LdZ785zOZorNNOnfubMeJEtZA2CVLltgddERbCV588cV2jOzl/5lUeCKddY3z2GOPuVGdY445xo0ApFtOTo75wQ9+4GYR8+fPN6+//rqboSH+a1yvXr1S2jUMANhdoAsnCsscPHiwm0U89NBD9qEZ8enh6/HHH3ezCO1ok6p9//UW2MujSfSHfFgDYaurq23RRN0yBQUFZtKkSe4ryGY/+tGP6hUWH3zwQTdCPOo20TbE0Y477jjTo0cPNwMQBMcff7wb1eEat2fqNnnvvffcLEKfFwCA9Al04UT0cBxNuyjce++9boZY7rvvPjeq4z+PyeR1myhroE+fPnacKGEMhN22bZstmqjgl5eXZ4smehMH7LXXXvW6pnSzrB2XEF+sz4ATTzzRjQAERd++fc3RRx/tZhHaen327NluBr8dO3bUu49TgZ1rHACkV+ALJ+pYGDp0qJtFPPHEE/XWtiNCb2KfeeYZN4tQloK2P00FdbuoFVcS3W0SxkDYXbt22aKJHoa1/ayKJrm5ue6rgDEdO3Y0bdq0cbOIu+66i866OJ588kmzcOFCN4tQt0l+fr6bAQiSk08+2Y3q6BqH2KZOnWpqamrcLOK0004zbdu2dTMAQDoEvnAiZ5xxhhvVueOOO9wI0WKdlzPPPNONks/rNhk0aJDtCkmUsAbCqmhSVVVlxxMnTuThDrVUCDz33HPtOva9997bHY349NNPa0OEUWfTpk31rnGtW7eO+RkBIBj0ued/2aFlt3fffbebwbN48eLaXfc8++23nzn11FPdDACQLqEonGj3Ef+yDHUe3H///W4G+cMf/mADSKMpLHHEiBFullxbt27dLRQ2kcIYCKu3Rq+88oodl5eXm69//et2jOymbonLLrvMFkbef/99m9Pz05/+1Bx44IHu34hQ55i3pTcibrnlFrv0Ldo555xjQxMBBNfZZ59tunTp4mYRKpy8+eabbga59dZb3ahOWVmZGwEA0ikUhRM577zz6rWzq1DgLd3Idloz7C8k6S22HshSRQ95WpqihxgVuxIljIGwyqjwHnp106OgY2Q3Lde68cYbzdVXX10bnvz973/ftqxr54lYP6u/+93vzPr1690suyks0SvMegYMGGDOOussNwMQVPHuR3SNQ4S66fyFpLFjx5qioiI3AwCkU2gKJ2pVvOiii9yszm9+8xvz8ccfu1l22rBhgz0PfjpfXbt2dbPkS1a3SdgCYVXk0UOeqNDDTU92UyfWPffcY7ef9jqQlDl0++2322V03jIdZRH5Q5z1v431s51ttNztt7/9rZvVifWZACCYVCAeM2aMm0UsXbrUXHvttW6WvZ577rl6S3SUaXLhhRe6GQAg3UJTOBE9VBx++OFuFrFq1Spz5ZVXull2+vWvf10vSEwP61qmkyoVFRVm8+bNthskkYWTsAXC6vfr3fwUFxebkpISO0Z2+stf/mKXkvz973+3c22vruvVJZdcYovBflrSpS6KaAp8VlZOttqyZUvMa7yKTtpmHUB4/M///I/p1KmTm0U89dRT5qGHHnKz7KMl1rGucTpX++67r5sBANItVIUTufTSS0337t3dLOLFF1/M2nbPq666yixYsMDNIrQFsM5TKkV3myQq+T1sgbCVlZW1gZ5aqlRaWmrHyD5e8OvDDz9sPv/8c7PPPvvYN4d6s7qnrJtYP7sKkH3ggQfcLLsoD0YF8mgqmGj5JoBw6dmzZ8xr3O9///t6S/GywcaNG83ll19uPyeiaQtn7RYGAAiONleGrF1DW7oqoX3mzJnuSMRbb71lvvzyS3PIIYe4I5lPQYl6o+2nHIX999/fzZJPhZunn37ajrUcQX9GiaA3UArSVCCsbrS+8pWvuK8Ej94YXXfddfbv4LBhw1JeuEIw6O+rimfqMNESQnVgqVNKnSR9+/Z1/1bD8vLyTLdu3cy8efPckQj9nOm4P0Q2k+nnaO7cuW4WoXOga59/JyIA4dC/f3/zxRdfmDfeeMMdiVDBWTvypfL+JZ0++eQT23347rvvuiMR6kzUNa5Vq1buCAAgCEJXOBG1uKvV08sL8OihReGkBx98sDuSufR2RgGkfldccYUNE0ule++91+4Oov/ut7/9bXe0ZRQI63VvqCU/yN0m1dXVtmiiB+WCggL7Z7DXXnu5ryIbKPj1j3/8o+0w0RtEUfDrz3/+82btpqTiiLYkXrRokTsSoWJKbm6ufbjIdL/85S/tEkA/FYaz4fsHMpm6xlauXGlWrFjhjkToZ17XP3XOZjIVTfSiyV880s5D2llHL4wAAMESysKJDBkyxC7l8H/oKA/js88+s0GLmUrLkrzA1GhaGuAPl0w2BbvpYVH039fb4ETQjknaTUSBsEHeNUNbo6poot+rOgVUNOncubP7KjKdwlv1919FvjVr1thjCn7V2nSFILZr184ea45vfOMb9v9TRcRo6sBQt8XQoUPdkcyi4rcKTgpL9FOe0xFHHOFmAMJML1pee+01++IlmpbsqLNYvzKRAv1VNIm1FbM6TdRxAgAIntAWTkRvLDZt2mTefvttdyRCH0Z6kPWnt4edloHoLezf/vY3d6TOKaecYgsXqaYMEr1t1/KURK3HVbuut/2wbi78mTZBoQc8FU3UZqvlSfqzIcgte2iZ3A033FC7tbBudrXdpnaOSFTxTA8WWgbmz/iYP3++2bFjR8YtTVTItVrX/d2EouPHH3+8mwEIOy1FUR6YliF6nXqe559/3l5H9ZIsk+h+VdeyZcuWuSN19HmiwjsAIJhCXTiRwsJC+4HrPbx49DD7+uuvm+HDh9dLcA+j5cuX2w9b7bDhpwwFFRhSTQ853nKaM844w/Tu3duOW0JdRNp2dPv27TYQNsjbD2unE/0dE4W7sXwgO6iwp64vPdyrmKngVy0n0y8FHyba+PHj7c326tWr3ZEILU1U0fKb3/xmRiwNU7hyvAcKBeuefPLJbgYgU+Tk5Nj7OP38f/jhh+5ohK6xH330kTnssMPckXBTJ42ucdqB0E/bzgf5fgcAkAGFE1GFXksmFi9e7I5EqOtkxowZ9sFGYWRh9cwzz9hwSX0/fqeffnra9vnXG3e9De/Xr599aEyEsATCTp061e7mJPqzYVvUzJeI4Nfm0m5VKp4qEyCajs2ePdte33SdC6sHH3zQ/OpXv7Ln1W/ixImh2IocQPOoY1MZaeoW/uCDD9zRCN3X6QWFOvrCnPtx22232V87d+50R+qoEE/RBACCLyMKJ6I3Emr79DoAPNri7YUXXrBvMhQaG+SdWfy2bNliuy/uvvtu+2bbTwWTs88+281SS50h6rjQcgHlqiSiMBWWQFhlWjztdhEqKysjcyHDJTr4tbl0Y63rmL+7TtcJFVd1Qx62YGydW+WWTJ8+3R3Z3TXXXGOOPfZYNwOQqVSILioqsvcB/qWJemn05JNP2u7hsC3dUcFdnxW6D/Xr2rWrzTRRxw0AIPha7VJQQwbRA0S8WlCPHj3MeeedZ5eABJ1uEu688077UOSnwEl9j+l8Q6Gclfvvv9++Abrvvvvc0ZbRQ5LCfRUIe9VVV7mjwaLslWnTptmxCkYlJSV2jMyj4Nc///nPtsPEo+62H/3oR3Znr3TR37877rjDzXY3YMAAm3UUhnXyum7oGheLumd0jdNSSwDZ5eabb44ZgC/q7tQ1Lujh2NoVTZ2pyoGLRfc5usZl+u5BAJBJMq5wIm+99ZZdL+rfG98zYsQIm8mhXSuCZs6cOfbByL8NqUc3C8rT0La36aQQzHXr1iWseKDcCK/bRF02Qew2if49FhcXm9LSUjtG5tEyNBVN1LEmahNXwSSVHSYN0XVC1zh/JoBHobJaxqdtPYNGxW0VXf1vlT2HH364vcbpbSyA7PTUU0/Z8PVYS1tEIdynnXZaIAPZVSxRYTjWiy9RkP5ll13mZgCAsMjIwonow/bGG2+0Dz/xjBo1yj70B+HtrB7KH3/88XpLjaIpHPGiiy5ys/TRQ9utt95ql0bpAailO4ho2Y86gfQQqG6gIG4/rOA63cSJdgFIRxgvkk8/h7pmeNtjqvNBBZMg7tClnxetjY/VAu4ZN26cvcYddNBB7kj6qFtL17h4BW352c9+Zh+GAEBB0bqPUydqPD/84Q/tNTrdL5M+++wzW3B/7LHHYubRSfv27e1W9UcffbQ7AgAIk4wtnHheeuklc/vtt8d9uykHHHCAfWBXAGO3bt3c0eRTCJpS1pWXobX+8aj9Xg8UKvQEgd6UKGdB65GV8dFS6rDRQ5WW/fzhD3+wa52DRAG4ymFQgUfbLivEEplF69BVMPHyQ/R3UDfjeqsZdH/9619tJ5QCsuPR31t1Sekap10sUkVhtjNnzrTXuA0bNrij9an9Xtc4dqYC4KcXNLo3aIhyQnSNS/USZoXX6hqn5cvaDTAeFbEvuOCCpOy8BgBIjYwvnHi01vSee+5xs/i0tac6ClSkSMYuFWvWrLFb7Klr45///Kc7GpuCbBX+mqgdaxJBS4hURJDf//73LV6fqyA47Zoh6joJWrJ8dXW1/X71dl9vtJTDksoHTySXCpYqmOhn0qPgVxVN9t57b3ck+JTHomtcQx120qZNG7uMR112WqqYjOUw6ijxrnHxlhx6unfvbouval0HgHj08uuuu+4yFRUV7khsum5rhx4VUnSNU5dHoum69vLLL9sXc7qHaUh+fr4555xzCJEHgAyQNYUTUSaHuhsUvNoY2mJUmQbKCVBXiuZKdW8srW/Vg5keJN5++2271Z4KJ41x4okn2owCPVgEiZYGzJ8/3xaWJk2a5I42X5ADYfUGX0UT/Rnm5eXZ32tubq77KsIsqMGvLaWOmQceeMA8//zz7kjDBg4caHOTdI1TYXD//fdv0oOGdhlasWKFvcYpW0rXuJqaGvfV+NTRc8opp9hrXNu2bd1RAGiYXjjpGrdgwQJ3pGG6h9M1Ttc67xrXlN0VtexG17ilS5faa9wbb7xhPz/2RJsRnHrqqfZeDgCQGbKqcOJZvXq1XYeq9aixtvltiPI89IGoZSUdO3a0O9y0bt3aZqpojevHH39sNm/ebJfhfPTRR+5/1TjqZNB63RNOOCEp3S4tpfOmLZBFRQ4VO1oiyIGw+rFQ0aSqqsp06NDBXH311fbNEcIv6MGviaD28SeeeMLMmDHDHWk8daHoGtelSxf7d1/XOOUZ6Vqpa5yua5s2bbLXOO0c0RQqBB9//PH2YULXTwBoDr3A0TVu7ty57kjj6fqma5F3jVMhRde4HTt22OU2emmiLlNd47REtyn69etnr3G6jwMAZJasLJx49ACgtfd666y3CemiBzetzVVgWJCXgdx99912La9yCLyg1OYKeiCsAum85RvaMjCTHqqzVZiCXxNFb0t1jdPPbWO73ZJBGSa6xukXACSKAmR1jVNenAq66aLlQbqX0a5gAIDMlNWFk2haSvPiiy/atxf6IE42FR+0NEAPbQp/DTq1pmoLZ/110Y4yyoFpiSAHwiorYtasWXZcXl5u10ojvMIc/JpIr732mr3GzZs3z6xdu9YdTZ7hw4fbnx1lqgRxy1AAmUW5SsodUf6IlhEm22GHHWbvhXSNY/t0AMh8FE5iUBaKHjIUAKY1rS0tpKgFVMURdZZoW9ARI0bYzIwwUUvsn/70J9OrVy9z5513uqPNo/Pp5aMELRD24Ycftks5RKGV2jkI4ZQpwa/JoDX72vpc1zgVjRvadawxlFOiDAHvGnfwwQe3eJtyAGguXdeUn6ZrnHbG031dS2hpoa5xQ4YMsde4Qw45xC5jBABkDwonjaB1r3rQ0FtatfnrTYaCXz/55BObk6B8E+1WoYcHrZfVulmFiGrbOe06ozWvykEJM+3so+wWdZ1oSVFLBDUQVh0w6oSRCRMmmJKSEjtGuGRq8GsyKatEhSbvGqcldDqPOq5ldbrG7bXXXvZBQQ8Q6hRTRoAKqQpbbOnuWgCQTMot8a5xyi7Rsh5d45RpomucboV1jdNyaRXWdY1TFoqWdOr6FsTcOQBAalE4wR5p+78pU6bYJQ4qLLRkF4ygBsJG/76Uw1BaWmrHCJdsCH4FAAAAkFrhboNASih0TY466qgWFU30VufRRx+1Y4WoBaVoUllZWVs00Xpliibho8LXueeea5daqWiit4PaAeraa6+laAIAAACgRSicoEELFiwwK1eutGMVTlpCRRMtAVAL7EknneSOppfWPt900012PGzYMBt8i/BQ8Otll11mC19aYqKuqFNPPdUGDmfybjkAAAAAUofCCRrkdZtoqz2t920uBcIqQ0SUHxKEXXSqq6tt0USdMAUFBbWBtQg+rVXXltFXX3117W45Cn696667sm63HAAAAADJReEEcS1dutS+0ZeWdps89thj9p8KhA3CLjoKilPRRB0w2uFIRROFwiHYFOZ3zz332M4gb7ccBb/efvvtNsA423fLAQAAAJB4FE4Q16xZs+w/tYRF2yk3l/IntIuOBGGJjvKQVTRR14J2QVLRRLsgIdgU/HrOOefU7paj4Ncrr7zSXHLJJeyWAwAAACBpKJwgppqaGjN79mw7bkm3SRADYVU0qaqqsuOJEyea/Px8O0YwEfwKAAAAIJ0onCAmL9ukX79+ZuTIkXbcHEELhJ06dWrtEo/y8nIevAOM4FcAAAAAQUDhBPWoSyR6C+Lmig6EVdEk3YGw6ljwlh+VlZWZwsJCO0awEPwKAAAAIEgonKAeFU22b99uu0TGjRvnjjZddCDskUceacfpogKOMjJEu/oUFRXZMYKD4FcAAAAAQUThBPV4XRkt6TYJUiCsfi/Tpk2z4+LiYlNSUmLHCA6CXwEAAAAEFYUT7GbOnDlm3bp1plWrVmb8+PHuaNMEKRC2srLSZmTI6NGjTWlpqR0jGAh+BQAAABB0FE6wm+hsk86dO9txUwUlEHbJkiV2Bx3RlspaAoJgIPgVAAAAQFhQOEGtRYsW1YZxNneZTlACYaurq23RRN0vBQUFZtKkSe4rSCeCXwEAAACEDYUT1PK6TUaNGmX69Oki7mw6AAAfiUlEQVRjx00VhEDYbdu22aKJul7y8vJs0SQnJ8d9FelA8CsAAACAsKJwAmv16tVm/vz5dtzcbpMgBMLu2rXLFk3U2dChQwdbNMnNzXVfRToQ/AoAAAAgzCicwPK6TQYNGmS7RZoqKIGwKppUVVXZ8cSJE01+fr4dI/UIfgUAAACQCSicwC6jiA6FbY4gBMJOnTq1dhlIeXk5D+dpQvArAAAAgExC4QRm1qxZdolLr1697Ja9TRWEQFh1Nej7kLKyMlNYWGjHSB2CXwEAAABkIgonaHG3SboDYVW0UY6GTJgwwRQVFdkxUoPgVwAAAACZjMJJlquoqDCbN2+2XSLNKZykOxBW//1p06bZcXFxsSkpKbFjpAbBrwAAAAAyHYWTLBfdbdK2bVs7bqx0B8JWVlbaHA3REqPS0lI7RvIR/AoAAAAgW1A4yWILFiwwK1eutOPmdJukMxB2yZIldgcdGTZsmF0mguRTdxHBrwAAAACyCYWTLOZ1m4wdO9b06NHDjhsrnYGw1dXVtmiijpeCggIzadIk9xUkixf8es011xD8CgAAACCrUDjJUkuXLrXbxkpzuk3SFQi7bds2WzRRp0teXp4tmuTk5LivItEIfgUAAACQ7SicZClv614tcxkwYIAdN1a6AmG1ZbKKJup+6NChgy2a5Obmuq8i0Qh+BQAAAAAKJ1mppqbGzJ49246b2m2SzkBYFU2qqqrseOLEiSY/P9+OkVgEvwIAAABAHQonWcjLNunXr58ZOXKkHTdWugJhp0yZUrtUpLy8nAf4JCD4FQAAAADqo3CSZdQxEr0FcVOkKxBWnQ8VFRV2XFZWZgoLC+0YiUHwKwAAAADER+Eky6hosn37dtsxMm7cOHe0cdIRCKtCjbI2ZMKECaaoqMiO0XIEvwIAAADAnlE4yTLN7TZJRyCs/pvTpk2z4+LiYlNSUmLHaDmCXwEAAACgcSicZJE5c+aY9evXm1atWpnx48e7o3uWjkDYyspKm7Uho0ePNqWlpXaMliH4FQAAAACahsJJFonuNuncubMdN0aqA2GXLFlid9ARbZespSRoGYJfAQAAAKB5KJxkiUWLFtUGfzZlmU6qA2Grq6tt0URdLgUFBWbSpEnuK2gOgl8BAAAAoGUonGQJr9tk1KhRpk+fPnbcGKkMhN22bZstmqi7JS8vzxZNcnJy3FfRFAS/AgAAAEBiUDjJAqtXrzbz58+346Z0m6QyEHbXrl22aKIOifbt29uiSW5urvsqmoLgVwAAAABIHAonWcDrNhk0aJDtHGmMVAfCqmhSVVVlxyqa5Ofn2zEaj+BXAAAAAEg8CicZTks2mrMFcSoDYadMmVK7nKS8vJyH/CYi+BUAAAAAkofCSYabNWuWXQbTq1cvu61vY6QyEFbdERUVFXZcVlZmCgsL7Rh7RvArAAAAACQfhZMM15xuk1QFwqo4ozwOmTBhgikqKrJjNCxe8Ovvf/97gl8BAAAAIMEonGQwdXJs3rzZdow0tnCSqkBY/XemTZtmx8XFxaakpMSO0bCGgl+bslsSAAAAAKBxKJxksOhuk7Zt29pxQ1IVCFtZWWnzOETLh0pLS+0Y8RH8CgAAAADpQeEkQy1YsMCsXLnSjhvbbZKKQNglS5bYHXRk2LBhdrkJ4lP3zy9+8QuCXwEAAAAgTSicZCiv22Ts2LGmR48edtyQVATCVldX26KJOlsKCgrstsOILTr4VcUmIfgVAAAAAFKPwkkGWrp0qVm4cKEdN7bbJNmBsNu2bbNFE3W05OXl2aJJTk6O+yo8BL8CAAAAQLBQOMlA2oJYtBRmwIABdtyQZAfCajtkFU3URdG+fXtbNMnNzXVfhYfgVwAAAAAIHgonGaampsbMnj3bjhvTbZKKQFgVTaqqquxYRZP8/Hw7RgTBrwAAAAAQXBROMoyXbdKvXz8zcuRIO25IsgNhp0yZUrvkpLy8nEJAFIJfAQAAACD4KJxkEHWPRG9BvCfJDoRVB0VFRYUdl5WVmcLCQjvOdgS/AgAAAEB4UDjJICqabN++3XaPjBs3zh2NL5mBsCrIKLNDJkyYYIqKiuw4mxH8CgAAAADhQ+Ekg3ihsI3pNklmIKz+v6dNm2bHxcXFpqSkxI6zGcGvAAAAABBOFE4yxJw5c8y6detM69at91g4SWYgbGVlpc3skNGjR5vS0lI7zlYEvwIAAABAuFE4yRBetsn48eNNp06d7DieZAXCKq9DO+iItkLWkpRsRfArAAAAAGQGCicZYNGiReadd96x4z11myQrELa6utoWTdTNUlBQYLcdzkYEvwIAAABAZqFwkgG8bpNRo0btMS8jGYGw27Zts0UTdbHk5eXZoklOTo77anYg+BUAAAAAMhOFk5BbvXq1mT9/vh3vqdskGYGwu3btskUTdVq0b9/eFk1yc3PdV7MDwa8AAAAAkLkonISc120yaNAg20UST7ICYVU0qaqqsmMVTfLz8+04GxD8CgAAAACZj8JJiGl5iFc42VO3STICYadMmVK7LKW8vDxrigUEvwIAAABA9qBwEmKzZs2yS2V69eplt/6NJxmBsOqyqKiosOOysjJTWFhox5mM4FcAAAAAyD4UTkKssd0miQ6EVRFGuR4yYcIEU1RUZMeZiuBXAAAAAMheFE5CSt0emzdvtt0jDRVOEh0Iq/+/adOm2XFxcbEpKSmx40xF8CsAAAAAZDcKJyEV3W3Stm1bO/ZLdCBsZWWlzfUQLQ0qLS2140xE8CsAAAAAQCichNCCBQvMypUr7bihbpNEBsIq00M76MiwYcPsspVMRPArAAAAACAahZMQ8rpNxo4da3r06GHHfokMhK2urrZFE3WwFBQU2G2HMw3BrwAAAACAWCichMzSpUvNwoUL7bihbpNEBcJu27bNFk3UuZKXl2eLJjk5Oe6r4UfwKwAAAACgIRROQkZbEIuWywwYMMCO/RIVCKutjlU0UTdG+/btbdEkNzfXfTX8CH4FAAAAAOwJhZMQqampMbNnz7bjeN0miQyEVdGkqqrKjlU0yc/Pt+OwI/gVAAAAANBYFE5CxMs26devnxk5cqQd+yUqEHbKlCm1S1fKy8szoqBA8CsAAAAAoKkonISEOkmityCOJVGBsOrEqKiosOOysjJTWFhox2FF8CsAAAAAoLkonISEiibbt2+3nSTjxo1zR3eXiEBYFV6U/SETJkwwRUVFdhxGBL8CAAAAAFqKwklIeKGw8bpNEhEIq/+PadOm2XFxcbEpKSmx4zAi+BUAAAAAkAgUTkJgzpw5Zt26daZ169YxCyeJCIStrKy02R8yevRoU1paasdhQ/ArAAAAACCRKJyEgJdtMn78eNOpUyc7jtbSQFjlfmgHHdE2x1raEjYLFy4k+BUAAAAAkHAUTgJu0aJF5p133rHjWN0m//73v1sUCFtdXW2LJupaKSgosNsOh4kX/Hr11VcT/AoAAAAASDgKJwHndZuMGjUqZjaHt0SnOYGw27Zts0UTdavk5eXZoklOTo77arAR/AoAAAAASAUKJwG2evVqM3/+fDuO1W2iPA8tUZGmLtHZtWuXLZqoY6N9+/a2aJKbm+u+GmwEvwIAAAAAUoXCSYB53SaDBg2yHSXRWhoIq+UtVVVVdqyiSX5+vh0H2QsvvEDwKwAAAAAgpSicBJSWoniFk1jdJi0JhJ0yZUptJ0t5eXngiw5e8Osdd9xB8CsAAAAAIKUonATUrFmz7HKaXr162e2Bo0UHwk6YMKFJgbDq1qioqLDjsrIyU1hYaMdBRPArAAAAACDdKJwE1J66TUTLd77zne/YcWOo2KJ8EFHBpaioyI6DhuBXAAAAAEBQUDgJIHWEbN682XaS+AsnzQ2E1f9u2rRpdlxcXGxKSkrsOGgIfgUAAAAABAmFkwCK7jZp27atHUtzA2ErKyvN5MmT7VjLfkpLS+04SAh+BQAAAAAEUatdCtJAg1SwWLFihVmzZo0NJ924caPZsmWL+fTTT+1D/s6dO03r1q1Nu3btTIcOHUyXLl3s1r49e/Y0++23n+nXr5/5yle+4v7fGrZgwQJz/fXX27GyPHr06GHHoo4RLbdRIKyCURuTbaJskF//+tf2exg2bJj51a9+5b4SDOqeeeKJJ2ozTPQ9/ehHPyLDBAAAAAAQCBROYlCB5PXXXzeLFi0yb731llm+fLn7SvMNGDDAHHjggbZ7YsSIEbajIhYFoaqYMHbsWHPBBRe4o5FA2IkTJ9rxeeed16hsk+rqals00e47BQUF5pprrjE5OTnuq+ml4Nc///nPtRkmouBXFU3IMAEAAAAABAWFE2fx4sVm9uzZZu7cuba7JNlUSFHgqQokAwcOtMeWLl1qLr30Uju+4YYb7L/j8QoqCoS96qqr3NH4tm3bZosmKlDk5eXZoom6YNJNwa8qmHgZJqLzcPzxx5NhAgAAAAAInKwunOgh/m9/+5uZMWOGWbZsmTuaeupE0Q4369atM/Pmzau3pEbBrl5GyW9/+9s9Zpvoj1RFk6qqKtO+fXtbNMnPz3dfTR8Fv6poouVNouBXdZiQYQIAAAAACKqsLJysXLnS5mroQV75JE2hfBHljuifHTt2tEtflG/y5Zdf2oLARx99ZHfEqampsTkoTdGqVSv7/6klOd/97nftMWWTaGmOltsoEPass86yxxvyu9/9zsyfP9+OtSNNugsTCn6dPn26zYcRLVNSwWTMmDF2DgAAAABAUGVV4WTt2rU2YPWpp55yRxrWv39/uzRGHSEHHHCA6du3ry1sNJaKKCrSqJtFWSnKTNHSmcbQdsGnn3667YZpSiDslClT7HbGUl5ebgoLC+04HQh+BQAAAACEXVYUTtRVMnXqVHPfffe5I/Epb0Nb9o4aNcruipNoCmxVN8icOXN2C0aNRZ0sCkrt1KlTowJhtZWvumikrKzMLv9JB4JfAQAAAACZIuMLJ14+iHbKiUeZIVoGc9RRR9nOjlTZsGGDefbZZ80zzzzT4M49KjZce+215pvf/KY7Up+6UtRNIxMmTLAdK6lG8CsAAAAAINNkbOFEmSPK+vA6MGJRIUIFhoYKEqny4osvmscff9xUVla6I/WddNJJ5pJLLnGzOtHhscXFxaa0tNSOU4ngVwAAAABAJsrIwol2k/nNb35j/v3vf7sjuzvkkEPMGWecYUaOHOmOBId21VHnyBtvvOGO7E4Ficsvv7x2q2IVWq677jo71hKjiy++2I5TheBXAAAAAEAmy7jCibYXvvrqq91sd8osUVaIt2NNkP31r381d955p92hx69t27Z2txwtf9G2w9p5x7+FcbIR/AoAAAAAyAYZVTi5++677a9Y9FB/4YUX2u2Dw2Lbtm3mtttus8WgWNTd0aZNG1NQUGCuueaalHxvBL8CAAAAALJJxhROlGeiDgi/Ll26mEsvvdQceeSR7kj4KGz1t7/9rdm+fbs7UkddNPfff7/Jzc11R5KD4FcAAAAAQDbKiMKJdpx56qmn3KzOwQcfbJevqDMj7FauXGmXICm/xU+76JSXl7tZ4hH8CgAAAADIVqEvnFx//fUxd8455phjzBVXXOFmmUF/VL/85S/NrFmz3JE6P/7xjxMeDEvwKwAAAAAg24W6cHL77bebBx980M3qnH766eb88893s8xz0003mccee8zN6pxzzjnm7LPPdrPmI/gVAAAAAICI0BZOHn30UXPLLbe4WZ1EFQ+CLl7RSB0pxx57rJs1DcGvAAAAAADsLpSFk3nz5pmLLrrIzeqUlpaan/zkJ26W+W699VbzyCOPuFkd7Sw0fPhwN9szgl8BAAAAAIgtdIWTmpoac8opp5gPP/zQHYk44YQTzMSJE90seygw1r9d8X777Wceeugh07FjR3ckPoJfAQAAAACIL3SFk0suucTMmTPHzSLGjh1rbrzxRjfLPspzefXVV90s4qijjrK7DcVD8CsAAAAAAHsWqsJJrFyTvn37mgceeMB06NDBHck+GzduNKeddpr54IMP3JGIWHknBL8CAAAAANB4oSmcrF692mZu7Ny50x2J+OMf/2iGDRvmZtlLga4XXHCBm0VoqY6W4nTr1o3gVwAAAAAAmiE0hZNLL73UPP/8824WoSUq2noYEXfeeae577773CxCS3bUlUPwKwAAAAAATReKwokyTZRtEm3EiBHmrrvucjN4FJz7zjvvuFlEjx49TLt27Qh+BQAAAACgiVq7fwaav4tC1G2C+mKdF+2Yc+GFF9qwWIomAAAAAAA0XuALJzNnzjSLFy92swhtPTx06FA3Q7RDDz3UZpdE27p1q2ndOhQ1MgAAAAAAAiXwT9N/+tOf3Ciibdu25qyzznIzxHLmmWe6UR3/eQQAAAAAAHsW6MLJ3Llzzdtvv+1mESeffLLp2rWrmyGW/fbbz5x44oluFlFZWWn+9a9/uRkAAAAAAGiMQBdOnnrqKTeK0HKTCRMmuBkaEus8+c8nAAAAAABoWGALJ+vWrTMvvfSSm0X88Ic/NF/96lfdDA3p3bu3+e53v+tmETNmzLB5JwAAAAAAoHECWzh59tln3ajOMccc40ZojFjna9asWW4EAAAAAAD2JLCFk3/84x9uFHHQQQeZgQMHuhkaY8SIEaagoMDNIl544QU3AgAAAAAAexLIwsl7771nlixZ4mYRRx55pBuhKb7zne+4UcTrr79uNmzY4GYAAAAAAKAhgSycvPLKK25UZ8yYMW6Epoh13ubPn+9GAAAAAACgIYEsnLz22mtuFDFkyBDTs2dPN0NT9O/f3/Tt29fNIrQ1MQAAAAAA2LNAFk7+9a9/uVHEIYcc4kZojpEjR7pRxMKFC90IAAAAAAA0JHCFk2XLlpmPP/7YzSKGDRvmRmgO//l7//33zfr1690MAAAAAADEE7jCiT8UVoYOHepGaA4tdfKLdZ4BAAAAAMDuAlc4Wb58uRtF9OnTx+y9995uhubo1auX6dq1q5tF+M8zAAAAAACoL3CFk9WrV7tRRL9+/dwILZGfn+9GEatWrXIjAAAAAAAQT+AKJ2vXrnWjiP3228+N0BL+81hdXe1GAAAAAAAgnsAVTjZs2OBGEVpmgpbzb+fsP88AAAAAAKC+QBVO/vOf/5iPPvrIzSK6devmRmgJ/3nctGmTGwEAAAAAgHgCVTjxb0MsnTp1ciO0hP88fv7557ZQBQAAAAAA4gtU4eSzzz5zozrt27d3I7RErPMY63wDAAAAAIA6gSqc7Nixw43q7LXXXm6Eloh1HmOdbwAAAAAAUCdw4bAAAAAAAABBEajCSayuCHI4EiPWeaSbBwAAAACAhgWqcBIrh+PTTz91I7RErPNIfgwAAAAAAA0LVOEk1g46W7dudSO0hP88qmhCxwkAAAAAAA0LVOGkdevW5qtf/aqbRWzYsMGN0BL+89itWzc3AgAAAAAA8QQuHDYvL8+NItavX+9GaAn/efSfZwAAAAAAUF/gCie9e/d2o4jVq1e7EVrCfx795xkAAAAAANQXuMJJ37593Shi+fLlboSW8J9H/3kGAAAAAAD1Ba5wUlBQ4EYRNTU19heab8WKFfV21fGfZwAAAAAAUF/gCieDBg1yozpVVVVuhOaIdf4GDhzoRgAAAAAAIJ7AFU723Xdf06NHDzeL+Ne//uVGaA7/+cvPz6+3exEAAAAAAKgvcIUTGT58uBtF/POf/3QjNMeCBQvcKGLYsGFuBAAAAAAAGhLIwsnIkSPdKOK9994zy5YtczM0xRtvvGE2bNjgZhGHHnqoGwEAAAAAgIYEsnBy2GGHuVGd2bNnuxGawn/eWrVqFfP8AgAAAACA+gJZOOnevbs55JBD3CziueeecyM0hf+8jRkzxuTk5LgZAAAAAABoSCALJ3LkkUe6UcTKlSvNq6++6mZojBdeeKHeVs5HHHGEGwEAAAAAgD0JbOFk/PjxpnXr3X97//u//+tGaAz/+erUqZM9rwAAAAAAoHECWzjp2LGj+f73v+9mEVp2smLFCjdDQ6qqqswrr7ziZhHf+973bMYJAAAAAABonMAWTuQHP/iBG9V59NFH3QgNiXWeYp1PAAAAAAAQX6ALJ0OGDDGFhYVuFvHUU0+Zd999180Qy8KFC+uFwmqJTr9+/dwMAAAAAAA0RqALJ3LSSSe5UZ177rnHjRDLvffe60Z1Yp1HAAAAAADQsMAXTkaOHGkOP/xwN4v4xz/+YXeMQX1PP/10vd2Hvvvd75rBgwe7GQAAAAAAaKzAF07krLPOcqM6d9xxh/niiy/cDLJ161YzefJkN6sT6/wBAAAAAIA9C0Xh5MADDzQTJkxws4g1a9aYm2++2c0gOh+bNm1yswgVTfbff383AwAAAAAATRGKwomcf/75plevXm4WMX36dDNz5kw3y25/+ctfzIwZM9wsIj8/35x77rluBgAAAAAAmio0hZN27dqZiy66yM3qXHvttWbZsmVulp0WLVpkrr/+ejerc/HFF7sRAAAAAABojtAUTuSII44wJSUlbhbx+eefm1//+tfm008/dUeyy4cffmi/f7/TTz/djBo1ys0AAAAAAEBztNr1/9w4NFQUWLx4sZtFFBYWmttuu83NssPOnTvtUpzXX3/dHYnQTkR33nmnmwEAAAAAgOYKVceJ51e/+pXp0KGDm0XMmzfPXH755W6WHSZOnFivaNK9e3dzxRVXuBkAAAAAAGiJUBZOFHp6zTXXuFmdWbNmZU3RQEWTl156yc3qXH311fVCdAEAAAAAQPOEsnAio0ePNpdddpmb1dEuOyoqfPnll+5IZvnkk0/Mz372MzN79mx3pI6KSVqmAwAAAAAAEiO0hRM57rjjzIUXXuhmdVRUKCsrM+vWrXNHMsOKFSvs9zV//nx3pM6ll15qioqK3AwAAAAAACRCqAsncsopp5gLLrjAzeq8+eab5swzzzQvv/yyOxJu//jHP+z3s3TpUnekzqRJk8zxxx/vZgAAAAAAIFFCuatOLI8//ri58cYb3Wx36tLQr7CaPHmyeeCBB9xsd8p0OeaYY9wMAAAAAAAkUsYUTqSiosLurBPrWxo+fLhd1jN48GB3JPgWLlxot1h+66233JE6//Vf/2WuvfZac/jhh7sjAAAAAAAg0TKqcCKLFi0yV111lVm1apU7srtTTz3VnH322bbwEFRbt241d999t+2iiWXAgAHmyiuvtP8EAAAAAADJk3GFE/n444/NddddZztQYvnqV79qTjvtNHPyySe7I8HwxRdfmIcffthMmzbN7p4Ty/e//327m9BXvvIVdwQAAAAAACRLRhZOPE888YS5+eab425NnJuba0pKSswPfvAD06VLF3c09TZu3GiefPJJ+/vdsmWLO7q79u3bm0suucQce+yx7ggAAAAAAEi2jC6cyOrVq83tt99uXnzxRXcktu9973vmqKOOMt/4xjfckeSbN2+eefbZZ+2vhowbN87uHNSzZ093BAAAAAAApELGF048WrZzzz33mBUrVrgjsakLZfTo0WbUqFHm4IMPNh07dnRfaTlll1RWVpr58+ebuXPnmk2bNrmvxPa1r33N5rGMGTPGHQEAAAAAAKmUNYUTjwJXH3nkEbNu3Tp3pGEDBw40Bx54oDnggANM3759Te/evU2PHj3MXnvt5f6N+pRVUlNTY9auXWvee+898+6775p33nnH/rMx+vTpY/NXjjvuOHcEAAAAAACkQ9YVTjzKFNGvJUuWuCNN06lTJ9uNkpOTY1q3bm1zVD7//HMbTLtt2zb3bzXNkCFDzA9/+EMbAAsAAAAAANIvawsnngULFpgZM2bYpTz/+c9/3NHUUejr+PHjTVFRkRk+fLg7CgAAAAAAgiDrCyceLa9RgKyyR1599dU95o+0hJb6KIS2sLDQjB071rRq1cp9BQAAAAAABAmFkziWLl1q3nzzTfPWW2+ZZcuW2VDZHTt2uK82Xtu2bU1+fr4ZMGCAGTx4sPnv//5vm5cCAAAAAACCj8JJE1RXV5v169ebDz/80GzZssV88sknNtdEp1A5JyqSKPekS5cupnv37nb74H322cf9rwEAAAAAQNhQOAEAAAAAAIijtfsnAAAAAAAAfCicAAAAAAAAxEHhBAAAAAAAIA4KJwAAAAAAAHFQOAEAAAAAAIiDwgkAAAAAAEAcFE4AAAAAAADioHACAAAAAAAQB4UTAAAAAACAOCicAAAAAAAAxEHhBAAAAAAAIA4KJwAAAAAAAHFQOAEAAAAAAIiDwgkAAAAAAEAcFE4AAAAAAADioHACAAAAAAAQB4UTAAAAAACAOCicAAAAAAAAxEHhBAAAAAAAIA4KJwAAAAAAAHFQOAEAAAAAAIiDwgkAAAAAAEAcFE4AAAAAAADioHACAAAAAAAQB4UTAAAAAACAOCicAAAAAAAAxEHhBAAAAAAAIA4KJwAAAAAAAHFQOAEAAAAAAIiDwgkAAAAAAEAcFE4AAAAAAADioHACAAAAAAAQB4UTAAAAAACAOCicAAAAAAAAxEHhBAAAAAAAIA4KJwAAAAAAAHFQOAEAAAAAAIiDwgkAAAAAAEAcFE4AAAAAAADioHACAAAAAAAQB4UTAAAAAACAOCicAAAAAAAAxEHhBAAAAAAAIA4KJwAAAAAAAHFQOAEAAAAAAIiDwgkAAAAAAEAcFE4AAAAAAADioHACAAAAAAAQB4UTAAAAAACAOCicAAAAAAAAxEHhBAAAAAAAIA4KJwAAAAAAAHFQOAEAAAAAAIiDwgkAAAAAAEAcFE4AAAAAAADioHACAAAAAAAQB4UTAAAAAACAmIz5PwEHVdHlacLuAAAAAElFTkSuQmCC;" vertex="1" parent="1">
          <mxGeometry x="730" y="142" width="241.04" height="236" as="geometry" />
        </mxCell>
        <mxCell id="nMqSTwhqs5pUrFiOJkPV-1" value="Input" style="whiteSpace=wrap;html=1;aspect=fixed;" parent="1" vertex="1">
          <mxGeometry x="80" y="215" width="90" height="90" as="geometry" />
        </mxCell>
        <mxCell id="nMqSTwhqs5pUrFiOJkPV-2" value="Convolution&lt;div&gt;Layer&lt;/div&gt;" style="shape=cube;whiteSpace=wrap;html=1;boundedLbl=1;backgroundOutline=1;darkOpacity=0.05;darkOpacity2=0.1;" parent="1" vertex="1">
          <mxGeometry x="230" y="213.75" width="120" height="92.5" as="geometry" />
        </mxCell>
        <mxCell id="nMqSTwhqs5pUrFiOJkPV-3" value="Max Pooled Layer" style="shape=cube;whiteSpace=wrap;html=1;boundedLbl=1;backgroundOutline=1;darkOpacity=0.05;darkOpacity2=0.1;" parent="1" vertex="1">
          <mxGeometry x="410" y="223.75" width="100" height="72.5" as="geometry" />
        </mxCell>
        <mxCell id="nMqSTwhqs5pUrFiOJkPV-4" value="Flattened" style="shape=cube;whiteSpace=wrap;html=1;boundedLbl=1;backgroundOutline=1;darkOpacity=0.05;darkOpacity2=0.1;" parent="1" vertex="1">
          <mxGeometry x="570" y="237.24" width="100" height="45.52" as="geometry" />
        </mxCell>
        <mxCell id="nMqSTwhqs5pUrFiOJkPV-9" style="edgeStyle=orthogonalEdgeStyle;rounded=0;orthogonalLoop=1;jettySize=auto;html=1;exitX=1;exitY=0.5;exitDx=0;exitDy=0;entryX=-0.002;entryY=0.495;entryDx=0;entryDy=0;entryPerimeter=0;" parent="1" source="nMqSTwhqs5pUrFiOJkPV-1" target="nMqSTwhqs5pUrFiOJkPV-2" edge="1">
          <mxGeometry relative="1" as="geometry" />
        </mxCell>
        <mxCell id="nMqSTwhqs5pUrFiOJkPV-11" style="edgeStyle=orthogonalEdgeStyle;rounded=0;orthogonalLoop=1;jettySize=auto;html=1;exitX=1;exitY=0.5;exitDx=0;exitDy=0;entryX=-0.002;entryY=0.495;entryDx=0;entryDy=0;entryPerimeter=0;" parent="1" edge="1">
          <mxGeometry relative="1" as="geometry">
            <mxPoint x="350" y="259.74" as="sourcePoint" />
            <mxPoint x="410" y="259.74" as="targetPoint" />
          </mxGeometry>
        </mxCell>
        <mxCell id="nMqSTwhqs5pUrFiOJkPV-12" style="edgeStyle=orthogonalEdgeStyle;rounded=0;orthogonalLoop=1;jettySize=auto;html=1;exitX=1;exitY=0.5;exitDx=0;exitDy=0;entryX=-0.002;entryY=0.495;entryDx=0;entryDy=0;entryPerimeter=0;" parent="1" edge="1">
          <mxGeometry relative="1" as="geometry">
            <mxPoint x="510" y="259.74" as="sourcePoint" />
            <mxPoint x="570" y="259.74" as="targetPoint" />
          </mxGeometry>
        </mxCell>
        <mxCell id="nMqSTwhqs5pUrFiOJkPV-13" style="edgeStyle=orthogonalEdgeStyle;rounded=0;orthogonalLoop=1;jettySize=auto;html=1;exitX=1;exitY=0.5;exitDx=0;exitDy=0;entryX=-0.002;entryY=0.495;entryDx=0;entryDy=0;entryPerimeter=0;" parent="1" edge="1">
          <mxGeometry relative="1" as="geometry">
            <mxPoint x="670" y="259.74" as="sourcePoint" />
            <mxPoint x="730" y="259.74" as="targetPoint" />
          </mxGeometry>
        </mxCell>
        <mxCell id="nMqSTwhqs5pUrFiOJkPV-19" style="edgeStyle=orthogonalEdgeStyle;rounded=0;orthogonalLoop=1;jettySize=auto;html=1;dashed=1;endArrow=blockThin;endFill=0;" parent="1" source="nMqSTwhqs5pUrFiOJkPV-18" edge="1">
          <mxGeometry relative="1" as="geometry">
            <mxPoint x="376.5" y="241.77778795030383" as="targetPoint" />
          </mxGeometry>
        </mxCell>
        <mxCell id="nMqSTwhqs5pUrFiOJkPV-18" value="Batch Normalization, Max Pooling &amp;amp; ReLU" style="text;html=1;align=center;verticalAlign=middle;resizable=0;points=[];autosize=1;strokeColor=none;fillColor=none;" parent="1" vertex="1">
          <mxGeometry x="255" y="151" width="243" height="26" as="geometry" />
        </mxCell>
        <mxCell id="nMqSTwhqs5pUrFiOJkPV-23" style="edgeStyle=orthogonalEdgeStyle;rounded=0;orthogonalLoop=1;jettySize=auto;html=1;exitX=1;exitY=0.5;exitDx=0;exitDy=0;entryX=-0.002;entryY=0.495;entryDx=0;entryDy=0;entryPerimeter=0;" parent="1" edge="1">
          <mxGeometry relative="1" as="geometry">
            <mxPoint x="971.07" y="259.79" as="sourcePoint" />
            <mxPoint x="1031.07" y="259.79" as="targetPoint" />
          </mxGeometry>
        </mxCell>
        <mxCell id="nMqSTwhqs5pUrFiOJkPV-24" value="Output" style="text;html=1;align=center;verticalAlign=middle;resizable=0;points=[];autosize=1;strokeColor=none;fillColor=none;" parent="1" vertex="1">
          <mxGeometry x="1033.07" y="247" width="54" height="26" as="geometry" />
        </mxCell>
        <mxCell id="nMqSTwhqs5pUrFiOJkPV-29" style="edgeStyle=orthogonalEdgeStyle;rounded=0;orthogonalLoop=1;jettySize=auto;html=1;entryX=0.5;entryY=0;entryDx=0;entryDy=0;endArrow=blockThin;endFill=0;dashed=1;" parent="1" source="nMqSTwhqs5pUrFiOJkPV-28" edge="1">
          <mxGeometry relative="1" as="geometry">
            <mxPoint x="846.53" y="184" as="targetPoint" />
          </mxGeometry>
        </mxCell>
        <mxCell id="nMqSTwhqs5pUrFiOJkPV-28" value="Batch Normalization, Dropout &amp;amp; ReLU" style="text;html=1;align=center;verticalAlign=middle;resizable=0;points=[];autosize=1;strokeColor=none;fillColor=none;" parent="1" vertex="1">
          <mxGeometry x="737.03" y="88" width="220" height="26" as="geometry" />
        </mxCell>
        <mxCell id="nMqSTwhqs5pUrFiOJkPV-30" value="&lt;ul&gt;&lt;li&gt;Filters&lt;/li&gt;&lt;li&gt;Padding&lt;/li&gt;&lt;li&gt;Stride&lt;/li&gt;&lt;/ul&gt;" style="text;strokeColor=none;fillColor=none;html=1;whiteSpace=wrap;verticalAlign=middle;overflow=hidden;align=left;" parent="1" vertex="1">
          <mxGeometry x="240" y="306.25" width="100" height="80" as="geometry" />
        </mxCell>
      </root>
    </mxGraphModel>
  </diagram>
</mxfile>
